<svg xmlns="http://www.w3.org/2000/svg">
  <defs>
    <style>
      .cls-1{fill:#ffd100;}
      .cls-2{fill:#2e2a25;}
      .cls-1 {transition:all 1s;}
      .cls-1:hover {
        transform: translate(20px);
      }
    </style>
  </defs><title>Asset 3</title><g id="Layer_2" data-name="Layer 2"><g id="ARTWORK"><path class="cls-1" d="M8.91,37.64a4.58,4.58,0,0,0,3.47-.75c.57-.36,1.18-.8,1.49-1,.54-.27,9.67-2,12.07-13.48S21.33,5.3,20.42,4.34,20.05.56,18,0c-1.64-.41-2.73,2.27-4,2.7S3.94,5,.79,16.28s4.16,17,4.51,17.52c.21.29.55,1,.91,1.58A4.47,4.47,0,0,0,8.91,37.64Z"/><path class="cls-2" d="M14.35,32.85a12.21,12.21,0,0,0,1.09-.71A26.82,26.82,0,0,0,18.07,30a17.94,17.94,0,0,0,1.57-1.62c.56-.58,1-1.29,1.53-2,.24-.36.44-.75.67-1.13l.34-.58c.1-.2.17-.41.26-.62L23,22.81l.32-1.33.18-.66c0-.22,0-.45.07-.68l.13-1.35c0-.9-.11-1.78-.15-2.64-.21-.84-.38-1.66-.54-2.44s-.53-1.46-.77-2.12l-.35-.95c-.12-.3-.28-.56-.4-.82L20.78,8.5l-.59-1.17,0,0,.66,1.12.76,1.29c.14.25.31.51.46.8l.4.94c.26.66.61,1.35.86,2.13L24,16.07c.06.89.19,1.81.2,2.74l-.12,1.41c0,.24,0,.47-.07.71l-.18.69L23.5,23l-.56,1.3c-.1.21-.18.43-.28.64l-.36.59c-.24.39-.46.79-.71,1.15a19.75,19.75,0,0,1-1.63,2,18.35,18.35,0,0,1-1.66,1.59,21.88,21.88,0,0,1-2.79,2,12.31,12.31,0,0,1-1.14.64Z"/></g></g></svg>
