<svg xmlns="http://www.w3.org/2000/svg" viewBox="0 0 895.51 395.81" id="intro_lemons">
  <defs>
    <style>
      .\35 73a7001-2e6b-4939-ad6e-4175c6c39d12{fill:none;}.\39 971e6cf-643f-4e44-90f7-3f0bfd8b22c1{clip-path:url(#8130c237-785b-4c09-8abc-b7f8e6315f87);}.\32 3e4d4b5-c98b-4651-946b-5f3217e22699{fill:#ffdb00;}
    </style>
  </defs>
  <g id="4c1e2f47-c140-4ade-8d1c-fbb5105bef48" class="9971e6cf-643f-4e44-90f7-3f0bfd8b22c1" data-name="Layer 2" transform="scale(1.2) translate(-89.55 39.581)">
    <g id="89579918-c769-416f-a3c4-29b73206b75a" data-name="Layer 377">
      <g id="c4b8a40d-a654-4408-88c5-0b25bed0a5a1" data-name="Layer 163">
        <path id="1047958c-f2e8-411c-823f-a3b9d70405e7" d="M302.72 221.05a2.29 2.29 0 0 1-1.36 1.2 4.5 4.5 0 0 1-1.48.25 14.57 14.57 0 0 1-3 2.9 8.65 8.65 0 0 1-2 1 4.1 4.1 0 0 1-1.1.21 4.42 4.42 0 0 1-1.1-.06v-.07a6.06 6.06 0 0 0 3.92-1.46 17.16 17.16 0 0 0 3-3 4.49 4.49 0 0 0 1.55-.19 2 2 0 0 0 1.19-.95 3 3 0 0 0 .32-1.52 5.45 5.45 0 0 0-.28-1.55 5.59 5.59 0 0 1 .47 1.56 3 3 0 0 1-.24 1.71m-13.48-17.91c-11.56-2.39-17.24 4.7-18.2 5.62s-3.8.39-4.32 2.47c-.41 1.65 2.29 2.76 2.73 4s2.28 10.16 13.66 13.32 17.13-4.25 17.62-4.61c.29-.21 1-.56 1.59-.92a4.51 4.51 0 0 0 2.26-2.74 4.64 4.64 0 0 0-.76-3.5c-.36-.58-.81-1.19-1-1.5-.27-.54-2-9.77-13.6-12.16" class="23e4d4b5-c98b-4651-946b-5f3217e22699" data-name="Layer 265"/>
        <path id="65eddcfc-701e-4883-a400-4bc933f11e0d" d="M324.78 187.26s.57.11 1.44.2a12.68 12.68 0 0 0 3.19-.06 9.82 9.82 0 0 0 3-.94 6 6 0 0 0 1.21-.8 4.94 4.94 0 0 1-1.13 1 7.22 7.22 0 0 1-1.38.68 10.6 10.6 0 0 1-1.71.44 13.58 13.58 0 0 1-1.76.09 9.66 9.66 0 0 1-1.51-.18 7 7 0 0 1-1-.27l-.39-.12zm-10.53-6.86c.46.88 2.75 7.22 11.44 8.31s12.12-5 12.44-5.27.67-.52 1.07-.85a3.35 3.35 0 0 0 1.37-2.25 3.44 3.44 0 0 0-.93-2.49c-.33-.39-.72-.79-.87-1-.26-.37-2.54-6.95-11.28-7.46s-12.15 5.3-12.76 6.07-2.75.69-2.91 2.28c-.13 1.26 2 1.78 2.43 2.65" class="23e4d4b5-c98b-4651-946b-5f3217e22699" data-name="Layer 264"/>
        <path id="9da512ca-b92d-431a-91d4-921a0f6fb776" d="M393.73 234.94l1.08-.46 1.33-.76a13.33 13.33 0 0 0 1.49-1 14.46 14.46 0 0 0 1.55-1.3 18.68 18.68 0 0 0 1.51-1.55c.5-.54.93-1.16 1.4-1.74a29.13 29.13 0 0 0 2.31-3.74 30.1 30.1 0 0 0 1.55-3.51 22.72 22.72 0 0 0 .78-2.6c.09-.32.1-.56.14-.73s0-.27 0-.27h.1v.26a5.29 5.29 0 0 1 0 .81 16.44 16.44 0 0 1-.5 2.74 23 23 0 0 1-1.35 3.7 29.49 29.49 0 0 1-2.27 3.93c-.51.59-1 1.22-1.51 1.77a19.27 19.27 0 0 1-1.61 1.56 10.24 10.24 0 0 1-1.68 1.26 14.06 14.06 0 0 1-1.62.94 11.56 11.56 0 0 1-2.61 1c-.65.18-1 .25-1 .25v-.09l.95-.4m-18.84-34.25c-17.12 7.9-17.74 22.4-18.12 24.49s-4.52 4.11-3.23 7.28c1 2.52 5.54 1.37 7.29 2.57s12.5 10.9 30.1 4.16 18-21.72 18.32-22.64c.17-.55.75-1.66 1.17-2.69a7.23 7.23 0 0 0 .33-5.66 7.36 7.36 0 0 0-4.26-3.79c-1-.4-2.16-.76-2.66-1-.86-.43-11.82-10.62-28.93-2.72" class="23e4d4b5-c98b-4651-946b-5f3217e22699" data-name="Layer 263"/>
        <path id="b9ea0194-27be-4d18-9d15-74348bf9da3c" d="M308.69 204.08h-.49l-1 .06-1-.09h-.48l-.46-.11c-.31-.08-.61-.13-.9-.22a13.36 13.36 0 0 1-1.63-.65 12.7 12.7 0 0 1-1.38-.75 14.88 14.88 0 0 1-1.9-1.4 8.18 8.18 0 0 1-.65-.61 8.23 8.23 0 0 0 .69.56 18.4 18.4 0 0 0 2 1.26 12.28 12.28 0 0 0 1.39.68c.49.24 1.05.38 1.61.59.28.08.58.13.88.2l.45.1h.46l.93.08.93-.07h.47l.46-.1.91-.2c.59-.18 1.14-.45 1.7-.65s1-.6 1.48-.87.84-.66 1.23-.95l.54-.46c.17-.14.31-.3.45-.43l.73-.72.64-.63-.6.67-.68.77c-.14.15-.27.31-.43.47l-.53.46c-.38.31-.76.69-1.21 1l-1.5.94c-.57.23-1.14.51-1.75.71l-.95.22-.48.11m10.09-5.85c.44-.79 2.39-1 2.3-2.5-.07-1.16-2.05-1.31-2.6-2s-3.56-6.1-11.6-5.79-10.27 6.31-10.52 6.64-.53.57-.84.93a3.08 3.08 0 0 0-.91 2.24 3.13 3.13 0 0 0 1.21 2.11c.35.3.77.6.94.77s3.32 5.9 11.32 5 10.25-6.62 10.69-7.41" class="23e4d4b5-c98b-4651-946b-5f3217e22699" data-name="Layer 262"/>
        <path id="fceddf11-2223-4d44-a9cf-45b2618d67d8" d="M350.11 211.08a20.22 20.22 0 0 1-.39 2.79 15.87 15.87 0 0 1-.95 2.67 7 7 0 0 1-.63 1.14 8.63 8.63 0 0 1-.67 1 7.29 7.29 0 0 1-1.22 1.24l-.49.42.44-.47a8.71 8.71 0 0 0 1.08-1.31 8.57 8.57 0 0 0 .6-1 9.16 9.16 0 0 0 .56-1.13 15.51 15.51 0 0 0 .86-2.61 21.45 21.45 0 0 0 .54-5.13 18.9 18.9 0 0 0-.16-2.34 14.36 14.36 0 0 1 .39 2.35 17.18 17.18 0 0 1 0 2.45m1.7-4.77c0-.42.25-1.33.38-2.14a5.37 5.37 0 0 0-.74-4.15 5.46 5.46 0 0 0-3.74-2c-.8-.12-1.7-.17-2.1-.27-.7-.16-10.37-5.61-21.37 3.08s-8.94 19.27-8.85 20.85-2.52 3.73-1.04 5.73c1.18 1.64 4.24 0 5.71.58s10.92 5.7 22.47-2.24 9.27-18.83 9.32-19.55" class="23e4d4b5-c98b-4651-946b-5f3217e22699" data-name="Layer 261"/>
        <path id="91846ca3-cae3-4f5a-9565-b0c094089df5" d="M332.22 253.48a12.17 12.17 0 0 0 2.2-2.15 9.38 9.38 0 0 0 1.5-2.66 5.72 5.72 0 0 0 .31-1.35 4.7 4.7 0 0 1-.14 1.43 6.87 6.87 0 0 1-.52 1.38 10.13 10.13 0 0 1-.9 1.44 13 13 0 0 1-1.17 1.22 9.34 9.34 0 0 1-1.18.87 7 7 0 0 1-.91.5l-.35.17s.48-.3 1.14-.81m-16.56 2.77c.75 1 2.57-.07 3.47.24s6.74 3.19 13.55-1.78 5.19-11.44 5.2-11.87c0-.25.12-.8.18-1.29a3.19 3.19 0 0 0-.54-2.46 3.34 3.34 0 0 0-2.31-1.11c-.49-.05-1-.07-1.28-.12-.43-.08-6.41-3.15-12.87 2.26s-5 11.7-4.89 12.64-1.46 2.3-.52 3.5" class="23e4d4b5-c98b-4651-946b-5f3217e22699" data-name="Layer 260"/>
        <path id="56f4fe82-1963-44ab-a7cd-e471c1732dcb" d="M528.84 206.61a17.16 17.16 0 0 0 2.31-3.65 13.36 13.36 0 0 0 1.21-4.14 8.16 8.16 0 0 0 0-2h.05a6.74 6.74 0 0 1 .26 2 10 10 0 0 1-.27 2.07 14.51 14.51 0 0 1-.78 2.26 18.32 18.32 0 0 1-1.21 2 13.26 13.26 0 0 1-1.33 1.58 9.77 9.77 0 0 1-1.08 1l-.42.35s.55-.56 1.3-1.48m-21.59 9.05c1.32 1.08 3.46-.91 4.78-.77s10.13 2.25 17.82-6.75 3.46-17.38 3.34-18c-.07-.35-.08-1.14-.15-1.83a4.52 4.52 0 0 0-1.51-3.22 4.6 4.6 0 0 0-3.48-.8c-.68.08-1.42.23-1.77.24-.6 0-9.67-2.3-16.75 7.19s-3.1 17.66-2.68 18.93-1.27 3.62.39 5" class="23e4d4b5-c98b-4651-946b-5f3217e22699" data-name="Layer 256"/>
        <path id="ca1cd77b-64f2-4679-a1d5-503dd10c1ece" d="M483.05 237.09a14 14 0 0 1-2.24 1.91 7.65 7.65 0 0 1-2.74 1.18 4.51 4.51 0 0 1-1.5.09 4.65 4.65 0 0 1-1.42-.32v-.09a6.2 6.2 0 0 0 1.38.05 5.92 5.92 0 0 0 1.36-.26 8.87 8.87 0 0 0 2.44-1.3 16.93 16.93 0 0 0 3.77-4.06 5.75 5.75 0 0 0 4.22-2.95h.08a5.82 5.82 0 0 1-1.53 2.38 5.74 5.74 0 0 1-1.22.87 3.63 3.63 0 0 1-1.11.38 18.27 18.27 0 0 1-1.56 2.11m2.67-.45c.35-.25 1.19-.67 1.9-1.1a5.39 5.39 0 0 0 2.7-3.27 5.55 5.55 0 0 0-.91-4.19c-.43-.69-1-1.42-1.16-1.8-.33-.65-2.44-11.68-16.27-14.54s-20.62 5.62-21.77 6.72-4.55.46-5.17 3c-.49 2 2.74 3.3 3.27 4.8s2.73 12.15 16.33 15.93 20.49-5.08 21.07-5.51" class="23e4d4b5-c98b-4651-946b-5f3217e22699" data-name="Layer 255"/>
        <path id="fd0faa6c-ac46-4e7a-9487-b4be6a1f4f11" d="M567.63 213.26a17.19 17.19 0 0 0 1.64-4 4.52 4.52 0 0 0 1.35-.78 2 2 0 0 0 .73-1.34 2.94 2.94 0 0 0-.29-1.53 5.46 5.46 0 0 0-.86-1.32 5.56 5.56 0 0 1 1 1.26 3 3 0 0 1 .44 1.67 2.3 2.3 0 0 1-.79 1.63 4.5 4.5 0 0 1-1.27.81 14.59 14.59 0 0 1-1.67 3.85 8.71 8.71 0 0 1-1.45 1.7 4.13 4.13 0 0 1-.93.62 4.48 4.48 0 0 1-1 .37v-.05a6.08 6.08 0 0 0 3-2.87m-11.06 8.5c11.71-1.52 14.15-10.59 14.46-11.11.19-.31.7-.9 1.11-1.47a4.52 4.52 0 0 0 1-3.4 4.63 4.63 0 0 0-2.06-2.93c-.56-.39-1.21-.78-1.48-1-.46-.39-5.66-8.21-17.24-5.9s-14.07 11.05-14.6 12.27-3.36 1.84-3 4c.26 1.69 3.18 1.65 4.07 2.63s6 8.48 17.74 7" class="23e4d4b5-c98b-4651-946b-5f3217e22699" data-name="Layer 253"/>
        <path id="38efc65a-ccc5-4ea5-91e5-7fa134b922d2" d="M497.04 185.56a5.47 5.47 0 0 1 1.48.63 2.92 2.92 0 0 1 1.13 1.26 2.26 2.26 0 0 1 0 1.79 4.46 4.46 0 0 1-.72 1.24 14.38 14.38 0 0 1 .27 4.13 8.57 8.57 0 0 1-.5 2.14 4.07 4.07 0 0 1-.53 1 4.39 4.39 0 0 1-.73.8 6 6 0 0 0 1.37-3.9 17 17 0 0 0-.36-4.2 4.46 4.46 0 0 0 .83-1.3 2 2 0 0 0 0-1.5 2.9 2.9 0 0 0-.94-1.2 5.33 5.33 0 0 0-1.35-.77zm3.55 5.23c0-.35.2-1.11.31-1.78a4.46 4.46 0 0 0-.64-3.44 4.53 4.53 0 0 0-3.12-1.63c-.66-.09-1.41-.13-1.74-.21-.58-.13-8.65-4.61-17.73 2.67s-7.32 16.06-7.24 17.37-2.1 3.13-.86 4.84c1 1.36 3.52 0 4.75.45s9.1 4.67 18.65-2 7.59-15.69 7.63-16.29" class="23e4d4b5-c98b-4651-946b-5f3217e22699" data-name="Layer 252"/>
        <path id="ad2128c3-a11a-42b8-b755-5533191c5de9" d="M536.31 174.6a3.23 3.23 0 0 1 .07.94 1.73 1.73 0 0 1-.35.94 1.34 1.34 0 0 1-.93.51 2.63 2.63 0 0 1-.88 0 8.49 8.49 0 0 1-2.09 1.26 5.06 5.06 0 0 1-1.26.32 2.4 2.4 0 0 1-.65 0 2.59 2.59 0 0 1-.62-.17 3.55 3.55 0 0 0 2.41-.34 10 10 0 0 0 2.11-1.32 2.64 2.64 0 0 0 .91.08 1.17 1.17 0 0 0 .8-.39 1.71 1.71 0 0 0 .38-.82 3.15 3.15 0 0 0 0-.91zm-1.78 3.28c.19-.08.64-.19 1-.32a2.63 2.63 0 0 0 1.63-1.27 2.68 2.68 0 0 0 0-2.08c-.13-.37-.31-.78-.36-1a9.7 9.7 0 0 0-6.2-8.58 10.7 10.7 0 0 0-11.07.9c-.66.4-2.21-.26-2.77.86-.44.89 1 1.85 1 2.61a10.59 10.59 0 0 0 6.17 9.28 9.78 9.78 0 0 0 10.61-.4" class="23e4d4b5-c98b-4651-946b-5f3217e22699" data-name="Layer 250"/>
        <path id="cf77fe27-dccb-4625-811d-1dbb6e50e1bb" d="M638.11 161.76a14.47 14.47 0 0 1-.78 2.26 18.39 18.39 0 0 1-1.21 2 13.16 13.16 0 0 1-1.33 1.58 9.65 9.65 0 0 1-1.08 1l-.42.35s.55-.56 1.3-1.48a17.18 17.18 0 0 0 2.31-3.65 13.35 13.35 0 0 0 1.21-4.14 8.13 8.13 0 0 0 0-2h.05a6.74 6.74 0 0 1 .26 2 10 10 0 0 1-.27 2.07m.64-12.59a4.53 4.53 0 0 0-1.51-3.22 4.6 4.6 0 0 0-3.48-.8c-.68.08-1.42.23-1.77.24-.6 0-9.67-2.3-16.75 7.19s-3.1 17.66-2.68 18.93-1.27 3.62.39 5c1.32 1.08 3.46-.91 4.78-.77s10.13 2.25 17.82-6.75 3.46-17.38 3.34-18c-.07-.35-.08-1.14-.15-1.83" class="23e4d4b5-c98b-4651-946b-5f3217e22699" data-name="Layer 249"/>
        <path id="eaef950f-5f12-4937-a149-230a7c7dcf18" d="M574.93 191.62l1.08.26 1.25.29 1.65.19a14.39 14.39 0 0 0 2 .07 15.63 15.63 0 0 0 2.18-.14 19.91 19.91 0 0 0 2.31-.38c.79-.14 1.55-.41 2.34-.61a31.62 31.62 0 0 0 4.41-1.79 32.9 32.9 0 0 0 3.58-2.03 24.49 24.49 0 0 0 2.35-1.77c.28-.23.45-.43.59-.55l.17-.24h.09l-.13.26a5.82 5.82 0 0 1-.54.69 17.68 17.68 0 0 1-2.19 2.08 24.86 24.86 0 0 1-3.55 2.37 32 32 0 0 1-4.51 2c-.82.19-1.62.44-2.45.57a20.94 20.94 0 0 1-2.41.33 11.05 11.05 0 0 1-2.28 0 15 15 0 0 1-2-.22 12.49 12.49 0 0 1-2.91-.83c-.68-.26-1-.43-1-.43zm-29-21.23c.76 2.18 4 17.61 23.66 23.08s29.68-7.36 30.53-8c.5-.37 1.72-1 2.75-1.59a7.81 7.81 0 0 0 3.91-4.74 8 8 0 0 0-1.32-6.07c-.62-1-1.41-2.06-1.68-2.61-.48-.94-3.53-16.92-23.57-21.06s-29.87 8.14-31.54 9.73-6.59.67-7.49 4.28c-.71 2.87 4 4.78 4.73 7" class="23e4d4b5-c98b-4651-946b-5f3217e22699" data-name="Layer 248"/>
        <path id="3b2f885a-85f9-4673-b49c-4a141c358f8a" d="M609.04 152.96l-.62.46c-.12.09-.24.19-.38.28l-.46.26c-.32.17-.66.39-1 .56l-1.24.47c-.45.08-.91.2-1.39.26h-1.1l-.36-.05-.73-.1-.69-.21-.34-.11-.32-.15c-.21-.1-.43-.19-.63-.3a10.27 10.27 0 0 1-1.1-.73 9.29 9.29 0 0 1-.9-.76 11.27 11.27 0 0 1-1.19-1.31 6.43 6.43 0 0 1-.39-.55 6.43 6.43 0 0 0 .43.52 13.69 13.69 0 0 0 1.25 1.23 9.2 9.2 0 0 0 .92.71c.33.25.72.44 1.09.67.2.1.41.19.61.28l.31.14.33.1.67.19.69.09.35.05h1c.46 0 .9-.16 1.34-.23s.83-.29 1.21-.42.72-.36 1-.51l.46-.23c.14-.08.27-.17.4-.25l.64-.42.56-.37-.54.4m2.51-3.86a9.35 9.35 0 0 0-7.66-6 8.53 8.53 0 0 0-8.7 3.31c-.14.12-.47.34-.75.55a2.31 2.31 0 0 0-1 1.51 2.37 2.37 0 0 0 .58 1.74c.22.27.48.56.57.71a8.55 8.55 0 0 0 7.57 5.42 9.33 9.33 0 0 0 8.94-3.85c.44-.52 1.91-.41 2.06-1.49.12-.86-1.31-1.27-1.61-1.89" class="23e4d4b5-c98b-4651-946b-5f3217e22699" data-name="Layer 247"/>
        <path id="c901ba00-c170-42d8-b3a2-2ac8bf67e458" d="M835.11 63.76l-.84-.63c-.16-.12-.34-.24-.51-.39l-.51-.5c-.35-.36-.76-.71-1.13-1.15l-1.08-1.44c-.28-.56-.61-1.12-.86-1.72l-.3-.95c0-.16-.11-.32-.15-.48l-.07-.5-.14-1v-1.49l.07-.48c.05-.32.09-.64.15-.94a14 14 0 0 1 .53-1.72 12.69 12.69 0 0 1 .66-1.48 15.39 15.39 0 0 1 1.27-2.06 8.78 8.78 0 0 1 .57-.72 8.78 8.78 0 0 0-.52.75 18.71 18.71 0 0 0-1.13 2.11 12.58 12.58 0 0 0-.59 1.47c-.21.52-.3 1.11-.47 1.69-.06.3-.09.6-.14.91l-.06.47v1.47l.15.95.06.48c0 .16.09.31.13.46l.28.91c.24.58.55 1.13.81 1.67s.69 1 1 1.43.74.8 1.07 1.17l.48.52c.16.16.33.29.48.42l.8.68.7.6-.73-.55m6 1.83c.69-.62 6-4.16 5-12.34s-7.29-9.93-7.65-10.15-.62-.49-1-.78a3.15 3.15 0 0 0-2.37-.73 3.23 3.23 0 0 0-2.06 1.42c-.28.39-.55.84-.71 1s-5.76 3.9-4.24 12 7.61 9.88 8.46 10.26 1.26 2.35 2.74 2.13c1.18-.17 1.17-2.21 1.87-2.83" class="23e4d4b5-c98b-4651-946b-5f3217e22699" data-name="Layer 246"/>
        <path id="54fbde97-27b7-474d-a7e1-ac1fdb84a31c" d="M655.24 259a7.82 7.82 0 0 0 5.06-1.89 22.09 22.09 0 0 0 3.92-3.89 5.8 5.8 0 0 0 2-.25 2.59 2.59 0 0 0 1.54-1.22 3.79 3.79 0 0 0 .41-2 7.07 7.07 0 0 0-.36-2h.06a7.23 7.23 0 0 1 .61 2 3.87 3.87 0 0 1-.31 2.21 3 3 0 0 1-1.76 1.55 5.79 5.79 0 0 1-1.91.33 18.79 18.79 0 0 1-3.91 3.74 11.15 11.15 0 0 1-2.57 1.29 5.26 5.26 0 0 1-1.42.28 5.72 5.72 0 0 1-1.42-.07zm-30-14.53c.57 1.62 2.95 13.12 17.64 17.2s22.12-5.49 22.76-5.95c.38-.27 1.28-.72 2-1.19a5.82 5.82 0 0 0 2.92-3.53 6 6 0 0 0-1-4.52c-.47-.75-1-1.54-1.25-1.94-.36-.7-2.63-12.61-17.56-15.7s-22.26 6.07-23.5 7.25-4.91.5-5.58 3.19c-.53 2.14 3 3.56 3.53 5.18" class="23e4d4b5-c98b-4651-946b-5f3217e22699" data-name="Layer 245"/>
        <path id="a4b195c8-b01d-4a45-9cc8-33398025823f" d="M613.52 233.04l1.27-.12 1.63-.34a14.38 14.38 0 0 0 1.88-.56 15.61 15.61 0 0 0 2-.82 20.16 20.16 0 0 0 2.07-1.09c.7-.38 1.34-.88 2-1.32a31.64 31.64 0 0 0 3.63-3.09 32.71 32.71 0 0 0 2.77-3.11 24.52 24.52 0 0 0 1.68-2.42c.2-.3.29-.55.39-.71l.09-.28h.1v.29a5.76 5.76 0 0 1-.3.83 17.78 17.78 0 0 1-1.43 2.66 24.82 24.82 0 0 1-2.62 3.37 32.06 32.06 0 0 1-3.66 3.29c-.72.44-1.4.94-2.14 1.32a21.13 21.13 0 0 1-2.19 1.07 11.07 11.07 0 0 1-2.16.73 15.17 15.17 0 0 1-2 .43 12.5 12.5 0 0 1-3 .13c-.72 0-1.13-.08-1.13-.08v-.1l1.11-.09m-4.28 3.54c20.42-1 25.86-16.38 26.47-17.24.36-.51 1.33-1.46 2.11-2.38a7.84 7.84 0 0 0 2.22-5.74 8 8 0 0 0-3.16-5.34c-.91-.76-2-1.51-2.41-1.94-.75-.74-8.67-14.94-29-12.53s-25.79 17.18-26.87 19.21-6 2.72-5.76 6.43c.22 2.95 5.27 3.28 6.67 5.1s9.28 15.46 29.71 14.41" class="23e4d4b5-c98b-4651-946b-5f3217e22699" data-name="Layer 244"/>
        <path id="4e63c029-f5c0-436d-8749-3f603edfec8f" d="M579.45 241.08a15.16 15.16 0 0 0 .48-3.73 4 4 0 0 0 1-1 1.77 1.77 0 0 0 .31-1.3 2.58 2.58 0 0 0-.6-1.23 4.75 4.75 0 0 0-1-.92 4.85 4.85 0 0 1 1.17.83 2.62 2.62 0 0 1 .75 1.31 2 2 0 0 1-.29 1.57 3.93 3.93 0 0 1-.89 1 12.89 12.89 0 0 1-.53 3.66 7.67 7.67 0 0 1-.84 1.77 3.63 3.63 0 0 1-.64.74 3.9 3.9 0 0 1-.79.56 5.36 5.36 0 0 0 1.92-3.14m-24.06 8c1 .63 7.06 5.79 16.63 1.79s9.56-12.25 9.71-12.77c.09-.3.39-.93.6-1.5a4 4 0 0 0 .09-3.12 4.06 4.06 0 0 0-2.41-2c-.56-.2-1.2-.38-1.48-.51-.48-.22-6.68-5.65-16-1s-9.4 12.62-9.57 13.78-2.42 2.34-1.66 4.06c.61 1.37 3.07.66 4.06 1.29" class="23e4d4b5-c98b-4651-946b-5f3217e22699" data-name="Layer 243"/>
        <path id="7817ee9b-b1d7-4257-b316-f5ecff4458d9" d="M233.04 207.87a14.46 14.46 0 0 1-.78 2.26 18.25 18.25 0 0 1-1.21 2 13.24 13.24 0 0 1-1.33 1.58 9.65 9.65 0 0 1-1.08 1l-.42.35s.55-.56 1.3-1.48a17.17 17.17 0 0 0 2.31-3.65 13.35 13.35 0 0 0 1.21-4.14 8.13 8.13 0 0 0 0-2h.05a6.74 6.74 0 0 1 .26 2 10 10 0 0 1-.27 2.07m.64-12.59a4.53 4.53 0 0 0-1.51-3.22 4.6 4.6 0 0 0-3.48-.8c-.68.08-1.42.23-1.77.24-.6 0-9.67-2.3-16.74 7.19s-3.1 17.66-2.68 18.93-1.27 3.62.39 5c1.32 1.08 3.46-.91 4.78-.77s10.13 2.25 17.82-6.75 3.46-17.38 3.34-18c-.07-.35-.08-1.14-.15-1.83" class="23e4d4b5-c98b-4651-946b-5f3217e22699" data-name="Layer 242"/>
        <path id="e05eec78-8da0-4daf-90eb-68139f37fd83" d="M255.86 214.85l1.44 1.33 1.65 1.53c.31.3.67.6 1 1l1 1.18c.66.84 1.46 1.69 2.16 2.7l2 3.32c.47 1.26 1.06 2.52 1.46 3.87l.44 2.09c.07.35.16.7.21 1.05v1.07l.08 2.15-.24 2.12c0 .35-.07.7-.13 1l-.26 1c-.18.67-.32 1.34-.53 2a30 30 0 0 1-1.5 3.56 27.66 27.66 0 0 1-1.7 3 33 33 0 0 1-3.14 4.11 18.71 18.71 0 0 1-1.36 1.41l-.06-.07a18.48 18.48 0 0 0 1.26-1.5 40.42 40.42 0 0 0 2.85-4.25 27.19 27.19 0 0 0 1.55-3c.55-1.07.88-2.3 1.35-3.51.19-.62.31-1.27.48-1.92l.24-1c.05-.33.07-.67.11-1l.2-2-.11-2.05v-1c0-.34-.13-.67-.19-1l-.39-2c-.37-1.3-.93-2.53-1.36-3.75-.66-1.12-1.26-2.23-1.83-3.28s-1.4-1.88-2-2.73l-.91-1.21c-.3-.37-.64-.69-.93-1l-1.54-1.63-1.35-1.43zm-10.05 44.71c.42.33 1.22 1.19 2 1.89a6.69 6.69 0 0 0 4.86 2.08 6.87 6.87 0 0 0 4.66-2.58c.67-.76 1.35-1.67 1.73-2 .65-.62 13-7.07 11.54-24.68s-14.03-22.79-15.75-23.79-2.17-5.29-5.35-5.15c-2.53.11-3 4.46-4.56 5.62s-13.5 7.59-13.17 25.26 13.32 22.79 14 23.34" class="23e4d4b5-c98b-4651-946b-5f3217e22699" data-name="Layer 241"/>
        <path id="6f218d50-1782-4d8d-9660-c6e1ffef2b92" d="M793.45 254.75l-.66.49-.34.24-.36.21-.73.41-.75.32-.37.16-.38.12c-.25.08-.5.16-.74.23a13.85 13.85 0 0 1-1.4.28 12.2 12.2 0 0 1-1.23.13 12.65 12.65 0 0 1-1.78 0 6.38 6.38 0 0 1-.65-.08 6.45 6.45 0 0 0 .66 0 16.35 16.35 0 0 0 1.8-.07c.38 0 .78-.08 1.22-.16s.89-.2 1.36-.3c.24-.07.47-.15.71-.23l.36-.12.36-.15.72-.32.69-.4.35-.19.32-.23.64-.46c.4-.33.76-.68 1.12-1s.61-.71.91-1 .48-.68.7-1l.31-.44c.09-.14.16-.28.23-.41l.38-.67.33-.59-.29.6-.33.68c-.07.13-.12.27-.21.42l-.29.46c-.21.31-.4.67-.67 1l-.9 1.09c-.37.34-.74.72-1.15 1.06m4.21-3.41c.15-.22.56-.65.89-1.06a3.41 3.41 0 0 0 .91-2.51 3.48 3.48 0 0 0-1.37-2.37c-.4-.32-.88-.64-1.07-.82s-3.92-6.4-12.71-5.14-11 7.73-11.47 8.62-2.6 1.25-2.43 2.85c.13 1.28 2.32 1.37 3 2.15s4.19 6.61 13 5.95 11.06-7.38 11.31-7.76" class="23e4d4b5-c98b-4651-946b-5f3217e22699" data-name="Layer 240"/>
        <path id="ece7f43c-e3a5-4c2a-80d7-1ade7c2135c3" d="M749.07 251.7a7.12 7.12 0 0 0 1.6.06 6.91 6.91 0 0 0 1.58-.3 10.3 10.3 0 0 0 2.84-1.51 19.65 19.65 0 0 0 4.39-4.72 6.69 6.69 0 0 0 4.91-3.43l.09.05a6.77 6.77 0 0 1-1.78 2.76 6.66 6.66 0 0 1-1.42 1 4.24 4.24 0 0 1-1.31.46 21.4 21.4 0 0 1-1.8 2.44 16.23 16.23 0 0 1-2.61 2.22 8.86 8.86 0 0 1-3.19 1.38 5.28 5.28 0 0 1-1.74.1 5.47 5.47 0 0 1-1.65-.38zm-31.24-15.87c.61 1.75 3.17 14.14 19 18.53s23.83-5.91 24.52-6.41c.4-.29 1.38-.78 2.21-1.28a6.28 6.28 0 0 0 3.14-3.81 6.46 6.46 0 0 0-1.06-4.87c-.5-.81-1.13-1.66-1.35-2.09-.38-.75-2.84-13.59-18.92-16.91s-24 6.54-25.32 7.81-5.29.54-6 3.44c-.57 2.3 3.19 3.83 3.8 5.58" class="23e4d4b5-c98b-4651-946b-5f3217e22699" data-name="Layer 239"/>
        <path id="2b0acaed-3e00-482d-be59-d79e5d9976b1" d="M719.42 184.62a5.44 5.44 0 0 1 1.48.63 2.92 2.92 0 0 1 1.13 1.23 2.26 2.26 0 0 1 0 1.79 4.46 4.46 0 0 1-.74 1.28 14.42 14.42 0 0 1 .27 4.13 8.57 8.57 0 0 1-.5 2.14 4.07 4.07 0 0 1-.53 1 4.39 4.39 0 0 1-.73.8 6 6 0 0 0 1.37-3.9 17 17 0 0 0-.36-4.2 4.46 4.46 0 0 0 .83-1.3 2 2 0 0 0 0-1.5 2.91 2.91 0 0 0-.94-1.2 5.33 5.33 0 0 0-1.35-.77zm3.55 5.23c0-.35.2-1.11.31-1.78a4.47 4.47 0 0 0-.64-3.44 4.53 4.53 0 0 0-3.12-1.63c-.66-.09-1.41-.13-1.74-.21-.58-.13-8.65-4.61-17.73 2.67s-7.32 16.06-7.24 17.37-2.1 3.13-.86 4.84c1 1.36 3.52 0 4.75.45s9.1 4.67 18.65-2 7.58-15.64 7.58-16.27" class="23e4d4b5-c98b-4651-946b-5f3217e22699" data-name="Layer 238"/>
        <path id="b515f407-6fe1-4314-8374-1988fa67e9e1" d="M801.49 223.32l-.61.54-1.22 1.08-1.35.87c-.23.14-.44.3-.67.43l-.71.33c-.48.21-.94.45-1.41.64a22.48 22.48 0 0 1-2.8.82 20.77 20.77 0 0 1-2.58.44 24.89 24.89 0 0 1-3.91.12 13.85 13.85 0 0 1-1.48-.12v-.07a13.77 13.77 0 0 0 1.48 0 30.37 30.37 0 0 0 3.86-.36 20.39 20.39 0 0 0 2.51-.53c.89-.19 1.77-.59 2.7-.88.46-.18.89-.42 1.35-.64l.68-.33c.22-.13.43-.28.64-.42l1.29-.85 1.15-1 .59-.51c.17-.19.33-.4.5-.6l1-1.19c.58-.84 1-1.76 1.54-2.6.33-.93.7-1.81 1-2.66s.43-1.72.63-2.5l.27-1.12c.07-.36.1-.71.15-1l.22-1.69.19-1.48h.07l-.09 1.49-.1 1.71c0 .33 0 .68-.08 1l-.22 1.15c-.17.79-.29 1.67-.54 2.57l-1 2.76c-.51.88-1 1.83-1.56 2.72l-1 1.26c-.17.21-.33.43-.51.63m7.17-18c-.24-1.49 2.06-3.82.45-5.63-1.28-1.44-4 .4-5.47 0s-10.92-4.32-21.09 4.35-6.94 18.78-6.92 19.47c0 .41-.11 1.29-.15 2.07a5.12 5.12 0 0 0 1.11 3.86 5.2 5.2 0 0 0 3.74 1.51h2c.68.09 10.39 4.3 20-5s6.59-19.17 6.35-20.66" class="23e4d4b5-c98b-4651-946b-5f3217e22699" data-name="Layer 237"/>
        <path id="a5cdef5d-6db9-4ec3-9625-a56d3d77729f" d="M702.77 237.48a14 14 0 0 1-2.24 1.91 7.63 7.63 0 0 1-2.74 1.18 4.51 4.51 0 0 1-1.5.09 4.65 4.65 0 0 1-1.42-.32v-.09a6.19 6.19 0 0 0 1.38.05 5.92 5.92 0 0 0 1.35-.26 8.85 8.85 0 0 0 2.44-1.3 16.91 16.91 0 0 0 3.77-4.06 5.75 5.75 0 0 0 4.22-2.95h.08a5.82 5.82 0 0 1-1.53 2.38 5.74 5.74 0 0 1-1.22.87 3.63 3.63 0 0 1-1.11.38 18.39 18.39 0 0 1-1.56 2.11m2.67-.45c.35-.25 1.19-.67 1.9-1.1a5.39 5.39 0 0 0 2.7-3.27 5.55 5.55 0 0 0-.91-4.19c-.43-.69-1-1.42-1.16-1.8-.33-.65-2.44-11.68-16.27-14.54s-20.62 5.62-21.77 6.72-4.55.46-5.17 3c-.49 2 2.74 3.3 3.27 4.8s2.73 12.15 16.33 15.93 20.49-5.08 21.07-5.51" class="23e4d4b5-c98b-4651-946b-5f3217e22699" data-name="Layer 236"/>
        <path id="82e7276a-9234-44d4-b2d8-457f45ff2935" d="M854.8 241.12a6.06 6.06 0 0 0 3.92-1.46 17.17 17.17 0 0 0 3-3 4.51 4.51 0 0 0 1.55-.19 2 2 0 0 0 1.19-.95 2.94 2.94 0 0 0 .32-1.52 5.49 5.49 0 0 0-.28-1.55 5.59 5.59 0 0 1 .47 1.56 3 3 0 0 1-.24 1.71 2.29 2.29 0 0 1-1.36 1.2 4.5 4.5 0 0 1-1.48.25 14.55 14.55 0 0 1-3 2.9 8.64 8.64 0 0 1-2 1 4.07 4.07 0 0 1-1.1.21 4.42 4.42 0 0 1-1.1-.06zm-23.22-11.26c.44 1.26 2.28 10.16 13.66 13.32s17.14-4.25 17.63-4.61c.29-.21 1-.56 1.59-.92a4.51 4.51 0 0 0 2.26-2.74 4.64 4.64 0 0 0-.76-3.5c-.36-.58-.81-1.19-1-1.5-.27-.54-2-9.77-13.6-12.16s-17.24 4.7-18.2 5.62-3.8.39-4.32 2.47c-.41 1.65 2.29 2.76 2.73 4" class="23e4d4b5-c98b-4651-946b-5f3217e22699" data-name="Layer 233"/>
        <path id="eed8cc57-f890-48a5-b366-2c5010f4496b" d="M821.23 253.72c-.73.58-1.5 1-2.16 1.48l-1 .64c-.32.18-.65.32-.94.47l-1.54.74-1.34.65v-.06l1.29-.74 1.48-.84c.28-.17.59-.32.89-.52l.93-.68c.64-.48 1.38-.94 2.07-1.53s1.33-1.31 2.06-2 1.26-1.56 1.81-2.42l.73-1.37c.12-.23.25-.45.36-.69l.25-.74.53-1.46.3-1.52c0-.25.11-.5.14-.75v-.76c0-.51.08-1 .08-1.5-.08-1 0-1.95-.21-2.85a20.6 20.6 0 0 0-.46-2.54 30.68 30.68 0 0 0-1.13-3.72 14.07 14.07 0 0 0-.58-1.37h.06a14.07 14.07 0 0 1 .67 1.33 24.94 24.94 0 0 1 1.36 3.68 20.86 20.86 0 0 1 .57 2.56 22.47 22.47 0 0 1 .3 2.92c0 .51 0 1-.05 1.55v.79c0 .26-.09.52-.14.79l-.29 1.59-.53 1.54-.27.77c-.12.24-.26.48-.39.71l-.78 1.41c-.59.88-1.3 1.67-1.92 2.48l-2.17 2m8.64-10.55c2.78-13.11-5.94-19.12-6.38-19.65-.26-.31-.7-1.09-1.14-1.73a5.09 5.09 0 0 0-3.23-2.37 5.2 5.2 0 0 0-3.88 1.1c-.63.45-1.28 1-1.62 1.2-.59.35-10.84 3-12.74 16.24s6.45 19.22 7.55 20.24.69 4.28 3.07 4.73c1.89.35 2.94-2.78 4.33-3.37s11.27-3.28 14-16.38" class="23e4d4b5-c98b-4651-946b-5f3217e22699" data-name="Layer 232"/>
        <path id="f28fa931-9d1b-46d6-a518-51ef77c9cddc" d="M309.72 232.07a5.47 5.47 0 0 1 1.48.63 2.92 2.92 0 0 1 1.13 1.26 2.26 2.26 0 0 1 0 1.79 4.46 4.46 0 0 1-.74 1.28 14.38 14.38 0 0 1 .27 4.13 8.57 8.57 0 0 1-.5 2.14 4.07 4.07 0 0 1-.53 1 4.39 4.39 0 0 1-.73.8 6 6 0 0 0 1.37-3.9 17 17 0 0 0-.36-4.2 4.47 4.47 0 0 0 .83-1.3 2 2 0 0 0 0-1.5 2.9 2.9 0 0 0-.94-1.2 5.32 5.32 0 0 0-1.35-.77zm3.55 5.23c0-.35.2-1.11.31-1.78a4.46 4.46 0 0 0-.64-3.44 4.53 4.53 0 0 0-3.12-1.63c-.66-.09-1.41-.13-1.74-.21-.58-.13-8.65-4.61-17.73 2.67s-7.32 16.06-7.24 17.37-2.1 3.13-.86 4.84c1 1.36 3.52 0 4.75.45s9.1 4.67 18.65-2 7.59-15.69 7.63-16.29" class="23e4d4b5-c98b-4651-946b-5f3217e22699" data-name="Layer 230"/>
        <path id="3a9d0e4d-5c1f-49c0-bb69-ea933eceffd6" d="M224.17 234.78l-.43.71c-.08.14-.17.29-.27.43l-.35.44c-.25.3-.5.65-.81 1l-1 1c-.42.26-.83.56-1.28.81l-.71.31-.36.15-.38.09-.76.18-.78.07h-1.51a10.65 10.65 0 0 1-1.38-.28 10 10 0 0 1-1.2-.4 12.07 12.07 0 0 1-1.7-.83 7 7 0 0 1-.6-.39 6.67 6.67 0 0 0 .63.35 14.56 14.56 0 0 0 1.73.72 9.92 9.92 0 0 0 1.19.34c.42.12.89.15 1.35.23h1.46l.74-.07.73-.19.37-.08.35-.14.69-.29c.44-.23.84-.52 1.24-.76s.71-.61 1-.9.57-.64.83-.93l.37-.42c.11-.14.2-.28.29-.41l.47-.67.41-.59-.37.62m1-4.84a10 10 0 0 0-10-2.93 9.17 9.17 0 0 0-7.34 6.76c-.09.18-.34.53-.53.85a2.48 2.48 0 0 0-.39 1.9 2.53 2.53 0 0 0 1.26 1.5c.32.19.7.37.85.48a9.13 9.13 0 0 0 9.67 2.38 10 10 0 0 0 7.38-7.5c.23-.69 1.74-1.17 1.46-2.31-.22-.91-1.81-.74-2.34-1.24" class="23e4d4b5-c98b-4651-946b-5f3217e22699" data-name="Layer 228"/>
        <path id="a09daf4e-2dcd-4ebc-af20-e74c3217fb8d" d="M452.24 201.01l.08-1.4c.12-.47.2-1 .35-1.46l.26-.67.15-.36.2-.33.41-.66.5-.58c.09-.1.16-.2.25-.29l.28-.25c.19-.16.37-.34.56-.48a10.67 10.67 0 0 1 1.17-.76 10.22 10.22 0 0 1 1.12-.55 11.93 11.93 0 0 1 1.78-.59 6.59 6.59 0 0 1 .7-.14 6.75 6.75 0 0 0-.68.19 14.49 14.49 0 0 0-1.72.69 9.87 9.87 0 0 0-1.08.58c-.38.21-.73.51-1.12.77-.18.15-.35.32-.53.48l-.27.24c-.08.09-.16.19-.24.28l-.48.57-.39.64-.2.31c-.05.11-.1.23-.15.34l-.29.68c-.15.47-.24.95-.36 1.4s-.08.93-.12 1.36 0 .85 0 1.23v.55c0 .17.05.34.07.49l.13.8.11.7-.16-.7-.18-.8c0-.15-.08-.32-.11-.49l-.05-.56c0-.39-.09-.81-.1-1.25m.56 7.95c.78.49 1.79-.73 2.51-.75a9.88 9.88 0 0 0 9.1-4.85 9.11 9.11 0 0 0 .63-9.86c-.06-.19-.12-.61-.21-1a2.44 2.44 0 0 0-1-1.62 2.48 2.48 0 0 0-1.92-.19c-.36.09-.74.22-.93.25a9 9 0 0 0-8.49 5 10 10 0 0 0-.14 10.34c.31.65-.43 2 .55 2.64" class="23e4d4b5-c98b-4651-946b-5f3217e22699" data-name="Layer 222"/>
        <path id="4fb5e2be-31cf-4894-89d0-4ef3a7461fd7" d="M146.02 197.59a12.64 12.64 0 0 0 2.44-2.06 9.87 9.87 0 0 0 1.78-2.65 6 6 0 0 0 .44-1.39 5 5 0 0 1-.27 1.47 7.3 7.3 0 0 1-.65 1.4 10.69 10.69 0 0 1-1.05 1.42 13.52 13.52 0 0 1-1.31 1.18 9.74 9.74 0 0 1-1.29.82 7.13 7.13 0 0 1-1 .44l-.37.15s.52-.27 1.25-.75m-17.29 1.55c.69 1.06 2.65.13 3.55.53s6.66 3.87 14.1-.77 6.32-11.51 6.37-12c0-.26.2-.82.3-1.33a3.36 3.36 0 0 0-.35-2.61 3.42 3.42 0 0 0-2.28-1.35c-.5-.09-1.05-.16-1.3-.23-.43-.12-6.33-3.8-13.44 1.32s-6.13 11.79-6.11 12.78-1.7 2.28-.83 3.61" class="23e4d4b5-c98b-4651-946b-5f3217e22699" data-name="Layer 221"/>
        <path id="7011726d-6a8a-4576-b2af-9cbafc2522e0" d="M174.25 239.17h2.39l1.65-.21a14.36 14.36 0 0 0 1.92-.41 15.69 15.69 0 0 0 2.09-.66 20.29 20.29 0 0 0 2.15-.92c.73-.33 1.41-.78 2.12-1.16a31.53 31.53 0 0 0 3.86-2.79 33 33 0 0 0 3-2.88 24.51 24.51 0 0 0 1.86-2.28c.22-.29.34-.52.44-.68l.11-.27h.1l-.06.29a5.88 5.88 0 0 1-.36.8 17.87 17.87 0 0 1-1.63 2.54 24.86 24.86 0 0 1-2.88 3.15 32.07 32.07 0 0 1-3.91 3c-.75.38-1.47.82-2.24 1.14a21 21 0 0 1-2.26.9 11.12 11.12 0 0 1-2.21.56 14.93 14.93 0 0 1-2 .27 12.52 12.52 0 0 1-3-.11c-.72-.09-1.12-.17-1.12-.17zm-31.92-13.53c1.26 1.93 8 16.15 28.48 16.72s27.06-14.28 27.74-15.09c.4-.48 1.44-1.35 2.29-2.21a7.83 7.83 0 0 0 2.67-5.54 8 8 0 0 0-2.73-5.57c-.85-.83-1.86-1.67-2.25-2.13-.68-.79-7.46-15.58-27.9-14.78s-27.06 15.08-28.3 17-6.24 2.24-6.25 6c0 3 5 3.68 6.25 5.61" class="23e4d4b5-c98b-4651-946b-5f3217e22699" data-name="Layer 219"/>
        <path id="2d46dec1-a19e-42c4-884d-76947bf96437" d="M372.17 147.24l.6-.45c.12-.08.23-.18.37-.27l.45-.25c.31-.17.64-.38 1-.54l1.2-.45c.44-.08.89-.19 1.35-.25h1.06l.35.05.71.1.67.21.33.11.31.14c.21.1.42.19.61.29a9.71 9.71 0 0 1 1.07.71 9.16 9.16 0 0 1 .88.74 11 11 0 0 1 1.15 1.28 6.13 6.13 0 0 1 .38.53 6.12 6.12 0 0 0-.41-.5 13.33 13.33 0 0 0-1.21-1.2 9.06 9.06 0 0 0-.89-.69c-.32-.25-.7-.43-1.06-.66-.19-.1-.39-.18-.6-.27l-.3-.14-.32-.1-.65-.19-.68-.09-.34-.05h-1c-.45 0-.88.15-1.3.22s-.8.28-1.18.4-.7.35-1 .5l-.45.23c-.14.08-.26.17-.38.24l-.62.41-.55.36.52-.39m-2.45 3.74a9.08 9.08 0 0 0 7.43 5.86 8.29 8.29 0 0 0 8.45-3.2c.13-.12.46-.33.73-.54a2.24 2.24 0 0 0 1-1.47 2.3 2.3 0 0 0-.56-1.69c-.21-.27-.46-.54-.56-.69a8.31 8.31 0 0 0-7.34-5.28 9.06 9.06 0 0 0-8.69 3.73c-.43.5-1.86.39-2 1.45-.12.84 1.27 1.24 1.56 1.84" class="23e4d4b5-c98b-4651-946b-5f3217e22699" data-name="Layer 218"/>
        <path id="d0207d4f-00d1-451c-987e-b0899a6ef702" d="M686.34 149.2l1.16-.53 1.42-.86a14.5 14.5 0 0 0 1.59-1.15 15.62 15.62 0 0 0 1.65-1.45 20 20 0 0 0 1.6-1.71c.54-.59 1-1.28 1.48-1.92a31.75 31.75 0 0 0 2.41-4.12 32.91 32.91 0 0 0 1.6-3.85 24.72 24.72 0 0 0 .79-2.84c.09-.35.1-.61.13-.8s0-.29 0-.29h.1l.05.29a5.69 5.69 0 0 1 0 .88 17.81 17.81 0 0 1-.48 3 25 25 0 0 1-1.37 4.05 32.09 32.09 0 0 1-2.38 4.32c-.54.65-1 1.35-1.59 2a21.18 21.18 0 0 1-1.71 1.74 11.18 11.18 0 0 1-1.8 1.4 15.07 15.07 0 0 1-1.74 1.06 12.54 12.54 0 0 1-2.81 1.12c-.7.21-1.1.3-1.1.3v-.1l1-.46m-21.22-36.65c-18.39 9-18.73 24.74-19.08 27s-4.82 4.57-3.33 8c1.18 2.71 6 1.35 8 2.61s13.83 11.54 32.77 3.8 19.05-24 19.35-25c.18-.6.77-1.82 1.21-2.94a7.85 7.85 0 0 0 .22-6.15 8 8 0 0 0-4.73-4c-1.11-.41-2.37-.78-2.91-1-.95-.45-13.08-11.25-31.47-2.27" class="23e4d4b5-c98b-4651-946b-5f3217e22699" data-name="Layer 217"/>
        <path id="ba04e8de-1a2f-4336-b44a-ab120c6ed450" d="M377.22 191.55a7.07 7.07 0 0 0 1.6.06 6.86 6.86 0 0 0 1.58-.3 10.28 10.28 0 0 0 2.84-1.51 19.65 19.65 0 0 0 4.39-4.72 6.69 6.69 0 0 0 4.91-3.43l.09.05a6.77 6.77 0 0 1-1.78 2.76 6.66 6.66 0 0 1-1.42 1 4.23 4.23 0 0 1-1.31.46 21.22 21.22 0 0 1-1.8 2.44 16.19 16.19 0 0 1-2.61 2.22 8.88 8.88 0 0 1-3.19 1.38 5.25 5.25 0 0 1-1.74.1 5.47 5.47 0 0 1-1.65-.38zm-29-24.89c-1.34 1.28-5.29.54-6 3.44-.57 2.3 3.19 3.83 3.8 5.58s3.17 14.14 19 18.53 23.83-5.91 24.52-6.41c.4-.29 1.38-.78 2.2-1.28a6.28 6.28 0 0 0 3.14-3.81 6.46 6.46 0 0 0-1.06-4.87c-.5-.81-1.13-1.66-1.35-2.09-.38-.75-2.84-13.58-18.92-16.91s-24 6.54-25.32 7.81" class="23e4d4b5-c98b-4651-946b-5f3217e22699" data-name="Layer 216"/>
        <path id="317ae251-c197-4ac5-86a4-d0375294f027" d="M409.67 188.03a7.07 7.07 0 0 0 1 1.27 6.86 6.86 0 0 0 1.24 1 10.28 10.28 0 0 0 3 1.22 19.65 19.65 0 0 0 6.44.37 6.69 6.69 0 0 0 5.77 1.59v.1a6.77 6.77 0 0 1-3.26.39 6.66 6.66 0 0 1-1.68-.45 4.23 4.23 0 0 1-1.19-.72 21.22 21.22 0 0 1-3 .17 16.19 16.19 0 0 1-3.38-.59 8.88 8.88 0 0 1-3.09-1.58 5.25 5.25 0 0 1-1.19-1.27 5.47 5.47 0 0 1-.77-1.51zm.65-38.24c-1.84-.22-3.79-3.73-6.48-2.44-2.14 1-.92 4.9-1.88 6.49s-8.86 11.46-2.15 26.45 19.76 14.58 20.57 14.79c.48.12 1.48.57 2.39.88a6.28 6.28 0 0 0 4.94 0 6.46 6.46 0 0 0 3.07-3.92c.3-.9.56-1.93.75-2.37.33-.77 8.65-10.85 1-25.36s-20.33-14.3-22.17-14.51" class="23e4d4b5-c98b-4651-946b-5f3217e22699" data-name="Layer 215"/>
        <path id="9608b36d-1746-4cbf-88cb-304fd2aacdcc" d="M281.27 195.31l1.16-.53 1.42-.86a14.59 14.59 0 0 0 1.59-1.15 15.61 15.61 0 0 0 1.65-1.45 20 20 0 0 0 1.6-1.71c.54-.59 1-1.28 1.48-1.92a31.75 31.75 0 0 0 2.41-4.12 32.91 32.91 0 0 0 1.6-3.85 24.74 24.74 0 0 0 .79-2.84c.08-.35.1-.61.13-.8s0-.29 0-.29h.1l.06.29a5.69 5.69 0 0 1 0 .88 17.82 17.82 0 0 1-.48 3 25 25 0 0 1-1.37 4.05 32.1 32.1 0 0 1-2.38 4.32c-.54.65-1 1.35-1.59 2a21 21 0 0 1-1.71 1.74 11.13 11.13 0 0 1-1.8 1.4 15.07 15.07 0 0 1-1.74 1.06 12.55 12.55 0 0 1-2.81 1.12c-.7.21-1.1.3-1.1.3v-.1l1-.46m-21.22-36.65c-18.39 9-18.73 24.74-19.08 27s-4.82 4.57-3.33 8c1.18 2.71 6 1.35 8 2.61s13.83 11.54 32.77 3.8 19.05-24 19.35-25c.18-.6.77-1.82 1.21-2.94a7.85 7.85 0 0 0 .22-6.15 8 8 0 0 0-4.73-4c-1.1-.41-2.37-.78-2.91-1-.94-.45-13.08-11.25-31.47-2.27" class="23e4d4b5-c98b-4651-946b-5f3217e22699" data-name="Layer 212"/>
        <path id="c8088517-e107-4bd7-a65c-8f6cbad09822" d="M687.5 99.86l.6-.45c.12-.08.23-.18.37-.27l.45-.25c.31-.17.64-.38 1-.54l1.2-.45c.44-.08.89-.19 1.35-.25h1.06l.35.05.71.1.67.21.33.11.31.14c.21.1.42.19.61.29a9.78 9.78 0 0 1 1.07.71 9.15 9.15 0 0 1 .88.74 11 11 0 0 1 1.15 1.28 6.43 6.43 0 0 1 .38.53 6.12 6.12 0 0 0-.41-.5 13.33 13.33 0 0 0-1.21-1.2 9.06 9.06 0 0 0-.89-.69c-.32-.25-.7-.43-1.06-.66-.19-.1-.4-.18-.6-.27l-.3-.14-.32-.1-.65-.19-.68-.09-.34-.05h-1c-.45 0-.88.15-1.3.22s-.8.28-1.18.4-.7.35-1 .5l-.45.23c-.14.08-.26.17-.38.24l-.62.41-.55.36.52-.39m-2.45 3.74a9.08 9.08 0 0 0 7.43 5.86 8.29 8.29 0 0 0 8.45-3.2c.13-.12.46-.33.73-.54a2.24 2.24 0 0 0 1-1.47 2.3 2.3 0 0 0-.56-1.69c-.21-.27-.46-.54-.56-.69a8.31 8.31 0 0 0-7.34-5.28 9.06 9.06 0 0 0-8.69 3.73c-.43.5-1.86.39-2 1.45-.12.84 1.27 1.24 1.56 1.84" class="23e4d4b5-c98b-4651-946b-5f3217e22699" data-name="Layer 210"/>
        <path id="7332d85c-4f19-4862-aea4-7c45e6079ef8" d="M689.71 251.58l-.06 1v.63l-.14.69c-.1.48-.17 1-.33 1.54l-.59 1.66c-.31.53-.58 1.1-.94 1.64l-.61.76c-.1.13-.2.26-.31.38l-.36.33-.73.65-.82.53c-.14.08-.27.18-.41.25l-.43.2c-.29.13-.56.27-.85.38a13.52 13.52 0 0 1-1.69.5 12.53 12.53 0 0 1-1.55.26 15 15 0 0 1-2.35.07 8.52 8.52 0 0 1-.89-.07 8.42 8.42 0 0 0 .89 0 18.22 18.22 0 0 0 2.32-.22 12.09 12.09 0 0 0 1.51-.32c.54-.11 1.06-.35 1.63-.53.27-.11.54-.25.81-.38l.41-.2.39-.25.78-.51.69-.63.35-.31.3-.36.59-.72c.35-.51.62-1.06.93-1.56s.42-1.09.63-1.6.26-1 .38-1.5l.16-.68c0-.22.06-.43.09-.62l.13-1 .11-.89-.05.9m1.56-5.9c-.77-.87-2.42.24-3.3 0s-6.57-2.6-12.7 2.62-4.18 11.3-4.16 11.72c0 .24-.07.77-.09 1.25a3.08 3.08 0 0 0 .67 2.32 3.13 3.13 0 0 0 2.25.87h1.22c.41.05 6.25 2.59 12-3s4-11.54 3.82-12.43 1.24-2.3.27-3.39" class="23e4d4b5-c98b-4651-946b-5f3217e22699" data-name="Layer 209"/>
        <path id="0a85b158-f062-4a60-aa47-6b14431f2983" d="M427.69 224.39a10.78 10.78 0 0 0 1.14-.25 23.92 23.92 0 0 0 2.91-1 16 16 0 0 0 1.84-.86c.65-.31 1.25-.77 1.92-1.17.32-.22.61-.49.93-.73l.47-.38c.15-.14.28-.29.42-.44l.84-.89.7-1 .36-.5c.1-.18.18-.37.28-.55l.55-1.1c.3-.76.48-1.54.72-2.28.09-.78.22-1.52.32-2.24s0-1.4 0-2v-.91c0-.29-.05-.56-.07-.82l-.14-1.34-.12-1.17h.05l.2 1.16.23 1.33c0 .26.1.53.13.82s0 .6 0 .92c0 .64.08 1.34 0 2.08l-.27 2.31c-.23.77-.42 1.59-.71 2.37l-.46 1.13c-.09.19-.18.39-.28.58l-.37.53-.74 1.05-.89.92c-.15.15-.29.31-.44.45l-.49.39c-.33.25-.64.52-1 .74a17.92 17.92 0 0 1-2 1.14 16.48 16.48 0 0 1-1.91.8 19.53 19.53 0 0 1-3 .8 11 11 0 0 1-1.16.17zm-8.33 0c1.1.44 8.17 4.44 17-1.41s7.21-14.09 7.26-14.64c0-.32.21-1 .31-1.61a4.06 4.06 0 0 0-.51-3.14 4.12 4.12 0 0 0-2.8-1.54c-.6-.1-1.28-.15-1.58-.23-.52-.13-7.76-4.37-16.17 2.05s-7 14.43-6.92 15.62-2 2.8-.88 4.38c.87 1.25 3.2.07 4.3.51" class="23e4d4b5-c98b-4651-946b-5f3217e22699" data-name="Layer 208"/>
        <path id="fcba4c55-c6d3-45fa-b2a8-e73789d93342" d="M729.85 141.15s.57.11 1.44.2a12.68 12.68 0 0 0 3.19-.06 9.79 9.79 0 0 0 3-.94 6 6 0 0 0 1.21-.8 5 5 0 0 1-1.13 1 7.22 7.22 0 0 1-1.38.68 10.57 10.57 0 0 1-1.71.44 13.58 13.58 0 0 1-1.76.08 9.65 9.65 0 0 1-1.51-.18 7 7 0 0 1-1-.27l-.39-.12zm-10.53-6.86c.46.88 2.75 7.22 11.44 8.31s12.12-5 12.45-5.27.67-.52 1.07-.85a3.35 3.35 0 0 0 1.37-2.25 3.44 3.44 0 0 0-.93-2.49c-.33-.39-.72-.79-.87-1-.26-.37-2.54-6.95-11.28-7.46s-12.16 5.3-12.76 6.07-2.75.69-2.91 2.28c-.13 1.26 2 1.78 2.43 2.65" class="23e4d4b5-c98b-4651-946b-5f3217e22699" data-name="Layer 206"/>
        <path id="87765ea4-8b76-485b-9d05-8bf27dfa74d5" d="M697.73 180.39a6.05 6.05 0 0 0 3.92-1.46 17.14 17.14 0 0 0 3-3 4.48 4.48 0 0 0 1.55-.19 2 2 0 0 0 1.19-.95 3 3 0 0 0 .32-1.52 5.51 5.51 0 0 0-.28-1.55 5.61 5.61 0 0 1 .47 1.56 3 3 0 0 1-.24 1.71 2.28 2.28 0 0 1-1.36 1.2 4.45 4.45 0 0 1-1.48.25 14.52 14.52 0 0 1-3 2.9 8.61 8.61 0 0 1-2 1 4.11 4.11 0 0 1-1.1.21 4.46 4.46 0 0 1-1.1-.06zm8.06-2.54c.29-.21 1-.56 1.58-.92a4.51 4.51 0 0 0 2.26-2.74 4.64 4.64 0 0 0-.76-3.5c-.36-.58-.81-1.19-1-1.5-.27-.54-2-9.77-13.6-12.16s-17.24 4.7-18.21 5.62-3.8.39-4.32 2.47c-.41 1.65 2.29 2.76 2.73 4s2.28 10.16 13.66 13.32 17.13-4.25 17.63-4.61" class="23e4d4b5-c98b-4651-946b-5f3217e22699" data-name="Layer 205"/>
        <path id="9630775e-e99e-470f-8d8b-50181bb37575" d="M714.93 152.67l-.36.33-.73.65-.82.52-.41.26-.43.2c-.29.13-.56.27-.85.38a13.35 13.35 0 0 1-1.69.5 12.52 12.52 0 0 1-1.55.26 14.87 14.87 0 0 1-2.35.07 8.18 8.18 0 0 1-.89-.07 8.58 8.58 0 0 0 .89 0 18.4 18.4 0 0 0 2.32-.22 12.32 12.32 0 0 0 1.51-.32c.54-.12 1.06-.35 1.63-.53.27-.11.54-.25.81-.38l.41-.2.39-.25.78-.51.69-.63.36-.31c.1-.11.2-.24.3-.36l.59-.72c.35-.51.62-1.06.93-1.56s.42-1.09.63-1.6.26-1 .38-1.5l.16-.67c0-.22.06-.43.09-.62l.13-1 .11-.89s0 .33-.05.9l-.06 1v.63l-.14.69c-.1.48-.17 1-.33 1.55l-.6 1.66c-.31.53-.58 1.1-.94 1.64l-.61.76c-.1.13-.2.26-.31.38m4.32-10.84c-.15-.89 1.24-2.3.27-3.39-.77-.87-2.42.24-3.3 0s-6.57-2.6-12.7 2.62-4.18 11.31-4.16 11.72c0 .24-.07.77-.09 1.25a3.08 3.08 0 0 0 .67 2.32 3.13 3.13 0 0 0 2.25.91h1.21c.41.05 6.25 2.59 12-3s4-11.54 3.82-12.43" class="23e4d4b5-c98b-4651-946b-5f3217e22699" data-name="Layer 204"/>
        <path id="0e3f32b7-70ed-4867-935d-225b3b5e3063" d="M688.17 197.04l-.06 1v.64l-.14.7c-.11.48-.17 1-.33 1.57l-.6 1.69c-.31.54-.59 1.12-1 1.66l-.62.77c-.11.13-.2.26-.31.38l-.37.33-.74.66-.83.53c-.14.09-.27.18-.41.26l-.44.2c-.29.13-.57.28-.86.39a13.73 13.73 0 0 1-1.71.5 12.72 12.72 0 0 1-1.58.27 15.1 15.1 0 0 1-2.39.08 8.69 8.69 0 0 1-.9-.08 8.55 8.55 0 0 0 .9 0 18.5 18.5 0 0 0 2.36-.22 12.47 12.47 0 0 0 1.53-.32c.55-.12 1.08-.36 1.65-.54.28-.11.55-.26.83-.39l.42-.2.39-.26.79-.52.7-.64.36-.31c.11-.12.2-.24.31-.36l.6-.73c.35-.51.63-1.07.94-1.59s.43-1.11.64-1.62.26-1.05.39-1.53l.17-.69c0-.22.06-.43.09-.63l.13-1 .11-.9-.05.91m1.59-6c-.78-.88-2.46.24-3.35 0s-6.67-2.64-12.89 2.66-4.24 11.48-4.23 11.9c0 .25-.07.79-.09 1.27a3.13 3.13 0 0 0 .68 2.36 3.18 3.18 0 0 0 2.29.92h1.23c.41.05 6.35 2.63 12.21-3.08s4-11.72 3.88-12.62 1.26-2.33.27-3.44" class="23e4d4b5-c98b-4651-946b-5f3217e22699" data-name="Layer 203"/>
        <path id="e4744d5c-1a4c-4f83-a385-78e9e6909338" d="M798.62 143.48a6.11 6.11 0 0 0 .44.48 13.47 13.47 0 0 0 1.29 1.12 9 9 0 0 0 .93.64c.33.23.72.38 1.1.59.2.09.41.15.61.24l.31.12.33.08.66.15h2.04c.44-.07.87-.2 1.29-.3s.78-.33 1.15-.48.67-.39 1-.56l.44-.25c.14-.09.25-.18.37-.27l.6-.44.52-.39-.5.42-.57.49c-.11.09-.22.2-.35.29l-.43.28c-.3.19-.61.42-1 .61l-1.17.52c-.43.11-.87.25-1.33.33l-.7.06h-.71l-.71-.06-.69-.16-.34-.09-.32-.13c-.21-.09-.43-.16-.63-.25a9.82 9.82 0 0 1-1.11-.64 9.13 9.13 0 0 1-.92-.68 10.94 10.94 0 0 1-1.23-1.21 6 6 0 0 1-.41-.51zm-2.81-2.28a2.3 2.3 0 0 0 .66 1.65c.23.25.49.51.6.65a8.3 8.3 0 0 0 7.66 4.82 9.07 9.07 0 0 0 8.44-4.26c.39-.53 1.83-.51 1.91-1.57.06-.84-1.35-1.16-1.67-1.74a9.08 9.08 0 0 0-7.78-5.38 8.29 8.29 0 0 0-8.24 3.72c-.12.13-.44.36-.7.58a2.24 2.24 0 0 0-.88 1.53" class="23e4d4b5-c98b-4651-946b-5f3217e22699" data-name="Layer 202"/>
        <path id="997b607a-de6b-40ed-be5d-5e2180b768a6" d="M748.56 207a17.15 17.15 0 0 0 2.31-3.65 13.36 13.36 0 0 0 1.21-4.14 8.16 8.16 0 0 0 0-2h.05a6.74 6.74 0 0 1 .26 2 10 10 0 0 1-.27 2.07 14.51 14.51 0 0 1-.78 2.26 18.33 18.33 0 0 1-1.21 2 13.26 13.26 0 0 1-1.33 1.58 9.77 9.77 0 0 1-1.08 1l-.42.35s.55-.56 1.3-1.48m-21.67 9.07c1.32 1.08 3.46-.91 4.78-.77s10.13 2.25 17.82-6.75 3.46-17.38 3.34-18c-.07-.35-.08-1.14-.15-1.83a4.52 4.52 0 0 0-1.51-3.22 4.6 4.6 0 0 0-3.48-.8c-.68.08-1.42.23-1.77.24-.6 0-9.67-2.3-16.75 7.19s-3.1 17.66-2.68 18.93-1.27 3.62.39 5" class="23e4d4b5-c98b-4651-946b-5f3217e22699" data-name="Layer 201"/>
        <path id="37debc3c-cdeb-4ac1-953e-98dd497c96aa" d="M800.35 188.76l1.16-.53 1.42-.86a14.45 14.45 0 0 0 1.59-1.15 15.62 15.62 0 0 0 1.65-1.45 20.1 20.1 0 0 0 1.6-1.71c.54-.59 1-1.28 1.48-1.92a31.63 31.63 0 0 0 2.41-4.12 32.75 32.75 0 0 0 1.6-3.85 24.72 24.72 0 0 0 .79-2.84c.09-.35.1-.61.13-.8s0-.29 0-.29h.1l.06.29a5.69 5.69 0 0 1 0 .88 17.81 17.81 0 0 1-.48 3 25 25 0 0 1-1.37 4.05 32.09 32.09 0 0 1-2.38 4.32c-.54.65-1 1.35-1.59 2a21 21 0 0 1-1.71 1.74 11.08 11.08 0 0 1-1.8 1.4 15.16 15.16 0 0 1-1.74 1.06 12.54 12.54 0 0 1-2.81 1.12c-.7.21-1.1.3-1.1.3v-.1l1-.46m-21.23-36.73c-18.39 9-18.73 24.74-19.08 27s-4.82 4.57-3.33 8c1.18 2.71 6 1.35 8 2.61s13.83 11.54 32.77 3.8 19.05-24 19.35-25c.18-.6.77-1.82 1.21-2.94a7.85 7.85 0 0 0 .22-6.15 8 8 0 0 0-4.73-4c-1.11-.41-2.37-.78-2.92-1-.95-.45-13.08-11.25-31.47-2.27" class="23e4d4b5-c98b-4651-946b-5f3217e22699" data-name="Layer 200"/>
        <path id="a6db504a-54f0-42a9-89bd-4ed3a5dc0247" d="M773.81 212.06a13 13 0 0 0 .9-3.12 3.43 3.43 0 0 0 1-.7 1.53 1.53 0 0 0 .44-1.07 2.23 2.23 0 0 0-.35-1.12 4.14 4.14 0 0 0-.76-.92 4.22 4.22 0 0 1 .89.86 2.27 2.27 0 0 1 .47 1.22 1.74 1.74 0 0 1-.47 1.27 3.41 3.41 0 0 1-.89.71 11.07 11.07 0 0 1-.94 3 6.62 6.62 0 0 1-.95 1.4 3.08 3.08 0 0 1-.65.55 3.36 3.36 0 0 1-.75.37 4.61 4.61 0 0 0 2.05-2.42m-21.54 3.59c.75.67 5.25 5.87 13.93 3.74s9.76-9.16 10-9.58c.12-.25.45-.74.71-1.2a3.43 3.43 0 0 0 .49-2.65 3.5 3.5 0 0 0-1.79-2c-.45-.25-1-.49-1.19-.63-.38-.26-4.94-5.7-13.46-3s-9.67 9.5-10 10.46-2.37 1.67-1.95 3.24c.34 1.25 2.53 1 3.28 1.64" class="23e4d4b5-c98b-4651-946b-5f3217e22699" data-name="Layer 199"/>
        <path id="2c488a72-2dc5-4d38-a2ae-21970d816c16" d="M666.52 183.28l-.23-1.94c-.26-1.27-.71-2.48-1-3.68-.56-1.11-1-2.22-1.52-3.26s-1.2-1.89-1.73-2.75l-.79-1.22c-.26-.38-.56-.7-.81-1l-1.35-1.67-1.19-1.46.06-.06 1.28 1.37 1.47 1.58c.28.31.6.62.89 1l.85 1.2c.57.85 1.28 1.72 1.87 2.73l1.61 3.26c.36 1.23.83 2.48 1.13 3.8l.27 2c0 .34.1.68.13 1v1l-.07 2.05-.38 2c-.07.33-.12.66-.2 1l-.32.95c-.22.62-.4 1.26-.64 1.85a28.5 28.5 0 0 1-1.68 3.29 26.58 26.58 0 0 1-1.84 2.75 31.49 31.49 0 0 1-3.28 3.7 17.68 17.68 0 0 1-1.4 1.25l-.05-.07a17.62 17.62 0 0 0 1.3-1.34 38.64 38.64 0 0 0 3-3.86 26.06 26.06 0 0 0 1.69-2.77c.6-1 1-2.13 1.54-3.25.23-.58.39-1.19.59-1.79l.29-.92c.07-.31.11-.63.18-1l.34-1.93v-3c0-.33-.07-.65-.11-1m-33.09 1.63c-.93 16.89 11.11 22.7 11.76 23.27.38.34 1.08 1.22 1.76 1.94a6.42 6.42 0 0 0 4.58 2.55 6.58 6.58 0 0 0 4.63-2.13c.7-.68 1.41-1.5 1.79-1.82.67-.55 12.95-5.83 12.75-22.74s-11.77-22.71-13.34-23.78-1.7-5.21-4.75-5.3c-2.42-.07-3.13 4-4.74 5s-13.42 6.28-14.35 23.17" class="23e4d4b5-c98b-4651-946b-5f3217e22699" data-name="Layer 198"/>
        <path id="01da9565-00ef-41f5-a257-a51e49c11249" d="M469.99 251.19l-.06 1v.63l-.14.69c-.1.48-.17 1-.33 1.54l-.6 1.66c-.31.53-.58 1.1-.94 1.64l-.61.76c-.1.13-.2.26-.31.38l-.36.33-.73.65-.82.53c-.14.08-.27.18-.41.25l-.43.2c-.29.13-.56.27-.85.38a13.52 13.52 0 0 1-1.69.5 12.53 12.53 0 0 1-1.55.26 15 15 0 0 1-2.35.07 8.52 8.52 0 0 1-.89-.07 8.42 8.42 0 0 0 .89 0 18.4 18.4 0 0 0 2.32-.22 12.09 12.09 0 0 0 1.51-.32c.54-.11 1.06-.35 1.63-.53.27-.11.54-.25.81-.38l.41-.2.39-.25.77-.51.69-.63.35-.31.3-.36.59-.72c.35-.51.62-1.06.93-1.56s.42-1.09.63-1.6.26-1 .38-1.5l.16-.68c0-.22.06-.43.09-.62l.13-1 .11-.89-.05.9m1.56-5.9c-.77-.87-2.42.24-3.3 0s-6.57-2.6-12.7 2.62-4.18 11.3-4.17 11.72c0 .24-.07.77-.09 1.25a3.09 3.09 0 0 0 .67 2.32 3.13 3.13 0 0 0 2.25.91h1.21c.41.05 6.25 2.59 12-3s4-11.54 3.82-12.43 1.24-2.3.27-3.39" class="23e4d4b5-c98b-4651-946b-5f3217e22699" data-name="Layer 197"/>
        <path id="2f20d178-1282-4fca-ae5a-ebfaab1a8f69" d="M366.81 269.91a5.48 5.48 0 0 0 3.55-1.32 15.51 15.51 0 0 0 2.75-2.73 4.06 4.06 0 0 0 1.4-.18 1.81 1.81 0 0 0 1.08-.86 2.67 2.67 0 0 0 .34-1.34 5 5 0 0 0-.25-1.41 5.07 5.07 0 0 1 .43 1.41 2.71 2.71 0 0 1-.22 1.55 2.07 2.07 0 0 1-1.23 1.08 4 4 0 0 1-1.34.23 13.18 13.18 0 0 1-2.74 2.62 7.8 7.8 0 0 1-1.8.9 3.73 3.73 0 0 1-1 .19 4 4 0 0 1-1-.05zm-19.58-16.06c-.87.83-3.44.35-3.91 2.24-.37 1.5 2.07 2.49 2.47 3.63s2.07 9.2 12.37 12.06 15.51-3.85 16-4.17c.26-.19.9-.51 1.43-.83a4.08 4.08 0 0 0 2-2.48 4.2 4.2 0 0 0-.69-3.17c-.33-.52-.73-1.08-.88-1.36-.25-.49-1.85-8.84-12.31-11s-15.61 4.25-16.48 5.08" class="23e4d4b5-c98b-4651-946b-5f3217e22699" data-name="Layer 196"/>
        <path id="5eeb0049-a3f4-40fe-97ba-a9448c45354d" d="M752.3 110.31a6.66 6.66 0 0 1-1.42 1 4.21 4.21 0 0 1-1.31.46 21.3 21.3 0 0 1-1.8 2.44 16.19 16.19 0 0 1-2.61 2.22 8.86 8.86 0 0 1-3.19 1.38 5.27 5.27 0 0 1-1.74.1 5.47 5.47 0 0 1-1.65-.38v-.1a7.13 7.13 0 0 0 1.6.06 6.85 6.85 0 0 0 1.58-.3 10.3 10.3 0 0 0 2.84-1.51 19.69 19.69 0 0 0 4.39-4.72 6.69 6.69 0 0 0 4.91-3.43l.09.05a6.77 6.77 0 0 1-1.78 2.76m1.51-8.67c-.38-.75-2.84-13.58-18.92-16.91s-24 6.54-25.32 7.81-5.29.54-6 3.44c-.57 2.3 3.19 3.83 3.8 5.58s3.17 14.14 19 18.53 23.83-5.91 24.51-6.41c.4-.29 1.38-.78 2.21-1.28a6.27 6.27 0 0 0 3.14-3.81 6.46 6.46 0 0 0-1.06-4.87c-.5-.81-1.13-1.66-1.35-2.09" class="23e4d4b5-c98b-4651-946b-5f3217e22699" data-name="Layer 195"/>
        <path id="7297c91b-f1bb-4684-bd8b-11bfe3ef046f" d="M823.45 115.25a14.47 14.47 0 0 1-.78 2.26 18.39 18.39 0 0 1-1.21 2 13.24 13.24 0 0 1-1.33 1.58 9.76 9.76 0 0 1-1.08 1l-.42.35s.55-.56 1.3-1.48a17.13 17.13 0 0 0 2.31-3.65 13.35 13.35 0 0 0 1.21-4.14 8.13 8.13 0 0 0 0-2h.05a6.74 6.74 0 0 1 .26 2 10 10 0 0 1-.27 2.07m.64-12.59a4.53 4.53 0 0 0-1.51-3.22 4.6 4.6 0 0 0-3.48-.8c-.68.08-1.42.23-1.77.24-.6 0-9.67-2.3-16.75 7.19s-3.1 17.66-2.68 18.93-1.27 3.62.39 5c1.32 1.08 3.46-.91 4.78-.77s10.11 2.26 17.82-6.74 3.46-17.38 3.34-18c-.07-.35-.08-1.14-.15-1.83" class="23e4d4b5-c98b-4651-946b-5f3217e22699" data-name="Layer 194"/>
        <path id="63b2c47e-147c-4c07-84d7-21326dd184dd" d="M751.74 167.27a8.71 8.71 0 0 0 1.08-1.31 8.56 8.56 0 0 0 .6-1 9.1 9.1 0 0 0 .56-1.13 15.42 15.42 0 0 0 .86-2.61 21.41 21.41 0 0 0 .54-5.13 18.75 18.75 0 0 0-.17-2.34 14.22 14.22 0 0 1 .39 2.35 17.31 17.31 0 0 1 0 2.45 20.06 20.06 0 0 1-.39 2.79 15.87 15.87 0 0 1-.94 2.67 7 7 0 0 1-.63 1.14 8.77 8.77 0 0 1-.67 1 7.25 7.25 0 0 1-1.21 1.24l-.49.42.45-.47m-26.16 8.31c1.47.56 10.92 5.7 22.47-2.24s9.27-18.83 9.32-19.55c0-.42.25-1.33.38-2.14a5.37 5.37 0 0 0-.74-4.15 5.46 5.46 0 0 0-3.74-2c-.8-.11-1.7-.17-2.1-.27-.7-.16-10.37-5.61-21.37 3.08s-8.94 19.27-8.85 20.85-2.56 3.76-1.07 5.82c1.18 1.64 4.24 0 5.71.58" class="23e4d4b5-c98b-4651-946b-5f3217e22699" data-name="Layer 193"/>
        <path id="3f53d74d-682c-417e-94eb-7879855f836c" d="M836.69 179.22a7.18 7.18 0 0 0 .78 0 15.88 15.88 0 0 0 2-.34 10.63 10.63 0 0 0 1.3-.38c.46-.13.91-.38 1.39-.57.23-.11.45-.26.68-.39l.35-.2.32-.24.64-.5.56-.6.29-.29.24-.33.47-.66c.27-.46.47-1 .71-1.42s.3-1 .45-1.44.16-.92.24-1.34l.1-.6v-2.23 2.24l-.07.61c-.06.42-.09.89-.19 1.37l-.41 1.49c-.23.48-.44 1-.71 1.49l-.48.7c-.08.12-.16.24-.25.35l-.3.31-.6.61-.68.51-.34.25-.36.2c-.24.13-.47.28-.71.39a11.93 11.93 0 0 1-1.44.54 11 11 0 0 1-1.34.33 13 13 0 0 1-2 .22 7.34 7.34 0 0 1-.78 0zm-5.49-.83a10.86 10.86 0 0 0 11.31.83 10 10 0 0 0 6.29-8.87c.05-.21.24-.64.37-1a2.7 2.7 0 0 0 0-2.12 2.74 2.74 0 0 0-1.68-1.3c-.39-.13-.82-.23-1-.31s-4.65-3.68-10.84-.32a10.94 10.94 0 0 0-6.17 9.56c-.09.79-1.59 1.64-1 2.79.44.91 2.1.38 2.78.78" class="23e4d4b5-c98b-4651-946b-5f3217e22699" data-name="Layer 192"/>
        <path id="c8192204-8c6d-419a-992b-b4e1837b6f1e" d="M840.59 212.48a7.82 7.82 0 0 0 5.06-1.89 22.15 22.15 0 0 0 3.92-3.89 5.8 5.8 0 0 0 2-.25 2.59 2.59 0 0 0 1.54-1.22 3.8 3.8 0 0 0 .41-2 7.07 7.07 0 0 0-.36-2h.06a7.2 7.2 0 0 1 .61 2 3.86 3.86 0 0 1-.31 2.21 3 3 0 0 1-1.76 1.55 5.81 5.81 0 0 1-1.91.33 18.8 18.8 0 0 1-3.91 3.74 11.16 11.16 0 0 1-2.57 1.29 5.25 5.25 0 0 1-1.42.28 5.72 5.72 0 0 1-1.42-.07zm-27.93-22.91c-1.24 1.19-4.91.5-5.58 3.19-.53 2.14 3 3.56 3.53 5.18s2.95 13.12 17.64 17.2 22.12-5.49 22.76-5.95c.38-.27 1.28-.72 2-1.19a5.83 5.83 0 0 0 2.92-3.52 6 6 0 0 0-1-4.52c-.47-.75-1-1.54-1.25-1.94-.36-.7-2.63-12.61-17.56-15.7s-22.26 6.07-23.5 7.25" class="23e4d4b5-c98b-4651-946b-5f3217e22699" data-name="Layer 191"/>
        <path id="a8562ab1-e328-4c8b-ac19-f459bb1f4750" d="M839.99 154.38a36.07 36.07 0 0 0 3.54-2.9 24.18 24.18 0 0 0 2.11-2.19c.75-.78 1.34-1.75 2.06-2.66.32-.48.6-1 .9-1.52l.45-.78c.13-.27.23-.56.35-.84l.7-1.69.43-1.79.24-.89c0-.3.06-.61.1-.92l.18-1.82c0-1.21-.15-2.41-.2-3.57-.28-1.13-.51-2.24-.73-3.29s-.72-2-1-2.87l-.47-1.28c-.16-.4-.37-.76-.54-1.11l-.9-1.8-.79-1.57h.07l.89 1.52 1 1.74c.19.34.42.69.62 1.08l.54 1.27c.35.89.83 1.83 1.16 2.88l.85 3.36c.08 1.2.26 2.44.26 3.7l-.16 1.9c0 .32 0 .64-.09 1l-.24.93-.48 1.86-.75 1.76c-.13.29-.24.59-.38.86l-.48.8c-.33.53-.62 1.07-1 1.56a26.68 26.68 0 0 1-2.2 2.67 24.83 24.83 0 0 1-2.23 2.14 29.47 29.47 0 0 1-3.75 2.72 16.65 16.65 0 0 1-1.53.86v-.07a16.24 16.24 0 0 0 1.46-1m-19.71-21.42c-4.25 15.26 5.6 23 6.07 23.67.28.39.74 1.33 1.22 2.13a6 6 0 0 0 3.64 3 6.15 6.15 0 0 0 4.66-1c.77-.48 1.59-1.08 2-1.3.72-.37 13-2.7 16.24-18.21s-6.19-23.16-7.41-24.45-.5-5.11-3.28-5.81c-2.2-.56-3.68 3.07-5.35 3.65s-13.54 3-17.79 18.29" class="23e4d4b5-c98b-4651-946b-5f3217e22699" data-name="Layer 190"/>
        <path id="4cf5c403-d58f-43f7-8c47-735abf671e03" d="M775.88 105.48a6.19 6.19 0 0 0 .4.51 13.45 13.45 0 0 0 1.18 1.23 9 9 0 0 0 .87.71c.31.25.68.45 1 .68.19.1.39.19.59.29l.3.14.32.1.65.21.67.11.34.06h1c.45 0 .88-.13 1.31-.19s.81-.26 1.19-.37.71-.33 1-.47l.46-.21c.14-.07.27-.16.39-.23l.63-.39.56-.34-.53.38-.61.43c-.12.08-.24.18-.38.26l-.45.24c-.32.16-.65.36-1 .52l-1.21.42c-.44.07-.89.17-1.35.21h-1.06l-.35-.06-.7-.12-.67-.22-.33-.11-.31-.15c-.2-.11-.41-.2-.6-.31a10 10 0 0 1-1.05-.73 9 9 0 0 1-.86-.76 10.91 10.91 0 0 1-1.12-1.31 6.21 6.21 0 0 1-.37-.54zm-1.55-.11a8.31 8.31 0 0 0 7.21 5.47 9.06 9.06 0 0 0 8.78-3.51c.44-.49 1.86-.35 2-1.4.14-.83-1.24-1.27-1.51-1.87a9.09 9.09 0 0 0-7.28-6 8.28 8.28 0 0 0-8.53 3c-.14.11-.47.32-.75.52a2.24 2.24 0 0 0-1 1.44 2.3 2.3 0 0 0 .52 1.7c.2.27.45.56.54.7" class="23e4d4b5-c98b-4651-946b-5f3217e22699" data-name="Layer 189"/>
        <path id="36ab22aa-bf97-4942-bc75-627b813df37b" d="M880.24 193.75a6.07 6.07 0 0 0 1.38.05 5.91 5.91 0 0 0 1.35-.26 8.85 8.85 0 0 0 2.44-1.3 16.91 16.91 0 0 0 3.77-4.06 5.75 5.75 0 0 0 4.22-2.95h.08a5.83 5.83 0 0 1-1.53 2.38 5.68 5.68 0 0 1-1.22.86 3.6 3.6 0 0 1-1.11.38 18.26 18.26 0 0 1-1.56 2.11 13.9 13.9 0 0 1-2.24 1.91 7.61 7.61 0 0 1-2.74 1.18 4.48 4.48 0 0 1-1.49.09 4.68 4.68 0 0 1-1.42-.32zm-10.52 2.29c13.61 3.78 20.49-5.08 21.07-5.51.35-.25 1.19-.67 1.9-1.1a5.39 5.39 0 0 0 2.7-3.27 5.55 5.55 0 0 0-.91-4.19c-.43-.69-1-1.42-1.16-1.8-.33-.65-2.44-11.68-16.27-14.54s-20.62 5.62-21.77 6.72-4.55.46-5.17 3c-.49 2 2.74 3.3 3.27 4.8s2.73 12.15 16.33 15.93" class="23e4d4b5-c98b-4651-946b-5f3217e22699" data-name="Layer 188"/>
        <path id="40876e85-0233-4379-b3c2-0329da3a75cf" d="M885.68 84.33a17.85 17.85 0 0 1-.48 3 25 25 0 0 1-1.37 4 32.21 32.21 0 0 1-2.38 4.32c-.54.65-1 1.35-1.59 2a20.86 20.86 0 0 1-1.71 1.74 11.16 11.16 0 0 1-1.8 1.4 15.15 15.15 0 0 1-1.74 1.06 12.55 12.55 0 0 1-2.81 1.12c-.7.21-1.1.3-1.1.3v-.1l1-.46 1.17-.53 1.42-.86a14.72 14.72 0 0 0 1.59-1.15 15.83 15.83 0 0 0 1.65-1.45 20.26 20.26 0 0 0 1.6-1.71c.54-.59 1-1.28 1.48-1.92a31.64 31.64 0 0 0 2.41-4.12 32.93 32.93 0 0 0 1.6-3.85 24.43 24.43 0 0 0 .79-2.84c.08-.35.1-.61.13-.8s0-.29 0-.29h.1l.06.29a6 6 0 0 1 0 .88m-.82-15c-1.11-.41-2.37-.77-2.92-1-.95-.45-13.08-11.25-31.47-2.27s-18.73 24.74-19.08 27-4.81 4.57-3.33 8c1.18 2.71 6 1.35 8 2.61s13.83 11.54 32.77 3.8 19.05-24 19.35-25c.18-.6.77-1.82 1.21-2.94a7.85 7.85 0 0 0 .22-6.15 8 8 0 0 0-4.73-4" class="23e4d4b5-c98b-4651-946b-5f3217e22699" data-name="Layer 187"/>
        <path id="23e97402-2069-451a-9902-704611d95411" d="M777.36 144.48a7.08 7.08 0 0 0 1.6.06 6.86 6.86 0 0 0 1.58-.3 10.28 10.28 0 0 0 2.84-1.51 19.66 19.66 0 0 0 4.39-4.72 6.69 6.69 0 0 0 4.91-3.43l.09.05a6.78 6.78 0 0 1-1.78 2.77 6.65 6.65 0 0 1-1.42 1 4.23 4.23 0 0 1-1.31.46 21.22 21.22 0 0 1-1.8 2.44 16.23 16.23 0 0 1-2.53 2.18 8.88 8.88 0 0 1-3.19 1.38 5.22 5.22 0 0 1-1.74.1 5.47 5.47 0 0 1-1.65-.38zm-29-24.89c-1.34 1.28-5.29.54-6 3.44-.57 2.3 3.19 3.83 3.8 5.58s3.17 14.14 19 18.53 23.83-5.91 24.52-6.41c.4-.29 1.38-.78 2.21-1.28a6.28 6.28 0 0 0 3.14-3.81 6.46 6.46 0 0 0-1.06-4.87c-.5-.81-1.13-1.66-1.35-2.09-.38-.75-2.84-13.59-18.92-16.91s-24 6.54-25.32 7.81" class="23e4d4b5-c98b-4651-946b-5f3217e22699" data-name="Layer 186"/>
        <path id="98f50688-3029-49fc-8cbd-f73fef9a0249" d="M529.35 251.3a7.12 7.12 0 0 0 1.6.06 6.84 6.84 0 0 0 1.58-.3 10.29 10.29 0 0 0 2.84-1.51 19.67 19.67 0 0 0 4.39-4.72 6.69 6.69 0 0 0 4.91-3.43l.09.05a6.77 6.77 0 0 1-1.78 2.76 6.66 6.66 0 0 1-1.42 1 4.23 4.23 0 0 1-1.31.46 21.31 21.31 0 0 1-1.8 2.44 16.28 16.28 0 0 1-2.61 2.22 8.86 8.86 0 0 1-3.19 1.38 5.28 5.28 0 0 1-1.74.1 5.47 5.47 0 0 1-1.65-.38zm-31.24-15.82c.61 1.75 3.17 14.14 19 18.53s23.83-5.91 24.52-6.41c.4-.29 1.38-.78 2.2-1.28a6.28 6.28 0 0 0 3.1-3.84 6.46 6.46 0 0 0-1.06-4.87c-.5-.81-1.13-1.66-1.35-2.09-.38-.75-2.84-13.59-18.92-16.91s-24 6.54-25.32 7.81-5.29.54-6 3.44c-.57 2.3 3.19 3.84 3.8 5.58" class="23e4d4b5-c98b-4651-946b-5f3217e22699" data-name="Layer 185"/>
        <path id="80180bd3-e2fc-4ddc-ab14-dac3241fb633" d="M185.82 161.28a8.23 8.23 0 0 0 .89 0 18.4 18.4 0 0 0 2.32-.22 12.28 12.28 0 0 0 1.51-.32c.54-.12 1.06-.35 1.63-.53.27-.11.54-.26.81-.38l.41-.2.39-.25.78-.51.69-.63.35-.31.3-.36.59-.72c.35-.51.62-1.06.93-1.56s.42-1.09.63-1.6.26-1 .38-1.5l.16-.67c0-.22.06-.42.09-.62l.13-1 .11-.89-.05.9c0 .29 0 .63-.06 1v.63l-.13.69c-.1.48-.17 1-.33 1.54l-.6 1.66c-.31.53-.58 1.1-.94 1.64l-.61.76c-.1.13-.2.26-.31.38l-.36.33-.73.65-.81.52-.41.26-.43.2c-.29.13-.56.27-.85.38a13.51 13.51 0 0 1-1.69.5 12.52 12.52 0 0 1-1.55.27 14.88 14.88 0 0 1-2.35.07 8.19 8.19 0 0 1-.89-.07zm-5.59-1.7a3.08 3.08 0 0 0 .67 2.32 3.13 3.13 0 0 0 2.25.91h1.21c.41.05 6.26 2.59 12-3s4-11.54 3.82-12.43 1.24-2.3.27-3.39c-.77-.86-2.42.24-3.3 0s-6.57-2.6-12.69 2.62-4.18 11.31-4.16 11.72c0 .24-.07.78-.09 1.25" class="23e4d4b5-c98b-4651-946b-5f3217e22699" data-name="Layer 179"/>
        <path id="7a57d99b-6624-437e-9f2d-b6d8b7936386" d="M178.66 186.93a6.06 6.06 0 0 0 3.92-1.46 17.13 17.13 0 0 0 3-3 4.49 4.49 0 0 0 1.55-.19 2 2 0 0 0 1.19-.95 3 3 0 0 0 .32-1.52 5.45 5.45 0 0 0-.28-1.55 5.59 5.59 0 0 1 .47 1.56 3 3 0 0 1-.24 1.71 2.29 2.29 0 0 1-1.36 1.2 4.5 4.5 0 0 1-1.48.25 14.57 14.57 0 0 1-3 2.9 8.65 8.65 0 0 1-2 1 4.1 4.1 0 0 1-1.1.21 4.42 4.42 0 0 1-1.1-.06zm-26-15.27c-.41 1.66 2.29 2.76 2.73 4s2.28 10.16 13.66 13.32 17.13-4.25 17.62-4.61c.29-.21 1-.56 1.59-.92a4.51 4.51 0 0 0 2.26-2.74 4.64 4.64 0 0 0-.76-3.5c-.36-.58-.81-1.19-1-1.51-.27-.54-2-9.77-13.6-12.16s-17.24 4.7-18.2 5.62-3.8.39-4.32 2.47" class="23e4d4b5-c98b-4651-946b-5f3217e22699" data-name="Layer 178"/>
        <path id="141ba0b0-29cd-4b13-8c12-75b29e8f069f" d="M150.25 165.56a17.16 17.16 0 0 0 2.31-3.65 13.36 13.36 0 0 0 1.21-4.14 8.13 8.13 0 0 0 0-2h.05a6.74 6.74 0 0 1 .26 2 10 10 0 0 1-.27 2.07 14.47 14.47 0 0 1-.78 2.26 18.32 18.32 0 0 1-1.21 2 13.17 13.17 0 0 1-1.33 1.58 9.68 9.68 0 0 1-1.08 1l-.42.35s.55-.56 1.3-1.48m-21.59 9.05c1.32 1.08 3.46-.91 4.78-.77s10.13 2.25 17.82-6.75 3.46-17.38 3.34-18c-.07-.35-.08-1.14-.15-1.83a4.52 4.52 0 0 0-1.51-3.22 4.6 4.6 0 0 0-3.48-.8c-.68.08-1.42.23-1.77.24-.6 0-9.67-2.3-16.75 7.19s-3.1 17.66-2.68 18.93-1.27 3.62.39 5" class="23e4d4b5-c98b-4651-946b-5f3217e22699" data-name="Layer 177"/>
        <path id="d5697e71-6811-4a78-badb-fe851ed2e52a" d="M255.32 149.48a7.07 7.07 0 0 0 1.6.06 6.89 6.89 0 0 0 1.58-.3 10.31 10.31 0 0 0 2.84-1.51 19.68 19.68 0 0 0 4.39-4.72 6.69 6.69 0 0 0 4.91-3.43l.09.05a6.77 6.77 0 0 1-1.78 2.76 6.66 6.66 0 0 1-1.42 1 4.23 4.23 0 0 1-1.31.46 21.23 21.23 0 0 1-1.8 2.44 16.23 16.23 0 0 1-2.49 2.19 8.86 8.86 0 0 1-3.19 1.38 5.25 5.25 0 0 1-1.74.1 5.47 5.47 0 0 1-1.65-.38zm-31.24-15.87c.61 1.75 3.17 14.14 19 18.53s23.83-5.91 24.51-6.41c.4-.29 1.38-.78 2.21-1.28a6.28 6.28 0 0 0 3.14-3.81 6.46 6.46 0 0 0-1.06-4.87c-.5-.81-1.13-1.66-1.35-2.09-.38-.75-2.84-13.59-18.92-16.91s-24 6.54-25.32 7.81-5.29.54-6 3.44c-.57 2.3 3.19 3.83 3.8 5.58" class="23e4d4b5-c98b-4651-946b-5f3217e22699" data-name="Layer 176"/>
        <path id="209c69c2-538e-4047-b724-0d7727799447" d="M231.6 177.95a10.21 10.21 0 0 0 1.26-1.54 9.91 9.91 0 0 0 .7-1.13 10.8 10.8 0 0 0 .66-1.33 18.14 18.14 0 0 0 1-3.07 25.14 25.14 0 0 0 .63-6 22 22 0 0 0-.19-2.75h.05a16.76 16.76 0 0 1 .45 2.75 20.13 20.13 0 0 1 0 2.87 23.42 23.42 0 0 1-.46 3.27 18.71 18.71 0 0 1-1.11 3.13 8.15 8.15 0 0 1-.66 1.33 10.18 10.18 0 0 1-.79 1.12 8.5 8.5 0 0 1-1.43 1.45l-.58.5.52-.55m-36.14 2.23c.11 1.85-3 4.41-1.26 6.83 1.38 1.92 5 0 6.7.69s12.81 6.68 26.36-2.63 10.87-22.1 10.94-22.94c0-.5.3-1.56.45-2.52a6.3 6.3 0 0 0-.87-4.87 6.4 6.4 0 0 0-4.39-2.33c-.94-.14-2-.2-2.46-.31-.82-.19-12.17-6.59-25.08 3.61s-10.49 22.62-10.38 24.46" class="23e4d4b5-c98b-4651-946b-5f3217e22699" data-name="Layer 175"/>
        <path id="6f44fefb-101c-4168-96cf-aad930aecb71" d="M769.81 84.72l.39-.25.78-.51.69-.63.35-.31c.1-.11.2-.24.3-.36l.59-.72c.35-.51.62-1.06.93-1.56s.42-1.09.63-1.6.26-1 .38-1.5l.16-.67c0-.22.06-.42.09-.62l.13-1 .11-.89-.05.9-.06 1v.63l-.14.69c-.1.48-.17 1-.33 1.55l-.6 1.66c-.31.53-.58 1.1-.94 1.63l-.61.76c-.1.13-.2.26-.31.38l-.36.33-.73.65-.82.52-.41.26-.43.2c-.29.13-.56.27-.85.38a13.31 13.31 0 0 1-1.69.5 12.53 12.53 0 0 1-1.55.26 14.89 14.89 0 0 1-2.35.07 8.18 8.18 0 0 1-.89-.07 8.55 8.55 0 0 0 .89 0 18.42 18.42 0 0 0 2.32-.22 12.36 12.36 0 0 0 1.51-.32c.54-.11 1.06-.35 1.63-.53.27-.11.54-.26.81-.38zm-8.91-13c-6.12 5.22-4.18 11.31-4.17 11.72 0 .24-.07.77-.09 1.25a3.08 3.08 0 0 0 .67 2.32 3.13 3.13 0 0 0 2.25.91h1.21c.41.05 6.25 2.59 12-3s4-11.54 3.82-12.43 1.24-2.3.27-3.39c-.77-.86-2.42.24-3.3 0s-6.57-2.6-12.69 2.62" class="23e4d4b5-c98b-4651-946b-5f3217e22699" data-name="Layer 172"/>
        <path id="169bfa45-75f1-4c02-afb7-97996728dfa3" d="M452.86 186.85c.06-.14.1-.29.15-.44l.3-.88.16-.92.09-.46v-1.4c0-.61-.16-1.22-.23-1.8s-.34-1.12-.49-1.65-.43-1-.62-1.42l-.29-.63c-.1-.2-.21-.37-.31-.54l-.52-.88-.46-.77.51.74.58.85c.11.17.24.33.35.53l.32.63c.21.44.48.9.69 1.42l.55 1.68c.08.61.22 1.23.26 1.87v1.49l-.09.48-.18 1-.32.91c-.06.15-.1.3-.16.45l-.22.42c-.15.28-.28.56-.43.82a13.31 13.31 0 0 1-1 1.43 12.53 12.53 0 0 1-1.06 1.16 14.89 14.89 0 0 1-1.81 1.5 8.18 8.18 0 0 1-.75.49 8.55 8.55 0 0 0 .71-.54 18.42 18.42 0 0 0 1.7-1.6 12.36 12.36 0 0 0 1-1.18c.35-.42.62-.93 1-1.42.15-.26.27-.53.41-.8zm-15-4.82c-1.63 7.88 3.64 11.49 3.9 11.81s.42.65.69 1a3.08 3.08 0 0 0 2 1.42 3.13 3.13 0 0 0 2.34-.67c.38-.27.77-.6 1-.72s6.52-1.8 7.63-9.77-4-11.54-4.61-12.16-.43-2.57-1.87-2.84c-1.14-.21-1.76 1.68-2.6 2s-6.78 2-8.42 9.86" class="23e4d4b5-c98b-4651-946b-5f3217e22699" data-name="Layer 170"/>
        <path id="ccd8aede-a5f8-4c6f-bd0b-b831c4c12903" d="M636.67 129.31a10.21 10.21 0 0 0 1.27-1.54 9.92 9.92 0 0 0 .7-1.13 10.88 10.88 0 0 0 .66-1.33 18.14 18.14 0 0 0 1-3.07 25.15 25.15 0 0 0 .63-6 22 22 0 0 0-.19-2.75h.05a16.79 16.79 0 0 1 .45 2.75 20.28 20.28 0 0 1 0 2.87 23.42 23.42 0 0 1-.46 3.27 18.7 18.7 0 0 1-1.11 3.13 8.19 8.19 0 0 1-.74 1.34 10.18 10.18 0 0 1-.79 1.12 8.54 8.54 0 0 1-1.43 1.45l-.58.5.52-.55m-36.14 2.23c.11 1.85-3 4.41-1.26 6.83 1.38 1.92 5 0 6.7.69s12.81 6.68 26.36-2.63 10.87-22.1 10.94-22.94c0-.5.3-1.56.45-2.52a6.31 6.31 0 0 0-.87-4.87 6.41 6.41 0 0 0-4.39-2.33c-.94-.14-2-.2-2.46-.31-.82-.19-12.17-6.59-25.08 3.61s-10.49 22.61-10.38 24.46" class="23e4d4b5-c98b-4651-946b-5f3217e22699" data-name="Layer 168"/>
        <path id="7a7327e2-26b5-4944-b07e-b054360acf92" d="M857.79 33.38a7.12 7.12 0 0 0 1.6.06 6.85 6.85 0 0 0 1.58-.3 10.3 10.3 0 0 0 2.84-1.51 19.67 19.67 0 0 0 4.39-4.72 6.69 6.69 0 0 0 4.91-3.43l.09.05a6.77 6.77 0 0 1-1.78 2.76 6.66 6.66 0 0 1-1.42 1 4.23 4.23 0 0 1-1.31.46 21.4 21.4 0 0 1-1.8 2.44 16.23 16.23 0 0 1-2.61 2.22 8.86 8.86 0 0 1-3.19 1.38 5.28 5.28 0 0 1-1.74.1 5.47 5.47 0 0 1-1.65-.38zm-31.24-15.9c.61 1.75 3.17 14.14 19 18.53s23.83-5.91 24.52-6.41c.4-.29 1.38-.78 2.21-1.28a6.28 6.28 0 0 0 3.14-3.81 6.46 6.46 0 0 0-1.06-4.87c-.5-.81-1.13-1.66-1.35-2.09-.38-.75-2.84-13.59-18.92-16.91s-24 6.54-25.32 7.81-5.29.54-6 3.44c-.57 2.3 3.19 3.83 3.8 5.58" class="23e4d4b5-c98b-4651-946b-5f3217e22699" data-name="Layer 166"/>
      </g>
      <g id="7619ebdd-eb2d-492a-a270-4d649b56fd7b" data-name="Layer 60">
        <path id="a49ae400-571c-46f9-8bb3-6bd00d3565fd" d="M43.07 42.18a2.29 2.29 0 0 1-1.36 1.2 4.5 4.5 0 0 1-1.48.25 14.57 14.57 0 0 1-3 2.9 8.65 8.65 0 0 1-2 1 4.1 4.1 0 0 1-1.1.21 4.42 4.42 0 0 1-1.1-.06v-.05a6.06 6.06 0 0 0 3.9-1.46 17.16 17.16 0 0 0 3-3 4.49 4.49 0 0 0 1.55-.19 2 2 0 0 0 1.19-.95 3 3 0 0 0 .32-1.52 5.45 5.45 0 0 0-.28-1.55 5.59 5.59 0 0 1 .47 1.56 3 3 0 0 1-.24 1.71M29.59 24.27c-11.56-2.39-17.24 4.7-18.2 5.62s-3.8.39-4.32 2.47c-.41 1.65 2.29 2.76 2.73 4s2.28 10.16 13.66 13.32 17.13-4.25 17.62-4.61c.29-.21 1-.56 1.59-.92a4.51 4.51 0 0 0 2.26-2.67 4.64 4.64 0 0 0-.76-3.5c-.36-.58-.81-1.19-1-1.5-.27-.54-2-9.77-13.6-12.16" class="23e4d4b5-c98b-4651-946b-5f3217e22699" data-name="Layer 159"/>
        <path id="3a2f7a71-ab1e-43a6-be29-7b7927ec4af6" d="M72.57 74.66a12.17 12.17 0 0 0 2.2-2.15 9.38 9.38 0 0 0 1.5-2.66 5.72 5.72 0 0 0 .31-1.35 4.7 4.7 0 0 1-.14 1.43 6.87 6.87 0 0 1-.52 1.38 10.13 10.13 0 0 1-.9 1.44 13 13 0 0 1-1.09 1.21 9.34 9.34 0 0 1-1.18.87 7 7 0 0 1-.91.5l-.35.17s.48-.3 1.14-.81m-16.62 2.79c.75 1 2.57-.07 3.47.24s6.74 3.19 13.55-1.78 5.19-11.44 5.2-11.87c0-.25.12-.8.18-1.29a3.19 3.19 0 0 0-.54-2.46 3.34 3.34 0 0 0-2.31-1.11c-.49-.05-1-.07-1.28-.12-.43-.08-6.41-3.15-12.87 2.26s-5 11.7-4.89 12.64-1.46 2.3-.52 3.5" class="23e4d4b5-c98b-4651-946b-5f3217e22699" data-name="Layer 154"/>
        <path id="06a8cded-1b41-404a-ac33-a576db2c6880" d="M190.36 135.48a14.46 14.46 0 0 1-.78 2.26 18.25 18.25 0 0 1-1.21 2 13.24 13.24 0 0 1-1.33 1.58 9.65 9.65 0 0 1-1.08 1l-.42.35s.55-.56 1.3-1.48a17.17 17.17 0 0 0 2.31-3.65 13.35 13.35 0 0 0 1.21-4.14 8.13 8.13 0 0 0 0-2h.05a6.74 6.74 0 0 1 .26 2 10 10 0 0 1-.27 2.07m.64-12.59a4.53 4.53 0 0 0-1.51-3.22 4.6 4.6 0 0 0-3.48-.8c-.68.08-1.42.23-1.77.24-.6 0-9.67-2.3-16.74 7.19s-3.1 17.66-2.68 18.93-1.27 3.62.39 5c1.32 1.08 3.46-.91 4.78-.77s10.13 2.25 17.82-6.75 3.46-17.38 3.34-18c-.07-.35-.08-1.14-.15-1.83" class="23e4d4b5-c98b-4651-946b-5f3217e22699" data-name="Layer 137"/>
        <path id="2f32e071-fd9c-4c90-90bb-01eac3e7deef" d="M39.01 184.88l1.44 1.33 1.65 1.53c.31.3.67.6 1 1l1 1.18c.66.84 1.46 1.69 2.16 2.7l2 3.32c.47 1.26 1.06 2.52 1.46 3.87l.44 2.09c.07.35.16.7.21 1.05v1.07l.08 2.15-.24 2.12c0 .35-.07.7-.13 1l-.26 1c-.18.67-.32 1.34-.53 2a30 30 0 0 1-1.5 3.56 27.66 27.66 0 0 1-1.7 3 33 33 0 0 1-3.16 4.11 18.71 18.71 0 0 1-1.36 1.41l-.06-.07a18.48 18.48 0 0 0 1.26-1.5 40.42 40.42 0 0 0 2.85-4.25 27.19 27.19 0 0 0 1.55-3c.55-1.07.88-2.3 1.35-3.51.19-.62.31-1.27.48-1.92l.24-1c.05-.33.07-.67.11-1l.2-2-.11-2.05v-1c0-.34-.13-.67-.19-1l-.39-2c-.37-1.3-.93-2.53-1.36-3.75-.66-1.12-1.26-2.23-1.83-3.28s-1.4-1.88-2-2.73l-.91-1.21c-.3-.37-.64-.69-.93-1l-1.54-1.63-1.36-1.52zm-9.08 47.31c.42.33 1.22 1.19 2 1.89a6.69 6.69 0 0 0 4.86 2.08c2.85-.15 3.69-5.17 3.69-5.17.67-.76 1.35-1.67 1.73-2 .65-.62 13-7.07 11.54-24.68s-14-22.75-15.72-23.74-1.2-2.7-4.39-2.56c-2.53.11-3 4.46-4.56 5.62s-13.53 7.55-13.15 25.22 13.32 22.79 14 23.34" class="23e4d4b5-c98b-4651-946b-5f3217e22699" data-name="Layer 136"/>
        <path id="cb39bcff-b340-4c81-9411-06eb0144bd2d" d="M474.68 179.83a5.51 5.51 0 0 0 3.79-.38 15.58 15.58 0 0 0 3.37-2 4.12 4.12 0 0 0 1.41.19 1.82 1.82 0 0 0 1.27-.56 2.7 2.7 0 0 0 .63-1.27 5 5 0 0 0 .11-1.44 5.14 5.14 0 0 1 .06 1.49 2.72 2.72 0 0 1-.61 1.45 2.08 2.08 0 0 1-1.47.74 4.1 4.1 0 0 1-1.37-.12 13.26 13.26 0 0 1-3.34 1.86 7.89 7.89 0 0 1-2 .42 3.74 3.74 0 0 1-1-.07 4.08 4.08 0 0 1-1-.31zm-8.91-.38c9.32 5.42 16.1.21 16.61 0 .3-.12 1-.26 1.61-.44a4.11 4.11 0 0 0 2.62-1.9 4.24 4.24 0 0 0 .13-3.27c-.19-.6-.44-1.24-.51-1.55-.12-.54.44-9.09-9.22-13.87s-16.3.17-17.36.75-3.45-.54-4.38 1.18c-.74 1.37 1.39 3 1.49 4.17s-.32 9.5 9 14.91" class="23e4d4b5-c98b-4651-946b-5f3217e22699" data-name="Layer 131"/>
        <path id="96ad34ee-dd27-4a3c-b2ac-1a15c6bb3c78" d="M50.07 53.2a5.47 5.47 0 0 1 1.48.63 2.92 2.92 0 0 1 1.13 1.26 2.26 2.26 0 0 1 0 1.79 4.46 4.46 0 0 1-.74 1.28 14.38 14.38 0 0 1 .27 4.13 8.57 8.57 0 0 1-.5 2.14 4.07 4.07 0 0 1-.53 1 4.39 4.39 0 0 1-.73.8 6 6 0 0 0 1.37-3.9 17 17 0 0 0-.36-4.2 4.47 4.47 0 0 0 .83-1.3 2 2 0 0 0 0-1.5 2.9 2.9 0 0 0-.94-1.2 5.32 5.32 0 0 0-1.35-.77zm3.55 5.28c0-.35.2-1.11.31-1.78a4.46 4.46 0 0 0-.64-3.44 4.53 4.53 0 0 0-3.12-1.63c-.66-.09-1.41-.13-1.74-.21-.58-.13-8.65-4.61-17.73 2.67s-7.32 16.06-7.24 17.37-2.1 3.13-.86 4.84c1 1.36 3.52 0 4.75.45s9.1 4.67 18.65-2 7.59-15.69 7.63-16.29" class="23e4d4b5-c98b-4651-946b-5f3217e22699" data-name="Layer 128"/>
        <path id="5485f17b-37d3-432f-b10d-66cbe4f2935d" d="M84.35 118.94a7.13 7.13 0 0 0 1.61.06 6.85 6.85 0 0 0 1.58-.3 10.3 10.3 0 0 0 2.84-1.51 19.67 19.67 0 0 0 4.38-4.71 6.69 6.69 0 0 0 4.91-3.43l.09.05a6.77 6.77 0 0 1-1.78 2.76 6.66 6.66 0 0 1-1.42 1 4.23 4.23 0 0 1-1.31.46 21.31 21.31 0 0 1-1.8 2.44 16.23 16.23 0 0 1-2.52 2.18 8.86 8.86 0 0 1-3.19 1.38 5.25 5.25 0 0 1-1.74.1 5.47 5.47 0 0 1-1.65-.38zm-31.24-15.87c.61 1.75 3.17 14.14 19 18.53s23.82-5.91 24.52-6.41c.4-.29 1.38-.78 2.2-1.28a6.28 6.28 0 0 0 3.1-3.8 6.46 6.46 0 0 0-1-4.87c-.5-.81-1.13-1.66-1.35-2.09-.38-.75-2.84-13.58-18.92-16.91s-24 6.54-25.32 7.81-5.29.54-6 3.44c-.57 2.3 3.19 3.83 3.8 5.58" class="23e4d4b5-c98b-4651-946b-5f3217e22699" data-name="Layer 127"/>
        <path id="5111e423-db9f-4cb1-b5fd-cdca8b4168f4" d="M100.88 80.82a4.44 4.44 0 0 0 2-2.33 12.59 12.59 0 0 0 .87-3 3.3 3.3 0 0 0 .92-.68 1.47 1.47 0 0 0 .42-1 2.15 2.15 0 0 0-.33-1.09 4 4 0 0 0-.73-.89 4.09 4.09 0 0 1 .86.83 2.18 2.18 0 0 1 .45 1.18 1.68 1.68 0 0 1-.44 1.25 3.31 3.31 0 0 1-.86.68 10.68 10.68 0 0 1-.91 2.94 6.33 6.33 0 0 1-.91 1.35 3 3 0 0 1-.62.53 3.25 3.25 0 0 1-.72.36m4.23-4.54c.11-.24.43-.71.68-1.15a3.31 3.31 0 0 0 .47-2.55 3.38 3.38 0 0 0-1.73-2c-.44-.24-.94-.47-1.15-.61-.37-.25-4.77-5.5-13-2.89s-9.33 9.17-9.62 10.1-2.29 1.61-1.88 3.12c.32 1.2 2.44.94 3.17 1.58s5.06 5.67 13.45 3.61 9.42-8.84 9.61-9.25" class="23e4d4b5-c98b-4651-946b-5f3217e22699" data-name="Layer 124"/>
        <path id="7726acf4-c7cc-4732-aa24-bf261855f73d" d="M78.63 220.02a12.64 12.64 0 0 0 2.44-2.06 9.87 9.87 0 0 0 1.78-2.65 6 6 0 0 0 .44-1.39 5 5 0 0 1-.27 1.47 7.3 7.3 0 0 1-.65 1.4 10.69 10.69 0 0 1-1.05 1.42 13.52 13.52 0 0 1-1.31 1.18 9.74 9.74 0 0 1-1.29.82 7.13 7.13 0 0 1-1 .44l-.37.15s.52-.27 1.25-.75m-17.29 1.55c.69 1.06 2.65.13 3.55.53s6.66 3.87 14.1-.77 6.32-11.51 6.37-12c0-.26.2-.82.3-1.33a3.36 3.36 0 0 0-.35-2.61 3.42 3.42 0 0 0-2.28-1.35c-.5-.09-1.05-.16-1.3-.23-.43-.12-6.33-3.8-13.44 1.32s-6.13 11.79-6.11 12.78-1.7 2.28-.83 3.61" class="23e4d4b5-c98b-4651-946b-5f3217e22699" data-name="Layer 119"/>
        <path id="f79cd670-b602-4f14-8ea5-93e99176114e" d="M125.24 137.09a8.67 8.67 0 0 0 1.08-1.31 8.46 8.46 0 0 0 .6-1 9.23 9.23 0 0 0 .56-1.14 15.5 15.5 0 0 0 .87-2.61 21.45 21.45 0 0 0 .53-5.13 18.93 18.93 0 0 0-.16-2.34 14.36 14.36 0 0 1 .38 2.35 17.18 17.18 0 0 1 0 2.45 20.06 20.06 0 0 1-.39 2.79 15.84 15.84 0 0 1-.94 2.67 6.92 6.92 0 0 1-.63 1.14 8.63 8.63 0 0 1-.67 1 7.29 7.29 0 0 1-1.21 1.24l-.49.42.44-.47m-30.8 1.9c.09 1.58-2.56 3.76-1.07 5.82 1.18 1.64 4.24 0 5.71.58s10.92 5.7 22.47-2.24 9.27-18.83 9.32-19.55c0-.43.25-1.33.38-2.15a5.37 5.37 0 0 0-.74-4.15 5.46 5.46 0 0 0-3.74-2c-.8-.11-1.69-.17-2.1-.27-.7-.16-10.37-5.61-21.37 3.08s-8.94 19.27-8.85 20.85" class="23e4d4b5-c98b-4651-946b-5f3217e22699" data-name="Layer 118"/>
        <path id="363d50e5-0fb0-4508-a685-2924368de81c" d="M60.05 169.78l1.27-.15 1.61-.38a14.5 14.5 0 0 0 1.86-.61 15.72 15.72 0 0 0 2-.88 20.16 20.16 0 0 0 2-1.15c.69-.4 1.32-.92 2-1.38a31.53 31.53 0 0 0 3.54-3.19 32.89 32.89 0 0 0 2.69-3.18 24.55 24.55 0 0 0 1.61-2.47c.19-.31.28-.56.37-.72l.08-.28h.1v.29a5.69 5.69 0 0 1-.25.8 17.71 17.71 0 0 1-1.35 2.7 24.84 24.84 0 0 1-2.53 3.44 32 32 0 0 1-3.56 3.4c-.71.46-1.37 1-2.1 1.38a21.09 21.09 0 0 1-2.16 1.14 11.08 11.08 0 0 1-2.14.79 15 15 0 0 1-2 .48 12.43 12.43 0 0 1-3 .22h-1.13v-.1l1.11-.13m-34.28-9.9c1.46 1.79 9.71 15.19 30.1 13.56s25.38-17.11 26-18c.35-.52 1.29-1.5 2-2.44a7.84 7.84 0 0 0 2.06-5.8 8 8 0 0 0-3.31-5.25c-.93-.73-2-1.46-2.47-1.87-.77-.72-9.08-14.69-29.32-11.7s-25.29 17.91-26.32 20-6 2.89-5.58 6.6c.31 2.94 5.36 3.12 6.82 4.91" class="23e4d4b5-c98b-4651-946b-5f3217e22699" data-name="Layer 112"/>
        <path id="66b07d05-e688-4352-9859-7962f111cd2b" d="M38.05 104.73a13.9 13.9 0 0 1-2.24 1.91 7.63 7.63 0 0 1-2.74 1.18 4.51 4.51 0 0 1-1.5.09 4.65 4.65 0 0 1-1.42-.32v-.09a6.18 6.18 0 0 0 1.38.05 5.92 5.92 0 0 0 1.35-.26 8.86 8.86 0 0 0 2.44-1.3 16.93 16.93 0 0 0 3.77-4.06 5.75 5.75 0 0 0 4.22-2.95h.08a5.83 5.83 0 0 1-1.46 2.39 5.7 5.7 0 0 1-1.22.86 3.6 3.6 0 0 1-1.11.38 18.4 18.4 0 0 1-1.56 2.11m2.67-.45c.35-.25 1.19-.67 1.9-1.1a5.39 5.39 0 0 0 2.7-3.27 5.55 5.55 0 0 0-.91-4.19c-.43-.69-1-1.42-1.16-1.8-.33-.65-2.44-11.68-16.27-14.54S6.35 84.99 5.2 86.09s-4.55.46-5.17 3c-.49 2 2.74 3.3 3.27 4.8s2.73 12.15 16.33 15.93 20.49-5.08 21.07-5.51" class="23e4d4b5-c98b-4651-946b-5f3217e22699" data-name="Layer 105"/>
        <path id="686664f3-b83a-4ca8-9d0b-af7f68d4e0ff" d="M107.55 206.37a8.23 8.23 0 0 0 .89 0 18.4 18.4 0 0 0 2.32-.22 12.28 12.28 0 0 0 1.51-.32c.54-.12 1.06-.35 1.63-.53.27-.11.54-.26.81-.38l.41-.2.39-.25.78-.51.69-.63.35-.31.3-.36.59-.72c.35-.51.62-1.06.93-1.56s.42-1.09.63-1.6.26-1 .38-1.5l.16-.67c0-.22.06-.42.09-.62l.13-1 .11-.89-.05.9c0 .29 0 .63-.06 1v.63l-.13.69c-.1.48-.17 1-.33 1.54l-.6 1.66c-.31.53-.58 1.1-.94 1.64l-.61.76c-.1.13-.2.26-.31.38l-.36.33-.73.65-.81.52-.41.26-.43.2c-.29.13-.56.27-.85.38a13.51 13.51 0 0 1-1.69.5 12.52 12.52 0 0 1-1.55.27 14.88 14.88 0 0 1-2.35.07 8.19 8.19 0 0 1-.89-.07zm-5.62-1.7a3.08 3.08 0 0 0 .67 2.32 3.13 3.13 0 0 0 2.25.91h1.21c.41.05 6.26 2.59 12-3s4-11.54 3.82-12.43 1.24-2.3.27-3.39c-.77-.86-2.42.24-3.3 0s-6.57-2.6-12.69 2.62-4.18 11.31-4.16 11.72c0 .24-.07.78-.09 1.25" class="23e4d4b5-c98b-4651-946b-5f3217e22699" data-name="Layer 74"/>
        <path id="578df785-a065-4072-b394-6e53ae8507e8" d="M119.14 239.84a6.06 6.06 0 0 0 3.92-1.46 17.13 17.13 0 0 0 3-3 4.49 4.49 0 0 0 1.55-.19 2 2 0 0 0 1.19-.95 3 3 0 0 0 .32-1.52 5.45 5.45 0 0 0-.28-1.55 5.59 5.59 0 0 1 .47 1.56 3 3 0 0 1-.24 1.71 2.29 2.29 0 0 1-1.36 1.2 4.5 4.5 0 0 1-1.48.25 14.57 14.57 0 0 1-3 2.9 8.65 8.65 0 0 1-2 1 4.1 4.1 0 0 1-1.1.21 4.42 4.42 0 0 1-1.1-.06zm-26-15.27c-.41 1.66 2.29 2.76 2.73 4s2.28 10.16 13.66 13.32 17.13-4.25 17.62-4.61c.29-.21 1-.56 1.59-.92a4.51 4.51 0 0 0 2.26-2.74 4.64 4.64 0 0 0-.76-3.5c-.36-.58-.81-1.19-1-1.51-.27-.54-2-9.77-13.6-12.16s-17.24 4.7-18.2 5.62-3.8.39-4.32 2.47" class="23e4d4b5-c98b-4651-946b-5f3217e22699" data-name="Layer 73"/>
        <path id="47f07974-00cf-4732-92ec-9c3235481334" d="M100.93 178.95a17.16 17.16 0 0 0 2.31-3.65 13.36 13.36 0 0 0 1.21-4.14 8.13 8.13 0 0 0 0-2h.05a6.74 6.74 0 0 1 .26 2 10 10 0 0 1-.27 2.07 14.47 14.47 0 0 1-.78 2.26 18.32 18.32 0 0 1-1.21 2 13.17 13.17 0 0 1-1.33 1.58 9.68 9.68 0 0 1-1.08 1l-.42.35s.55-.56 1.3-1.48m-21.59 9.05c1.32 1.08 3.46-.91 4.78-.77s10.12 2.26 17.77-6.74 3.46-17.38 3.34-18c-.07-.35-.08-1.14-.15-1.83a4.52 4.52 0 0 0-1.47-3.17 4.6 4.6 0 0 0-3.48-.8c-.68.08-1.42.23-1.77.24-.6 0-9.67-2.3-16.75 7.19s-3.1 17.66-2.68 18.93-1.27 3.62.39 5" class="23e4d4b5-c98b-4651-946b-5f3217e22699" data-name="Layer 72"/>
        <path id="52b91b29-2777-4f79-93e7-963c0b7b8a7e" d="M830.05 80.31a6.68 6.68 0 0 1-1.12 1.37 4.22 4.22 0 0 1-1.12.79 21.26 21.26 0 0 1-1.05 2.87 16.32 16.32 0 0 1-1.88 2.87 8.92 8.92 0 0 1-2.67 2.22 5.27 5.27 0 0 1-1.64.59 5.47 5.47 0 0 1-1.69.11v-.1a7.11 7.11 0 0 0 1.56-.39 6.86 6.86 0 0 0 1.43-.73 10.34 10.34 0 0 0 2.3-2.25 19.72 19.72 0 0 0 2.89-5.77 6.71 6.71 0 0 0 3.75-4.68h.1a6.78 6.78 0 0 1-.93 3.15m.91-7.12c-.71-.63-1.55-1.27-1.88-1.63-.58-.61-6.53-12.24-22.89-10.88s-21.18 13-22.11 14.65-4.93 2-4.8 5c.1 2.37 4.13 2.78 5.21 4.28s7 12.67 23.43 12.42 21.22-12.4 21.73-13.07c.3-.4 1.11-1.14 1.76-1.85a6.29 6.29 0 0 0 1.95-4.54 6.44 6.44 0 0 0-2.38-4.37" class="23e4d4b5-c98b-4651-946b-5f3217e22699" data-name="Layer 62"/>
      </g>
    </g>
    <path d="M673.21 284.82a6.06 6.06 0 0 0 3.92-1.46 17.17 17.17 0 0 0 3-3 4.49 4.49 0 0 0 1.55-.19 2 2 0 0 0 1.19-.95 3 3 0 0 0 .32-1.52 5.49 5.49 0 0 0-.28-1.55 5.62 5.62 0 0 1 .47 1.56 3 3 0 0 1-.24 1.71 2.28 2.28 0 0 1-1.36 1.2 4.48 4.48 0 0 1-1.48.25 14.6 14.6 0 0 1-3 2.9 8.65 8.65 0 0 1-2 1 4.1 4.1 0 0 1-1.1.21 4.42 4.42 0 0 1-1.1-.06zm-9.56 2.07c11.38 3.16 17.13-4.25 17.62-4.61.29-.21 1-.56 1.59-.92a4.51 4.51 0 0 0 2.26-2.74 4.64 4.64 0 0 0-.76-3.5c-.36-.58-.81-1.19-1-1.51-.27-.54-2-9.77-13.6-12.16s-17.24 4.7-18.2 5.62-3.8.39-4.32 2.47c-.41 1.65 2.29 2.76 2.73 4s2.28 10.16 13.66 13.32m159.53.86a5.51 5.51 0 0 0 3.79-.38 15.58 15.58 0 0 0 3.37-2 4.12 4.12 0 0 0 1.41.19 1.82 1.82 0 0 0 1.27-.56 2.7 2.7 0 0 0 .63-1.27 5 5 0 0 0 .11-1.44 5.14 5.14 0 0 1 .06 1.49 2.72 2.72 0 0 1-.61 1.45 2.08 2.08 0 0 1-1.47.74 4.1 4.1 0 0 1-1.37-.12 13.26 13.26 0 0 1-3.34 1.86 7.89 7.89 0 0 1-2 .42 3.74 3.74 0 0 1-1-.07 4.08 4.08 0 0 1-1-.31zm-8.91-.38c9.32 5.42 16.1.21 16.61 0 .3-.12 1-.26 1.61-.44a4.11 4.11 0 0 0 2.62-1.9 4.24 4.24 0 0 0 .13-3.27c-.19-.6-.44-1.24-.51-1.55-.12-.54.44-9.09-9.22-13.87s-16.3.17-17.36.75-3.45-.54-4.38 1.18c-.74 1.37 1.39 3 1.49 4.17s-.32 9.5 9 14.91m-38.74 7.64l1.21-.55 1.47-.89a15 15 0 0 0 1.65-1.19 16.27 16.27 0 0 0 1.71-1.5 20.77 20.77 0 0 0 1.66-1.78c.55-.61 1-1.32 1.53-2a32.79 32.79 0 0 0 2.5-4.26 34 34 0 0 0 1.66-4 25.33 25.33 0 0 0 .82-2.94c.09-.36.1-.63.14-.83s0-.3 0-.3h.11l.06.3a6 6 0 0 1 0 .91 18.43 18.43 0 0 1-.49 3.09 25.87 25.87 0 0 1-1.42 4.19 33.36 33.36 0 0 1-2.46 4.47c-.56.68-1.05 1.4-1.65 2a21.73 21.73 0 0 1-1.77 1.8 11.54 11.54 0 0 1-1.86 1.45 15.9 15.9 0 0 1-1.8 1.1 13 13 0 0 1-2.91 1.16c-.72.21-1.13.31-1.13.31v-.1l1.05-.47m-45.18-1.72c1.22 2.8 6.26 1.4 8.26 2.71s14.32 11.94 33.94 3.94 19.73-24.86 20-25.9c.18-.62.8-1.89 1.25-3a8.13 8.13 0 0 0 .23-6.37 8.28 8.28 0 0 0-4.9-4.14c-1.15-.43-2.45-.8-3-1.07-1-.47-13.54-11.65-32.59-2.35s-19.39 25.62-19.76 28-5 4.73-3.45 8.26m-123.73-16.12l.94.16 1.08.18 1.42.07a12.31 12.31 0 0 0 1.68-.06 13.38 13.38 0 0 0 1.85-.25 17.1 17.1 0 0 0 1.95-.46c.66-.17 1.3-.45 2-.66a27 27 0 0 0 3.66-1.79 28.13 28.13 0 0 0 3-2 20.9 20.9 0 0 0 1.9-1.65c.23-.21.36-.39.47-.51l.13-.21h.08l-.1.23a4.82 4.82 0 0 1-.42.62 15.23 15.23 0 0 1-1.75 1.9 21.22 21.22 0 0 1-2.89 2.23 27.37 27.37 0 0 1-3.73 1.95c-.69.21-1.36.48-2.05.64a17.93 17.93 0 0 1-2 .42 9.52 9.52 0 0 1-1.94.14 12.86 12.86 0 0 1-1.74-.07 10.67 10.67 0 0 1-2.53-.54c-.59-.18-.92-.31-.92-.31zm22.23-6.45c.41-.34 1.41-.93 2.25-1.52a6.69 6.69 0 0 0 3.06-4.28 6.88 6.88 0 0 0-1.48-5.1c-.59-.82-1.32-1.68-1.59-2.12-.46-.77-4-14.23-21.36-16.57s-25 8.73-26.34 10.18-5.58 1-6.14 4.1c-.44 2.49 3.67 3.84 4.45 5.65s4.41 14.79 21.56 18.29 24.9-8.05 25.59-8.63m-72.77 22.08l1.16-.53 1.42-.86a14.35 14.35 0 0 0 1.59-1.15 15.62 15.62 0 0 0 1.65-1.45 20.11 20.11 0 0 0 1.6-1.72c.54-.59 1-1.28 1.48-1.92a31.76 31.76 0 0 0 2.41-4.12 33.08 33.08 0 0 0 1.6-3.85 24.68 24.68 0 0 0 .79-2.84c.09-.35.1-.61.13-.8s0-.29 0-.29h.1l.06.29a5.69 5.69 0 0 1 0 .88 17.81 17.81 0 0 1-.48 3 25 25 0 0 1-1.37 4 32 32 0 0 1-2.38 4.32c-.54.65-1 1.35-1.59 2a21 21 0 0 1-1.71 1.74 11.13 11.13 0 0 1-1.8 1.4 15.21 15.21 0 0 1-1.74 1.06 12.54 12.54 0 0 1-2.81 1.12c-.7.21-1.1.3-1.1.3v-.1l1-.46m-35.66 1c1.93 1.26 13.83 11.54 32.77 3.8s19.05-24 19.35-25c.18-.6.77-1.82 1.21-2.94a7.85 7.85 0 0 0 .22-6.15 8 8 0 0 0-4.73-4c-1.1-.41-2.37-.78-2.91-1-.95-.45-13.08-11.25-31.47-2.26s-18.73 24.74-19.08 27-4.81 4.57-3.33 8c1.18 2.71 6 1.36 8 2.61m-358.14-29.93a8.67 8.67 0 0 0 1.08-1.31 8.46 8.46 0 0 0 .6-1 9.23 9.23 0 0 0 .56-1.14 15.5 15.5 0 0 0 .87-2.61 21.45 21.45 0 0 0 .53-5.13 18.93 18.93 0 0 0-.16-2.34 14.36 14.36 0 0 1 .38 2.35 17.18 17.18 0 0 1 0 2.45 20.06 20.06 0 0 1-.39 2.79 15.84 15.84 0 0 1-.94 2.67 6.92 6.92 0 0 1-.63 1.14 8.63 8.63 0 0 1-.67 1 7.29 7.29 0 0 1-1.21 1.24l-.44.42.44-.47m-30.8 1.9c.09 1.58-2.56 3.76-1.07 5.82 1.18 1.64 4.24 0 5.71.58s10.92 5.7 22.47-2.24 9.25-18.88 9.25-19.59c0-.43.25-1.33.38-2.15a5.37 5.37 0 0 0-.74-4.15 5.46 5.46 0 0 0-3.74-2c-.8-.11-1.69-.17-2.1-.27-.7-.16-10.37-5.61-21.37 3.08s-8.94 19.27-8.85 20.85m79.68 14.64l1.27-.15 1.61-.38a14.5 14.5 0 0 0 1.86-.61 15.72 15.72 0 0 0 2-.88 20.16 20.16 0 0 0 2-1.15c.69-.4 1.32-.92 2-1.38a31.53 31.53 0 0 0 3.54-3.19 32.89 32.89 0 0 0 2.69-3.18 24.55 24.55 0 0 0 1.61-2.47c.19-.31.28-.56.37-.72l.08-.28h.1v.29a5.69 5.69 0 0 1-.27.83 17.71 17.71 0 0 1-1.35 2.7 24.84 24.84 0 0 1-2.53 3.44 32 32 0 0 1-3.56 3.4c-.71.46-1.37 1-2.1 1.38a21.09 21.09 0 0 1-2.16 1.14 11.08 11.08 0 0 1-2.14.79 15 15 0 0 1-2 .48 12.43 12.43 0 0 1-3 .22h-1.13v-.1l1.11-.13m-34.26-9.94c1.46 1.79 9.71 15.19 30.1 13.56s25.38-17.11 26-18c.35-.52 1.29-1.5 2-2.44a7.84 7.84 0 0 0 2.06-5.8 8 8 0 0 0-3.31-5.25c-.93-.73-2-1.46-2.47-1.87-.77-.72-9.08-14.69-29.32-11.7s-25.29 17.91-26.32 20-6 2.89-5.58 6.6c.31 2.94 5.36 3.12 6.82 4.91m334.14-5.38a23.58 23.58 0 0 1-.46 3.27 18.71 18.71 0 0 1-1.11 3.13 8.31 8.31 0 0 1-.74 1.34 10.26 10.26 0 0 1-.79 1.12 8.52 8.52 0 0 1-1.43 1.45l-.58.5.52-.55a10.15 10.15 0 0 0 1.26-1.54 10 10 0 0 0 .7-1.13 11 11 0 0 0 .66-1.33 18.26 18.26 0 0 0 1-3.07 25.15 25.15 0 0 0 .63-6 22.23 22.23 0 0 0-.19-2.75h.05a16.73 16.73 0 0 1 .45 2.75 20.26 20.26 0 0 1 0 2.87m2-5.6c0-.5.3-1.56.45-2.52a6.3 6.3 0 0 0-.87-4.87 6.4 6.4 0 0 0-4.39-2.33c-.94-.13-2-.2-2.46-.31-.82-.19-12.17-6.59-25.08 3.61s-10.49 22.62-10.38 24.47-3 4.41-1.26 6.83c1.38 1.92 5 0 6.7.68s12.81 6.68 26.36-2.63 10.84-22.13 10.95-22.99m-220.36 25.62a13.9 13.9 0 0 1-2.24 1.91 7.63 7.63 0 0 1-2.74 1.18 4.51 4.51 0 0 1-1.5.09 4.65 4.65 0 0 1-1.42-.32v-.09a6.18 6.18 0 0 0 1.38.05 5.92 5.92 0 0 0 1.35-.26 8.86 8.86 0 0 0 2.42-1.32 16.93 16.93 0 0 0 3.77-4.06 5.75 5.75 0 0 0 4.33-2.94h.08a5.83 5.83 0 0 1-1.53 2.38 5.7 5.7 0 0 1-1.22.86 3.6 3.6 0 0 1-1.11.38 18.4 18.4 0 0 1-1.56 2.11m2.67-.45c.35-.25 1.19-.67 1.9-1.1a5.39 5.39 0 0 0 2.7-3.27 5.55 5.55 0 0 0-.91-4.19c-.43-.69-1-1.42-1.16-1.8-.33-.65-2.44-11.68-16.27-14.54s-20.62 5.62-21.77 6.72-4.55.46-5.17 3c-.49 2 2.74 3.3 3.27 4.8s2.73 12.15 16.33 15.93 20.49-5.08 21.07-5.51m430.81-8.96a10.31 10.31 0 0 0 1.27-1.54 9.79 9.79 0 0 0 .7-1.13 10.86 10.86 0 0 0 .66-1.33 18.18 18.18 0 0 0 1-3.07 25.14 25.14 0 0 0 .63-6 22 22 0 0 0-.19-2.75h.05a16.82 16.82 0 0 1 .45 2.75 20.41 20.41 0 0 1 0 2.87 23.6 23.6 0 0 1-.46 3.28 18.73 18.73 0 0 1-1.11 3.13 8.2 8.2 0 0 1-.74 1.34 10.26 10.26 0 0 1-.79 1.12 8.5 8.5 0 0 1-1.43 1.45l-.58.5.52-.55m-4.33 7.12c13.55-9.31 10.87-22.1 10.93-22.94 0-.5.3-1.56.45-2.52a6.3 6.3 0 0 0-.87-4.87 6.4 6.4 0 0 0-4.39-2.33c-.94-.13-2-.2-2.46-.31-.82-.19-12.17-6.59-25.08 3.61s-10.46 22.55-10.37 24.4-3 4.41-1.26 6.83c1.38 1.92 5 0 6.7.69s12.81 6.68 26.36-2.63M879.1 255.7l-24.78-12.51c-16.37 1.35-21.18 13-22.11 14.65s-4.93 2-4.8 5c.1 2.37 4.13 2.78 5.21 4.28s7 12.67 23.43 12.42m-774.12-7.47h2.4l1.65-.21a14.36 14.36 0 0 0 1.95-.38 15.69 15.69 0 0 0 2.09-.66 20.29 20.29 0 0 0 2.15-.92c.73-.33 1.41-.78 2.12-1.16a31.53 31.53 0 0 0 3.86-2.79 33 33 0 0 0 3-2.88 24.51 24.51 0 0 0 1.86-2.28c.22-.29.34-.52.44-.68l.11-.27h.1l-.06.29a5.88 5.88 0 0 1-.36.8 17.87 17.87 0 0 1-1.65 2.55 24.86 24.86 0 0 1-2.88 3.15 32.07 32.07 0 0 1-3.91 3c-.75.38-1.47.82-2.24 1.14a21 21 0 0 1-2.26.9 11.12 11.12 0 0 1-2.21.56 14.93 14.93 0 0 1-2 .27 12.52 12.52 0 0 1-3-.11c-.72-.09-1.12-.17-1.12-.17zm-31.91-13.53c1.26 1.93 8 16.15 28.48 16.72s27.06-14.28 27.74-15.09c.4-.48 1.44-1.35 2.29-2.21a7.83 7.83 0 0 0 2.67-5.54 8 8 0 0 0-2.73-5.57c-.85-.83-1.86-1.67-2.25-2.13-.68-.79-7.46-15.58-27.9-14.78s-27.06 15.08-28.3 17-6.24 2.24-6.25 6c0 3 5 3.68 6.25 5.61m-11.39 22.49a10.56 10.56 0 0 0 .53-1 22.63 22.63 0 0 0 1.1-2.71 15.18 15.18 0 0 0 .52-1.87c.18-.66.22-1.39.35-2.12v-1.7c0-.19 0-.38-.06-.58l-.12-1.16-.3-1.14-.14-.57c-.07-.18-.15-.36-.23-.54l-.35-1.05c-.36-.68-.82-1.3-1.2-1.94s-1-1.1-1.42-1.62-1-.89-1.45-1.29l-.66-.57c-.21-.18-.44-.31-.64-.46l-1.06-.73-.93-.64 1 .58 1.11.66c.21.13.45.26.68.42l.69.55c.47.39 1 .77 1.53 1.26l1.51 1.62c.41.65.89 1.29 1.28 2l.49 1.12c.08.19.17.37.24.56l.15.6.3 1.19.11 1.21v1.2c0 .39 0 .78-.06 1.17a16.9 16.9 0 0 1-.42 2.16 15.71 15.71 0 0 1-.6 1.88 18.66 18.66 0 0 1-1.28 2.66 10.68 10.68 0 0 1-.6.95zm-6.46 4.44c.28.13.82.52 1.34.83a3.87 3.87 0 0 0 3 .6 3.93 3.93 0 0 0 2.32-2c.29-.5.56-1.09.73-1.34.29-.42 6.5-5.46 3.59-15.13s-10.55-11.1-11.63-11.45-1.84-2.71-3.62-2.26c-1.41.36-1.14 2.84-1.9 3.67s-6.7 5.81-4.44 15.65 10.14 11.18 10.61 11.43m94.18 20.82a7.07 7.07 0 0 0 1.6.12 6.86 6.86 0 0 0 1.59-.24 10.28 10.28 0 0 0 2.89-1.41 19.65 19.65 0 0 0 4.56-4.56 6.69 6.69 0 0 0 5-3.25l.09.06a6.77 6.77 0 0 1-1.88 2.7 6.66 6.66 0 0 1-1.46 1 4.23 4.23 0 0 1-1.32.41 21.22 21.22 0 0 1-1.89 2.37 16.19 16.19 0 0 1-2.69 2.13 8.88 8.88 0 0 1-3.23 1.26 5.25 5.25 0 0 1-1.74 0 5.47 5.47 0 0 1-1.64-.44zm-28.12-25.91c-1.38 1.23-5.31.35-6.13 3.22-.65 2.28 3 3.95 3.6 5.72s2.66 14.24 18.32 19.2 24-5.05 24.73-5.52c.41-.28 1.41-.73 2.25-1.2a6.28 6.28 0 0 0 3.28-3.69 6.46 6.46 0 0 0-.88-4.9c-.47-.82-1.07-1.7-1.27-2.14-.36-.76-2.35-13.68-18.3-17.58s-24.2 5.67-25.59 6.9m309.08-40.44a10.21 10.21 0 0 0-1.45 1.37 9.92 9.92 0 0 0-.84 1 10.8 10.8 0 0 0-.82 1.24 18.14 18.14 0 0 0-1.39 2.92 25.14 25.14 0 0 0-1.37 5.89 22 22 0 0 0-.15 2.75h-.05a16.76 16.76 0 0 1-.1-2.79 20.11 20.11 0 0 1 .33-2.85 23.56 23.56 0 0 1 .86-3.19 18.62 18.62 0 0 1 1.49-3 8.19 8.19 0 0 1 .9-1.24 10.18 10.18 0 0 1 .92-1 8.54 8.54 0 0 1 1.59-1.26l.64-.42-.59.48m36.13 2.29c.12-1.85 3.53-4 2.1-6.62-1.13-2.08-4.93-.65-6.56-1.51s-11.88-8.23-26.48-.68-13.54 20.57-13.71 21.4c-.1.49-.49 1.51-.76 2.44a6.3 6.3 0 0 0 .26 4.94 6.4 6.4 0 0 0 4.07 2.86c.91.25 1.95.45 2.4.62.79.29 11.26 8.05 25.33-.46s13.23-21.13 13.35-23m370.29 52.34a7.13 7.13 0 0 0-1.48-.63 6.89 6.89 0 0 0-1.58-.28 10.3 10.3 0 0 0-3.19.41 19.67 19.67 0 0 0-5.78 2.86 6.69 6.69 0 0 0-5.81 1.47l-.07-.08a6.77 6.77 0 0 1 2.64-2 6.66 6.66 0 0 1 1.68-.44 4.23 4.23 0 0 1 1.39 0 21.3 21.3 0 0 1 2.55-1.64 16.19 16.19 0 0 1 3.23-1.16 8.86 8.86 0 0 1 3.47-.16 5.28 5.28 0 0 1 1.66.52 5.47 5.47 0 0 1 1.41.94zm23.6 25.9c0-1.85 2-14.35-11.21-24.06s-24.38-2.91-25.2-2.68c-.48.13-1.57.24-2.51.42a6.28 6.28 0 0 0-4.29 2.45 6.46 6.46 0 0 0-.73 4.93c.18.93.47 1.95.52 2.43.09.84-2.15 13.71 11.71 22.51s24.74 2.38 26.45 1.65 5.14 1.37 6.84-1.09c1.35-2-1.62-4.71-1.58-6.57" class="23e4d4b5-c98b-4651-946b-5f3217e22699"/>
    <path id="d52d8243-4e04-4bcf-9391-1afb47d5d59a" d="M844.93 366.13l.46-1.2.41-1.61a14.35 14.35 0 0 0 .33-1.93 15.62 15.62 0 0 0 .15-2.19 20.11 20.11 0 0 0-.07-2.34c0-.8-.2-1.6-.3-2.4a31.76 31.76 0 0 0-1.18-4.62 33.08 33.08 0 0 0-1.57-3.86 24.68 24.68 0 0 0-1.44-2.58c-.19-.31-.36-.5-.47-.66l-.21-.2.06-.09.24.16a5.69 5.69 0 0 1 .61.63 17.81 17.81 0 0 1 1.76 2.46 25 25 0 0 1 1.87 3.85 32 32 0 0 1 1.35 4.73c.08.84.22 1.67.24 2.51a21 21 0 0 1 0 2.44 11.13 11.13 0 0 1-.24 2.25 15.21 15.21 0 0 1-.49 2 12.54 12.54 0 0 1-1.21 2.77c-.35.64-.57 1-.57 1h-.09l.4-1m-24.69 25.63c2.26-.46 17.94-1.52 26-20.34s-3.35-30.46-3.85-31.39c-.29-.55-.73-1.84-1.21-2.94a7.85 7.85 0 0 0-4.17-4.53 8 8 0 0 0-6.18.48c-1.08.48-2.23 1.11-2.8 1.31-1 .35-17.21 1.2-24 20.51s4.07 30.76 5.42 32.63-.21 6.63 3.24 8c2.74 1.1 5.25-3.29 7.51-3.75" class="23e4d4b5-c98b-4651-946b-5f3217e22699" data-name="Layer 1"/>
  </g>
</svg>
