<?xml version="1.0" encoding="utf-8"?>
<!-- Generator: Adobe Illustrator 21.0.2, SVG Export Plug-In . SVG Version: 6.00 Build 0)  -->
<svg version="1.1" id="ad40cdd3-4405-4ca7-970d-278257e75fef"
	 xmlns="http://www.w3.org/2000/svg" xmlns:xlink="http://www.w3.org/1999/xlink" x="0px" y="0px" viewBox="0 0 2560 1600"
	 style="enable-background:new 0 0 2560 1600;" xml:space="preserve">
<style type="text/css">
	.st0{stroke:#B6008D;stroke-width:15;stroke-miterlimit:10;fill:#b6008d;}
	.st1{fill:#FFFFFF;stroke:#FFFFFF;stroke-width:15;stroke-miterlimit:10;}
	.st2{fill:#FFDB00;stroke:#FFDB00;stroke-width:15;stroke-miterlimit:10;}
	.st3{fill:#FF4612;stroke:#FF4612;stroke-width:15;stroke-miterlimit:10;}
</style>
<path class="st0" d="M2599,1029.4c-2.2,44.8-45.6,103.3-64.8,143.7c-21.4,45.2-39.1,107.3-73.3,144c-19.3,20.7,92.3,65.9,110.2,75"
	/>
<path class="st0" d="M2501.3,1336.9c-43.8-5.6,18.3-84.8,29.7-106.6c21.1-40.6,64.4-95.4,69.1-141.2"/>
<path class="st1" d="M2603.2,1334.7c-13.5-6.9-66.1-19.1-67.9-34.6c-2-16.8,49.5-12.6,60.1-17.3c-8.8,3.9-30.4-50.8-66,0.2
	c-29.6,42.5,4.9,38.5,44.1,58.7"/>
<path class="st1" d="M2587,800.5c-2.8,7.3-5.7,15.3-8.2,24.2c-3.9,13.6-1.7,39.1-14,48.6c-16.6,12.8-57.3,9.8-34.4-14
	c6.3-6.6,21.7-33.7,33.2-58.8H2535c-3.1,20.8-14.9,41.5-23.8,64.1c-2,5-34.9,45.1-1.5,41.2c19.1-2.2,56,3.8,71.1-6l-4.9,3.2l4.9-3.2
	l1.2-0.8l-1.2,0.8"/>
<path class="st1" d="M2577.1,1556.3c-6.6-16.2-88.9-42.7-58.3-6.9c15.5,18,18.8,35,16.2,52h28.5
	C2572.8,1581.2,2579.5,1562.3,2577.1,1556.3z"/>
<path class="st2" d="M2112.6,1082.5c-23.5,39.5-42.8,85.4-67.1,126.2c-15,25.1-82.7,105.3-78.5,131.3l-0.3-1.5l0.3,1.5l0.2,1.1
	l-0.1-1.1c2.4,15.1,197.4,150.8,198.4,150.1c5.7-3.9-66.4-157.4-79.9-173.3c-30.9-36.4,37.2-59.3,62.7-43.3
	c30.9,19.4-12.3-55.1-12.2-54.5c-8.6-56.5-123.4,116.3-106.6,127.7c37.3,25.2,20.7-48.9,53.6,13.7c5.2,10,40.3,55.7,32.3,61.2
	c-2.4,1.7-115-76.3-116.5-86.5c-3.8-25.2,68.3-105.2,83.8-129.2c26.7-41.4,30.2-88.1,57.3-32.7c19.6,39.9,44.3,78.1,64,116.5
	c15.5,30.1-87.3-8.1-93.1,2.3c-8.8,15.6,39.7,97,48.1,116.3s38.7,131.3,64.4,117.3c34.4-18.8,98.9-34.7,138-31.6
	c29,2.3,3.6-31.5-35.1-24.6c-24.8,4.5-49.6,9.3-74.4,13.8c-59.2,10.7-57.7-43.2-78.8-94c-17.4-42-52.3-70.4,4.5-63
	c46.4,6.1,74.6,29.3,50.3-23.4c-19.8-43-39.5-86-59.1-129C2162.5,1160.7,2126.4,1059.3,2112.6,1082.5z"/>
<path class="st3" d="M2181.6,1345.6l4.4-5L2181.6,1345.6z"/>
<path class="st2" d="M2582.5,966.5c-35.5-2.3-74.8,2.8-111.8,0.7c-32.3-1.8-52.7,17.3-68.4,44.2v0.5c-18,31.2-29.7,72.6-45.9,103.8
	c-11.5,22.1-54.8,77.1-35.4,101.3c39.6,49.7,19.9,38.4,80.7,49.7c0.2,0,0.4,0.1,0.6,0.1v0.1c29.3,1.8,75.3-152.1,86.3-178.7
	c3.1-7.4,45.9-76.6,20.6-75.5c-38.4,1.8-55.4,6.4-71.4,40.2c-4.4,9.3-20.1,37-35.6,67.3v0.6c-21.9,43-43,90.9-30.3,98.9
	c8.6,5.4,19.2-10.7,30.6-35.2v-0.7c24.9-53.5,53.9-146.4,75.4-147.7c7-0.4-57.7,155.5-66.2,175.1c-2.7,6.4-5.9,12.5-9.6,18.4v0.4
	c-13.6,20.4-30.8,24.4-57-6.3c-22.1-26,15.4-62.8,27.5-86.6c10-19.6,19.9-39.3,29.8-58.9v-0.6c7.5-14.9,15-29.7,22.6-44.6
	c23.7-46.6,40-35.2,89.5-36.3c41-0.9,38.4-6.2,22.3,31.7c-13.7,32.2-27.4,64.4-41.2,96.5c-13.5,31.8-49.5,163.4-83.9,166.6
	c-2.3,0.2-5.4,0.6-9.2,1.1l0,0c-23.9,3.2-71.8,9.4-75.6-11.7c-5.9-33.7-29.3-64.7-43.6-95.5c-13.9-30.1-28.5-67.3-50.9-91.9
	c-19.7-21.6,50.6-56.7,64.7-67.7c11.7-9.1,35-16.3,40.4-31.3c4.8-13.2-16.7-14.6-9.5-27.3c6-10.7,63.1-43.2,69.8-35.1
	c10.6,12.7-37,72-39.3,93.1c-5.9,53.9-25.7-10.5-34.2-3.5c-3.4,2.8,15.1,74.6,0.1,64.2c-6.9-4.8-16.1-52.6-28.1-42.5
	c-18.9,15.9,19.6,44.6,19.5,61.3c-0.5,59.9-26.9-0.7-30.5-23.2c-4.5-28.1-28.8-3.7-12.2,30.1c3,6.1,26.1,81.5,39.3,54.4
	c26.4-54.3,48.1-113.9,76.3-169c4.6-9,9-19.5,13.7-30.3V966c9.7-22.7,20.6-46.5,36.4-60.8c30.6-27.6-13.8-9.1-36.8,1.2v0.1
	c-5.9,2.6-10.3,4.7-11.6,5.3c-26,11.5-56.1,19.5-81,31.5c-19,9.1-4.9,23.9,2.9,32.2c18,19.3-17.8,27.8-25.6,33.3
	c-24.1,17.3-46.8,37.9-74.7,48.8c-28.2,11,19.4,76.3,26.8,93c16.4,36.9,50.3,156.7,82.6,176.3c7.4,4.5,49.5,6.2,80.6,4.8v0.1
	c16.1-0.7,29.2-2.3,33-4.8c20.6-13.5,37-82,47.7-105.8c29.1-64.6,58.3-129.1,86.8-194C2573.8,1018,2615.6,968.6,2582.5,966.5z"/>
<path class="st3" d="M2366.4,805c19,9.2,24.1,4.5,24.8-4.5h-29C2363.9,802.8,2365.4,804.5,2366.4,805z"/>
<path class="st3" d="M2446.7,800.5c-15,5.2-32.4,8.8-44,11.8l0,0h-0.1l-0.3,0.1l0,0c-3.2,0.8-6.4,1.7-9.6,2.8
	c-19.8,7.9-67.9,40.5-66.7-10.3c0-1.6,0.1-3.1,0.2-4.5h-19.9c0.4,1.4,0.9,2.9,1.4,4.5c15.4,46.2,6.1,65.6,57.2,47.5
	c11.6-4.1,24.4-9.7,37.8-15.4v-0.1c29.1-12.5,60.9-25.7,87.8-25.6c7.3,0,11.9-4.1,14.4-10.7L2446.7,800.5z"/>
<path class="st3" d="M2448.6,1489c-13.3,9.1-29.1,15.8-46.3,21l0,0c-53.8,16.1-121,17-168.2,28.1c-6.3,1.5,0.4,29.5,11,63.2h29.5
	c-5.9-10.9-11.7-21.9-16.2-33.4s92.1-38.2,144.2-51.6l0,0c13.8-3.5,24.5-6.1,29.2-7.2c20.9-4.8,37.9,49.4,43.9,63.7
	c5.5,12.9-9.9,21.9-29.1,28.5h58.1C2517,1568.2,2475.7,1470.5,2448.6,1489z"/>
<path class="st3" d="M2447.9,1562.9c-2.1-27.8-23.7-26.6-45.5-19.8l0,0c-14.7,4.6-29.4,11.7-38.4,14.2c-41,11.3-70.4,1-57.6,44h19.9
	c2.5-52.1,25.2-14.1,35.9,0h29c1-13.2-7.4-35.9,4.5-39.5c1.6-0.5,4,0.6,6.7,2.7v0.3C2419.3,1577.3,2452.4,1622.3,2447.9,1562.9z"/>
<path class="st1" d="M2549.3,1449.5c2.9,0.3-26.5,62.5-28.4,40.2c-1.7-20,17.4-25.1,16.6-44.8c-1.5-41.5-28.9,17.2-30.3,21.2
	c-18.2,51.4,15.4,43.7,59.7,62.8"/>
<path class="st1" d="M2433.1,1357.2c-10.1,0.8-20.2,1-30.4,0.5v-0.1c-49.5-2.3-71.1-15.3-42.1,48.5c19,41.8,24.1,63.8,41.8,69.9v0.2
	c11.5,3.8,28.3,1.1,57.4-7.2c74.2-21-21.8-82.1-31.4-54.9c-9.7,27.6,26.2,27.9,21.2,39.7c-17.1,40.3-36.4,6.2-47-17.7v-0.9
	c-3.1-7.1-5.4-13.2-6.6-16c-13.9-32.7-8.6-45.5,6.3-47.4l0,0c17.2-2,46.8,10.1,74.4,22.9"/>
<path class="st1" d="M2614.5-0.4H2587c-2.8,7.3-5.7,15.3-8.2,24.2c-3.9,13.6-1.7,39.1-14,48.6c-16.6,12.8-57.3,9.8-34.4-14
	c6.3-6.6,21.7-33.7,33.2-58.8H2535c-3.1,20.8-14.9,41.5-23.8,64.1c-2,5-34.9,45.1-1.5,41.2c19.1-2.2,56,3.8,71.1-6l-4.9,3.2l4.9-3.2
	l1.2-0.8l-1.2,0.8"/>
<path class="st1" d="M2577.1,755.4c-6.6-16.2-88.9-42.7-58.3-6.9c15.5,18,18.8,35,16.2,52h28.5
	C2572.8,780.3,2579.5,761.4,2577.1,755.4z"/>
<path class="st2" d="M2112.6,281.6c-23.5,39.5-42.8,85.4-67.1,126.1c-15,25.1-82.7,105.3-78.5,131.3l-0.3-1.5l0.3,1.5l0.2,1.1
	l-0.2-1.1c2.4,15.1,197.4,150.8,198.4,150.1c5.7-3.9-66.4-157.4-79.9-173.3c-30.9-36.4,37.2-59.3,62.7-43.3
	c30.9,19.4-12.3-55.1-12.2-54.5c-8.6-56.5-123.4,116.3-106.6,127.6c37.3,25.2,20.7-48.9,53.6,13.7c5.2,10,40.3,55.7,32.3,61.2
	c-2.4,1.7-115-76.3-116.5-86.5c-3.8-25.2,68.3-105.2,83.8-129.2c26.7-41.4,30.2-88.1,57.3-32.7c19.6,39.9,44.3,78.1,64,116.5
	c15.5,30.1-87.3-8.1-93.1,2.3c-8.8,15.6,39.7,97,48.1,116.2s38.7,131.3,64.4,117.3c34.4-18.8,98.9-34.7,138-31.6
	c29,2.3,3.6-31.5-35.1-24.6c-24.8,4.5-49.6,9.3-74.4,13.8c-59.2,10.7-57.7-43.2-78.8-94c-17.4-42-52.3-70.4,4.5-63
	c46.4,6.1,74.6,29.3,50.3-23.4c-19.8-43-39.5-86-59.1-129C2162.5,359.8,2126.4,258.4,2112.6,281.6z"/>
<path class="st0" d="M1960.6,78c-0.6,19.2,114.5,85.6,134.7,100.9c12.6,9.6,122.5,75.1,46.2,75.1c17.9,0,124.8,264.5,137.5,294
	c4.8,11.1-90.6-11.2-97.5-3.3c-5.2,6,31.5,113.5,43.6,120.6c11,6.5,115.6-12.5,123.2-22.5c31.9-41.8-70.4-56.8-83.5-60.3
	c-29-7.7-19,28.7,9.1,27.1c3.4-0.2,59.9,2.4,42,16.9c-36.6,29.7-127.5-16.5-102.1-60c4-6.8,112,8.7,105.5-5.3
	c-15.3-32.8-131.1-300.8-144.2-300.8c101,0-26.3-77.5-48.4-94.4c-17-13-135.3-89.4-115.1-104.3c27.4-20.1,55.5-41.2,83.4-62.3h-29.2
	C2028.8,22,1961.2,61.1,1960.6,78z"/>
<path class="st0" d="M2067.4,91.8c44.9,16.4,118.1,83.8,145.8,122.2c14.7,20.5,71.4-16.1,76.3-32.1c5.1-16.7-26.6-65.6-34.1-82.6
	c-14.6-33-28.3-66.3-41.9-99.8h-28.2c14.3,32.8,27.4,73.6,31.1,83.7c21.3,57,64.8,143.8-21.7,72.5c-35.1-28.9-112.6-65.6-68.9-97.3
	c35.9-26,27-10.1,42.2,24.2c2.8,6.4,30.1,81.3,47,47.1c3.9-7.9-40.8-109.2-55.3-130.2h-13.8C2114.5,15.6,2028.2,77.5,2067.4,91.8z"
	/>
<path class="st2" d="M2582.5,165.6c-35.5-2.3-74.8,2.8-111.8,0.7c-32.3-1.8-52.7,17.3-68.4,44.2v0.6c-18,31.2-29.7,72.6-45.9,103.8
	c-11.5,22.1-54.8,77-35.5,101.2c39.6,49.7,19.9,38.4,80.7,49.6c0.2,0,0.4,0.1,0.6,0.1v0.1c29.3,1.8,75.3-152,86.3-178.7
	c3.1-7.4,45.9-76.6,20.6-75.5c-38.4,1.8-55.4,6.4-71.4,40.2c-4.4,9.3-20.1,37-35.6,67.3v0.6c-21.9,43-43,90.9-30.3,98.9
	c8.6,5.4,19.2-10.7,30.6-35.2v-0.7c24.9-53.5,53.9-146.4,75.4-147.7c7-0.4-57.7,155.5-66.2,175.1c-2.7,6.4-5.9,12.6-9.6,18.4v0.4
	c-13.6,20.4-30.8,24.4-57-6.3c-22.1-26,15.4-62.8,27.5-86.6c10-19.6,19.9-39.3,29.8-58.9v-0.6c7.5-14.9,15-29.7,22.6-44.6
	c23.7-46.6,40-35.2,89.5-36.3c41-0.9,38.4-6.2,22.3,31.7c-13.7,32.2-27.4,64.4-41.2,96.5c-13.5,31.8-49.5,163.4-83.9,166.6
	c-2.3,0.2-5.4,0.6-9.2,1.1l0,0c-23.9,3.2-71.8,9.4-75.6-11.7c-5.9-33.7-29.3-64.7-43.6-95.5c-13.9-30.1-28.5-67.3-50.9-91.9
	c-19.7-21.6,50.6-56.7,64.7-67.6c11.7-9.1,35-16.4,40.4-31.3c4.8-13.2-16.7-14.6-9.5-27.3c6-10.7,63.1-43.2,69.8-35.1
	c10.6,12.7-37,72-39.3,93.1c-5.9,53.9-25.7-10.5-34.2-3.5c-3.4,2.8,15.1,74.6,0.1,64.2c-6.9-4.8-16.1-52.6-28.1-42.5
	c-18.9,15.9,19.6,44.5,19.5,61.3c-0.5,59.9-26.9-0.7-30.5-23.2c-4.5-28.1-28.8-3.7-12.2,30.1c3,6.1,26.1,81.5,39.3,54.4
	c26.4-54.3,48.1-113.9,76.3-169c4.6-9,9-19.5,13.7-30.3V165c9.7-22.6,20.6-46.5,36.4-60.8c30.6-27.6-13.8-9.1-36.8,1.2v0.1
	c-5.9,2.6-10.3,4.7-11.6,5.3c-26,11.5-56.1,19.5-81,31.5c-19,9.1-4.9,23.9,2.9,32.2c18,19.3-17.8,27.8-25.6,33.4
	c-24.1,17.3-46.8,37.9-74.7,48.8c-28.2,11,19.4,76.3,26.8,93c16.4,36.9,50.3,156.7,82.6,176.3c7.4,4.5,49.5,6.2,80.6,4.8v0.1
	c16.1-0.7,29.2-2.3,33-4.8c20.6-13.5,37-82,47.7-105.8c29.1-64.6,58.3-129.1,86.8-194C2573.8,217.1,2615.6,167.7,2582.5,165.6z"/>
<path class="st3" d="M2366.4,4.1c19,9.2,24.1,4.6,24.8-4.5h-29C2363.9,1.9,2365.4,3.6,2366.4,4.1z"/>
<path class="st3" d="M2513.7,119c-54.9,0-38.6-4.8-18.8-51.2c3.2-7.5,39.9-82.6,0.5-48.3c-22.4,19.5-63.4,25.9-93,34.7l0,0
	c-2.1,0.6-4.2,1.3-6.2,2c-15.2,5.1-93.8,47.7-95.3,16.2c-1.3-27.4-13.9-50.1-26.2-72.9h-29.5c14.6,46.2,36.3,102.9,41.1,115.7
	c8.9,23.5,66.6-9,116.4-34.9v-0.1c32.3-16.8,61.1-30.7,70.9-24.6c38.8,23.9-95.9,85.8,20.1,88.5"/>
<path class="st3" d="M2446.7-0.4c-15,5.2-32.4,8.8-44,11.8l0,0h-0.1l-0.3,0.1l0,0c-3.2,0.8-6.4,1.7-9.6,2.8
	c-19.8,8-67.9,40.5-66.7-10.3c0-1.6,0.1-3.1,0.2-4.5h-19.9c0.4,1.4,0.9,2.9,1.4,4.5c15.4,46.2,6.1,65.6,57.2,47.5
	c11.6-4.1,24.4-9.7,37.8-15.4l0,0c29.1-12.5,60.9-25.7,87.8-25.6c7.3,0,11.9-4.1,14.4-10.7L2446.7-0.4z"/>
<path class="st3" d="M2513.7,919.9c-54.9,0-38.6-4.8-18.8-51.2c3.2-7.5,39.9-82.6,0.5-48.3c-22.4,19.5-63.4,25.8-93.1,34.8l0,0
	c-2.1,0.6-4.2,1.3-6.2,2c-15.2,5.1-93.8,47.7-95.3,16.2c-1.3-27.4-13.9-50.1-26.2-72.9h-29.5c14.6,46.2,36.3,102.9,41.1,115.7
	c8.9,23.5,66.6-9,116.4-34.9v-0.1c32.3-16.8,61.1-30.7,70.9-24.6c38.8,23.9-95.9,85.8,20.1,88.5L2513.7,919.9z"/>
<path class="st3" d="M2274.7,800.4c-5.9-10.9-11.7-21.9-16.2-33.4s92.1-38.2,144.2-51.5l0,0c13.8-3.5,24.5-6.1,29.2-7.2
	c20.9-4.8,37.9,49.4,43.9,63.7c5.5,13-9.9,21.9-29.1,28.5h58.1c12.2-33.2-29.1-130.9-56.2-112.4c-13.3,9.1-29.1,15.8-46.3,21l0,0
	c-53.8,16.1-121,17-168.2,28.1c-6.3,1.5,0.4,29.5,11,63.2H2274.7z"/>
<path class="st3" d="M2447.9,762c-2.1-27.8-23.7-26.6-45.5-19.8l0,0c-14.7,4.6-29.4,11.7-38.4,14.2c-41,11.3-70.4,1-57.6,44h19.9
	c2.5-52.1,25.2-14.1,35.9,0h29c1-13.2-7.4-36,4.5-39.5c1.6-0.5,4,0.6,6.7,2.7v0.3C2419.3,776.4,2452.4,821.4,2447.9,762z"/>
<path class="st1" d="M2549.3,648.6c2.9,0.3-26.5,62.5-28.4,40.2c-1.7-20,17.4-25.1,16.6-44.8c-1.5-41.5-28.9,17.2-30.3,21.2
	c-18.2,51.4,15.4,43.7,59.7,62.8"/>
<path class="st1" d="M2433.1,556.3c-10.1,0.8-20.2,1-30.4,0.5v-0.1c-49.5-2.3-71.1-15.3-42.1,48.5c19,41.8,24.1,63.8,41.8,69.9v0.2
	c11.5,3.8,28.3,1.1,57.4-7.2c74.2-21-21.8-82.1-31.4-54.9c-9.7,27.6,26.2,27.9,21.2,39.7c-17.1,40.3-36.4,6.2-47-17.7v-0.9
	c-3.1-7.1-5.4-13.2-6.6-16c-13.9-32.7-8.6-45.5,6.3-47.4l0,0c17.2-2,46.8,10.1,74.4,22.9"/>
<path class="st0" d="M2265,1383.4c-29-7.7-19,28.7,9.1,27.1c3.4-0.2,59.9,2.4,42,16.9c-36.6,29.7-127.5-16.5-102.1-60
	c4-6.8,112,8.7,105.5-5.3c-15.3-32.8-131.1-300.8-144.2-300.8c101,0-26.3-77.5-48.4-94.4c-17-13-135.3-89.4-115.1-104.3
	c27.4-20.1,55.5-41.2,83.4-62.3h-29.2c-37.1,22.5-104.8,61.6-105.3,78.5c-0.6,19.2,114.4,85.6,134.7,100.9
	c12.6,9.5,122.6,75.1,46.2,75.1c17.9,0,124.8,264.5,137.5,294c4.8,11.1-90.6-11.2-97.5-3.3c-5.2,6,31.5,113.5,43.6,120.6
	c11,6.5,115.6-12.5,123.2-22.5C2380.3,1401.9,2278.1,1386.9,2265,1383.4z"/>
<path class="st0" d="M2185.2,800.4c14.3,32.8,27.4,73.6,31.1,83.7c21.3,57,64.8,143.8-21.7,72.5c-35.1-28.9-112.6-65.6-68.9-97.3
	c35.9-26,27-10.1,42.2,24.2c2.8,6.4,30.1,81.3,47,47.1c3.9-7.9-40.8-109.2-55.3-130.2h-13.8c-31.3,16.1-117.6,78-78.4,92.3
	c44.9,16.4,118.1,83.8,145.8,122.2c14.7,20.5,71.4-16.2,76.3-32.1c5.1-16.7-26.6-65.6-34.1-82.6c-14.6-33-28.3-66.4-41.9-99.8
	L2185.2,800.4z"/>
<path class="st0" d="M2151,757.9c9.1-7,22.1,14.9,34.1,42.5h28.2c-6.7-16.3-13.3-32.5-20-48.7c-24.9-60.2-61.7,2.6-107.2,35.8
	c-4,2.9-11.3,7.4-20.3,12.9h29.2C2114,786.2,2132.7,771.9,2151,757.9z"/>
<path class="st0" d="M2156.1,796.7c-1.2-0.4-5,1-10.4,3.8h13.8C2158.1,798.2,2156.9,796.9,2156.1,796.7z"/>
<path class="st0" d="M1657.5,1319.2c-19.3,20.7,92.3,65.9,110.2,75c16.2,8.3,129.5,54.3,108.4,70.5c-37,28.4-85.5,24.6-21.7,49.4
	c18.8,7.3,123.8,66.9,114.5,22.3c-3.1-15.1,6.5-117,17.5-120.8c6-2.1,102.8,68.6,116.5,79.1c23.7,18.2-19.1,46.8-36.4,43.6
	c-19-3.5-1-47.3-36.6-57.3c-59.3-16.8,19.3,94.2,26.9,95.3c15,2.3,77.5-44.3,92.8-54.2c22.9-14.7-75.3-67-88.7-76.1
	c-15.9-10.9-78.5-69.4-93.8-64.2c-11.8,4-15.4,104.1-13.1,119.8c3.8,26.7-45.4,24.1-29.6-9.8c3.2-6.8,23.6-29.3,11.1-36.4
	c-16.8-9.7-34.9,40.9-48.9,44.8c-25.9,7.2-43.2-15.5-15.5-24.4c78.9-25.3,17.2-43.7-24-64.9c-42.8-22.1-101.7-67.7-149.5-73.8"/>
<path class="st0" d="M2083.2,1588.7c-4,2.9-11.3,7.4-20.3,12.9h29.2c18.9-14.3,37.7-28.6,55.9-42.6c9.1-7,22.1,14.9,34.1,42.5h28.2
	c-6.7-16.3-13.3-32.5-20-48.7C2165.6,1492.7,2128.7,1555.4,2083.2,1588.7z"/>
<path class="st0" d="M2153.1,1597.8c-1.2-0.4-5,1-10.4,3.8h13.8C2155.1,1599.4,2153.9,1598.1,2153.1,1597.8z"/>
<path class="st3" d="M2002.7,1524.5c-19.6-30.4-24,55.1-30.9,58.6c-14.9,7.5-94-34.7-107.8-45.6c-10.8-8.5-24.3,24.5-36.4,64h20.4
	c3.2-10.6,7.1-18.8,11.9-21.1c32.3-15,31.5,1.4,26.9,21.1h52c8.8-7.5,16.7-10.2,22.2,0h62.8c1.6-1.4,3.1-2.8,4.4-4
	C2045.5,1582.4,2011.7,1538.6,2002.7,1524.5z"/>
<path class="st3" d="M1645.1,1489.2c-13.3,9.1-29,15.8-46.2,20.9v-0.1c-53.8,16.2-121.3,17-168.6,28.2c-6.3,1.5,0.4,29.6,11,63.2
	h29.5c-5.9-10.9-11.7-21.9-16.2-33.4s91.9-38.2,144.1-51.5v0.1c14-3.6,24.8-6.2,29.6-7.3c20.9-4.8,37.9,49.4,43.9,63.7
	c5.5,12.9-9.9,21.9-29.1,28.5h58.1C1713.5,1568.4,1672.2,1470.7,1645.1,1489.2z"/>
<path class="st3" d="M1644.3,1563c-2.1-27.8-23.6-26.6-45.4-19.8v-0.1c-14.8,4.6-29.7,11.8-38.7,14.3c-41,11.3-70.3,1-57.6,44h19.9
	c2.5-52.1,25.2-14.1,35.9,0h29c1-13.2-7.4-35.9,4.5-39.5c1.7-0.5,4.1,0.7,7,2.8v0.3C1615.7,1577.5,1648.9,1622.5,1644.3,1563z"/>
<path class="st1" d="M1840.9,1454c0-16-184.3-98.9-211.4-96.7c-10.2,0.8-20.4,1-30.6,0.4v-0.2c-49.5-2.3-71.1-15.3-42.1,48.5
	c19,41.9,24.1,64,42,70v0.2c11.5,3.8,28.3,1.1,57.4-7.2c74.2-21-21.7-82.1-31.4-54.9c-9.7,27.6,26.2,27.9,21.2,39.7
	c-17.2,40.6-36.7,5.7-47.2-18.2v-0.5c-3.1-7.1-5.4-13.2-6.6-16c-14-32.9-8.6-45.6,6.5-47.5v0.2c17.2-2,46.8,10.1,74.4,22.9
	c19.1,8.9,126.2,43.6,128.2,59.1c4.8,38.1-50.7-4.9-55.7-4.3c2.9,0.3-26.5,62.5-28.4,40.2c-1.7-20,17.4-25.1,16.7-44.8
	c-1.5-41.5-28.9,17.2-30.3,21.2c-18.2,51.4,15.4,43.7,59.7,62.8c44.4,19.2,33.4,38,20.2,72.5h27.5c4.6-22.1,9.6-42.3,17.1-53.7
	c21.5-32.8-51-28.8-58.7-46C1759.5,1479.4,1840.9,1475.9,1840.9,1454z"/>
<path class="st0" d="M1282.4,1588.5c-4,2.9-11.3,7.4-20.3,12.9h29.2c18.9-14.3,37.7-28.6,55.9-42.5c9.1-7,22.1,14.9,34.2,42.5h28.2
	c-6.7-16.3-13.3-32.5-20-48.7C1364.8,1492.5,1328,1555.2,1282.4,1588.5z"/>
<path class="st0" d="M1352.4,1597.6c-1.2-0.4-5,1-10.3,3.8h13.8C1354.3,1599.2,1353.2,1597.9,1352.4,1597.6z"/>
<path class="st3" d="M1201.9,1524.3c-19.6-30.4-24,55.1-30.9,58.6c-14.9,7.5-94-34.7-107.8-45.6c-10.8-8.5-24.3,24.5-36.4,64h20.4
	c3.2-10.6,7.1-18.8,11.9-21.1c32.3-15,31.5,1.4,26.9,21.1h52.1c8.8-7.5,16.7-10.2,22.2,0h62.8c1.6-1.4,3.1-2.8,4.4-4
	C1244.8,1582.2,1211,1538.4,1201.9,1524.3z"/>
<path class="st0" d="M56.2,1319c-19.3,20.7,92.3,65.9,110.2,75c16.2,8.3,129.5,54.3,108.4,70.5c-37,28.4-85.5,24.6-21.7,49.4
	c18.8,7.3,123.8,66.9,114.5,22.3c-3.1-15.1,6.5-117,17.5-120.8c6-2.1,102.8,68.6,116.5,79.1c23.7,18.2-19.1,46.8-36.4,43.6
	c-19-3.5-1-47.3-36.6-57.3c-59.3-16.8,19.3,94.2,26.9,95.3c15,2.3,77.5-44.3,92.8-54.2c23-14.7-75.3-67-88.7-76.1
	c-15.9-10.9-78.5-69.4-93.8-64.2c-11.8,4-15.4,104.1-13.1,119.8c3.8,26.7-45.4,24.1-29.6-9.8c3.2-6.8,23.6-29.3,11.1-36.4
	c-16.8-9.7-34.9,40.9-48.9,44.8c-25.9,7.2-43.2-15.5-15.5-24.4c78.9-25.3,17.1-43.7-24-64.9c-42.8-22.1-101.7-67.7-149.5-73.8"/>
<path class="st0" d="M96.5,1336.9c-43.8-5.6,18.3-84.8,29.7-106.6c21.1-40.6,64.4-95.4,69.1-141.2c4.8-46.7,55.5,56,44,68.7
	c-2.6,2.9-81.7-23.9-50.6,14.4c9.2,11.3,47.9,8.7,62.2,11.2c56.9,10.1,18.2-24.7,0.8-64.4c-6.6-14.9-55.1-137.7-57.6-87.7
	c-2.2,44.8-45.6,103.3-64.8,143.7c-21.4,45.1-39.1,107.2-73.2,144"/>
<path class="st2" d="M508.3,1082.5c-23.5,39.5-42.8,85.4-67.1,126.2c-15,25.1-82.7,105.3-78.5,131.3l-0.3-1.5l0.3,1.5l0.2,1.1
	l-0.2-1.1c2.4,15.1,197.4,150.8,198.4,150.1c5.7-3.9-66.5-157.4-79.9-173.3c-30.9-36.4,37.2-59.3,62.7-43.3
	c30.9,19.4-12.3-55.1-12.2-54.5c-8.6-56.5-123.4,116.3-106.6,127.7c37.3,25.2,20.7-48.9,53.6,13.7c5.2,10,40.3,55.7,32.3,61.2
	c-2.4,1.7-115-76.3-116.5-86.5c-3.8-25.2,68.3-105.2,83.8-129.2c26.7-41.4,30.2-88.1,57.3-32.7c19.6,39.9,44.3,78.1,64,116.5
	c15.5,30.1-87.3-8.1-93.1,2.3c-8.8,15.6,39.7,97,48.1,116.3s38.7,131.3,64.4,117.3c34.4-18.8,98.9-34.7,138-31.6
	c29,2.3,3.6-31.5-35.1-24.6c-24.8,4.5-49.6,9.3-74.4,13.8c-59.2,10.7-57.7-43.2-78.8-94c-17.5-42-52.3-70.4,4.5-63
	c46.4,6.1,74.5,29.3,50.3-23.4c-19.8-43-39.5-86-59.1-129C558.2,1160.7,522.1,1059.3,508.3,1082.5z"/>
<path class="st1" d="M259.7,1059.6c6.7,3.1,120.6-53.2,120.9-58.9c0.8-14.5-45.3-34.8-56.5-43.5c-28.3-22-24.4-32-40.2,7.7
	c-1.8,4.5-25.9,51,2,41.4c5.1-7.9,11-15.2,17.6-21.9c5.5-0.8,59.9,12.1,31.1,24.1c-54.8,23-101.2,22.3-75-51.6
	c4.3-12,9.7-57.7,21.9-61c13.8-3.8,58.9,40.5,72.3,49.5c19.2,12.9,147,86.7,125.5,104.8c-39.1,32.8-66,92.4-93.9,135
	c-33.7,51.6-77,99.3-81.9,161.2c-5.8,72.2-52.5,15-105.1-11.9c-13.5-6.9-66.1-19.1-67.9-34.6c-2-16.8,49.5-12.6,60.1-17.3
	c-8.8,3.9-30.4-50.8-66,0.2c-29.6,42.5,4.9,38.5,44.2,58.7c31.1,16,62.1,32.3,93.2,48.3c23.1,11.9,67.1,53,71,10.9
	c2.2-24.2-12.8-48.5-7.1-72.1c6.1-25.3,35-51.3,48.7-73.6c30.7-50.1,65.5-97.7,96.7-147.5c12.8-20.5,25.5-42,44-57.8
	c24.4-20.7-40.6-49.9-52.5-58.8c-47.7-35.7-95.4-71.3-143.1-106.9c-55.2-41.3-51.5-56.9-72.6,10.7
	C233.4,938.2,200.9,1032.2,259.7,1059.6z"/>
<path class="st3" d="M177.1,1190.9c-40.4,32.5-18.8,42,12.8,60c11,6.3,36.1,1.1,35.4,20.3c-0.8,23.6-33.4,4.5-36.8,27.3
	c-1.6,10.9,49.9,26.2,60.4,31.6c55,28.4,18.3-3.3,31.4-40.2c9.8-27.3,35.4-55.8,52.2-79.5c19.9-28,120.5-145.6,115.1-174.7
	c0.9,4.7,1.8,9.5,0,0l-1-5.2l1,5.2c-9.3-49.9-103.6,9.7-124.2,18.3c-58.4,24.5-62.8,27.8-34.2,95.9c21.3,50.9,30-75.8,19.9-71.5
	c12.7-5.3,95-37,98.6-33.1c5.3,5.7-72.2,106.3-82.6,121.8c-29.1,43-59.5,74.3-60.8,126.1c-0.9,37.3-55.3,9.2-23.4-14.8
	c23-17.3-19.8-14.3,11.2-38.1c15.3-11.7,30.5-53.9-4-32.7c-9.9,6.1-19,43-33,37.9c-17.1-6.3,38.8-45.3,11.9-49.3
	c-22.5-3.3-23.8,43.8-41.1,36C183.4,1230.9,211.1,1163.6,177.1,1190.9z"/>
<path class="st3" d="M844.3,1489c-13.3,9.1-29.1,15.8-46.3,21l0,0c-53.8,16.1-121,17-168.2,28.1c-6.3,1.5,0.4,29.5,11,63.2h29.5
	c-5.9-10.9-11.7-21.9-16.2-33.4s92.1-38.2,144.2-51.6l0,0c13.8-3.5,24.5-6.1,29.2-7.2c20.9-4.8,37.9,49.4,43.9,63.7
	c5.5,12.9-9.9,21.9-29.1,28.5h58.1C912.7,1568.2,871.4,1470.5,844.3,1489z"/>
<path class="st3" d="M843.6,1562.9c-2.1-27.8-23.7-26.6-45.5-19.8l0,0c-14.7,4.6-29.4,11.7-38.3,14.2c-41,11.3-70.3,1-57.6,44H722
	c2.5-52.1,25.2-14.1,35.9,0h29c1-13.2-7.4-35.9,4.5-39.5c1.6-0.5,4,0.6,6.7,2.7v0.3C815,1577.3,848.1,1622.3,843.6,1562.9z"/>
<path class="st1" d="M1040.2,1453.8c0-16-184.3-98.9-211.4-96.7c-10.1,0.8-20.2,1-30.4,0.5v-0.1c-49.5-2.3-71.1-15.3-42.1,48.5
	c19,41.8,24,63.8,41.8,69.9v0.2c11.5,3.8,28.3,1.1,57.5-7.2c74.2-21-21.8-82.1-31.4-54.9c-9.7,27.6,26.2,27.9,21.2,39.7
	c-17,40.3-36.4,6.2-47-17.7v-0.9c-3.1-7.1-5.4-13.2-6.6-16c-13.9-32.7-8.6-45.5,6.3-47.4l0,0c17.2-2,46.8,10.1,74.4,22.9
	c19.1,8.9,126.2,43.6,128.2,59.1c4.8,38.1-50.7-4.9-55.7-4.3c2.9,0.3-26.5,62.5-28.4,40.2c-1.7-20,17.4-25.1,16.7-44.8
	c-1.5-41.5-28.9,17.2-30.3,21.2c-18.2,51.4,15.4,43.7,59.7,62.8c44.4,19.2,33.5,38,20.2,72.5h27.5c4.6-22.1,9.6-42.3,17.1-53.7
	c21.5-32.8-51-28.8-58.7-46C958.7,1479.2,1040.2,1475.8,1040.2,1453.8z"/>
<path class="st0" d="M481.9,1588.4c-4,2.9-11.3,7.4-20.3,12.9h29.2c18.9-14.3,37.7-28.6,55.9-42.5c9.1-7,22.1,14.9,34.2,42.5h28.2
	c-6.7-16.3-13.3-32.5-20-48.7C564.2,1492.4,527.4,1555.2,481.9,1588.4z"/>
<path class="st0" d="M551.8,1597.6c-1.2-0.4-5,1-10.3,3.8h13.8C553.8,1599.1,552.6,1597.8,551.8,1597.6z"/>
<path class="st3" d="M401.4,1524.2c-19.6-30.4-24,55.1-30.9,58.6c-14.9,7.5-94-34.7-107.8-45.6c-10.8-8.5-24.4,24.5-36.4,64h20.4
	c3.2-10.6,7.1-18.8,11.9-21.1c32.3-15,31.5,1.4,26.9,21.1h52c8.8-7.5,16.7-10.2,22.1,0h62.8c1.6-1.4,3.1-2.8,4.4-4
	C444.2,1582.1,410.4,1538.3,401.4,1524.2z"/>
<path class="st0" d="M1969,735.5c-3.1-15.1,6.5-117,17.5-120.8c6-2.1,102.8,68.6,116.5,79.1c23.7,18.2-19.1,46.8-36.4,43.6
	c-19-3.5-1-47.3-36.6-57.3c-59.3-16.8,19.3,94.2,26.9,95.3c15,2.3,77.5-44.3,92.8-54.2c22.9-14.7-75.3-67-88.7-76.1
	c-15.9-10.9-78.5-69.4-93.8-64.2c-11.8,4-15.4,104.1-13.1,119.8c3.8,26.7-45.4,24.1-29.6-9.8c3.2-6.8,23.6-29.2,11.1-36.4
	c-16.8-9.7-34.9,40.9-48.9,44.8c-25.9,7.2-43.2-15.5-15.5-24.4c78.9-25.3,17.2-43.7-24-64.9c-42.8-22.1-101.7-67.7-149.5-73.8
	c-43.8-5.6,18.3-84.8,29.7-106.6c21.1-40.6,64.4-95.4,69.1-141.2c4.8-46.6,55.5,56,44,68.7c-2.6,2.9-81.7-23.9-50.6,14.4
	c9.2,11.4,47.9,8.7,62.2,11.2c56.9,10.1,18.2-24.7,0.8-64.4c-6.6-14.9-55.1-137.7-57.6-87.7c-2.2,44.8-45.6,103.3-64.8,143.7
	c-21.4,45.2-39.1,107.3-73.3,144c-19.3,20.7,92.3,65.9,110.2,75c16.2,8.3,129.5,54.3,108.4,70.5c-37,28.4-85.5,24.6-21.7,49.4
	C1873.2,720.5,1978.2,780.1,1969,735.5z"/>
<path class="st1" d="M1861,259c6.7,3.1,120.6-53.2,120.9-58.9c0.8-14.5-45.3-34.8-56.5-43.5c-28.3-22-24.4-32-40.2,7.7
	c-1.8,4.6-25.9,51,2,41.4c5.1-7.9,11-15.2,17.6-21.9c5.5-0.8,59.9,12.1,31.1,24.1c-54.8,23-101.2,22.3-75-51.6
	c4.3-12,9.7-57.7,21.9-61c13.8-3.8,58.9,40.5,72.3,49.5c19.2,12.9,147,86.7,125.5,104.8c-39.1,32.8-66,92.4-93.8,135
	c-33.7,51.6-77,99.3-81.9,161.2c-5.8,72.2-52.5,15-105.2-11.9c-13.5-6.9-66.1-19.1-67.9-34.6c-2-16.8,49.5-12.6,60.1-17.3
	c-8.8,3.9-30.4-50.9-66,0.2c-29.6,42.5,4.9,38.5,44.2,58.7c31.1,16,62.1,32.3,93.2,48.3c23.1,11.9,67.1,53,71,10.9
	c2.2-24.2-12.8-48.5-7.2-72.1c6.1-25.3,35-51.3,48.7-73.6c30.7-50.1,65.5-97.7,96.7-147.5c12.8-20.5,25.4-42,44-57.8
	c24.4-20.7-40.6-49.9-52.5-58.8c-47.7-35.7-95.4-71.3-143.1-106.9c-55.2-41.3-51.4-56.9-72.6,10.7
	C1834.7,137.5,1802.3,231.5,1861,259z"/>
<path class="st3" d="M1778.4,390.3c-40.4,32.5-18.8,42,12.8,60c11,6.3,36.1,1.1,35.4,20.3c-0.8,23.6-33.4,4.5-36.8,27.3
	c-1.6,10.9,49.9,26.1,60.4,31.6c55,28.4,18.3-3.3,31.4-40.2c9.8-27.3,35.4-55.8,52.2-79.5c19.9-28,120.5-145.6,115.1-174.7
	c0.9,4.7,1.8,9.5,0,0l-1-5.2l1,5.2c-9.3-49.9-103.6,9.7-124.2,18.3c-58.4,24.5-62.8,27.8-34.2,95.9c21.3,50.9,30-75.8,19.9-71.6
	c12.7-5.3,95-37,98.6-33.1c5.3,5.7-72.2,106.3-82.6,121.8c-29.1,43-59.5,74.3-60.8,126.1c-0.9,37.3-55.3,9.2-23.4-14.8
	c23-17.3-19.8-14.3,11.2-38.1c15.3-11.7,30.5-53.9-4-32.7c-9.9,6.1-19,43-33,37.9c-17.1-6.2,38.9-45.4,11.9-49.3
	c-22.5-3.3-23.8,43.8-41.1,36C1784.7,430.3,1812.4,362.9,1778.4,390.3z"/>
<path class="st3" d="M1938.9,65.8l-1,0.3L1938.9,65.8l3.7-1.1L1938.9,65.8c21.7-6.3,63.5-46.5,85-66h-62.8c1.3,2.4,2.3,5,3,7.7
	C1963.9,7,1887.1,80.8,1938.9,65.8z"/>
<path class="st3" d="M1884.1,39.5c14.8,11,36.9-24.4,54.8-39.7h-52C1883.2,15.9,1877,34.1,1884.1,39.5z"/>
<path class="st1" d="M1706.2,105.1c19.1-2.2,56,3.8,71.1-6l-4.9,3.2l4.9-3.2l1.2-0.8l-1.2,0.8c18.3-12,25.3-58.9,33.7-99.3h-27.5
	c-2.8,7.3-5.7,15.3-8.2,24.2c-3.8,13.6-1.7,39.1-14,48.6c-16.6,12.8-57.3,9.8-34.4-14c6.3-6.6,21.7-33.7,33.2-58.8h-28.5
	c-3.1,20.8-14.9,41.5-23.8,64.1C1705.8,68.9,1672.8,109,1706.2,105.1z"/>
<path class="st0" d="M995.8,288.3c4.8-46.6,55.5,56,44,68.7c-2.6,2.9-81.7-23.9-50.6,14.4c9.2,11.4,47.9,8.7,62.2,11.2
	c56.9,10.1,18.2-24.7,0.8-64.4c-6.6-14.9-55.1-137.7-57.6-87.7c-2.2,44.8-45.6,103.3-64.8,143.7"/>
<path class="st2" d="M1373.7,525.6c46.4,6.1,74.5,29.3,50.3-23.4c-19.8-43-39.5-86-59.1-129c-6.1-13.2-42.2-114.6-56-91.4
	c-23.5,39.5-42.8,85.4-67.1,126.1"/>
<path class="st2" d="M1278.7,405.3c26.7-41.4,30.2-88.1,57.3-32.7c19.6,39.9,44.3,78.1,64,116.5"/>
<path class="st2" d="M1344.3,472.8c30.9,19.4-12.3-55.1-12.2-54.5"/>
<path class="st1" d="M1174.9,454.4c30.7-50.1,65.5-97.7,96.7-147.5c12.8-20.5,25.4-42,44-57.8c24.4-20.7-40.6-49.9-52.5-58.8
	c-47.7-35.7-95.4-71.3-143.1-106.9c-55.1-41.3-51.4-56.9-72.5,10.7c-13.5,43.3-46,137.3,12.8,164.8c6.7,3.1,120.6-53.2,120.9-58.9
	c0.8-14.5-45.3-34.8-56.5-43.5c-28.3-22-24.4-32-40.2,7.7c-1.8,4.6-25.9,51,2,41.4c5.1-7.9,11-15.2,17.6-21.9
	c5.5-0.8,59.9,12.1,31.1,24.1c-54.8,23-101.2,22.3-75-51.6c4.3-12,9.7-57.7,21.9-61c13.8-3.8,58.9,40.5,72.3,49.5
	c19.2,12.9,147,86.7,125.5,104.8c-39.1,32.8-66,92.4-93.8,135"/>
<path class="st3" d="M1133.1,409.5c19.9-28,120.5-145.6,115.1-174.7c0.9,4.7,1.8,9.5,0,0c-0.7-3.6-0.9-5-1-5.2l1,5.2
	c-9.3-49.9-103.6,9.7-124.2,18.3c-58.4,24.5-62.8,27.8-34.2,95.9c21.3,50.9,30-75.8,19.9-71.5c12.7-5.3,95-37,98.6-33.1
	c5.3,5.7-72.2,106.3-82.6,121.8"/>
<path class="st0" d="M1410.2,566.6c4-6.8,112,8.7,105.5-5.3c-15.3-32.8-131.1-300.8-144.2-300.8c101,0-26.3-77.5-48.4-94.4
	c-17-13-135.3-89.4-115.1-104.3c27.4-20.1,55.5-41.2,83.4-62.3h-29.2c-37.2,22.5-104.7,61.6-105.3,78.5
	c-0.6,19.2,114.4,85.6,134.7,100.9c12.6,9.6,122.6,75.1,46.2,75.1c17.9,0,124.8,264.5,137.5,294c4.8,11.1-90.6-11.2-97.5-3.3"/>
<path class="st3" d="M1377.9,544.8l4.4-5L1377.9,544.8z"/>
<path class="st0" d="M1263.6,91.9c44.9,16.4,118.1,83.8,145.8,122.2c14.7,20.5,71.4-16.1,76.3-32.1c5.1-16.7-26.6-65.6-34.1-82.6
	c-14.5-33-28.2-66.4-41.9-99.8h-28.2c14.3,32.8,27.4,73.6,31.1,83.7c21.3,57,64.8,143.8-21.7,72.5c-35.1-28.9-112.6-65.6-68.9-97.3
	c35.9-26,27-10.1,42.2,24.2c2.8,6.4,30.1,81.3,47,47.1c3.9-7.9-40.8-109.2-55.3-130.2H1342C1310.7,15.7,1224.5,77.6,1263.6,91.9z"/>
<path class="st2" d="M1778.9,165.7c-35.5-2.3-74.8,2.8-111.8,0.7c-32.3-1.8-52.7,17.3-68.3,44.2v0.1
	c-18.1,31.2-29.8,72.8-46.1,104.2c-11.5,22.1-54.8,77.1-35.4,101.3c39.6,49.7,19.9,38.4,80.7,49.6c0.3,0,0.6,0.1,0.9,0.1v0.2
	c29.3,1.8,75.3-152,86.3-178.7c3.1-7.4,45.9-76.6,20.6-75.5c-38.4,1.8-55.4,6.4-71.4,40.2c-4.4,9.3-20.1,37-35.6,67.3v0.1
	c-22,43.1-43.3,91.3-30.5,99.3c8.6,5.4,19.2-10.7,30.7-35.2v-0.1c24.9-53.5,54.1-146.9,75.7-148.2c7-0.4-57.7,155.5-66.2,175.1
	c-2.7,6.4-5.9,12.5-9.6,18.4l0,0c-13.6,20.7-30.9,24.9-57.2-6c-22.1-26,15.4-62.8,27.5-86.6c10-19.6,19.9-39.3,29.8-58.9v-0.1
	c7.6-15,15.2-30,22.8-45c23.7-46.6,40-35.2,89.5-36.3c41-0.9,38.4-6.2,22.3,31.7c-13.7,32.2-27.4,64.4-41.2,96.5
	c-13.5,31.8-49.5,163.4-83.8,166.6c-2.3,0.2-5.5,0.6-9.4,1.2v-0.1c-23.8,3.2-71.8,9.4-75.6-11.7c-5.9-33.7-29.3-64.7-43.6-95.5
	c-13.9-30.1-28.5-67.3-50.9-91.9c-19.7-21.6,50.7-56.7,64.7-67.6c11.7-9.1,35-16.4,40.4-31.3c4.8-13.2-16.7-14.6-9.5-27.3
	c6-10.7,63.1-43.2,69.8-35.1c10.6,12.7-37,72-39.3,93.1c-5.9,53.9-25.7-10.5-34.2-3.5c-3.4,2.8,15.1,74.6,0.1,64.2
	c-6.9-4.8-16.2-52.6-28.1-42.5c-18.9,15.9,19.6,44.5,19.5,61.3c-0.5,59.9-26.9-0.7-30.5-23.2c-4.5-28.1-28.8-3.7-12.2,30.1
	c3,6.1,26.1,81.5,39.3,54.4c26.4-54.3,48.1-113.9,76.3-169c4.6-9,9-19.5,13.7-30.3v-0.1c9.8-22.8,20.7-46.9,36.7-61.3
	c30.6-27.5-13.7-9.1-36.7,1.2v-0.1c-6,2.7-10.6,4.8-11.9,5.4c-26,11.5-56.1,19.5-81,31.5c-19,9.1-4.8,23.9,2.8,32.2
	c18,19.3-17.8,27.8-25.6,33.3c-24.1,17.3-46.8,37.9-74.7,48.8c-28.2,11,19.4,76.3,26.8,93c16.4,36.9,50.3,156.7,82.6,176.3
	c7.5,4.5,49.7,6.2,80.8,4.8v0.2c16.1-0.7,29.2-2.3,33-4.8c20.6-13.5,37-82,47.7-105.8c29.1-64.6,58.3-129.1,86.8-194
	C1770.2,217.3,1812.1,167.8,1778.9,165.7z"/>
<path class="st3" d="M1138.1,65.6l-1,0.3L1138.1,65.6l3.7-1.1L1138.1,65.6c21.7-6.3,63.5-46.5,85-66h-62.8c1.3,2.4,2.3,5,3,7.7
	C1163.2,6.8,1086.4,80.6,1138.1,65.6z"/>
<path class="st3" d="M1083.3,39.3c14.8,11,36.9-24.4,54.8-39.7h-52.1C1082.4,15.7,1076.2,34,1083.3,39.3z"/>
<path class="st1" d="M905.4,104.9c19.1-2.2,56,3.8,71.1-6l-4.8,3.2l4.9-3.2l1.2-0.8l-1.2,0.8c18.3-12,25.3-58.9,33.7-99.3h-27.5
	c-2.8,7.3-5.7,15.3-8.2,24.2c-3.8,13.6-1.7,39.1-14,48.6c-16.6,12.8-57.3,9.8-34.5-14c6.3-6.6,21.7-33.7,33.2-58.8h-28.5
	c-3.1,20.8-14.8,41.5-23.7,64.1C905,68.7,872,108.8,905.4,104.9z"/>
<path class="st3" d="M1562.6,4.2c19,9.2,24.1,4.6,24.8-4.5h-29C1560.2,2,1561.6,3.7,1562.6,4.2z"/>
<path class="st3" d="M1827.6-0.2c-13.7,44.9-25.4,98.3-28.7,109c-8.2,25.8-69.7,10.4-88.7,10.4c-54.8,0-38.6-4.8-18.8-51.2
	c3.2-7.5,39.9-82.6,0.5-48.3c-22.4,19.5-63.3,25.8-92.9,34.7v-0.1c-2.2,0.7-4.4,1.4-6.5,2.1c-15.2,5.1-93.8,47.7-95.3,16.2
	c-1.3-27.4-13.9-50.1-26.2-72.9h-29.5c14.6,46.2,36.3,102.9,41.1,115.7c8.9,23.5,66.6-8.9,116.3-34.8v0.1
	c32.4-16.8,61.4-30.9,71.2-24.8c38.8,23.9-95.9,85.8,20.1,88.6c33.2,0.8,71.9-3,103.7,7.2c27.9,9,35.6-70.7,40.9-88.2
	c3.3-11,7-42.1,13.4-63.5L1827.6-0.2z"/>
<path class="st3" d="M1643.2-0.2c-15.1,5.2-32.6,8.9-44.2,11.8v-0.1c-3.4,0.8-6.7,1.8-9.9,2.9c-19.8,7.9-67.9,40.5-66.7-10.3
	c0-1.6,0.1-3.1,0.2-4.5h-19.9c0.4,1.4,0.9,2.9,1.4,4.5c15.4,46.2,6.1,65.6,57.2,47.5c11.5-4.1,24.3-9.7,37.6-15.4v0.1
	c29.3-12.5,61.1-25.8,88.1-25.8c7.3,0,11.9-4.1,14.4-10.7L1643.2-0.2z"/>
<path class="st0" d="M96.5,536c-43.8-5.6,18.3-84.8,29.7-106.6c21.1-40.6,64.4-95.4,69.1-141.2c4.8-46.6,55.5,56,44,68.7
	c-2.6,2.9-81.7-23.9-50.6,14.4c9.3,11.3,47.9,8.7,62.3,11.2c56.9,10.1,18.2-24.7,0.8-64.4c-6.6-14.9-55.1-137.7-57.6-87.7
	c-2.2,44.8-45.6,103.3-64.8,143.6C108,419.2,90.3,481.3,56.1,518"/>
<path class="st1" d="M259.7,258.8c6.7,3.1,120.6-53.2,120.9-58.9c0.8-14.5-45.3-34.8-56.5-43.5c-28.3-22-24.4-32-40.2,7.7
	c-1.8,4.6-25.9,51,2,41.4c5.1-7.9,11-15.2,17.6-21.9c5.5-0.8,59.9,12.1,31.1,24.1c-54.8,23-101.2,22.3-75-51.6
	c4.3-12,9.7-57.7,21.9-61c13.8-3.8,58.9,40.5,72.3,49.5c19.2,12.9,147,86.7,125.5,104.8c-39.1,32.8-66,92.4-93.9,135
	c-33.7,51.6-77,99.3-81.9,161.2c-5.8,72.2-52.5,15-105.1-11.9c-13.5-6.9-66.1-19.1-67.9-34.6c-2-16.8,49.5-12.6,60.1-17.3
	c-8.8,3.9-30.4-50.9-66,0.2c-29.6,42.5,4.9,38.5,44.2,58.7c31.1,16,62.1,32.3,93.2,48.3c23.1,11.9,67.1,53,71,10.9
	c2.2-24.2-12.8-48.5-7.1-72.1c6.1-25.3,35-51.3,48.7-73.6c30.7-50.1,65.5-97.7,96.7-147.5c12.8-20.5,25.5-42,44-57.8
	c24.4-20.7-40.6-49.9-52.5-58.8c-47.7-35.7-95.4-71.3-143.1-106.9c-55.1-41.4-51.4-56.9-72.5,10.7
	C233.4,137.3,200.9,231.3,259.7,258.8z"/>
<path class="st3" d="M177.1,390c-40.4,32.5-18.8,42,12.8,60c11,6.3,36.1,1.1,35.4,20.3c-0.8,23.6-33.4,4.5-36.8,27.3
	c-1.6,10.9,49.9,26.2,60.4,31.6c55,28.4,18.3-3.3,31.4-40.2c9.8-27.3,35.4-55.8,52.2-79.5c19.9-28,120.5-145.6,115.1-174.7
	c0.9,4.7,1.8,9.5,0,0l-1-5.2l1,5.2c-9.3-49.9-103.6,9.7-124.2,18.3c-58.4,24.5-62.8,27.8-34.2,95.9c21.3,50.9,30-75.8,19.9-71.5
	c12.7-5.3,95-37,98.6-33.1c5.3,5.7-72.2,106.3-82.6,121.7c-29.1,43-59.5,74.3-60.8,126.1c-0.9,37.3-55.3,9.2-23.4-14.8
	c23-17.3-19.8-14.3,11.2-38.1c15.3-11.7,30.5-53.9-4-32.7c-9.9,6.1-19,43-33,37.9c-17.1-6.2,38.8-45.4,11.9-49.3
	c-22.5-3.3-23.8,43.8-41.1,36C183.4,430,211.1,362.6,177.1,390z"/>
<path class="st0" d="M715.1,561.3C699.8,528.5,584,260.5,570.9,260.5c101,0-26.3-77.5-48.4-94.4c-17-13-135.3-89.4-115.1-104.3
	c27.4-20.1,55.5-41.2,83.4-62.3h-29.2C424.5,22,356.9,61.1,356.4,78c-0.6,19.3,114.4,85.6,134.7,101c12.6,9.5,122.5,75,46.2,75"/>
<path class="st0" d="M463.1,91.8C508,108.2,581.2,175.6,608.8,214c14.7,20.5,71.4-16.1,76.3-32.1c5.1-16.7-26.6-65.6-34.1-82.6
	C636.4,66.4,622.7,33,609.1-0.5h-28.2c14.3,32.8,27.4,73.6,31.1,83.7c21.3,57,64.8,143.8-21.7,72.5c-35.1-28.9-112.6-65.6-68.9-97.3
	c35.9-26,27-10.1,42.2,24.2c2.8,6.4,30.1,81.3,47,47.1c3.9-7.9-40.8-109.2-55.3-130.2h-13.9C510.2,15.6,423.9,77.5,463.1,91.8z"/>
<path class="st2" d="M978.2,165.6c-35.5-2.3-74.8,2.8-111.8,0.7c-32.3-1.8-52.7,17.3-68.3,44.2v0.6c-18,31.2-29.7,72.6-45.9,103.8
	c-11.5,22.1-54.8,77.1-35.5,101.3c39.6,49.7,19.9,38.4,80.7,49.6c0.2,0,0.4,0.1,0.7,0.1v0.1c29.3,1.8,75.3-152.1,86.3-178.7
	c3.1-7.4,45.9-76.6,20.6-75.5c-38.4,1.8-55.4,6.4-71.4,40.2c-4.4,9.3-20.1,37-35.6,67.3v0.6c-21.9,43-43,90.9-30.3,98.9
	c8.6,5.3,19.1-10.7,30.6-35.3v-0.7c24.9-53.5,53.9-146.4,75.4-147.7c7-0.4-57.7,155.5-66.2,175.1c-2.7,6.4-5.9,12.6-9.6,18.4v0.4
	c-13.5,20.4-30.8,24.4-57-6.3c-22.1-26,15.5-62.8,27.5-86.6c10-19.6,19.9-39.3,29.8-58.9v-0.6c7.5-14.8,15.1-29.7,22.6-44.5
	c23.7-46.6,40-35.2,89.5-36.3c41-0.9,38.4-6.2,22.3,31.7c-13.7,32.2-27.4,64.4-41.2,96.5C878,355.6,842,487.2,807.6,490.4
	c-2.3,0.2-5.4,0.6-9.2,1.1l0,0c-23.8,3.2-71.8,9.4-75.6-11.7c-6-33.7-29.3-64.7-43.6-95.5c-13.9-30.1-28.5-67.3-50.9-91.9
	c-19.7-21.7,50.6-56.8,64.6-67.7c11.7-9.1,35-16.4,40.4-31.3c4.8-13.2-16.7-14.6-9.5-27.3c6-10.7,63.1-43.2,69.8-35.1
	c10.6,12.7-37,72-39.3,93.1c-5.9,53.9-25.7-10.5-34.2-3.5c-3.4,2.8,15.1,74.6,0.1,64.2c-6.9-4.8-16.2-52.6-28.1-42.5
	c-18.9,15.9,19.6,44.5,19.5,61.3c-0.5,59.9-26.9-0.7-30.5-23.2c-4.5-28.1-28.8-3.7-12.2,30.1c3,6.1,26.1,81.5,39.3,54.4
	c26.4-54.3,48.1-113.9,76.3-169c4.6-9,9-19.5,13.7-30.3V165c9.7-22.6,20.6-46.5,36.5-60.8c30.6-27.6-13.8-9.1-36.8,1.2v0.1
	c-5.9,2.6-10.3,4.7-11.6,5.3c-26,11.5-56.1,19.5-81,31.5c-19,9.1-4.8,23.9,2.8,32.2c18,19.3-17.8,27.8-25.6,33.4
	c-24.1,17.3-46.8,37.9-74.7,48.8c-28.2,11,19.4,76.3,26.8,93c16.4,36.9,50.3,156.7,82.6,176.3c7.5,4.5,49.5,6.2,80.6,4.8v0.1
	c16.1-0.7,29.2-2.3,33-4.8c20.5-13.5,37-82,47.7-105.8c29.1-64.6,58.3-129.1,86.8-194C969.5,217.1,1011.3,167.7,978.2,165.6z"/>
<path class="st3" d="M337.6,65.6l-1,0.3L337.6,65.6l3.7-1.1L337.6,65.6c21.7-6.3,63.5-46.5,85-66h-62.8c1.3,2.4,2.3,5,3,7.7
	C362.6,6.7,285.8,80.6,337.6,65.6z"/>
<path class="st3" d="M282.8,39.2c14.8,11,36.9-24.4,54.8-39.7h-52.1C281.9,15.6,275.6,33.9,282.8,39.2z"/>
<path class="st3" d="M762.1,4.1c19,9.2,24.1,4.6,24.8-4.5h-29C759.6,1.9,761.1,3.6,762.1,4.1z"/>
<path class="st3" d="M1026.9-0.4c-13.7,44.9-25.4,98.3-28.7,109c-8.1,25.7-69.7,10.4-88.7,10.4c-54.8,0-38.5-4.8-18.8-51.2
	c3.2-7.5,39.9-82.6,0.5-48.3C868.7,39,827.7,45.3,798,54.2l0,0c-2.1,0.6-4.2,1.3-6.2,2c-15.2,5.1-93.8,47.7-95.3,16.2
	c-1.3-27.4-13.9-50.2-26.2-72.9h-29.5c14.6,46.2,36.3,102.9,41.1,115.7c8.9,23.5,66.7-9,116.4-34.9v-0.1
	c32.3-16.8,61.1-30.7,70.9-24.6c38.8,23.9-95.9,85.8,20.1,88.5c33.2,0.8,71.9-3,103.7,7.2c27.9,9,35.6-70.7,40.9-88.2
	c3.3-11,7-42.1,13.4-63.5L1026.9-0.4z"/>
<path class="st3" d="M842.4-0.4c-15,5.2-32.4,8.8-44,11.8l0,0h-0.1l-0.3,0.1l0,0c-3.2,0.8-6.4,1.7-9.6,2.8
	c-19.8,8-67.9,40.5-66.7-10.3c0-1.6,0.1-3.1,0.2-4.5h-19.9c0.4,1.5,0.9,3,1.4,4.5c15.4,46.2,6.1,65.6,57.2,47.5
	c11.6-4.1,24.4-9.7,37.8-15.5l0,0c29.2-12.5,60.8-25.7,87.8-25.6c7.3,0,11.9-4.1,14.4-10.7L842.4-0.4z"/>
<path class="st1" d="M108.7,906c19.1-2.2,56,3.8,71.1-6l-4.9,3.2l4.9-3.2l1.2-0.8l-1.2,0.8c18.3-12,25.3-58.9,33.7-99.3H186
	c-2.8,7.3-5.7,15.3-8.2,24.2c-3.9,13.6-1.7,39.1-14,48.6c-16.6,12.8-57.3,9.8-34.4-14c6.3-6.6,21.7-33.7,33.2-58.8H134
	c-3.1,20.8-14.9,41.5-23.8,64.1C108.3,869.8,75.3,909.9,108.7,906z"/>
<path class="st1" d="M176,1556.5c-6.6-16.2-88.9-42.7-58.3-6.9c15.5,18,18.8,35,16.2,52h28.6C171.7,1581.4,178.5,1562.5,176,1556.5z
	"/>
<path class="st1" d="M108.7,105.1c19.1-2.2,56,3.8,71.1-6l-4.9,3.2l4.9-3.2l1.2-0.8l-1.2,0.8c18.3-12,25.3-58.9,33.7-99.3H186
	c-2.8,7.3-5.7,15.3-8.2,24.2c-3.9,13.6-1.7,39.1-14,48.6c-16.6,12.8-57.3,9.8-34.4-14c6.3-6.6,21.7-33.7,33.2-58.8H134
	c-3.1,20.8-14.9,41.5-23.8,64.1C108.3,68.9,75.3,109,108.7,105.1z"/>
<path class="st1" d="M176,755.6c-6.6-16.2-88.9-42.7-58.3-6.9c15.5,18,18.8,35,16.2,52h28.6C171.7,780.5,178.5,761.6,176,755.6z"/>
<path class="st3" d="M46.8,1563c-2.1-27.8-23.7-26.6-45.5-19.8l0,0l-1.6,0.5v19.8c0.5,0.3,1,0.7,1.6,1v0.3
	C18.2,1577.5,51.3,1622.5,46.8,1563z"/>
<path class="st1" d="M27.4,1414.3c-9.7,27.6,26.2,27.9,21.2,39.7c-17,40.3-36.4,6.2-47-17.7v-0.9c-0.7-1.6-1.3-3-1.9-4.5v44.6
	c0.5,0.2,1,0.5,1.6,0.7v0.2c11.5,3.8,28.3,1.1,57.5-7.2C133,1448.2,37,1387.1,27.4,1414.3z"/>
<path class="st1" d="M243.4,1454c0-16-184.3-98.9-211.4-96.7c-10.1,0.8-20.2,1-30.4,0.5v-0.1l-1.9-0.1v14.6c0.5-0.1,1-0.2,1.6-0.3
	l0,0c17.2-2,46.8,10.1,74.4,22.9c19.1,8.9,126.2,43.6,128.2,59.1c4.8,38.1-50.7-4.9-55.7-4.3c2.9,0.3-26.5,62.5-28.4,40.2
	c-1.7-20,17.4-25.1,16.6-44.8c-1.5-41.5-28.9,17.2-30.3,21.2c-18.2,51.4,15.4,43.7,59.7,62.8c44.4,19.2,33.4,38,20.2,72.5h27.5
	c4.6-22.1,9.6-42.3,17.1-53.7c21.5-32.8-51-28.8-58.7-46C162,1479.4,243.4,1475.9,243.4,1454z"/>
<path class="st3" d="M45.7,800.7c-15,5.2-32.4,8.8-44,11.8l0,0H1.6l-0.3,0.1l0,0l-1.6,0.4v25l1.9-0.8V837
	c29.1-12.5,60.8-25.7,87.8-25.6c7.3,0,11.9-4.1,14.4-10.7L45.7,800.7z"/>
<path class="st2" d="M-0.3,971.3l1.9-4.4v-0.7c9.7-22.7,20.6-46.5,36.5-60.8c30.6-27.6-13.8-9.1-36.8,1.2v0.1l-1.6,0.7L-0.3,971.3z"
	/>
<path class="st2" d="M87.6,1088.2c3.1-7.4,45.9-76.6,20.6-75.5c-38.4,1.8-55.4,6.4-71.4,40.2c-4.4,9.3-20.1,37-35.6,67.3v0.6
	c-0.5,1-1,2.1-1.6,3.1v64.5c0.6-1.3,1.3-2.6,1.9-4v-0.7c24.9-53.5,53.9-146.4,75.4-147.7c7-0.4-57.7,155.5-66.2,175.1
	c-2.7,6.4-5.9,12.5-9.6,18.4v0.4c-0.5,0.8-1,1.5-1.6,2.2v34.4l0.9,0.2c0.2,0,0.4,0.1,0.6,0.1v0.1
	C30.6,1268.7,76.6,1114.9,87.6,1088.2z"/>
<path class="st2" d="M181.4,966.6c-35.5-2.3-74.8,2.8-111.8,0.7c-32.3-1.8-52.7,17.3-68.3,44.2v0.5c-0.5,0.9-1,2-1.6,2.9v67l1.9-3.8
	v-0.6c7.5-14.9,15-29.7,22.6-44.6c23.7-46.6,40-35.2,89.5-36.3c41-0.9,38.4-6.2,22.3,31.7c-13.7,32.2-27.4,64.4-41.2,96.5
	c-13.5,31.8-49.5,163.4-83.8,166.6c-2.3,0.2-5.4,0.6-9.2,1.1l0,0l-1.9,0.3v39l1.6-0.1v0.1c16.1-0.7,29.2-2.3,33-4.8
	c20.5-13.5,37-82,47.7-105.8c29.1-64.6,58.3-129.1,86.8-194C172.7,1018.2,214.6,968.7,181.4,966.6z"/>
<path class="st3" d="M47.6,688.3c-13.3,9.1-29.1,15.8-46.3,21l0,0c-0.5,0.2-1,0.3-1.6,0.4v6.4l1.9-0.5l0,0
	c13.8-3.5,24.5-6.1,29.2-7.2c20.9-4.8,37.9,49.4,43.9,63.7c5.5,13-9.9,21.9-29.1,28.5h58.1C115.9,767.5,74.7,669.8,47.6,688.3z"/>
<path class="st3" d="M230.1,800.7c-13.7,44.9-25.4,98.3-28.7,109c-8.1,25.8-69.7,10.4-88.7,10.4c-54.8,0-38.6-4.8-18.8-51.2
	c3.2-7.5,39.9-82.6,0.5-48.3C72,840,30.9,846.4,1.3,855.3l0,0l-1.6,0.5v26.6l1.9-1v-0.1c32.3-16.8,61.1-30.7,70.9-24.6
	c38.8,23.9-95.9,85.8,20.1,88.5c33.2,0.8,71.9-3,103.7,7.2c27.9,9,35.6-70.7,40.9-88.2c3.3-11,7-42.1,13.4-63.5L230.1,800.7z"/>
<path class="st3" d="M46.8,762.1c-2.1-27.8-23.7-26.6-45.5-19.8l0,0l-1.6,0.5v19.8c0.5,0.3,1,0.7,1.6,1v0.3
	C18.2,776.6,51.3,821.6,46.8,762.1z"/>
<path class="st1" d="M27.4,613.5c-9.7,27.5,26.2,27.9,21.2,39.6c-17,40.3-36.4,6.2-47-17.7v-0.9c-0.6-1.5-1.3-3-1.9-4.5v44.5
	c0.5,0.2,1,0.5,1.6,0.7v0.2c11.5,3.8,28.3,1.1,57.5-7.2C133,647.3,37,586.2,27.4,613.5z"/>
<path class="st1" d="M243.4,653.1c0-16-184.3-98.9-211.4-96.7c-10.1,0.8-20.2,1-30.4,0.5v-0.1l-1.9-0.1v14.6c0.5-0.1,1-0.2,1.6-0.3
	l0,0c17.2-2,46.8,10.1,74.4,22.9c19.1,8.9,126.2,43.6,128.2,59.1c4.8,38.1-50.7-4.9-55.7-4.3c2.9,0.3-26.5,62.5-28.4,40.2
	c-1.7-20,17.4-25.1,16.6-44.8c-1.5-41.5-28.9,17.2-30.3,21.2c-18.2,51.4,15.4,43.7,59.7,62.8c44.4,19.2,33.4,38,20.2,72.5h27.5
	c4.6-22.1,9.6-42.3,17.1-53.7c21.5-32.8-51-28.8-58.7-46C162,678.5,243.4,675,243.4,653.1z"/>
<path class="st2" d="M-0.3,170.4l1.9-4.4v-0.7c9.7-22.6,20.6-46.5,36.5-60.8c30.6-27.6-13.8-9.1-36.8,1.2v0.1l-1.6,0.7L-0.3,170.4z"
	/>
<path class="st2" d="M87.6,287.3c3.1-7.4,45.9-76.6,20.6-75.5c-38.4,1.8-55.4,6.4-71.4,40.2c-4.4,9.3-20.1,37-35.6,67.3v0.6
	c-0.5,1-1,2.1-1.6,3.1v64.5c0.6-1.3,1.3-2.6,1.9-4v-0.7c24.9-53.5,53.9-146.4,75.4-147.7c7-0.4-57.7,155.5-66.2,175.1
	c-2.7,6.4-5.9,12.6-9.6,18.4v0.4c-0.5,0.8-1,1.5-1.6,2.2v34.4l0.9,0.2c0.2,0,0.4,0.1,0.6,0.1v0.1C30.6,467.9,76.6,314,87.6,287.3z"
	/>
<path class="st2" d="M181.4,165.7c-35.5-2.3-74.8,2.8-111.8,0.7c-32.3-1.8-52.7,17.3-68.3,44.2v0.5c-0.5,0.9-1,2-1.6,2.9v67l1.9-3.8
	v-0.6c7.5-14.9,15-29.7,22.6-44.6c23.7-46.6,40-35.2,89.5-36.3c41-0.9,38.4-6.2,22.3,31.7c-13.7,32.2-27.4,64.4-41.2,96.5
	c-13.5,31.8-49.5,163.4-83.8,166.6c-2.3,0.2-5.4,0.6-9.2,1.1l0,0l-1.9,0.3v39l1.6-0.1v0.1c16.1-0.7,29.2-2.3,33-4.8
	c20.5-13.5,37-82,47.7-105.8c29.1-64.6,58.3-129.1,86.8-194C172.7,217.3,214.6,167.8,181.4,165.7z"/>
<path class="st3" d="M45.7-0.2c-15,5.2-32.4,8.8-44,11.8l0,0H1.6l-0.3,0.1l0,0L-0.3,12v25l1.9-0.8v-0.1
	c29.2-12.5,60.9-25.6,87.7-25.6c7.3,0,11.9-4.1,14.4-10.7L45.7-0.2z"/>
<path class="st3" d="M230.1-0.2c-13.7,44.9-25.4,98.3-28.7,109c-8.1,25.8-69.7,10.4-88.7,10.4c-54.8,0-38.6-4.8-18.8-51.2
	c3.2-7.5,39.9-82.6,0.5-48.3C72,39.1,30.9,45.5,1.3,54.4l0,0l-1.6,0.5v26.6l1.9-1v-0.1c32.3-16.8,61.1-30.7,70.9-24.6
	c38.8,23.9-95.9,85.8,20.1,88.6c33.2,0.8,71.9-3,103.7,7.2c27.9,9,35.6-70.7,40.9-88.2c3.3-11,7-42.1,13.4-63.5L230.1-0.2z"/>
<path class="st3" d="M47.6,1489.2c-13.3,9.1-29.1,15.8-46.3,21l0,0c-0.5,0.2-1,0.3-1.6,0.4v6.4l1.9-0.5l0,0
	c13.8-3.5,24.5-6.1,29.2-7.2c20.9-4.8,37.9,49.4,43.9,63.7c5.5,12.9-9.9,21.9-29.1,28.5h58.1C115.9,1568.4,74.7,1470.7,47.6,1489.2z
	"/>
</svg>
