<?xml version="1.0" encoding="utf-8"?>
<!-- Generator: Adobe Illustrator 21.0.2, SVG Export Plug-In . SVG Version: 6.00 Build 0)  -->
<svg xmlns="http://www.w3.org/2000/svg" viewBox="0 0 603.55 306.5">
  <defs>
    <style type="text/css">
     .cls-1{stroke:#B6008D;stroke-width:1;stroke-miterlimit:10;fill:#b6008d;}
     .cls-2{fill:#FFFFFF;stroke:#FFFFFF;stroke-width:1;stroke-miterlimit:10;}
     .cls-3{fill:#FF4612;stroke:#FF4612;stroke-width:1;stroke-miterlimit:10;}
     .cls-4{fill:#FFDB00;stroke:#FFDB00;stroke-width:1;stroke-miterlimit:10;}
    </style>
  </defs>
  <path d="M568.36 294c-.6-2.88 1.24-22.36 3.34-23.09 1.14-.4 19.64 13.11 22.27 15.12 4.54 3.48-3.65 9-7 8.34-3.63-.68-.2-9-7-11-11.33-3.2 3.69 18 5.14 18.22 2.87.44 14.8-8.47 17.73-10.35 4.39-2.81-14.4-12.8-16.95-14.55-3-2.08-15-13.26-17.92-12.26-2.26.77-2.94 19.89-2.51 22.89.73 5.11-8.68 4.6-5.66-1.87.61-1.3 4.5-5.59 2.13-7-3.21-1.85-6.68 7.82-9.34 8.56-5 1.37-8.25-3-3-4.66 15.07-4.83 3.28-8.34-4.58-12.41-8.17-4.23-19.44-12.93-28.57-14.09-8.36-1.07 3.5-16.2 5.67-20.38 4-7.76 12.3-18.23 13.21-27 .93-8.92 10.6 10.7 8.42 13.13-.5.56-15.61-4.56-9.67 2.76 1.76 2.17 9.15 1.66 11.89 2.14 10.87 1.93 3.48-4.72.15-12.31-1.25-2.85-10.54-26.31-11-16.76-.42 8.56-8.71 19.74-12.37 27.46-4.1 8.63-7.48 20.5-14 27.52-3.68 4 17.64 12.59 21.06 14.33 3.1 1.58 24.75 10.37 20.72 13.46-7.07 5.42-16.33 4.7-4.14 9.44 3.68 1.54 23.74 12.94 21.98 4.36z" class="cls-1"/>
  <path d="M547.73 203c1.28.6 23-10.17 23.1-11.26.16-2.77-8.66-6.64-10.8-8.31-5.41-4.21-4.67-6.11-7.69 1.47-.35.87-5 9.75.39 7.92a25.28 25.28 0 0 1 3.36-4.18c1-.16 11.45 2.31 5.95 4.61-10.48 4.39-19.34 4.27-14.33-9.87.81-2.29 1.86-11 4.19-11.66 2.63-.72 11.26 7.75 13.81 9.46 3.67 2.46 28.09 16.57 24 20-7.47 6.26-12.61 17.66-17.93 25.8-6.44 9.87-14.71 19-15.66 30.81-1.1 13.8-10 2.86-20.09-2.27-2.58-1.32-12.64-3.65-13-6.61-.38-3.22 9.45-2.4 11.48-3.3-1.67.74-5.81-9.72-12.61 0-5.65 8.11.94 7.35 8.44 11.21 5.95 3.06 11.87 6.18 17.81 9.24 4.41 2.27 12.83 10.13 13.56 2.09.42-4.62-2.45-9.27-1.37-13.78 1.16-4.83 6.69-9.8 9.3-14.06 5.87-9.57 12.52-18.67 18.48-28.19 2.45-3.91 4.86-8 8.42-11 4.67-4-7.76-9.54-10-11.24q-13.66-10.23-27.35-20.43c-10.55-7.9-9.83-10.87-13.87 2-2.62 8.32-8.82 26.29 2.41 31.55z" class="cls-2"/>
  <path d="M531.94 228.07c-7.72 6.22-3.6 8 2.44 11.46 2.11 1.2 6.9.21 6.77 3.87-.15 4.51-6.38.85-7 5.21-.31 2.08 9.54 5 11.55 6 10.5 5.43 3.49-.64 6-7.68 1.86-5.21 6.76-10.67 10-15.18 3.8-5.35 23-27.83 22-33.38.17.89.34 1.81 0 0l-.18-1 .18 1c-1.78-9.54-19.8 1.85-23.73 3.5-11.16 4.69-12 5.31-6.54 18.32 4.08 9.72 5.74-14.48 3.8-13.67 2.43-1 18.15-7.08 18.84-6.33 1 1.09-13.79 20.32-15.79 23.27-5.56 8.21-11.37 14.2-11.62 24.09-.18 7.14-10.58 1.75-4.47-2.83 4.4-3.3-3.78-2.74 2.14-7.28 2.92-2.24 5.83-10.3-.77-6.25-1.9 1.17-3.62 8.22-6.31 7.24-3.26-1.19 7.43-8.67 2.28-9.42-4.31-.63-4.55 8.36-7.85 6.88-.53-.17 4.75-13.04-1.74-7.82zm31.37-62.21h.06zm.15-.04h.15zm-.08.02h.08zm.48-.13zm.05-.02zm.02-.01zm-1.52.44zm1.4-.4zm-.2.06l.2-.06zm.28-.08zm-33.15 7.37zm.05-.07zm.01 0zm-.07.07zm1.27-.81l.31-.2zm0 .01zm.35-.27l.15-.1zm-.07.05h.06zm42.52 119.72c-3.74-5.82-4.58 10.54-5.9 11.2-2.85 1.43-18-6.62-20.6-8.71-2.06-1.63-4.65 4.68-7 12.24h3.91c.61-2 1.35-3.6 2.28-4 6.17-2.87 6 .26 5.14 4h9.95c1.69-1.44 3.19-1.94 4.23 0h5.26c.3-.28 7.32-.53 7.58-.76 3.35-2.9-3.12-11.28-4.85-13.97zm-49.14-14.28z" class="cls-3"/>
  <path d="M531 297.89c-1.26-3.1-17-8.16-11.14-1.33a11.75 11.75 0 0 1 3.1 9.94h5.45c1.78-3.85 3.07-7.5 2.59-8.61z" class="cls-2"/>
  <path d="M368.05 258.29c9.19 4.31 15.84 7.51 24 11.74 7.86 4.06 19.66 7.58 4.58 12.41-5.29 1.69-2 6 3 4.66 2.67-.74 6.14-10.4 9.34-8.56 2.38 1.37-1.52 5.65-2.13 7-3 6.48 6.38 7 5.66 1.87-.43-3 .25-22.12 2.51-22.89 2.92-1 14.89 10.19 17.92 12.26 2.55 1.75 21.33 11.74 16.95 14.55-2.93 1.88-14.86 10.79-17.73 10.35-1.45-.22-16.47-21.42-5.14-18.22 6.79 1.92 3.36 10.28 7 11 3.31.61 11.49-4.85 7-8.34-2.62-2-21.13-15.52-22.27-15.12-2.1.74-3.94 20.21-3.34 23.09 1.77 8.53-18.3-2.87-21.88-4.26-12.19-4.74-2.93-4 4.14-9.44 4-3.09-17.62-11.88-20.72-13.46-3.42-1.75-22.31-11.31-20.31-13.81s4.38.88 5.88 1.88a57.37 57.37 0 0 0 5.54 3.29z" class="cls-1"/>
  <path d="M414.41 256.75v.18zm.11.7zm-.08-.52l.06.38zm.06.38v.11zm.02.12zm-.2-1.25l-.05-.32z" class="cls-3"/>
  <path d="M442.21 207.33c-4.49 7.55-8.17 16.32-12.83 24.11-2.87 4.8-15.81 20.12-15 25.1v-.29.5-.21c.46 2.89 37.72 28.83 37.91 28.69 1.09-.75-12.7-30.08-15.27-33.11-5.9-6.95 7.1-11.33 12-8.27 5.91 3.71-2.35-10.52-2.33-10.41-1.64-10.79-23.59 22.22-20.38 24.39 7.13 4.82 4-9.35 10.25 2.62 1 1.9 7.71 10.64 6.18 11.7-.46.32-22-14.59-22.27-16.53-.73-4.81 13-20.1 16-24.69 5.1-7.92 5.76-16.84 11-6.25 3.74 7.63 8.46 14.93 12.24 22.26 3 5.76-16.68-1.54-17.79.43-1.67 3 7.59 18.53 9.2 22.22s7.4 25.09 12.31 22.41c6.57-3.58 18.9-6.64 26.37-6 5.54.45.68-6-6.71-4.69-4.74.86-9.48 1.78-14.22 2.63-11.32 2-11-8.26-15.06-18-3.34-8-10-13.46.86-12 8.87 1.16 14.25 5.59 9.62-4.48q-5.66-12.32-11.3-24.65c-1.24-2.54-8.14-21.92-10.78-17.48z" class="cls-4"/>
  <path d="M414.27 255.86l-.06-.38zm.06.39zm41.9.39zm-.83.97l.84-1z" class="cls-3"/>
  <path d="M532 185.17c-6.79-.43-14.3.53-21.36.13-6.17-.35-10.07 3.31-13.06 8.44-3.46 6-5.7 13.92-8.81 19.91-2.2 4.23-10.47 14.73-6.78 19.35 7.58 9.5 3.81 7.34 15.42 9.49h.16c5.6.34 14.38-29.06 16.49-34.16.59-1.41 8.77-14.64 3.95-14.42-7.33.33-10.58 1.22-13.64 7.68-.84 1.78-3.85 7.07-6.8 12.86-4.19 8.23-8.26 17.44-5.83 19 1.64 1 3.66-2 5.86-6.73 4.77-10.22 10.33-28.06 14.46-28.31 1.34-.08-11 29.71-12.65 33.46a23.71 23.71 0 0 1-1.83 3.52c-2.6 4-5.9 4.76-10.93-1.15-4.23-5 3-12 5.26-16.54q2.86-5.63 5.7-11.26l4.35-8.6c4.52-8.9 7.64-6.73 17.1-6.95 7.83-.18 7.33-1.18 4.25 6.05q-3.93 9.23-7.88 18.45c-2.59 6.08-9.46 31.22-16 31.84-.44 0-1.06.12-1.81.22-4.56.61-13.73 1.8-14.44-2.23-1.14-6.43-5.61-12.37-8.33-18.26s-5.44-12.86-9.73-17.56c-3.77-4.13 9.68-10.84 12.36-12.93 2.23-1.74 6.69-3.12 7.73-6 .92-2.52-3.19-2.79-1.82-5.21 1.15-2 12.06-8.25 13.34-6.71 2 2.43-7.08 13.75-7.52 17.8-1.13 10.31-4.91-2-6.53-.66-.65.54 2.89 14.25 0 12.27-1.32-.91-3.09-10.05-5.37-8.13-3.61 3 3.75 8.51 3.72 11.72-.09 11.44-5.14-.14-5.82-4.43-.86-5.38-5.51-.7-2.33 5.76.57 1.16 5 15.58 7.51 10.39 5-10.38 9.2-21.77 14.59-32.3.88-1.72 1.72-3.72 2.61-5.79 1.87-4.36 3.95-9 7-11.72 5.84-5.26-2.61-1.74-7 .23l-2.28 1c-5 2.19-10.73 3.73-15.48 6-3.63 1.75-.93 4.57.55 6.15 3.44 3.68-3.41 5.31-4.89 6.37-4.6 3.3-9 7.24-14.28 9.32s3.71 14.59 5.12 17.78c3.13 7.05 9.61 30 15.79 33.69 1.43.86 9.5 1.19 15.45.92 3.08-.14 5.58-.44 6.3-.91 3.93-2.57 7.07-15.66 9.12-20.21 5.56-12.35 11.14-24.68 16.58-37.07.81-1.73 8.8-11.16 2.43-11.56z" class="cls-4"/>
  <path d="M506.47 285a31.79 31.79 0 0 1-8.82 4c-10.28 3.09-23.17 3.25-32.21 5.39-1.21.29.08 5.65 2.11 12.07h5.64a57.25 57.25 0 0 1-3.09-6.38c-.86-2.21 17.57-7.3 27.53-9.84 2.68-.68 4.74-1.18 5.65-1.39 4-.92 7.24 9.44 8.39 12.17 1 2.47-1.89 4.19-5.56 5.45h11.1c2.32-6.31-5.57-24.98-10.74-21.47z" class="cls-3"/>
  <path d="M506.32 299.14c-.41-5.31-4.51-5.09-8.67-3.79-2.82.88-5.67 2.26-7.39 2.74-7.83 2.17-13.44.2-11 8.41H483c.47-10 4.81-2.69 6.85 0h5.54c.18-2.53-1.41-6.87.86-7.55.32-.09.78.13 1.33.54 3.27 2.41 9.61 11.01 8.74-.35z" class="cls-3"/>
  <path d="M543.89 278.3c0-3.06-35.21-18.9-40.4-18.47a45.57 45.57 0 0 1-5.84.09c-9.47-.43-13.59-2.93-8.05 9.27 3.64 8 4.6 12.22 8 13.38 2.2.73 5.41.21 11-1.37 14.19-4-4.16-15.69-6-10.49s5 5.34 4.05 7.58c-3.28 7.75-7 1.09-9-3.48v-.09c-.59-1.36-1-2.52-1.27-3.07-2.68-6.28-1.64-8.72 1.24-9.07 3.28-.38 8.94 1.93 14.22 4.38 3.65 1.69 24.12 8.33 24.49 11.3.92 7.28-9.68-.94-10.64-.82.56.05-5.06 12-5.43 7.67-.32-3.81 3.32-4.79 3.18-8.57-.29-7.93-5.52 3.28-5.79 4.05-3.48 9.82 2.95 8.35 11.41 12s6.39 7.26 3.85 13.86h5.26c.88-4.22 1.84-8.08 3.27-10.26 4.1-6.27-9.75-5.5-11.21-8.8-1.9-4.24 13.66-4.9 13.66-9.09z" class="cls-2"/>
  <path d="M437.16 304c-.77.56-2.15 1.42-3.88 2.46h5.58c3.61-2.73 7.2-5.46 10.69-8.13 1.74-1.33 4.22 2.85 6.53 8.13h5.39q-1.9-4.66-3.81-9.31c-4.76-11.49-11.8.5-20.5 6.85z" class="cls-1"/>
  <path d="M450.53 305.75a4.46 4.46 0 0 0-2 .72h2.64a2.06 2.06 0 0 0-.64-.72z" class="cls-1"/>
  <path d="M421.77 291.74c-3.74-5.82-4.58 10.54-5.9 11.2-2.85 1.43-18-6.62-20.6-8.71-2.06-1.63-4.65 4.68-7 12.24h3.91c.61-2 1.35-3.6 2.28-4 6.17-2.87 6 .26 5.14 4h9.95c1.69-1.44 3.19-1.94 4.23 0h12l.85-.76c3.37-2.91-3.13-11.28-4.86-13.97zm-49.13-14.29z" class="cls-3"/>
  <path d="M378 297.86c-1.26-3.1-17-8.16-11.14-1.33a11.75 11.75 0 0 1 3.1 9.94h5.45c1.75-3.85 3.04-7.47 2.59-8.61z" class="cls-2"/>
  <path d="M353.44 285a31.83 31.83 0 0 1-8.85 4c-10.27 3.07-23.12 3.24-32.15 5.38-1.21.29.08 5.65 2.11 12.07h5.64a57.27 57.27 0 0 1-3.09-6.38c-.86-2.21 17.6-7.31 27.56-9.85 2.65-.68 4.68-1.17 5.58-1.38 4-.92 7.23 9.44 8.39 12.17 1 2.47-1.89 4.19-5.56 5.45h11.1c2.33-6.33-5.56-25.01-10.73-21.46z" class="cls-3"/>
  <path d="M353.29 299.11c-.41-5.32-4.53-5.09-8.7-3.78-2.8.88-5.62 2.24-7.33 2.72-7.83 2.17-13.44.2-11 8.41h3.8c.47-10 4.81-2.69 6.85 0h5.54c.18-2.53-1.41-6.87.86-7.55.31-.09.76.12 1.29.51v.06c3.23 2.39 9.56 10.98 8.69-.37z" class="cls-3"/>
  <path d="M390.86 278.27c0-3.06-35.21-18.9-40.4-18.47a45.5 45.5 0 0 1-5.8.09c-9.47-.43-13.59-2.93-8.05 9.27 3.62 8 4.6 12.18 8 13.36 2.2.73 5.41.21 11-1.37 14.19-4-4.16-15.69-6-10.49s5 5.34 4.05 7.58c-3.26 7.7-7 1.18-9-3.39v-.16c-.59-1.36-1-2.52-1.27-3.07-2.66-6.25-1.65-8.7 1.2-9.06 3.28-.38 8.94 1.93 14.22 4.38 3.65 1.69 24.12 8.33 24.49 11.3.92 7.28-9.68-.94-10.64-.82.56.05-5.06 12-5.43 7.67-.32-3.81 3.32-4.79 3.18-8.57-.29-7.93-5.52 3.28-5.79 4.05-3.48 9.82 2.95 8.35 11.41 12s6.39 7.26 3.85 13.86h5.26c.88-4.22 1.84-8.08 3.27-10.26 4.1-6.27-9.75-5.5-11.21-8.8-1.9-4.25 13.66-4.91 13.66-9.1z" class="cls-2"/>
  <path d="M571.7 117.9c-1.43-1.7-3.94 20.21-3.34 23.09 1.77 8.53-18.3-2.87-21.88-4.26-12.19-4.74-2.93-4 4.14-9.44 4-3.09-17.62-11.88-20.72-13.46-3.42-1.75-24.74-10.37-21.06-14.33 6.52-7 9.9-18.89 14-27.52 3.66-7.71 12-18.9 12.37-27.46.47-9.55 9.75 13.91 11 16.76 3.33 7.58 10.72 14.23-.15 12.31-2.75-.49-10.13 0-11.89-2.14-5.95-7.32 9.16-2.2 9.67-2.76 2.18-2.43-7.49-22-8.42-13.13-.91 8.75-9.19 19.22-13.21 27-2.17 4.18-14 19.31-5.67 20.38 9.13 1.17 20.39 9.87 28.57 14.09 7.86 4.06 19.66 7.58 4.58 12.41-5.29 1.69-2 6 3 4.66 2.67-.74 6.14-10.4 9.34-8.56 2.38 1.37-1.52 5.65-2.13 7-3 6.48 6.38 7 5.66 1.87-.43-3 .25-22.12 2.51-22.89 2.92-1 4.07 2.12 7.1 4.2-.05-.07-.99 5.14-3.47 2.18z" class="cls-1"/>
  <path d="M567.44 103.73v.18zm.11.7zm-.08-.52l.06.38zm.06.38v.11zm.02.12zm-.21-1.25l-.05-.32zm-.05-.32l-.06-.38zm.07.39z" class="cls-3"/>
  <path d="M547.73 49.94c1.28.6 23-10.17 23.1-11.26.16-2.77-8.66-6.64-10.8-8.31-5.41-4.21-4.67-6.11-7.69 1.47-.35.87-5 9.75.39 7.92a25.28 25.28 0 0 1 3.36-4.18c1-.16 11.45 2.31 5.95 4.61-10.48 4.39-19.34 4.27-14.33-9.87.81-2.29 1.86-11 4.19-11.66 2.63-.72 11.26 7.75 13.81 9.46 3.67 2.46 21 13.69 16.92 17.14-7.47 6.26-5.55 20.54-10.87 28.69-6.44 9.87-14.71 19-15.66 30.81-1.1 13.8-10 2.86-20.09-2.27-2.58-1.32-12.64-3.65-13-6.61-.38-3.22 9.45-2.4 11.48-3.3-1.67.74-5.81-9.72-12.61 0-5.65 8.11.94 7.35 8.44 11.21 5.95 3.06 11.87 6.18 17.81 9.24 4.41 2.27 12.83 10.13 13.56 2.09.42-4.62-2.45-9.27-1.37-13.78 1.16-4.83 6.69-9.8 9.3-14.06 5.87-9.57 5.45-21.55 11.42-31.07 2.45-3.91 4.86-8 8.42-11 4.67-4-7.76-9.54-10-11.24-9.11-6.82-11.18-10.73-20.29-17.55-10.55-7.9-9.83-10.87-13.87 2-2.6 8.3-8.8 26.27 2.43 31.52z" class="cls-2"/>
  <path d="M531.94 75c-7.72 6.22-3.6 8 2.44 11.46 2.11 1.2 6.9.21 6.77 3.87-.15 4.51-6.38.85-7 5.21-.31 2.08 9.54 5 11.55 6 10.5 5.43 3.49-.64 6-7.68 1.86-5.21 6.76-10.67 10-15.18 3.8-5.35 16-30.71 14.94-36.26.17.89.34 1.81 0 0l-.18-1 .18 1c-1.78-9.54-12.74 4.73-16.67 6.38-11.16 4.69-12 5.31-6.54 18.32 4.08 9.72 5.74-14.48 3.8-13.67 2.43-1 18.15-7.08 18.84-6.33 1 1.09-13.79 20.32-15.79 23.27-5.56 8.21-11.37 14.2-11.62 24.09-.18 7.14-10.58 1.75-4.47-2.83 4.4-3.3-3.78-2.74 2.14-7.28 2.92-2.24 5.83-10.3-.77-6.25-1.9 1.17-3.62 8.22-6.31 7.24-3.26-1.19 7.43-8.67 2.28-9.42-4.31-.63-4.55 8.36-7.85 6.88-.53-.15 4.75-13.03-1.74-7.82zm31.37-62.19h.06zm.15-.04h.15zm-.08.02h.08zm.48-.14zm.05-.01zm-1.3.36l-.2.06.2-.06.7-.2-.7.2c4.14-1.2 12.14-8.9 16.24-12.61h-12a7.42 7.42 0 0 1 .57 1.47c-.02-.09-14.7 14.02-4.81 11.14zm1.32-.37zm-1.52.44zM552.14 8c2.83 2.1 7-4.66 10.48-7.58h-9.95C552 3.47 550.77 7 552.14 8zm11.67 4.67zm-.2.06l.2-.06zm.28-.09zM530.74 20zm.05 0zm.01 0z" class="cls-3"/>
  <path d="M518.14 20.52c3.65-.43 10.7.73 13.58-1.15l-.93.61.93-.61.24-.15-.24.15c3.49-2.28 4.84-11.25 6.45-19h-5.26c-.54 1.4-1.09 2.93-1.57 4.62-.74 2.6-.33 7.48-2.68 9.29-3.18 2.45-11 1.87-6.58-2.67 1.21-1.26 4.15-6.43 6.35-11.24H523c-.59 4-2.84 7.94-4.54 12.25-.4.99-6.7 8.65-.32 7.9z" class="cls-2"/>
  <path d="M530.73 20zm1.27-.79l.31-.2zm0 0zm.35-.21l.15-.1zm-.07 0h.06zm-6.62 105.43z" class="cls-3"/>
  <path d="M531.5 172.57l-.7.46zm.5-.3l-.23.15z" class="cls-2"/>
  <path d="M414.41 103.7v.18zm.11.7zm-.08-.52l.06.38zm.06.38v.11zm.02.12zm-.2-1.26l-.05-.32z" class="cls-3"/>
  <path d="M442.21 54.28c-4.49 7.55-8.17 16.32-12.83 24.11-2.87 4.8-15.81 20.12-15 25.1v-.29.5-.21c.46 2.89 37.72 28.83 37.91 28.69 1.09-.75-12.7-30.08-15.27-33.11-5.9-6.95 7.1-11.33 12-8.27 5.91 3.71-2.35-10.52-2.33-10.41-1.64-10.79-23.59 22.22-20.38 24.4 7.13 4.82 4-9.35 10.25 2.62 1 1.9 7.71 10.64 6.18 11.7-.46.32-22-14.59-22.27-16.53-.73-4.81 13-20.1 16-24.69 5.1-7.92 5.76-16.84 11-6.25 3.74 7.63 8.46 14.93 12.24 22.26 3 5.75-16.68-1.54-17.79.43-1.67 3 7.59 18.53 9.2 22.22s7.4 25.09 12.31 22.41c6.57-3.58 18.9-6.64 26.37-6 5.54.45.68-6-6.71-4.69-4.74.86-9.48 1.78-14.22 2.63-11.32 2-11-8.26-15.06-18-3.34-8-10-13.46.86-12 8.87 1.16 14.25 5.59 9.62-4.48q-5.66-12.32-11.3-24.65c-1.24-2.55-8.14-21.93-10.78-17.49z" class="cls-4"/>
  <path d="M414.27 102.81l-.06-.38zm.06.38z" class="cls-3"/>
  <path d="M394.7 49.9c1.28.6 23-10.17 23.1-11.26.16-2.77-8.66-6.64-10.8-8.31-5.41-4.21-4.67-6.11-7.69 1.46-.35.87-5 9.75.39 7.92a25.28 25.28 0 0 1 3.36-4.18c1-.16 11.45 2.31 5.95 4.61-10.48 4.39-19.34 4.27-14.33-9.87.81-2.29 1.86-11 4.19-11.66 2.63-.72 11.26 7.75 13.81 9.46 3.67 2.46 28.09 16.57 24 20-7.47 6.26-12.61 17.66-17.93 25.81-6.44 9.87-14.71 19-15.66 30.81-1.1 13.8-10 2.86-20.09-2.27-2.58-1.32-12.64-3.65-13-6.61-.38-3.22 9.45-2.4 11.48-3.3-1.67.74-5.81-9.72-12.61 0-5.65 8.11.94 7.35 8.44 11.21 5.95 3.06 11.87 6.18 17.81 9.24 4.41 2.27 12.83 10.13 13.56 2.09.42-4.62-2.45-9.27-1.37-13.78 1.16-4.83 6.69-9.8 9.31-14.06 5.87-9.57 12.52-18.67 18.48-28.19 2.45-3.91 4.86-8 8.42-11 4.67-4-7.76-9.54-10-11.24q-13.66-10.23-27.35-20.43c-10.55-7.9-9.83-10.87-13.87 2-2.62 8.34-8.83 26.3 2.4 31.55z" class="cls-2"/>
  <path d="M378.91 75c-7.72 6.22-3.6 8 2.44 11.46 2.11 1.2 6.9.21 6.77 3.87-.15 4.51-6.38.85-7 5.21-.31 2.08 9.54 5 11.55 6 10.5 5.43 3.49-.64 6-7.68 1.86-5.21 6.76-10.67 10-15.18 3.8-5.35 23-27.83 22-33.38.17.89.34 1.81 0 0l-.18-1 .18 1c-1.78-9.54-19.8 1.85-23.73 3.5-11.16 4.69-12 5.31-6.54 18.32 4.08 9.72 5.74-14.48 3.8-13.67 2.43-1 18.15-7.08 18.84-6.33 1 1.09-13.79 20.32-15.79 23.27-5.56 8.21-11.37 14.2-11.62 24.09-.18 7.14-10.58 1.75-4.47-2.83 4.4-3.3-3.78-2.74 2.14-7.28 2.92-2.24 5.83-10.3-.77-6.25-1.9 1.17-3.62 8.22-6.31 7.24-3.26-1.19 7.43-8.67 2.28-9.42-4.31-.63-4.55 8.36-7.85 6.88-.53-.18 4.75-13.06-1.74-7.82zm77.32 28.59z" class="cls-3"/>
  <path d="M413.17 15.37C413.06 19 435 31.73 438.92 34.66c2.41 1.82 23.42 14.34 8.83 14.34 3.43 0 23.86 50.55 26.28 56.18.91 2.11-17.32-2.15-18.63-.64-1 1.14 6 21.68 8.34 23 2.11 1.24 22.1-2.39 23.55-4.29 6.09-8-13.45-10.86-16-11.53-5.54-1.48-3.63 5.49 1.74 5.18.65 0 11.45.45 8 3.23-7 5.67-24.37-3.16-19.52-11.47.76-1.3 21.4 1.65 20.16-1-2.92-6.26-25.06-57.48-27.55-57.48 19.31 0-5-14.8-9.25-18-3.25-2.49-25.86-17.09-22-19.93 5.23-3.85 10.61-7.87 15.94-11.9h-5.58c-7.04 4.31-19.96 11.78-20.06 15.02z" class="cls-1"/>
  <path d="M455.4 104.55l.84-1z" class="cls-3"/>
  <path d="M433.56 18c8.58 3.13 22.57 16 27.86 23.36 2.82 3.91 13.64-3.09 14.57-6.13s-5.09-12.54-6.52-15.79c-2.78-6.3-5.4-12.69-8-19.07h-5.39c2.74 6.26 5.23 14.07 5.95 16 4.08 10.89 12.39 27.47-4.14 13.86-6.71-5.53-21.53-12.53-13.16-18.59 6.86-5 5.17-1.93 8.07 4.63.54 1.22 5.75 15.54 9 9 .7-1.52-7.8-20.88-10.61-24.9h-2.64c-5.98 3.07-22.47 14.9-14.99 17.63z" class="cls-1"/>
  <path d="M532 32.11c-6.79-.43-14.3.53-21.36.13-6.17-.35-10.07 3.31-13.06 8.44-3.46 6-5.7 13.92-8.81 19.91-2.16 4.25-10.43 14.75-6.77 19.41 7.58 9.5 3.81 7.34 15.42 9.49h.16c5.6.34 14.38-29.06 16.49-34.16.59-1.41 8.77-14.64 3.95-14.42-7.33.33-10.58 1.22-13.64 7.68-.84 1.78-3.85 7.07-6.8 12.86-4.19 8.23-8.26 17.44-5.83 19 1.64 1 3.66-2 5.86-6.73 4.8-10.23 10.39-28.08 14.49-28.33 1.34-.08-11 29.71-12.65 33.46a23.72 23.72 0 0 1-1.83 3.52c-2.6 4-5.9 4.76-10.93-1.15-4.23-5 3-12 5.26-16.54q2.86-5.63 5.7-11.26l4.35-8.6c4.52-8.9 7.64-6.73 17.1-6.95 7.83-.18 7.33-1.18 4.25 6.05q-3.93 9.23-7.88 18.45c-2.59 6.08-9.46 31.22-16 31.84-.44 0-1.06.12-1.81.22-4.56.61-13.73 1.8-14.44-2.23-1.14-6.43-5.61-12.37-8.33-18.26s-5.45-12.94-9.74-17.61c-3.77-4.13 9.68-10.84 12.36-12.93 2.23-1.74 6.69-3.12 7.73-6 .92-2.52-3.19-2.79-1.82-5.21 1.15-2 12.06-8.25 13.34-6.71 2 2.43-7.08 13.75-7.52 17.8-1.13 10.31-4.91-2-6.53-.66-.65.54 2.89 14.25 0 12.27-1.32-.91-3.09-10.05-5.37-8.13-3.61 3 3.75 8.51 3.72 11.72-.09 11.44-5.14-.14-5.82-4.43-.86-5.38-5.51-.7-2.33 5.76.57 1.16 5 15.58 7.51 10.39 5-10.38 9.2-21.77 14.59-32.3.88-1.72 1.72-3.72 2.61-5.79 1.87-4.36 3.95-9 7-11.72 5.84-5.26-2.61-1.74-7 .23l-2.28 1c-5 2.19-10.73 3.73-15.48 6-3.63 1.75-.93 4.57.55 6.15 3.44 3.68-3.41 5.31-4.89 6.37-4.6 3.3-9 7.24-14.28 9.32s3.71 14.59 5.12 17.78c3.13 7.05 9.61 30 15.79 33.69 1.43.86 9.5 1.19 15.45.92 3.08-.14 5.58-.44 6.3-.91 3.93-2.57 7.07-15.66 9.12-20.21 5.56-12.35 11.14-24.68 16.58-37.07.78-1.66 8.77-11.15 2.4-11.55z" class="cls-4"/>
  <path d="M410.29 12.78h.06zm.14-.04h.15zm-.08.02h.08zm.48-.14zm.05-.02zm-1.3.4l-.2.06.2-.06.7-.2-.7.2c4.14-1.2 12.14-8.9 16.24-12.61h-12a7.42 7.42 0 0 1 .57 1.47c-.02-.12-14.7 13.99-4.81 11.14zm1.33-.4zm-1.53.4zm-10.27-5.05c2.83 2.1 7-4.66 10.48-7.58h-9.95c-.71 3.07-1.89 6.56-.53 7.58zm11.67 4.68zm-.2.06l.2-.06zm.28-.08zM377.71 20zm.05-.05zm.01-.01z" class="cls-3"/>
  <path d="M365.12 20.49c3.65-.43 10.7.73 13.58-1.15l-.93.61.93-.61.24-.15-.24.15c3.49-2.28 4.84-11.25 6.45-19h-5.26c-.54 1.4-1.09 2.93-1.57 4.62-.74 2.6-.33 7.48-2.68 9.29-3.18 2.45-11 1.87-6.58-2.67 1.21-1.26 4.15-6.43 6.35-11.24H370c-.59 4-2.84 7.94-4.54 12.25-.46.98-6.73 8.65-.34 7.9z" class="cls-2"/>
  <path d="M377.7 20zm1.25-.83l.31-.2zm-.02.01zm.39-.25l.15-.1zm-.06.07h.06zM490.7 1.24c3.64 1.75 4.6.87 4.73-.87h-5.54a3.38 3.38 0 0 0 .81.87z" class="cls-3"/>
  <path d="M541.35.4c-2.61 8.59-4.85 18.79-5.49 20.82-1.56 4.93-13.31 2-17 2-10.48 0-7.37-.92-3.59-9.79.61-1.43 7.62-15.78.09-9.23-4.28 3.72-12.1 4.94-17.76 6.63l-1.25.39c-2.9 1-17.92 9.11-18.21 3.1-.26-5.24-2.66-9.58-5-13.93h-5.64c2.78 8.82 6.94 19.66 7.86 22.1 1.69 4.49 12.72-1.71 22.22-6.65 6.19-3.22 11.73-5.9 13.61-4.74 7.4 4.57-18.32 16.39 3.84 16.92 6.34.15 13.74-.58 19.81 1.38 5.33 1.72 6.8-13.51 7.82-16.86.64-2.1 1.33-8 2.56-12.14z" class="cls-3"/>
  <path d="M506.1.4c-2.89 1-6.23 1.69-8.45 2.26a16.71 16.71 0 0 0-1.89.56c-3.79 1.52-13 7.73-12.75-2V.36h-3.8q.12.41.27.85c2.95 8.83 1.16 12.53 10.92 9.07 2.2-.78 4.64-1.84 7.19-2.94 5.59-2.4 11.67-4.93 16.83-4.93A2.78 2.78 0 0 0 517.2.4zm56.51 165.67l-.19.06zm0 0l.7-.2zm12.19-27.35c-3.74-5.82-4.58 10.54-5.9 11.2-2.85 1.43-18-6.62-20.6-8.71-2-1.61-4.6 4.56-6.89 12-2.61 8.59-4.91 19-5.56 21-1.56 4.93-13.31 2-17 2-10.48 0-7.37-.92-3.59-9.79.61-1.43 7.62-15.78.09-9.23-4.28 3.72-12.1 4.94-17.76 6.63l-1.25.39c-2.9 1-17.92 9.11-18.21 3.1-.25-5.06-2.5-9.29-4.77-13.49a65.73 65.73 0 0 1-3.35-6.81c-.86-2.21 17.57-7.3 27.53-9.84 2.68-.68 4.74-1.18 5.65-1.39 4-.92 7.24 9.44 8.39 12.17 1 2.43-1.78 4.12-5.35 5.38-2.88 1-6.45 1.77-8.66 2.33a16.77 16.77 0 0 0-1.89.56c-3.79 1.52-13 7.73-12.75-2v-.72c.47-10 4.87-2.73 6.92 0a3 3 0 0 0 .73.76c3.64 1.75 4.6.87 4.73-.87.14-2.54-1.37-6.88.87-7.55.32-.09.78.13 1.33.54 3.23 2.4 9.57 11 8.7-.37-.41-5.31-4.51-5.09-8.67-3.79-2.82.88-5.67 2.26-7.39 2.74-7.83 2.17-13.39.38-11 8.6.07.22.13.43.21.67 2.95 8.83 1.16 12.53 10.92 9.07 2.2-.78 4.64-1.84 7.19-2.94 5.59-2.4 11.67-4.93 16.83-4.93a2.87 2.87 0 0 0 2.72-2.05c2.33-6.34-5.56-25-10.74-21.47a31.79 31.79 0 0 1-8.82 4c-10.28 3.09-23.17 3.25-32.21 5.39-1.21.29.17 6 2.19 12.38 2.78 8.77 6.85 19.37 7.76 21.79 1.69 4.49 12.72-1.71 22.22-6.65 6.19-3.22 11.73-5.9 13.61-4.74 7.4 4.57-18.32 16.39 3.84 16.92 6.34.15 13.74-.58 19.81 1.38 5.33 1.72 6.8-13.51 7.82-16.86.64-2.1 1.42-8.27 2.65-12.36.6-1.92 1.31-3.4 2.21-3.81 6.17-2.87 5.94.38 5.07 4.15l-.06.27c-.71 3-1.75 6.19-.4 7.19 2.83 2.1 7-4.66 10.48-7.58 1.66-1.38 3.21-1.92 4.24 0a7.86 7.86 0 0 1 .58 1.48c0-.1-14.69 14-4.82 11.15 4.14-1.2 12.18-8.93 16.28-12.65l.81-.73c3.46-2.85-3.01-11.22-4.74-13.91z" class="cls-3"/>
  <path d="M543.89 125.25c0-3.06-35.21-18.9-40.4-18.47a45.59 45.59 0 0 1-5.84.09c-9.47-.43-13.59-2.93-8.05 9.27 3.64 8 4.6 12.22 8 13.38 2.2.73 5.41.21 11-1.37 14.19-4-4.16-15.69-6-10.49s5 5.34 4.05 7.58c-3.28 7.75-7 1.09-9-3.48v-.09c-.59-1.36-1-2.52-1.27-3.07-2.68-6.28-1.64-8.72 1.24-9.07 3.28-.38 8.94 1.93 14.22 4.38 3.65 1.69 24.12 8.33 24.49 11.3.92 7.28-9.68-.94-10.64-.82.56.05-5.06 12-5.43 7.67-.32-3.81 3.32-4.79 3.18-8.57-.29-7.93-5.52 3.28-5.79 4.05-3.48 9.82 2.95 8.35 11.41 12s6.33 7.39 3.79 14c-.52 1.36-1.06 2.85-1.52 4.49-.74 2.6-.33 7.48-2.68 9.29-3.18 2.45-11 1.87-6.58-2.67 1.21-1.26 4.15-6.43 6.35-11.24 1.74-3.82 3.06-7.48 2.6-8.61-1.26-3.1-17-8.16-11.14-1.33a12 12 0 0 1 3.09 10c-.6 3.95-2.84 7.89-4.53 12.19-.37 1-6.68 8.61-.29 7.86 3.65-.43 10.7.73 13.58-1.15l-.22.15.22-.15c3.49-2.28 4.84-11.25 6.45-19 .87-4.18 1.88-8.1 3.29-10.26 4.1-6.27-9.75-5.5-11.21-8.8-1.93-4.21 13.63-4.87 13.63-9.06z" class="cls-2"/>
  <path d="M103.11 166.07l-.19.06zm0 0l.7-.2zm12.19-27.35c-3.74-5.82-4.58 10.54-5.9 11.2-2.85 1.43-18-6.62-20.6-8.71-2-1.61-4.6 4.56-6.89 12-2.61 8.59-4.91 19-5.56 21-1.56 4.93-13.31 2-17 2-10.48 0-7.37-.92-3.59-9.79.61-1.43 7.62-15.78.09-9.23-4.28 3.72-12.1 4.94-17.76 6.63l-1.25.39c-2.9 1-17.92 9.11-18.21 3.1-.25-5.06-2.5-9.29-4.77-13.49a65.73 65.73 0 0 1-3.27-6.82c-.86-2.21 17.57-7.3 27.53-9.84 2.68-.68 4.74-1.18 5.65-1.39 4-.92 7.24 9.44 8.39 12.17 1 2.43-1.78 4.12-5.35 5.38-2.88 1-6.45 1.77-8.66 2.33a16.77 16.77 0 0 0-1.89.56c-3.79 1.52-13 7.73-12.75-2v-.72c.47-10 4.87-2.73 6.92 0a3 3 0 0 0 .73.76c3.64 1.75 4.6.87 4.73-.87.14-2.54-1.37-6.88.87-7.55.32-.09.78.13 1.33.54 3.23 2.4 9.57 11 8.7-.37-.41-5.31-4.51-5.09-8.67-3.79-2.82.88-5.67 2.26-7.39 2.74-7.83 2.17-13.39.38-11 8.6.07.22.13.43.21.67 2.95 8.83 1.16 12.53 10.92 9.07 2.2-.78 4.64-1.84 7.19-2.94C43.71 158 49.8 155.5 55 155.5a2.87 2.87 0 0 0 2.72-2.05C60 147.11 52.14 128.44 47 132a31.79 31.79 0 0 1-8.82 4c-10.32 3-23.18 3.21-32.25 5.35-1.21.29.17 6 2.19 12.38 2.78 8.77 6.85 19.37 7.76 21.79 1.69 4.49 12.72-1.71 22.22-6.65 6.19-3.22 11.73-5.9 13.61-4.74 7.4 4.57-18.32 16.39 3.84 16.92 6.34.15 13.74-.58 19.81 1.38 5.33 1.72 6.8-13.51 7.82-16.86.64-2.1 1.42-8.27 2.65-12.36.6-1.92 1.31-3.4 2.21-3.81 6.17-2.87 5.94.38 5.07 4.15l-.06.27c-.71 3-1.75 6.19-.4 7.19 2.83 2.1 7-4.66 10.48-7.58 1.66-1.38 3.21-1.92 4.24 0a7.86 7.86 0 0 1 .58 1.48c0-.1-14.69 14-4.82 11.15 4.14-1.2 12.18-8.93 16.28-12.65l.81-.73c3.27-2.9-3.22-11.27-4.92-13.96z" class="cls-3"/>
  <path d="M84.39 125.25c0-3.06-35.21-18.9-40.4-18.47a45.59 45.59 0 0 1-5.84.09c-9.47-.43-13.59-2.93-8.05 9.27 3.64 8 4.6 12.22 8 13.38 2.2.73 5.41.21 11-1.37 14.19-4-4.16-15.69-6-10.49s5 5.34 4.05 7.58c-3.28 7.75-7 1.09-9-3.48v-.09c-.59-1.36-1-2.52-1.27-3.07-2.68-6.28-1.64-8.72 1.24-9.07 3.28-.38 8.94 1.93 14.22 4.38 3.65 1.69 24.12 8.33 24.49 11.3.92 7.28-9.68-.94-10.64-.82.56.05-5.06 12-5.43 7.67-.32-3.81 3.32-4.79 3.18-8.57-.29-7.93-5.52 3.28-5.79 4.05-3.48 9.82 2.95 8.35 11.41 12s6.33 7.39 3.79 14c-.52 1.36-1.06 2.85-1.52 4.49-.74 2.6-.33 7.48-2.68 9.29-3.18 2.45-11 1.87-6.58-2.67 1.21-1.26 4.15-6.43 6.35-11.24 1.74-3.82 3.06-7.48 2.6-8.61-1.26-3.1-17-8.16-11.14-1.33a12 12 0 0 1 3.09 10c-.6 3.95-2.84 7.89-4.53 12.19-.37 1-6.68 8.61-.29 7.86 3.65-.43 10.7.73 13.58-1.15l-.22.15.22-.15c3.49-2.28 4.84-11.25 6.45-19 .87-4.18 1.88-8.1 3.29-10.26 4.1-6.27-9.75-5.5-11.21-8.8-1.93-4.21 13.63-4.87 13.63-9.06z" class="cls-2"/>
  <path d="M471.33 264.83c-5.54-1.48-3.63 5.49 1.74 5.18.65 0 11.45.45 8 3.23-7 5.67-24.37-3.16-19.52-11.47.76-1.3 21.4 1.65 20.16-1-2.92-6.26-25.06-57.48-27.55-57.48 19.31 0-5-14.8-9.25-18-3.25-2.49-25.86-17.09-22-19.93 5.23-3.85 10.61-7.87 15.94-11.9 3.44-2.6 7.5-5.68 10.71-8.13 1.74-1.33 4.61 3.79 6.91 9.06 2.58 6.08 4.87 13.22 5.55 15 4.08 10.89 12.39 27.47-4.14 13.86-6.71-5.53-21.53-12.53-13.16-18.59 6.86-5 5.17-1.93 8.07 4.63.54 1.22 5.75 15.54 9 9 .74-1.51-7.79-20.86-10.57-24.89a3 3 0 0 0-.63-.72 5.78 5.78 0 0 0-2 .72l-.12.06-.31.16c-6.28 3.37-21.89 14.75-14.57 17.42 8.58 3.13 22.57 16 27.86 23.36 2.82 3.91 13.64-3.09 14.57-6.13s-5.09-12.54-6.52-15.79c-2.78-6.3-5.4-12.69-8-19.07-1.2-3-2.63-6.51-3.79-9.31-4.76-11.5-11.79.49-20.49 6.85-.77.56-2.81 1.76-4.54 2.81h.08c-7.19 4.34-19.44 11.5-19.54 14.65-.11 3.67 21.87 16.36 25.75 19.29 2.42 1.82 23.42 14.35 8.83 14.35 3.43 0 23.86 50.55 26.28 56.18.91 2.11-17.32-2.15-18.63-.64-1 1.14 6 21.68 8.34 23 2.11 1.24 22.1-2.39 23.55-4.3 6.03-7.93-13.51-10.8-16.01-11.46zm-307 0c-5.54-1.48-3.63 5.49 1.74 5.18.65 0 11.45.45 8 3.23-7 5.67-24.37-3.16-19.52-11.47.76-1.3 21.4 1.65 20.16-1-2.92-6.26-25.06-57.48-27.55-57.48 19.31 0-5-14.8-9.25-18-3.25-2.49-25.86-17.09-22-19.93 5.23-3.85 10.61-7.87 15.94-11.9 3.44-2.6 7.5-5.68 10.71-8.13 1.74-1.33 4.61 3.79 6.91 9.06 2.58 6.08 4.87 13.22 5.55 15 4.08 10.89 12.39 27.47-4.14 13.86-6.71-5.53-21.53-12.53-13.16-18.59 6.86-5 5.17-1.93 8.07 4.63.54 1.22 5.75 15.54 9 9 .74-1.51-7.79-20.86-10.57-24.89a3 3 0 0 0-.63-.72 5.78 5.78 0 0 0-2 .72l-.12.06-.31.16c-6.28 3.37-21.89 14.75-14.57 17.42 8.58 3.13 22.57 16 27.86 23.36 2.82 3.91 13.64-3.09 14.57-6.13s-5.09-12.54-6.52-15.79c-2.78-6.3-5.4-12.69-8-19.07-1.2-3-2.63-6.51-3.79-9.31-4.76-11.5-11.79.49-20.49 6.85-.77.56-2.81 1.76-4.54 2.81h.08c-7.19 4.34-19.44 11.5-19.54 14.65-.11 3.67 21.87 16.36 25.75 19.29 2.42 1.82 23.42 14.35 8.83 14.35 3.43 0 23.86 50.55 26.28 56.18.91 2.11-17.32-2.15-18.63-.64-1 1.14 6 21.68 8.34 23 2.11 1.24 22.1-2.39 23.55-4.3 6.03-7.93-13.51-10.8-16.01-11.46zm139.33-160.15c6.19-.29 12.5 3 13.47-2.65.73-4.23-5.68-14.64-7.26-18.59-1.71-4.29-10.73-34.29-16.19-34.44 14.49.4-17.46-20.75-21.18-23.39-4.82-3.42-13.53-7.4-11-13.4C263.9 6.49 280.33-1.1 286.14.13c-6.88 4.91-18.5 8-14.29 16.26 2.8 5.5 12.21 10.28 17.07 13.91s29.43 20.6 11.15 20.1c5.05.14 15.43 32.82 17.18 37 1.66 4 8.47 14.71 7.92 19.18-.72 5.83-8.92 3-15.14 2.66-12.44-.66-26.27.77-38.4-1.92-17.08-3.79-2.48-21.83 3.89-31.14 3.78-5.52 7.91-9.48 14.37-12 9.32-3.68 8.08 1.75 11.56 10.77 1.33 3.46 9.56 18.41 7.39 21.81-2 3.13-22.42 2.31-25.92 2-10.45-1.07-9.35-5.88-4.21-14.81 2.36-4.1 3.54-5.6 7.67-7.61 2.94-1.43 11-4 6.45 1.79-2.46 3.17-11.15 6.21-9.9 13.71.76 4.55 6.27 2.3 10.15 2 6.27-.5 6 .9 6.85-5.49.75-5.85-3.11-18.87-8.23-19.38-9.09-.92-15.38 12.86-18.59 18.93-5.66 10.69-7.23 14.75 6.32 15.58 7.98.44 16.32.01 24.23 1.2z" class="cls-1"/>
  <path d="M280.58 18c8.58 3.13 22.57 16 27.86 23.36 2.82 3.91 13.64-3.09 14.57-6.13s-5.09-12.54-6.52-15.79c-2.78-6.3-5.4-12.69-8-19.07h-5.39c2.74 6.26 5.23 14.07 5.95 16 4.08 10.89 12.39 27.47-4.14 13.86-6.71-5.53-21.53-12.53-13.16-18.59 6.86-5 5.17-1.93 8.07 4.63.54 1.22 5.75 15.54 9 9 .7-1.54-7.82-20.9-10.61-24.92h-2.64C289.58 3.43 273.1 15.26 280.58 18z" class="cls-1"/>
  <path d="M379 32.08c-6.79-.43-14.3.53-21.36.13-6.17-.35-10.07 3.31-13.06 8.44v.1c-3.44 6-5.67 13.87-8.77 19.84-2.2 4.23-10.47 14.73-6.78 19.35 7.58 9.5 3.81 7.34 15.42 9.49h.12c5.6.34 14.38-29.06 16.49-34.16.59-1.41 8.77-14.64 3.95-14.42-7.33.33-10.58 1.22-13.64 7.68-.84 1.78-3.85 7.07-6.8 12.86v.11c-4.18 8.21-8.22 17.37-5.79 18.89 1.64 1 3.66-2 5.86-6.73v-.13c4.76-10.23 10.3-28 14.42-28.23 1.34-.08-11 29.71-12.65 33.46a23.71 23.71 0 0 1-1.83 3.52v.08c-2.59 3.9-5.89 4.67-10.89-1.21-4.23-5 3-12 5.26-16.54q2.86-5.63 5.7-11.26v-.11l4.35-8.47c4.52-8.9 7.64-6.73 17.1-6.95 7.83-.18 7.33-1.18 4.25 6.05q-3.93 9.23-7.88 18.45c-2.59 6.08-9.46 31.22-16 31.84-.43 0-1 .12-1.76.22-4.56.61-13.73 1.8-14.44-2.23-1.14-6.43-5.61-12.37-8.33-18.26s-5.49-12.89-9.78-17.57c-3.77-4.13 9.68-10.84 12.36-12.93 2.23-1.74 6.69-3.12 7.73-6 .92-2.52-3.19-2.79-1.82-5.21 1.15-2 12.06-8.25 13.34-6.71 2 2.43-7.08 13.75-7.52 17.8-1.13 10.31-4.91-2-6.53-.66-.65.54 2.89 14.25 0 12.27-1.32-.91-3.09-10.05-5.37-8.13-3.61 3 3.75 8.51 3.72 11.72-.09 11.44-5.14-.14-5.82-4.43-.86-5.38-5.51-.7-2.33 5.76.57 1.16 5 15.58 7.51 10.39 5-10.38 9.2-21.77 14.59-32.3.88-1.72 1.72-3.72 2.61-5.79V32c1.86-4.33 3.93-8.89 7-11.63 5.85-5.27-2.64-1.73-7 .24l-2.21 1c-5 2.19-10.73 3.73-15.48 6-3.63 1.75-.93 4.57.55 6.15 3.44 3.68-3.41 5.31-4.89 6.37-4.6 3.3-9 7.24-14.28 9.32s3.71 14.59 5.12 17.78c3.13 7.05 9.61 30 15.79 33.69 1.42.86 9.46 1.19 15.41.92 3.08-.14 5.58-.44 6.3-.91 3.93-2.57 7.07-15.66 9.12-20.21 5.56-12.35 11.14-24.68 16.58-37.07.71-1.71 8.71-11.17 2.36-11.57z" class="cls-4"/>
  <path d="M337.71 1.22c3.64 1.75 4.6.87 4.73-.87h-5.54a3.38 3.38 0 0 0 .81.87z" class="cls-3"/>
  <path d="M388.32.37c-2.61 8.59-4.85 18.79-5.49 20.82-1.56 4.93-13.31 2-17 2-10.48 0-7.37-.92-3.59-9.79.61-1.43 7.62-15.78.09-9.23-4.28 3.72-12.12 4.94-17.78 6.64l-1.18.37c-2.9 1-17.92 9.11-18.21 3.1-.26-5.24-2.66-9.58-5-13.93h-5.64c2.78 8.82 6.94 19.66 7.86 22.1 1.69 4.49 12.74-1.72 22.24-6.66 6.16-3.2 11.67-5.86 13.55-4.71 7.4 4.57-18.32 16.39 3.84 16.92 6.34.15 13.74-.58 19.81 1.38 5.33 1.72 6.8-13.51 7.82-16.86.64-2.1 1.33-8 2.56-12.14z" class="cls-3"/>
  <path d="M353.07.37c-2.87 1-6.19 1.69-8.41 2.25h-.07a16.28 16.28 0 0 0-1.83.55c-3.79 1.52-13 7.73-12.75-2V.31h-3.8c.08.27.17.56.27.85 2.95 8.83 1.16 12.53 10.92 9.07 2.21-.78 4.66-1.85 7.21-2.95 5.57-2.39 11.63-4.9 16.77-4.9a2.78 2.78 0 0 0 2.8-2.01z" class="cls-3"/>
  <path d="M211.78 256.12c8.43 3.69 18.56 9.71 26.73 13.94 7.86 4.06 19.66 7.58 4.58 12.41-5.29 1.69-2 6 3 4.66 2.67-.74 6.14-10.4 9.34-8.56 2.38 1.37-1.52 5.65-2.13 7-3 6.48 6.38 7 5.66 1.87-.43-3 .25-22.12 2.51-22.89 2.92-1 14.89 10.19 17.92 12.26 2.55 1.75 21.33 11.74 16.95 14.55-2.93 1.88-14.86 10.79-17.73 10.35-1.45-.22-16.47-21.42-5.14-18.22 6.79 1.92 3.36 10.28 7 11 3.31.61 11.5-4.85 7-8.34-2.62-2-21.13-15.52-22.27-15.12-2.1.74-3.94 20.21-3.34 23.09 1.77 8.53-18.3-2.87-21.88-4.26-12.19-4.74-2.93-4 4.14-9.44 4-3.09-17.62-11.88-20.72-13.46-3.42-1.75-24.74-10.37-21.06-14.33 0 0 3-1.43 4.54-.26s3.4 3.1 4.9 3.75z" class="cls-1"/>
  <path d="M283.6 304c-.77.56-2.15 1.42-3.88 2.46h5.58c3.61-2.73 7.2-5.46 10.69-8.13 1.74-1.33 4.22 2.85 6.53 8.13h5.39q-1.9-4.66-3.81-9.31c-4.76-11.46-11.79.53-20.5 6.85z" class="cls-1"/>
  <path d="M297 305.78a4.45 4.45 0 0 0-2 .72h2.64a2.06 2.06 0 0 0-.64-.72z" class="cls-1"/>
  <path d="M268.22 291.77c-3.74-5.82-4.58 10.54-5.9 11.2-2.85 1.43-18-6.62-20.6-8.71-2.06-1.63-4.65 4.68-7 12.24h3.91c.61-2 1.35-3.6 2.28-4 6.17-2.87 6 .26 5.14 4H256c1.69-1.44 3.19-1.94 4.23 0h12l.85-.76c3.32-2.9-3.13-11.28-4.86-13.97zm-49.14-14.28z" class="cls-3"/>
  <path d="M224.43 297.89c-1.26-3.1-17-8.16-11.14-1.33a11.75 11.75 0 0 1 3.1 9.94h5.45c1.77-3.85 3.06-7.5 2.59-8.61z" class="cls-2"/>
  <path d="M108.74 294c-.6-2.88 1.24-22.36 3.34-23.09 1.14-.4 19.64 13.11 22.27 15.12 4.54 3.48-3.65 9-7 8.34-3.63-.68-.2-9-7-11-11.33-3.2 3.69 18 5.14 18.22 2.87.44 14.8-8.47 17.73-10.35 4.39-2.81-14.4-12.8-16.95-14.55-3-2.08-15-13.26-17.92-12.26-2.26.77-2.94 19.89-2.51 22.89.73 5.11-8.68 4.6-5.66-1.87.61-1.3 4.5-5.59 2.13-7-3.21-1.85-6.68 7.82-9.34 8.56-5 1.37-8.25-3-3-4.66 15.07-4.83 3.28-8.34-4.58-12.41-8.17-4.23-19.44-12.93-28.57-14.09-8.36-1.07 3.5-16.2 5.67-20.38 4-7.76 12.3-18.23 13.21-27 .93-8.92 10.6 10.7 8.42 13.13-.5.56-15.61-4.56-9.67 2.76 1.76 2.17 9.15 1.66 11.89 2.14 10.87 1.93 3.48-4.72.15-12.31-1.25-2.85-10.54-26.31-11-16.76-.42 8.56-8.71 19.74-12.37 27.46-4.1 8.63-7.48 20.5-14 27.52-3.68 4 17.64 12.59 21.06 14.33 3.2 1.69 24.82 10.48 20.82 13.57-7.07 5.42-16.33 4.7-4.14 9.44 3.58 1.4 23.65 12.79 21.88 4.25z" class="cls-1"/>
  <path d="M107.82 256.75v.18zm.12.7zm-.09-.52l.06.38zm.07.38v.11zm.01.12zm-.2-1.25l-.05-.32z" class="cls-3"/>
  <path d="M135.63 207.33c-4.49 7.55-8.17 16.32-12.83 24.11-2.87 4.8-15.81 20.12-15 25.1v-.29.5-.21c.46 2.89 37.72 28.83 37.91 28.69 1.09-.75-12.7-30.08-15.27-33.11-5.9-6.95 7.1-11.33 12-8.27 5.91 3.71-2.35-10.52-2.33-10.41-1.64-10.79-23.59 22.22-20.38 24.39 7.13 4.82 4-9.35 10.25 2.62 1 1.9 7.71 10.64 6.18 11.7-.46.32-22-14.59-22.27-16.53-.73-4.81 13-20.1 16-24.69 5.1-7.92 5.76-16.84 11-6.25 3.74 7.63 8.46 14.93 12.24 22.26 3 5.76-16.68-1.54-17.79.43-1.67 3 7.59 18.53 9.2 22.22s7.4 25.09 12.31 22.41c6.57-3.58 18.9-6.64 26.37-6 5.54.45.68-6-6.71-4.69-4.74.86-9.48 1.78-14.22 2.63-11.32 2-11-8.26-15.06-18-3.34-8-10-13.46.86-12 8.87 1.16 14.25 5.59 9.62-4.48q-5.66-12.32-11.3-24.65c-1.24-2.54-8.14-21.92-10.78-17.48z" class="cls-4"/>
  <path d="M107.68 255.86l-.06-.38zm.06.39z" class="cls-3"/>
  <path d="M88.12 203c1.28.6 23-10.17 23.1-11.26.16-2.77-8.66-6.64-10.8-8.31-5.41-4.21-4.67-6.11-7.69 1.47-.35.87-5 9.75.39 7.92a25.29 25.29 0 0 1 3.36-4.18c1-.16 11.45 2.31 5.95 4.61-10.48 4.39-19.34 4.27-14.33-9.87.81-2.29 1.86-11 4.19-11.66 2.63-.72 11.26 7.75 13.81 9.46 3.67 2.46 28.09 16.57 24 20-7.47 6.26-12.61 17.66-17.93 25.8-6.44 9.87-14.71 19-15.66 30.81-1.1 13.8-10 2.86-20.09-2.27-2.58-1.32-12.64-3.65-13-6.61-.38-3.22 9.45-2.4 11.48-3.3-1.67.74-5.81-9.72-12.61 0-5.65 8.11.94 7.35 8.44 11.21 5.95 3.06 11.87 6.18 17.81 9.24 4.41 2.27 12.83 10.13 13.56 2.09.42-4.62-2.45-9.27-1.37-13.78 1.16-4.83 6.69-9.8 9.31-14.06 5.87-9.57 12.52-18.67 18.48-28.19 2.45-3.91 4.86-8 8.42-11 4.67-4-7.76-9.54-10-11.24q-13.66-10.23-27.35-20.43c-10.55-7.9-9.83-10.87-13.87 2-2.63 8.29-8.83 26.25 2.4 31.55z" class="cls-2"/>
  <path d="M72.33 228c-7.72 6.22-3.6 8 2.44 11.46 2.11 1.2 6.9.21 6.77 3.87-.15 4.51-6.38.85-7 5.21-.31 2.08 9.54 5 11.55 6 10.5 5.43 3.49-.64 6-7.68 1.86-5.21 6.76-10.67 10-15.18 3.8-5.35 23-27.83 22-33.38.17.89.34 1.81 0 0l-.18-1 .18 1c-1.78-9.54-19.8 1.85-23.73 3.5-11.16 4.69-12 5.31-6.54 18.32 4.08 9.72 5.74-14.48 3.8-13.67 2.43-1 18.15-7.08 18.84-6.33 1 1.09-13.79 20.32-15.79 23.27C95 231.68 89.23 237.67 89 247.56c-.18 7.14-10.58 1.75-4.47-2.83 4.4-3.3-3.78-2.74 2.14-7.28 2.92-2.24 5.83-10.3-.77-6.25-1.9 1.17-3.62 8.22-6.31 7.24-3.26-1.19 7.43-8.67 2.28-9.42-4.31-.63-4.55 8.36-7.85 6.88-.48-.21 4.8-13.09-1.69-7.9zm77.32 28.64zm-.84.97l.84-1zm-45.11-91.78h.06zm.15-.04h.15zm-.08.02h.08zm.47-.14zm.06-.01zm.02-.01zm-1.52.44zm1.4-.4zm-.2.05l.2-.06zm.28-.08zM71.13 173zm.05 0zm0 0zm-.06 0zm1.24-.78l.31-.2zm-.01.01zm.38-.23l.15-.1zm-.06 0h.06zm127.21 113a31.79 31.79 0 0 1-8.82 4c-10.28 3.09-23.17 3.25-32.21 5.39-1.21.29.08 5.65 2.11 12.07h5.64a57.25 57.25 0 0 1-3.09-6.38c-.86-2.21 17.57-7.3 27.53-9.84 2.68-.68 4.74-1.18 5.65-1.39 4-.92 7.24 9.44 8.39 12.17 1 2.47-1.89 4.19-5.56 5.45h11.1c2.33-6.31-5.56-24.98-10.74-21.47z" class="cls-3"/>
  <path d="M199.73 299.14c-.41-5.31-4.51-5.09-8.67-3.79-2.82.88-5.67 2.26-7.39 2.74-7.83 2.17-13.44.2-11 8.41h3.8c.47-10 4.81-2.69 6.85 0h5.54c.18-2.53-1.41-6.87.86-7.55.32-.09.78.13 1.33.54 3.22 2.41 9.55 11.01 8.68-.35z" class="cls-3"/>
  <path d="M237.31 278.3c0-3.06-35.21-18.9-40.4-18.47a45.57 45.57 0 0 1-5.84.09c-9.47-.43-13.59-2.93-8.05 9.27 3.64 8 4.6 12.22 8 13.38 2.2.73 5.41.21 11-1.37 14.19-4-4.16-15.69-6-10.49s5 5.34 4.05 7.58c-3.28 7.75-7 1.09-9-3.48v-.09c-.59-1.36-1-2.52-1.27-3.07-2.68-6.28-1.64-8.72 1.24-9.07 3.28-.38 8.94 1.93 14.22 4.38 3.65 1.69 24.12 8.33 24.49 11.3.92 7.28-9.68-.94-10.64-.82.56.05-5.06 12-5.43 7.67-.32-3.81 3.32-4.79 3.18-8.57-.29-7.93-5.52 3.28-5.79 4.05-3.48 9.82 2.95 8.35 11.41 12s6.39 7.26 3.85 13.86h5.26c.88-4.22 1.84-8.08 3.27-10.26 4.1-6.27-9.75-5.5-11.21-8.8-1.91-4.24 13.66-4.9 13.66-9.09z" class="cls-2"/>
  <path d="M130.58 304c-.77.56-2.15 1.42-3.88 2.46h5.58c3.61-2.73 7.2-5.46 10.69-8.13 1.74-1.33 4.22 2.85 6.53 8.13h5.39q-1.9-4.66-3.81-9.31c-4.77-11.49-11.8.5-20.5 6.85z" class="cls-1"/>
  <path d="M143.94 305.75a4.46 4.46 0 0 0-2 .72h2.64a2.06 2.06 0 0 0-.64-.72z" class="cls-1"/>
  <path d="M115.19 291.74c-3.74-5.82-4.58 10.54-5.9 11.2-2.85 1.43-18-6.62-20.6-8.71-2.06-1.63-4.65 4.68-7 12.24h3.91c.61-2 1.35-3.6 2.28-4 6.17-2.87 6 .26 5.14 4H103c1.69-1.44 3.19-1.94 4.23 0h12l.85-.76c3.3-2.91-3.16-11.28-4.89-13.97zm-49.14-14.29z" class="cls-3"/>
  <path d="M71.4 297.86c-1.26-3.1-17-8.16-11.14-1.33a11.75 11.75 0 0 1 3.1 9.94h5.45c1.77-3.85 3.06-7.47 2.59-8.61z" class="cls-2"/>
  <path d="M72.43 185.13c-6.79-.43-14.3.53-21.36.13-6.17-.34-10.07 3.31-13.07 8.45v.1c-3.44 6-5.67 13.87-8.77 19.84-2.23 4.22-10.46 14.72-6.77 19.35 7.58 9.5 3.81 7.34 15.42 9.49H38c5.6.34 14.38-29.06 16.49-34.16.59-1.41 8.77-14.64 3.95-14.42-7.33.33-10.58 1.22-13.64 7.68-.8 1.81-3.8 7.11-6.8 12.9v.11c-4.18 8.21-8.22 17.37-5.79 18.89 1.64 1 3.66-2 5.86-6.73v-.13c4.76-10.23 10.3-28 14.42-28.23 1.34-.08-11 29.71-12.65 33.46a23.71 23.71 0 0 1-1.84 3.53v.08c-2.59 3.9-5.89 4.67-10.89-1.21-4.23-5 3-12 5.26-16.54q2.86-5.63 5.7-11.26v-.11l4.31-8.52c4.52-8.9 7.64-6.73 17.1-6.95 7.83-.18 7.33-1.18 4.25 6.05q-3.93 9.23-7.88 18.45c-2.59 6.08-9.46 31.22-16 31.84-.43 0-1 .12-1.76.22-4.56.61-13.73 1.8-14.44-2.23-1.14-6.43-5.61-12.37-8.33-18.26s-5.44-12.86-9.73-17.56c-3.77-4.13 9.68-10.84 12.36-12.93 2.23-1.74 6.69-3.12 7.73-6 .92-2.52-3.19-2.79-1.82-5.21 1.15-2 12.06-8.25 13.34-6.71 2 2.43-7.08 13.75-7.52 17.8-1.13 10.31-4.91-2-6.53-.66-.65.54 2.89 14.25 0 12.27-1.32-.91-3.09-10.05-5.37-8.13-3.61 3 3.75 8.51 3.72 11.72-.09 11.44-5.14-.14-5.82-4.43-.86-5.38-5.51-.7-2.33 5.76.57 1.16 5 15.58 7.51 10.39 5-10.38 9.2-21.77 14.59-32.3.88-1.72 1.72-3.72 2.61-5.79V185c1.86-4.33 3.93-8.89 7-11.63 5.85-5.27-2.64-1.73-7 .24l-2.21 1c-5 2.19-10.73 3.73-15.48 6-3.63 1.75-.93 4.57.55 6.15 3.44 3.68-3.41 5.31-4.89 6.37-4.6 3.3-9 7.24-14.28 9.32s3.71 14.59 5.12 17.78c3.13 7.05 9.61 30 15.79 33.69 1.42.86 9.46 1.19 15.41.92 3.08-.14 5.58-.44 6.3-.91 3.93-2.57 7.07-15.66 9.12-20.21 5.51-12.27 11.08-24.61 16.51-37 .77-1.72 8.76-11.19 2.43-11.59z" class="cls-4"/>
  <path d="M46.85 285a31.83 31.83 0 0 1-8.85 4c-10.27 3.07-23.12 3.24-32.15 5.38-1.21.29.08 5.65 2.11 12.07h5.64a57.27 57.27 0 0 1-3.09-6.38c-.86-2.21 17.6-7.31 27.56-9.85 2.65-.68 4.68-1.17 5.58-1.38 4-.92 7.23 9.44 8.39 12.17 1 2.47-1.89 4.19-5.56 5.45h11.1c2.34-6.33-5.58-25.01-10.73-21.46z" class="cls-3"/>
  <path d="M46.71 299.11c-.41-5.32-4.53-5.09-8.7-3.78-2.8.88-5.62 2.24-7.33 2.72-7.83 2.17-13.44.2-11 8.41h3.8c.47-10 4.81-2.69 6.85 0h5.54c.18-2.53-1.41-6.87.86-7.55.31-.09.76.12 1.29.51v.06c3.22 2.39 9.56 10.98 8.69-.37z" class="cls-3"/>
  <path d="M84.28 278.27c0-3.06-35.21-18.9-40.4-18.47a45.5 45.5 0 0 1-5.8.09c-9.47-.43-13.59-2.93-8.05 9.27 3.62 8 4.6 12.18 8 13.36 2.2.73 5.41.21 11-1.37 14.19-4-4.16-15.69-6-10.49S48 276 47 278.27c-3.26 7.7-7 1.18-9-3.39v-.16c-.59-1.36-1-2.52-1.27-3.07-2.66-6.25-1.65-8.7 1.2-9.06 3.28-.38 8.94 1.93 14.22 4.38 3.65 1.69 24.12 8.33 24.49 11.3.92 7.28-9.68-.94-10.64-.82.56.05-5.06 12-5.43 7.67-.32-3.81 3.32-4.79 3.18-8.57-.29-7.93-5.52 3.28-5.79 4.05-3.48 9.82 2.95 8.35 11.41 12s6.39 7.26 3.85 13.86h5.26c.88-4.22 1.84-8.08 3.27-10.26 4.1-6.27-9.75-5.5-11.21-8.8-1.83-4.28 13.74-4.94 13.74-9.13zM241.15 49.94c1.28.6 23-10.17 23.1-11.26.16-2.77-8.66-6.64-10.8-8.31-5.41-4.21-4.67-6.11-7.69 1.47-.35.87-5 9.75.39 7.92a25.28 25.28 0 0 1 3.36-4.18c1-.16 11.45 2.31 5.95 4.61-10.48 4.39-19.34 4.27-14.33-9.87.81-2.29 1.86-11 4.19-11.66 2.63-.72 11.26 7.75 13.81 9.46 3.67 2.46 28.09 16.57 24 20-7.47 6.26-12.61 17.66-17.93 25.81-6.44 9.87-14.71 19-15.66 30.81-1.1 13.8-10 2.86-20.09-2.27-2.58-1.32-12.64-3.65-13-6.61-.38-3.22 9.45-2.4 11.48-3.3-1.67.74-5.81-9.72-12.61 0-5.65 8.11.94 7.35 8.44 11.21 5.95 3.06 11.87 6.18 17.81 9.24 4.41 2.27 12.83 10.13 13.56 2.09.42-4.62-2.45-9.27-1.37-13.78 1.16-4.83 6.69-9.8 9.3-14.06 5.87-9.57 12.52-18.67 18.48-28.19 2.45-3.91 4.86-8 8.42-11 4.67-4-7.76-9.54-10-11.24q-13.7-10.23-27.38-20.43c-10.55-7.9-9.83-10.87-13.87 2-2.59 8.32-8.8 26.29 2.44 31.54z" class="cls-2"/>
  <path d="M225.35 75c-7.72 6.22-3.6 8 2.44 11.46 2.11 1.2 6.9.21 6.77 3.87-.15 4.51-6.38.85-7 5.21-.31 2.08 9.54 5 11.55 6 10.5 5.43 3.49-.64 6-7.68 1.86-5.21 6.76-10.67 10-15.18 3.8-5.35 23-27.83 22-33.38.17.89.34 1.81 0 0l-.18-1 .18 1c-1.78-9.54-19.8 1.85-23.73 3.5-11.16 4.69-12 5.31-6.54 18.32 4.08 9.72 5.74-14.48 3.8-13.67 2.43-1 18.15-7.08 18.84-6.33 1 1.09-13.79 20.32-15.79 23.27-5.56 8.21-11.37 14.2-11.62 24.09-.18 7.14-10.58 1.75-4.47-2.83 4.4-3.3-3.78-2.74 2.14-7.28 2.92-2.24 5.83-10.3-.77-6.25-1.9 1.17-3.62 8.22-6.31 7.24-3.26-1.19 7.43-8.67 2.28-9.42-4.31-.63-4.55 8.36-7.85 6.88-.53-.15 4.76-13.03-1.74-7.82zm31.38-62.19h.06zm.14-.04h.15zm-.08.02h.08zm.48-.14zm.06-.01zM256 13l-.2.06.2-.06.7-.2-.7.2c4.14-1.2 12.14-8.9 16.24-12.61h-12a7.42 7.42 0 0 1 .57 1.47c0-.09-14.67 14.02-4.81 11.14zm1.35-.37zm-1.52.44zM245.56 8c2.83 2.1 7-4.66 10.48-7.58h-9.95c-.71 3.05-1.9 6.58-.53 7.58zm11.66 4.67zm-.22.06l.2-.06zm.3-.09zM224.16 20zm.04 0zm.01 0z" class="cls-3"/>
  <path d="M211.56 20.52c3.65-.43 10.7.73 13.58-1.15l-.93.61.93-.61.24-.15-.24.15c3.49-2.28 4.84-11.25 6.45-19h-5.26c-.54 1.4-1.09 2.93-1.57 4.62-.74 2.6-.33 7.48-2.68 9.29-3.18 2.45-11 1.87-6.58-2.67 1.21-1.26 4.15-6.43 6.35-11.24h-5.45c-.59 4-2.84 7.94-4.54 12.25-.38.99-6.68 8.65-.3 7.9z" class="cls-2"/>
  <path d="M224.15 20zm1.24-.79l.31-.2zm-.01 0zm.38-.21l.15-.1zm-.06 0h.06z" class="cls-3"/>
  <path d="M108.74 141c-.6-2.88 1.24-22.36 3.34-23.09 1.14-.4 19.64 13.11 22.27 15.12 4.54 3.48-3.65 9-7 8.34-3.63-.68-.2-9-7-11-11.33-3.2 3.69 18 5.14 18.22 2.87.44 14.8-8.47 17.73-10.35 4.39-2.81-14.4-12.8-16.95-14.55-3-2.08-15-13.26-17.92-12.26-2.26.77-2.94 19.89-2.51 22.89.73 5.11-8.68 4.6-5.66-1.87.61-1.3 4.5-5.59 2.13-7-3.21-1.85-6.68 7.82-9.34 8.56-5 1.37-8.25-3-3-4.66 15.07-4.83 3.28-8.34-4.58-12.41-8.17-4.23-19.44-12.93-28.57-14.09-8.36-1.07 3.5-16.2 5.67-20.38 4-7.76 12.3-18.23 13.21-27 .93-8.92 10.6 10.7 8.42 13.13-.5.56-15.61-4.56-9.67 2.76 1.76 2.17 9.15 1.66 11.89 2.14 10.87 1.93 3.48-4.72.15-12.31-1.25-2.85-10.54-26.31-11-16.76-.32 8.57-8.61 19.79-12.27 27.51-4.1 8.63-7.48 20.5-14 27.52-3.68 4 17.64 12.59 21.06 14.33 3.1 1.59 24.72 10.38 20.72 13.47-7.07 5.42-16.33 4.7-4.14 9.44 3.58 1.4 23.65 12.79 21.88 4.3z" class="cls-1"/>
  <path d="M107.82 103.7v.18zm.12.7zm-.09-.52l.06.38zm.07.38v.11zm.01.12zm-.2-1.26l-.05-.32z" class="cls-3"/>
  <path d="M135.63 54.28c-4.49 7.55-8.17 16.32-12.83 24.11-2.87 4.8-15.81 20.12-15 25.1v-.29.5-.21c.46 2.89 37.72 28.83 37.91 28.69 1.09-.75-12.7-30.08-15.27-33.11-5.9-6.95 7.1-11.33 12-8.27 5.91 3.71-2.35-10.52-2.33-10.41-1.64-10.79-23.59 22.22-20.38 24.4 7.13 4.82 4-9.35 10.25 2.62 1 1.9 7.71 10.64 6.18 11.7-.46.32-22-14.59-22.27-16.53-.73-4.81 13-20.1 16-24.69 5.1-7.92 5.76-16.84 11-6.25 3.74 7.63 8.46 14.93 12.24 22.26 3 5.75-16.68-1.54-17.79.43-1.67 3 7.59 18.53 9.2 22.22s7.4 25.09 12.31 22.41c6.57-3.58 18.9-6.64 26.37-6 5.54.45.68-6-6.71-4.69-4.74.86-9.48 1.78-14.22 2.63-11.32 2-11-8.26-15.06-18-3.34-8-10-13.46.86-12 8.87 1.16 14.25 5.59 9.62-4.48Q152 84.08 146.33 71.75c-1.16-2.53-8.06-21.91-10.7-17.47z" class="cls-4"/>
  <path d="M107.68 102.81l-.06-.38zm.06.38z" class="cls-3"/>
  <path d="M88.12 49.9c1.28.6 23-10.17 23.1-11.26.16-2.77-8.66-6.64-10.8-8.31-5.41-4.21-4.67-6.11-7.69 1.46-.35.87-5 9.75.39 7.92a25.28 25.28 0 0 1 3.36-4.18c1-.16 11.45 2.31 5.95 4.61-10.48 4.39-19.34 4.27-14.33-9.87.81-2.29 1.86-11 4.19-11.66 2.63-.72 11.26 7.75 13.81 9.46 3.67 2.46 28.09 16.57 24 20-7.47 6.26-12.61 17.66-17.93 25.81-6.44 9.87-14.71 19-15.66 30.81-1.1 13.8-10 2.86-20.09-2.27-2.58-1.32-12.64-3.65-13-6.61-.38-3.22 9.45-2.4 11.48-3.3-1.67.74-5.81-9.72-12.61 0-5.65 8.11.94 7.35 8.44 11.21 5.95 3.06 11.87 6.18 17.81 9.24 4.41 2.27 12.83 10.13 13.56 2.09.42-4.62-2.45-9.27-1.37-13.78 1.16-4.83 6.69-9.8 9.31-14.06 5.87-9.57 12.52-18.67 18.48-28.19 2.45-3.91 4.86-8 8.42-11 4.67-4-7.76-9.54-10-11.24q-13.71-10.21-27.39-20.41C89 8.47 89.72 5.5 85.68 18.41c-2.59 8.28-8.79 26.24 2.44 31.49z" class="cls-2"/>
  <path d="M72.33 75c-7.72 6.22-3.6 8 2.44 11.46 2.11 1.2 6.9.21 6.77 3.87-.15 4.51-6.38.85-7 5.21-.31 2.08 9.54 5 11.55 6 10.5 5.43 3.49-.64 6-7.68 1.86-5.21 6.76-10.67 10-15.18 3.8-5.35 23-27.83 22-33.38.17.89.34 1.81 0 0l-.18-1 .18 1c-1.78-9.54-19.8 1.85-23.73 3.5-11.16 4.69-12 5.31-6.54 18.32 4.08 9.72 5.74-14.48 3.8-13.67 2.43-1 18.15-7.08 18.84-6.33 1 1.09-13.79 20.32-15.79 23.27C95 78.63 89.23 84.61 89 94.51c-.18 7.14-10.58 1.75-4.47-2.83 4.4-3.3-3.78-2.74 2.14-7.28 2.92-2.24 5.83-10.3-.77-6.25-1.9 1.17-3.62 8.22-6.31 7.24C76.32 84.2 87 76.72 81.86 76c-4.31-.63-4.55 8.36-7.85 6.88-.47-.24 4.81-13.12-1.68-7.88zm77.32 28.59z" class="cls-3"/>
  <path d="M106.59 15.37c-.11 3.67 21.87 16.36 25.75 19.29 2.41 1.82 23.41 14.34 8.83 14.34 3.43 0 23.86 50.55 26.28 56.18.91 2.11-17.32-2.15-18.63-.64-1 1.14 6 21.68 8.34 23 2.11 1.24 22.1-2.39 23.55-4.29 6.09-8-13.45-10.86-16-11.53-5.54-1.48-3.63 5.49 1.74 5.18.65 0 11.45.45 8 3.23-7 5.67-24.37-3.16-19.52-11.47.76-1.3 21.4 1.65 20.16-1-2.92-6.26-25.06-57.48-27.55-57.48 19.31 0-5-14.8-9.25-18-3.25-2.49-25.86-17.09-22-19.93C121.57 8.42 127 4.39 132.28.37h-5.58c-7.09 4.29-20.02 11.76-20.11 15z" class="cls-1"/>
  <path d="M148.81 104.55l.84-1z" class="cls-3"/>
  <path d="M127 18c8.58 3.13 22.57 16 27.86 23.36 2.82 3.91 13.64-3.09 14.57-6.13s-5.09-12.54-6.52-15.79c-2.78-6.3-5.4-12.69-8-19.07h-5.39c2.74 6.26 5.23 14.07 5.95 16 4.08 10.89 12.39 27.47-4.14 13.86-6.71-5.53-21.53-12.53-13.16-18.59 6.86-5 5.17-1.93 8.07 4.63.54 1.22 5.75 15.54 9 9 .74-1.51-7.79-20.86-10.57-24.89H142c-6 3.06-22.5 14.89-15 17.62z" class="cls-1"/>
  <path d="M225.46 32.11c-6.79-.43-14.3.53-21.36.13-6.17-.34-10.1 3.31-13.1 8.45-3.46 6-5.7 13.92-8.81 19.91-2.19 4.24-10.43 14.74-6.74 19.4 7.58 9.5 3.81 7.34 15.42 9.49h.16c5.6.34 14.38-29.06 16.49-34.16.59-1.41 8.77-14.64 3.95-14.42-7.33.33-10.58 1.22-13.64 7.68-.83 1.79-3.83 7.09-6.83 12.88-4.19 8.23-8.26 17.44-5.83 19 1.64 1 3.66-2 5.86-6.73 4.77-10.22 10.33-28.06 14.46-28.31 1.34-.08-11 29.71-12.65 33.46a23.72 23.72 0 0 1-1.84 3.48c-2.6 4-5.9 4.76-10.93-1.15-4.23-5 3-12 5.26-16.54q2.86-5.63 5.7-11.26l4.35-8.6c4.52-8.9 7.64-6.73 17.1-6.95 7.83-.18 7.33-1.18 4.25 6.05q-3.93 9.23-7.88 18.45c-2.59 6.08-9.46 31.22-16 31.84-.44 0-1.06.12-1.81.22-4.56.61-13.73 1.8-14.44-2.23-1.14-6.43-5.61-12.37-8.33-18.26s-5.42-12.94-9.7-17.61c-3.77-4.13 9.68-10.84 12.36-12.93 2.23-1.74 6.69-3.12 7.73-6 .92-2.52-3.19-2.79-1.82-5.21 1.15-2 12.06-8.25 13.34-6.71 2 2.43-7.08 13.75-7.52 17.8-1.13 10.31-4.91-2-6.53-.66-.65.54 2.89 14.25 0 12.27-1.32-.91-3.09-10.05-5.37-8.13-3.61 3 3.75 8.51 3.72 11.72-.09 11.44-5.14-.14-5.82-4.43-.86-5.38-5.51-.7-2.33 5.76.57 1.16 5 15.58 7.51 10.39 5-10.38 9.2-21.77 14.59-32.3.88-1.72 1.72-3.72 2.61-5.79 1.87-4.36 3.95-9 7-11.72 5.84-5.26-2.61-1.74-7 .23l-2.28 1c-5 2.19-10.73 3.73-15.48 6-3.63 1.75-.93 4.57.55 6.15 3.44 3.68-3.41 5.31-4.89 6.37-4.6 3.3-9 7.24-14.28 9.32s3.71 14.59 5.12 17.78c3.13 7.05 9.61 30 15.79 33.69 1.43.86 9.5 1.19 15.45.92 3.08-.14 5.58-.44 6.3-.91 3.93-2.57 7.07-15.66 9.12-20.21C212 68.43 217.59 56.09 223 43.7c.8-1.7 8.79-11.19 2.46-11.59z" class="cls-4"/>
  <path d="M103.7 12.78h.06zm.15-.04h.15zm-.08.02h.08zm.47-.14zm.06-.02zm-1.3.4l-.2.06.2-.06.7-.2-.7.2c4.14-1.2 12.14-8.9 16.24-12.61h-12a7.42 7.42 0 0 1 .57 1.47c-.02-.12-14.7 13.99-4.81 11.14zm1.32-.4zm-1.52.4zM92.53 7.95c2.83 2.1 7-4.66 10.48-7.58h-9.95c-.71 3.07-1.9 6.56-.53 7.58zm11.67 4.68zm-.2.06l.2-.06zm.28-.08zM71.13 20zm.05-.05zm0-.01z" class="cls-3"/>
  <path d="M58.53 20.49c3.65-.43 10.7.73 13.58-1.15l-.93.61.93-.61.24-.15-.24.15c3.49-2.28 4.84-11.25 6.45-19H73.3c-.54 1.4-1.09 2.93-1.57 4.62-.74 2.6-.33 7.48-2.68 9.29-3.18 2.45-11 1.87-6.58-2.67 1.21-1.26 4.15-6.43 6.35-11.24h-5.45c-.59 4-2.84 7.94-4.54 12.25-.38.98-6.68 8.65-.3 7.9z" class="cls-2"/>
  <path d="M71.12 20zm1.24-.83l.31-.2zm-.01.01zm.38-.25l.15-.1zm-.06.07h.06zM184.12 1.24c3.64 1.75 4.6.87 4.73-.87h-5.54a3.38 3.38 0 0 0 .81.87z" class="cls-3"/>
  <path d="M234.76.4c-2.61 8.59-4.85 18.79-5.49 20.82-1.56 4.93-13.31 2-17 2-10.48 0-7.37-.92-3.59-9.79.61-1.43 7.62-15.78.09-9.23-4.28 3.72-12.1 4.94-17.76 6.63l-1.25.39c-2.9 1-17.92 9.11-18.21 3.1-.26-5.24-2.66-9.58-5-13.93H161c2.78 8.82 6.94 19.66 7.86 22.1 1.69 4.49 12.72-1.71 22.22-6.65 6.19-3.22 11.73-5.9 13.61-4.74 7.4 4.57-18.32 16.39 3.84 16.92 6.34.15 13.74-.58 19.81 1.38 5.33 1.72 6.8-13.51 7.82-16.86.64-2.1 1.33-8 2.56-12.14z" class="cls-3"/>
  <path d="M199.52.4c-2.89 1-6.23 1.69-8.45 2.26a16.71 16.71 0 0 0-1.89.56c-3.79 1.52-13 7.73-12.75-2V.36h-3.8q.12.41.27.85c2.95 8.83 1.16 12.53 10.92 9.07 2.2-.78 4.64-1.84 7.19-2.94 5.59-2.4 11.67-4.93 16.83-4.93A2.78 2.78 0 0 0 210.62.4zm-133.47 124z" class="cls-3"/>
  <path d="M17.94 43.39c2.23-1.74 6.69-3.12 7.73-6 .92-2.52-3.19-2.79-1.82-5.21 1.15-2 12.06-8.25 13.34-6.71 2 2.43-7.08 13.75-7.52 17.8-1.13 10.31-4.91-2-6.53-.66-.65.54 2.89 14.25 0 12.27-1.32-.91 1.73-11.72-.55-9.79-3.61 3-1.07 10.18-1.09 13.39-.09 11.44 2.31-11.57 1.62-15.87-.86-5.38-8.38-5.68-5.2.78.57 1.16 3.58 15.09 2.94 26.81-.63 11.52 9.2-21.77 14.59-32.3.88-1.72 1.72-3.72 2.61-5.79V32c1.86-4.33 3.93-8.89 7-11.63 5.85-5.27-2.64-1.73-7 .24l-2.21 1c-5 2.19-10.73 3.73-15.48 6-3.63 1.75-.93 4.57.55 6.15 3.44 3.68-3.41 5.31-4.89 6.37" class="cls-4"/>
  <path d="M22.6 100.93c1.42.86 9.46 1.19 15.41.92 3.08-.14 5.58-.44 6.3-.91 3.93-2.57 7.07-15.66 9.12-20.21C59 68.4 64.57 56.06 70 43.67c.76-1.73 8.75-11.18 2.42-11.59-6.79-.43-14.3.53-21.36.13C44.9 31.87 41 35.52 38 40.66v.1c-3.44 6-5.67 13.87-8.77 19.84-2.23 4.22-10.46 14.72-6.77 19.35 7.58 9.5 3.81 7.34 15.42 9.49H38c5.6.34 14.38-29.06 16.49-34.16.59-1.41 8.77-14.64 3.95-14.42-7.33.33-10.58 1.22-13.64 7.68-.8 1.81-3.8 7.1-6.8 12.89v.11c-4.18 8.21-8.22 17.37-5.79 18.89 1.64 1 3.66-2 5.86-6.73v-.13c4.76-10.23 10.3-28 14.42-28.23 1.34-.08-11 29.71-12.65 33.46A23.71 23.71 0 0 1 38 82.34v.08c-2.59 3.9-5.89 4.67-10.89-1.21-4.23-5 3-12 5.26-16.54q2.86-5.63 5.7-11.26v-.11l4.31-8.52c4.52-8.9 7.64-6.73 17.1-6.95 7.83-.18 7.33-1.18 4.25 6.05q-3.93 9.23-7.88 18.45c-2.59 6.08-9.46 31.22-16 31.84-.43 0-1 .12-1.76.22-4.56.61-13.73 1.8-14.44-2.23" class="cls-4"/>
  <path d="M31.13 1.22c3.64 1.75 4.6.87 4.73-.87h-5.54a3.38 3.38 0 0 0 .81.87z" class="cls-3"/>
  <path d="M81.74.37C79.12 9 76.89 19.16 76.25 21.19c-1.56 4.93-13.31 2-17 2-10.48 0-7.37-.92-3.59-9.79.61-1.43 7.62-15.78.09-9.23C51.51 7.89 43.67 9.1 38 10.8l-1.18.37c-2.9 1-17.92 9.11-18.21 3.1C18.36 9 16 4.7 13.61.35H8c2.78 8.82 6.94 19.66 7.86 22.1 1.69 4.49 12.74-1.72 22.24-6.66 6.16-3.2 11.67-5.86 13.55-4.71C59 15.64 33.3 27.46 55.46 28c6.34.15 13.74-.58 19.81 1.38 5.33 1.72 6.8-13.51 7.82-16.86.64-2.1 1.33-8 2.56-12.14z" class="cls-3"/>
  <path d="M46.49.37c-2.87 1-6.19 1.69-8.41 2.25H38a16.28 16.28 0 0 0-1.83.55c-3.79 1.52-13 7.73-12.75-2V.31h-3.8c.08.27.17.56.27.85 2.99 8.84 1.21 12.57 10.97 9.11 2.21-.78 4.66-1.85 7.21-2.95 5.57-2.39 11.63-4.9 16.77-4.9A2.78 2.78 0 0 0 57.59.37z" class="cls-3"/>
  <path d="M413.94 140.56c-.6-2.88 1.24-22.36 3.34-23.09 1.14-.4 19.64 13.11 22.27 15.12 4.54 3.48-3.65 9-7 8.34-3.63-.68-.2-9-7-11-11.33-3.2 3.69 18 5.14 18.22 2.87.44 14.8-8.47 17.73-10.35 4.39-2.81-14.4-12.8-16.95-14.55-3-2.08-15-13.26-17.92-12.26-2.26.77-2.94 19.89-2.51 22.89.73 5.11-8.68 4.6-5.66-1.87.61-1.3 4.5-5.59 2.13-7-3.21-1.85-6.68 7.82-9.34 8.56-5 1.37-8.25-3-3-4.66 15.07-4.83 3.28-8.34-4.58-12.41-8.17-4.23-19.44-12.93-28.57-14.09-8.36-1.07 3.5-16.2 5.67-20.38 4-7.76 12.3-18.23 13.21-27 .93-8.92 10.6 10.7 8.42 13.13-.5.56-15.61-4.56-9.67 2.76 1.76 2.17 9.15 1.66 11.89 2.14 10.87 1.93 3.48-4.72.15-12.31-1.25-2.85-10.54-26.31-11-16.76-.42 8.56-8.71 19.74-12.37 27.46-4.1 8.63-7.48 20.5-14 27.52-3.68 4 17.64 12.59 21.06 14.33 3.1 1.58 24.75 10.37 20.72 13.46-7.07 5.42-16.33 4.7-4.14 9.44 3.68 1.49 23.74 12.88 21.98 4.36zm-169.79-15.7a4.72 4.72 0 0 0 3 1.32 4.94 4.94 0 0 0 2.57-.85c3.48-2.35-5.42-6-11.32-9-8.17-4.23-19.44-12.93-28.57-14.09-8.36-1.07 3.5-16.2 5.67-20.38 4-7.76 12.3-18.23 13.21-27 .93-8.92 10.6 10.7 8.42 13.13-.5.56-15.61-4.56-9.67 2.76 1.76 2.17 9.15 1.66 11.89 2.14 10.87 1.93 3.48-4.72.15-12.31-1.25-2.85-10.54-26.31-11-16.76-.42 8.56-8.71 19.74-12.37 27.46-4.1 8.63-7.48 20.5-14 27.52-3.68 4 17.64 12.59 21.06 14.33 2.66 1.35 17.51 7.45 20.96 11.73z" class="cls-1"/>
</svg>
