<svg xmlns="http://www.w3.org/2000/svg" id="5d8332d3-ddc0-4b7d-84b0-3392f80ad9d3" data-name="Layer 1" viewBox="0 0 2842.83 1536.03">
  <defs>
    <style>
      .\37 73b4643-fab2-4bd9-9ee2-c44bc5eb00cc{fill:none;}.\32 c36bb2c-c746-40be-bdf3-67ba7b79e00e{clip-path:url(#d6f3926d-9825-4ec8-b6ce-862ddd174b44);}.\34 c656344-f7b2-4e94-bb09-54d0f5cbdaf2{fill:#ffdb00;}
    </style>
    <clipPath id="d6f3926d-9825-4ec8-b6ce-862ddd174b44" transform="translate(125 -167.49)">
      <path d="M5.75 0H2562v1600H5.75z" class="773b4643-fab2-4bd9-9ee2-c44bc5eb00cc"/>
    </clipPath>
  </defs>
  <g class="2c36bb2c-c746-40be-bdf3-67ba7b79e00e" transform="translate(-125 0) scale(1.088 1.218)">
    <path d="M290.63 15.74a18.92 18.92 0 0 0-1.31-1.52 41.72 41.72 0 0 0-3.85-3.6 28 28 0 0 0-2.81-2.07c-1-.73-2.19-1.26-3.34-1.94-.6-.3-1.24-.52-1.87-.8l-1-.4c-.33-.11-.67-.18-1-.27l-2-.54-2.1-.22-1-.14h-1.05l-2.1.08c-1.38.17-2.71.54-4 .78-1.24.5-2.46.93-3.62 1.35s-2.13 1.12-3.09 1.62l-1.38.74c-.43.25-.8.54-1.17.79l-1.9 1.31-1.66 1.15-.06-.07 1.58-1.26 1.81-1.44c.36-.27.72-.59 1.13-.87l1.36-.81c1-.54 1.95-1.23 3.08-1.77l3.68-1.5c1.35-.28 2.73-.68 4.15-.87l2.19-.11h1.1l1.1.13 2.19.26 2.11.59c.35.1.7.18 1 .3l1 .43c.65.29 1.3.54 1.92.86a30.4 30.4 0 0 1 3.37 2.1 28.26 28.26 0 0 1 2.78 2.22 33.89 33.89 0 0 1 3.66 3.86 18.57 18.57 0 0 1 1.22 1.62zm8.45 7.37a7.13 7.13 0 0 0-1.86-5.18c-.67-.81-1.47-1.65-1.78-2.09-.53-.77-5.07-14.46-23.15-15.75S247 10.75 245.7 12.34s-5.71 1.36-6.08 4.64c-.29 2.6 4 3.73 5 5.56s5.52 15 23.48 17.51 25.23-10 25.91-10.59c.4-.38 1.4-1.06 2.23-1.72a6.94 6.94 0 0 0 2.89-4.62m-88.46 77.15a44.79 44.79 0 0 1 2.65-6.9 56.93 56.93 0 0 1 4-6.21 41 41 0 0 1 4.29-4.73 30.21 30.21 0 0 1 3.39-2.92l1.34-1 .11.12s-1.78 1.68-4.18 4.43a53.05 53.05 0 0 0-7.54 11 41.33 41.33 0 0 0-4.2 12.66 25.18 25.18 0 0 0-.22 6.07h-.16a20.88 20.88 0 0 1-.57-6.23 30.86 30.86 0 0 1 1.06-6.37m-3.34 38.96s-.19 6.23 4.31 10.12 10.68 2.85 10.68 2.85c2.1-.18 4.41-.56 5.5-.55 1.87 0 29.68 8.19 52.61-20.4s11.54-54.31 10.38-58.27 4.32-11.06-.66-15.45c-4-3.48-10.81 2.43-14.88 1.87s-31.11-8.08-55.88 18.91-12.62 53.37-12.36 55.28c.17 1.1.13 3.54.28 5.69M14.72 189.1a55.27 55.27 0 0 1 1.81-9.19 77.34 77.34 0 0 1 4.7-12.38 99.74 99.74 0 0 1 7.83-13.1c1.73-2 3.3-4.06 5.14-5.86a64.6 64.6 0 0 1 5.49-5.19 34.55 34.55 0 0 1 5.72-4.14 46.9 46.9 0 0 1 5.49-3.08 38.86 38.86 0 0 1 8.81-3.16c2.18-.56 3.42-.79 3.42-.79l.1.31-3.2 1.3-3.66 1.51-4.5 2.49a45.56 45.56 0 0 0-5.06 3.37 49 49 0 0 0-5.26 4.3 62.73 62.73 0 0 0-5.14 5.13c-1.72 1.78-3.17 3.85-4.79 5.77a98 98 0 0 0-7.92 12.47 102 102 0 0 0-5.38 11.74 75.64 75.64 0 0 0-2.75 8.71c-.3 1.07-.37 1.89-.5 2.46s0 .91 0 .91h-.32l-.14-.89a18.48 18.48 0 0 1 .12-2.72m.89 46.45c3.37 1.4 7.24 2.66 8.91 3.53 2.88 1.5 39.22 36.24 97.12 10.48s60.69-74.47 62-81.49 15.4-13.6 11.19-24.32c-3.34-8.51-18.56-4.86-24.39-9S129 97.51 69.49 119.39s-61.6 72.18-62.64 75.27c-.61 1.83-2.59 5.55-4.07 9 0 0-5.21 9.44-1.36 19s14.19 12.9 14.19 12.9m337.5 15.68a25.49 25.49 0 0 0-2.76-.14 57 57 0 0 0-7.21.41 38 38 0 0 0-4.71.82c-1.67.29-3.33 1-5.09 1.47-.86.31-1.69.73-2.56 1.1l-1.3.57c-.42.22-.81.49-1.22.73l-2.46 1.51-2.21 1.88-1.13.91c-.34.34-.65.72-1 1.07l-1.92 2.15c-1.14 1.53-2 3.21-3 4.74-.68 1.71-1.43 3.32-2.12 4.88s-.91 3.18-1.34 4.61l-.58 2.07c-.16.66-.23 1.31-.34 1.91-.2 1.21-.37 2.26-.52 3.13l-.45 2.74h-.13l.26-2.76c.09-.88.19-1.95.31-3.17.07-.61.1-1.27.22-1.95l.49-2.12c.38-1.47.64-3.1 1.18-4.75l2-5.08c1-1.6 1.93-3.35 3.09-5l2-2.28c.33-.38.65-.77 1-1.14l1.17-1 2.34-1.92 2.58-1.53c.43-.25.85-.52 1.28-.75l1.35-.57c.9-.37 1.77-.78 2.66-1.09a41.87 41.87 0 0 1 5.27-1.35 38.75 38.75 0 0 1 4.83-.65 46.52 46.52 0 0 1 7.29 0 25.73 25.73 0 0 1 2.75.33zm17.11 5.86a9.54 9.54 0 0 0-1.81-7.26 9.7 9.7 0 0 0-6.87-3.06c-1.43-.11-3-.1-3.75-.22-1.26-.2-19.07-8.69-37.53 8s-13.55 35.26-13.2 38-4.09 7-1.21 10.45c2.29 2.76 7.52-.47 10.2.35s20 8.78 39.57-6.7 14.17-34.52 14.18-35.8c0-.76.29-2.39.42-3.85m-244.94 15.35a22 22 0 0 0-5-.37 21.33 21.33 0 0 0-4.91.75 31.88 31.88 0 0 0-9 4.36 61 61 0 0 0-14.1 14.13l-.08.11h-.13c-6.49.23-12 4.8-15.57 10.07l-.27-.17a21 21 0 0 1 5.81-8.36 20.61 20.61 0 0 1 4.5-3 13.1 13.1 0 0 1 4.1-1.27 65.93 65.93 0 0 1 5.84-7.35 50.25 50.25 0 0 1 8.32-6.59 27.44 27.44 0 0 1 10-3.91 16.34 16.34 0 0 1 5.39-.12 17 17 0 0 1 5.08 1.35zm94.92 52.54c-1.7-5.48-8.26-44.1-56.75-59.43s-74.4 15.66-76.56 17.12c-1.28.86-4.36 2.26-7 3.71 0 0-7.92 3.45-10.14 11.43s2.74 15.19 2.74 15.19c1.46 2.55 3.31 5.25 3.95 6.62 1.1 2.37 7.28 42.35 56.68 54.41s74.93-17.58 79.21-21.38 16.43-1.08 19-10c2-7.06-9.44-12.22-11.14-17.69m-8.39-131.89a31.73 31.73 0 0 0-4.08 4.62 31 31 0 0 0-2.3 3.43 33.46 33.46 0 0 0-2.19 4 56.17 56.17 0 0 0-3.48 9.38 77.86 77.86 0 0 0-2.61 18.55 68 68 0 0 0 .29 8.53h-.16a51.89 51.89 0 0 1-1.09-8.57 62.32 62.32 0 0 1 .22-8.89 73 73 0 0 1 1.78-10.08 57.91 57.91 0 0 1 3.82-9.45 25.36 25.36 0 0 1 2.43-4.06 31.52 31.52 0 0 1 2.57-3.43 26.33 26.33 0 0 1 4.57-4.33l1.85-1.47.1.12-1.67 1.64m112.06-2.91c-.13-5.74 9.78-13.3 4.65-21-4.07-6.11-15.39-.64-20.66-2.86s-38.9-22.09-81.9 5.22-36.08 67.18-36.37 69.78c-.17 1.54-1.09 4.8-1.67 7.74 0 0-2.49 8.3 2.16 15.15s13.33 7.69 13.33 7.69c2.88.52 6.13.85 7.59 1.24 2.51.68 36.93 21.72 78-8.4s35-68.82 34.83-74.55m700.21 1082.12a7.09 7.09 0 0 1-4.21 3.71 13.92 13.92 0 0 1-4.59.78 45.11 45.11 0 0 1-9.38 9 26.78 26.78 0 0 1-6.16 3.09 12.7 12.7 0 0 1-3.4.66 13.67 13.67 0 0 1-3.4-.18v-.16c4.46.29 8.64-1.89 12.13-4.52a53.14 53.14 0 0 0 9.4-9.32v-.06h.08a13.89 13.89 0 0 0 4.8-.6 6.2 6.2 0 0 0 3.68-2.93 9.12 9.12 0 0 0 1-4.71 16.88 16.88 0 0 0-.86-4.81l.15-.05a17.31 17.31 0 0 1 1.46 4.84 9.28 9.28 0 0 1-.75 5.29m-41.74-55.45c-35.8-7.4-53.38 14.55-56.36 17.39s-11.78 1.2-13.38 7.66c-1.27 5.12 7.1 8.54 8.46 12.43s7.07 31.47 42.3 41.24 53.05-13.16 54.57-14.26c.9-.65 3.07-1.73 4.91-2.85 0 0 5.6-2.68 7-8.47s-2.36-10.84-2.36-10.84c-1.12-1.79-2.51-3.68-3-4.66-.85-1.67-6.32-30.24-42.12-37.64m323.56 98.44l3.35-1.44 4.11-2.35a41.27 41.27 0 0 0 4.61-3.17 44.76 44.76 0 0 0 4.79-4 57.84 57.84 0 0 0 4.67-4.79c1.56-1.66 2.87-3.59 4.33-5.38a90.2 90.2 0 0 0 7.14-11.59 93.19 93.19 0 0 0 4.81-10.87 70.34 70.34 0 0 0 2.43-8.06c.26-1 .32-1.74.43-2.27s0-.84 0-.84h.29l.14.82a16.39 16.39 0 0 1-.08 2.5 50.89 50.89 0 0 1-1.55 8.48 71.25 71.25 0 0 1-4.17 11.46 91.31 91.31 0 0 1-7 12.17c-1.57 1.83-3 3.78-4.66 5.47a59.66 59.66 0 0 1-5 4.85 31.71 31.71 0 0 1-5.21 3.89 43.54 43.54 0 0 1-5 2.91 35.79 35.79 0 0 1-8.08 3c-2 .54-3.14.78-3.14.78l-.1-.28 2.93-1.24m-58.21-105.81c-53 24.46-54.94 69.36-56.09 75.84s-14 12.72-10 22.54c3.19 7.8 17.16 4.24 22.57 7.95s38.7 33.75 93.2 12.88 55.81-67.26 56.73-70.11c.54-1.69 2.32-5.15 3.63-8.32 0 0 4.68-8.76 1-17.53s-13.24-11.7-13.24-11.7c-3.13-1.25-6.7-2.36-8.24-3.14-2.67-1.34-36.58-32.88-89.58-8.42m-205.11 10.24l-1.51.1-3 .18-3-.28c-.5-.06-1-.08-1.48-.15l-1.43-.34c-.95-.24-1.89-.41-2.79-.69a41.36 41.36 0 0 1-5.06-2 39.32 39.32 0 0 1-4.28-2.33 46.06 46.06 0 0 1-5.87-4.32 25.33 25.33 0 0 1-2-1.88l.09-.09a25.48 25.48 0 0 0 2.14 1.74 57 57 0 0 0 6.06 3.91 38 38 0 0 0 4.29 2.11c1.52.75 3.26 1.17 5 1.81.88.25 1.8.41 2.71.62l1.38.3c.47.07.95.08 1.42.13l2.87.23 2.89-.22 1.45-.07c.48-.08.94-.2 1.42-.3l2.82-.61c1.82-.56 3.54-1.38 5.25-2 1.56-1 3.11-1.85 4.59-2.69s2.61-2 3.8-2.93l1.67-1.41c.52-.44 1-.92 1.4-1.34l2.26-2.22 2-2 .1.08-1.84 2.08-2.12 2.38c-.42.45-.83 1-1.32 1.45l-1.65 1.42c-1.17 1-2.35 2.12-3.75 3.14l-4.63 2.91c-1.76.7-3.53 1.57-5.42 2.19l-2.93.68c-.49.11-1 .24-1.48.33m31.19-18.1c1.36-2.46 7.41-3.22 7.14-7.73-.22-3.58-6.36-4.05-8-6.29s-11-18.9-35.91-17.91-31.8 19.53-32.56 20.56c-.45.61-1.64 1.76-2.61 2.86a9.54 9.54 0 0 0-2.82 6.93 9.7 9.7 0 0 0 3.75 6.53c1.09.93 2.38 1.87 2.9 2.39.9.9 10.28 18.26 35.06 15.62s31.73-20.5 33.09-23m96.96 39.89a62.59 62.59 0 0 1-1.21 8.64 49.14 49.14 0 0 1-2.93 8.26 21.56 21.56 0 0 1-2 3.54 26.73 26.73 0 0 1-2.07 3 22.56 22.56 0 0 1-3.76 3.82l-1.53 1.31-.09-.11 1.37-1.45a27 27 0 0 0 3.34-4.06 26.53 26.53 0 0 0 1.85-3 28.35 28.35 0 0 0 1.74-3.51 48 48 0 0 0 2.68-8.09 66.42 66.42 0 0 0 1.66-15.88 58.53 58.53 0 0 0-.51-7.25h.14a44.45 44.45 0 0 1 1.19 7.26 53.19 53.19 0 0 1 .08 7.57m5.25-14.78c.1-1.32.79-4.12 1.18-6.64 0 0 1.87-7.15-2.3-12.84s-11.59-6.14-11.59-6.14c-2.47-.36-5.25-.54-6.5-.83-2.16-.5-32.12-17.38-66.17 9.52s-27.69 59.68-27.4 64.56-7.92 11.63-3.33 18c3.65 5.07 13.13.07 17.68 1.81s33.8 17.64 69.56-6.93 28.69-58.31 28.86-60.53m-60.59 146.17a37.67 37.67 0 0 0 6.8-6.65 29 29 0 0 0 4.66-8.24 17.71 17.71 0 0 0 1-4.2h.11a14.55 14.55 0 0 1-.43 4.41 21.26 21.26 0 0 1-1.6 4.28 31.38 31.38 0 0 1-2.8 4.44 40.1 40.1 0 0 1-3.63 3.77 28.93 28.93 0 0 1-3.66 2.71 21.69 21.69 0 0 1-2.82 1.53l-1.08.54-.06-.1s1.48-.92 3.54-2.51m-51.27 8.57c2.33 3 7.95-.22 10.75.73s20.86 9.87 42-5.52 16.06-35.43 16.11-36.76c0-.79.38-2.48.57-4a9.87 9.87 0 0 0-1.68-7.63c-2.65-3.32-7.15-3.44-7.15-3.44-1.5-.16-3.19-.21-4-.36-1.32-.26-19.83-9.75-39.84 7s-15.42 36.22-15.13 39.14-4.53 7.11-1.61 10.84m659.99-153.82a53.13 53.13 0 0 0 7.14-11.3 41.36 41.36 0 0 0 3.74-12.81 25.27 25.27 0 0 0 0-6.07h.16a20.88 20.88 0 0 1 .79 6.2 30.83 30.83 0 0 1-.83 6.4 44.93 44.93 0 0 1-2.41 7 56.74 56.74 0 0 1-3.75 6.34 41.05 41.05 0 0 1-4.11 4.88 30.24 30.24 0 0 1-3.35 3l-1.3 1.08-.12-.11s1.72-1.74 4-4.58m-66.86 28c4.08 3.33 10.71-2.82 14.8-2.4s31.37 7 55.17-20.89 10.7-53.8 10.35-55.65c-.2-1.1-.26-3.53-.48-5.67 0 0 0-6.23-4.66-10s-10.78-2.47-10.78-2.47c-2.09.25-4.39.72-5.47.75-1.87.06-29.95-7.12-51.85 22.26s-9.59 54.69-8.3 58.61-3.93 11.21 1.21 15.41m-74.85 66.39a43.34 43.34 0 0 1-6.94 5.92 23.69 23.69 0 0 1-8.48 3.66 14 14 0 0 1-4.63.27 14.41 14.41 0 0 1-4.4-1v-.27a19.18 19.18 0 0 0 4.27.16 18.33 18.33 0 0 0 4.2-.8 27.45 27.45 0 0 0 7.55-4 52.41 52.41 0 0 0 11.68-12.57l.07-.1h.11c5.57-.4 10.2-4.49 13.07-9.13l.24.14a18 18 0 0 1-4.73 7.36 17.77 17.77 0 0 1-3.78 2.68 11.22 11.22 0 0 1-3.44 1.16 56.57 56.57 0 0 1-4.83 6.55m8.26-1.4c1.07-.78 3.68-2.07 5.87-3.41 0 0 6.7-3.2 8.36-10.13s-2.82-13-2.82-13c-1.34-2.15-3-4.41-3.59-5.57-1-2-7.55-36.16-50.36-45s-63.83 17.4-67.39 20.8-14.08 1.44-16 9.15c-1.52 6.13 8.49 10.21 10.12 14.86s8.45 37.62 50.58 49.31 63.43-15.74 65.25-17.05m253.62-72.37a53.23 53.23 0 0 0 5.06-12.25v-.07h.07a14 14 0 0 0 4.19-2.42 6.23 6.23 0 0 0 2.26-4.14 9.11 9.11 0 0 0-.9-4.72 16.91 16.91 0 0 0-2.66-4.1l.12-.11a17.21 17.21 0 0 1 3.22 3.89 9.24 9.24 0 0 1 1.35 5.16 7.11 7.11 0 0 1-2.45 5.06 13.92 13.92 0 0 1-3.93 2.5 45.18 45.18 0 0 1-5.18 11.93 27 27 0 0 1-4.48 5.25 12.79 12.79 0 0 1-2.88 1.93 13.88 13.88 0 0 1-3.2 1.16v-.15c4.22-1.47 7.23-5.11 9.43-8.89m-34.3 26.29c36.25-4.72 43.8-32.8 44.78-34.41.58-1 2.16-2.8 3.42-4.54 0 0 4.13-4.65 3.17-10.53s-6.37-9.07-6.37-9.07c-1.72-1.22-3.74-2.42-4.57-3.12-1.43-1.21-17.51-25.41-53.37-18.28s-43.58 34.21-45.22 38-10.39 5.69-9.37 12.27c.81 5.22 9.84 5.1 12.6 8.16s18.68 26.25 54.93 21.53m305.56 115.28c5.76.37 11.16-2.45 15.65-5.84a68.4 68.4 0 0 0 12.14-12l.06-.08h.1a18 18 0 0 0 6.19-.77 8 8 0 0 0 4.75-3.79 11.75 11.75 0 0 0 1.28-6.07 21.88 21.88 0 0 0-1.11-6.21l.2-.07a22.39 22.39 0 0 1 1.89 6.25 12 12 0 0 1-1 6.83 9.13 9.13 0 0 1-5.44 4.79 17.92 17.92 0 0 1-5.93 1 58.19 58.19 0 0 1-12.12 11.59 34.51 34.51 0 0 1-8 4 16.3 16.3 0 0 1-4.39.85 17.71 17.71 0 0 1-4.39-.23zm-92.83-45c1.76 5 9.12 40.63 54.61 53.25s68.5-17 70.45-18.42c1.16-.85 4-2.24 6.34-3.68 0 0 7.24-3.46 9-10.94s-3-14-3-14c-1.44-2.32-3.24-4.76-3.88-6-1.1-2.16-8.16-39-54.38-48.6s-68.93 18.79-72.77 22.46-15.21 1.55-17.28 9.88c-1.64 6.62 9.16 11 10.92 16m-36.36-35.32l3.94-.36 5-1a44.53 44.53 0 0 0 5.82-1.72 48.33 48.33 0 0 0 6.28-2.55 62.43 62.43 0 0 0 6.42-3.38c2.17-1.19 4.16-2.74 6.27-4.1a98 98 0 0 0 11.23-9.57 101.28 101.28 0 0 0 8.59-9.62 75.91 75.91 0 0 0 5.19-7.5c.6-.94.9-1.69 1.2-2.2l.28-.86.32.06-.13.89a17.83 17.83 0 0 1-.92 2.56 55.06 55.06 0 0 1-4.42 8.25 76.84 76.84 0 0 1-8.13 10.44 99.26 99.26 0 0 1-11.33 10.2c-2.23 1.37-4.34 2.9-6.63 4.08a65.43 65.43 0 0 1-6.77 3.33 34.28 34.28 0 0 1-6.59 2.22 47 47 0 0 1-6.16 1.32 38.72 38.72 0 0 1-9.35.41c-2.24-.11-3.5-.25-3.5-.25v-.33l3.44-.29m-13.26 11c63.24-3.24 80.06-50.72 82-53.37 1.12-1.57 4.11-4.54 6.52-7.37 0 0 7.75-7.48 6.89-17.77s-9.77-16.52-9.77-16.52c-2.81-2.34-6.13-4.69-7.47-6-2.31-2.28-26.83-46.25-89.72-38.79s-79.85 53.19-83.2 59.49-18.71 8.43-17.83 19.92c.69 9.12 16.31 10.14 20.67 15.79s28.73 47.86 92 44.62m-92.38 13.88a46.93 46.93 0 0 0 1.48-11.56v-.07h.05a12.23 12.23 0 0 0 3-3 5.49 5.49 0 0 0 1-4 8 8 0 0 0-1.85-3.8 14.7 14.7 0 0 0-3.19-2.86l.08-.12a15 15 0 0 1 3.62 2.55 8.1 8.1 0 0 1 2.33 4.07 6.27 6.27 0 0 1-.91 4.85 12.18 12.18 0 0 1-2.76 3 39.9 39.9 0 0 1-1.65 11.34 23.74 23.74 0 0 1-2.59 5.49 11.23 11.23 0 0 1-2 2.3 12.08 12.08 0 0 1-2.45 1.72l-.07-.12c3.24-2.22 5-6 6-9.72m-74.48 24.69c3 2 21.86 17.93 51.51 5.55s29.6-37.94 30.06-39.53c.27-.94 1.19-2.87 1.86-4.64 0 0 2.43-4.9.27-9.66s-7.48-6.22-7.48-6.22c-1.74-.63-3.72-1.18-4.59-1.59-1.49-.69-20.67-17.49-49.43-3.15s-29.09 39.08-29.62 42.67-7.5 7.23-5.13 12.57c1.88 4.24 9.51 2 12.56 4M808.33 1231.4a44.78 44.78 0 0 1-2.41 7 56.5 56.5 0 0 1-3.75 6.34 41 41 0 0 1-4.11 4.88 29.89 29.89 0 0 1-3.34 3l-1.3 1.08-.11-.11s1.72-1.74 4-4.58a53.17 53.17 0 0 0 7.14-11.3 41.32 41.32 0 0 0 3.74-12.81 25.19 25.19 0 0 0 0-6.08h.16a20.88 20.88 0 0 1 .79 6.2 30.82 30.82 0 0 1-.83 6.4m2-39s0-6.23-4.67-10-10.77-2.47-10.77-2.47c-2.09.25-4.39.71-5.48.75-1.87.06-29.95-7.12-51.85 22.26s-9.59 54.69-8.3 58.61-3.93 11.21 1.21 15.42c4.08 3.33 10.71-2.82 14.8-2.4s31.38 7 55.18-20.89 10.7-53.8 10.35-55.65c-.21-1.1-.26-3.53-.48-5.67m68.7 60.64l4.46 4.12 5.11 4.74c1 .93 2.08 1.85 3.11 3l3 3.67c2.05 2.6 4.54 5.23 6.68 8.36l6.15 10.27c1.45 3.89 3.27 7.81 4.53 12l1.36 6.46c.21 1.08.48 2.16.65 3.25l.14 3.33.25 6.65-.75 6.55c-.14 1.08-.22 2.17-.4 3.24l-.8 3.13c-.56 2.07-1 4.14-1.63 6.11-1.54 3.86-2.76 7.7-4.63 11a85.64 85.64 0 0 1-5.27 9.32 102.1 102.1 0 0 1-9.71 12.73 57.92 57.92 0 0 1-4.21 4.38l-.19-.2a57.23 57.23 0 0 0 3.89-4.64 125.16 125.16 0 0 0 8.83-13.17 84.19 84.19 0 0 0 4.81-9.34c1.7-3.32 2.71-7.12 4.19-10.86.59-1.92 1-3.93 1.48-5.94l.73-3c.16-1 .22-2.07.34-3.11q.31-3.13.63-6.3l-.33-6.36-.08-3.18c-.15-1-.4-2.08-.59-3.12l-1.21-6.21c-1.15-4-2.87-7.82-4.2-11.61-2.06-3.46-3.89-6.9-5.68-10.17-2-3.14-4.32-5.81-6.24-8.45l-2.83-3.76c-.94-1.16-2-2.14-2.87-3.12l-4.76-5-4.17-4.42zm-31.12 138.49c1.31 1 3.77 3.68 6.14 5.84 0 0 6.19 6.9 15 6.44s14.43-8 14.43-8c2.08-2.37 4.18-5.17 5.35-6.29 2-1.93 40.38-21.9 35.72-76.42s-43.37-70.44-48.68-73.51-6.71-16.39-16.58-16c-7.84.35-9.14 13.81-14.11 17.41s-41.81 23.5-40.78 78.21 41.26 70.55 43.47 72.26m1695.64-14.89l-2 1.5c-.34.25-.68.51-1 .75l-1.12.64-2.24 1.26-2.34 1c-.39.16-.77.34-1.16.49l-1.16.37c-.77.24-1.54.51-2.29.71a42.9 42.9 0 0 1-4.33.85 37.79 37.79 0 0 1-3.82.39 39.17 39.17 0 0 1-5.52-.09 19.74 19.74 0 0 1-2-.24v-.08a20 20 0 0 0 2.06.12 50.64 50.64 0 0 0 5.57-.21c1.17-.12 2.42-.24 3.78-.51s2.76-.62 4.22-.94c.73-.2 1.46-.47 2.21-.71l1.12-.37c.37-.15.74-.32 1.11-.48l2.24-1 2.14-1.23 1.08-.6c.34-.23.67-.47 1-.71l2-1.42c1.24-1 2.34-2.12 3.48-3.13.94-1.13 1.9-2.21 2.8-3.24s1.48-2.11 2.15-3.07l.95-1.37c.28-.44.5-.87.73-1.27l1.16-2.08 1-1.83h.1l-.88 1.85-1 2.11c-.2.41-.38.85-.64 1.3l-.89 1.41c-.65 1-1.25 2.06-2.07 3.16l-2.79 3.37c-1.16 1.06-2.28 2.22-3.56 3.28m13-10.55c.47-.69 1.74-2 2.76-3.27 0 0 3.29-3.33 2.81-7.79s-4.42-7.07-4.42-7.07c-1.24-1-2.71-2-3.31-2.53-1-1-12.13-19.8-39.36-15.9s-34.12 23.93-35.51 26.7-8 3.85-7.54 8.84c.4 4 7.19 4.23 9.14 6.64s13 20.48 40.4 18.41 34.23-22.86 35-24m-150.46 1.09a22.06 22.06 0 0 0 5 .19 21.39 21.39 0 0 0 4.88-.93 31.9 31.9 0 0 0 8.79-4.67 60.84 60.84 0 0 0 13.59-14.62l.08-.11h.13c6.48-.46 11.86-5.23 15.2-10.62l.28.16a21 21 0 0 1-5.51 8.56 20.61 20.61 0 0 1-4.4 3.11 13.13 13.13 0 0 1-4 1.42 66.24 66.24 0 0 1-5.57 7.55 50.26 50.26 0 0 1-8.08 6.88 27.44 27.44 0 0 1-9.87 4.26 16.34 16.34 0 0 1-5.38.31 17 17 0 0 1-5.12-1.16zm-96.74-49.13c1.89 5.42 9.83 43.77 58.83 57.37s73.79-18.31 75.9-19.84c1.25-.91 4.28-2.41 6.83-4 0 0 7.79-3.73 9.73-11.79s-3.28-15.08-3.28-15.08c-1.55-2.5-3.5-5.13-4.18-6.48-1.19-2.33-8.79-42.06-58.59-52.35s-74.26 20.24-78.4 24.19-16.38 1.67-18.61 10.65c-1.77 7.13 9.87 11.87 11.77 17.29m4.93-158.51a16.83 16.83 0 0 1 4.57 1.94 9 9 0 0 1 3.51 3.9 7 7 0 0 1 .14 5.54 13.8 13.8 0 0 1-2.3 4 44.65 44.65 0 0 1 .85 12.78 26.53 26.53 0 0 1-1.55 6.63 12.61 12.61 0 0 1-1.64 3 13.61 13.61 0 0 1-2.28 2.47l-.11-.11c3-3.2 4-7.76 4.23-12.06a52.49 52.49 0 0 0-1.1-13v-.13a13.82 13.82 0 0 0 2.57-4 6.15 6.15 0 0 0 .11-4.64 9 9 0 0 0-2.92-3.72 16.51 16.51 0 0 0-4.17-2.37zm11 16.2c.07-1.09.63-3.43.95-5.52 0 0 1.51-5.94-2-10.65s-9.66-5-9.66-5c-2.06-.28-4.36-.41-5.4-.65-1.8-.41-26.77-14.26-54.9 8.28s-22.67 49.72-22.4 53.77-6.51 9.7-2.66 15c3.06 4.2 10.9 0 14.7 1.41s28.17 14.46 57.73-6.14 23.51-48.59 23.63-50.44m243.11 103.55l-1.88 1.68-3.77 3.34-4.19 2.7c-.7.44-1.37.92-2.09 1.32l-2.21 1c-1.48.66-2.9 1.41-4.36 2a69.61 69.61 0 0 1-8.67 2.55 64.3 64.3 0 0 1-8 1.36 77.07 77.07 0 0 1-12.1.38 42.88 42.88 0 0 1-4.58-.38v-.21a42.64 42.64 0 0 0 4.58.07 94 94 0 0 0 11.94-1.11 63.14 63.14 0 0 0 7.77-1.65c2.76-.59 5.46-1.82 8.36-2.74 1.41-.57 2.77-1.31 4.19-2l2.12-1c.68-.39 1.32-.86 2-1.29l4-2.65 3.56-3.25 1.82-1.58c.54-.59 1-1.23 1.54-1.85l3.06-3.69c1.8-2.61 3.2-5.44 4.77-8 1-2.87 2.17-5.6 3.23-8.22.89-2.67 1.33-5.33 2-7.73l.84-3.47c.23-1.11.3-2.19.45-3.19.26-2 .48-3.78.67-5.23.37-2.91.59-4.58.59-4.58h.21s-.1 1.68-.28 4.6c-.09 1.47-.2 3.25-.32 5.29-.08 1-.09 2.11-.24 3.25l-.69 3.55c-.54 2.46-.89 5.18-1.68 8l-3.06 8.55c-1.58 2.72-3 5.68-4.83 8.42l-3.13 3.89c-.53.65-1 1.32-1.59 1.95m22.2-55.75c-.75-4.6 6.37-11.82 1.38-17.43-4-4.46-12.46 1.23-17 0s-33.8-13.38-65.31 13.46-21.49 58.16-21.43 60.28c0 1.26-.34 4-.47 6.42 0 0-1.07 7 3.44 12s11.59 4.68 11.59 4.68c2.38.09 5 0 6.25.14 2.1.27 32.17 13.31 61.83-15.59s20.41-59.35 19.65-64m-327.81 99.57a43.35 43.35 0 0 1-6.94 5.92 23.61 23.61 0 0 1-8.48 3.66 14 14 0 0 1-4.63.27 14.41 14.41 0 0 1-4.4-1l.05-.27a19.15 19.15 0 0 0 4.27.16 18.33 18.33 0 0 0 4.2-.8 27.4 27.4 0 0 0 7.55-4 52.35 52.35 0 0 0 11.68-12.57l.07-.1h.11c5.57-.4 10.2-4.49 13.07-9.13l.24.14a18 18 0 0 1-4.73 7.36 17.78 17.78 0 0 1-3.78 2.68 11.23 11.23 0 0 1-3.44 1.16 57 57 0 0 1-4.83 6.55m8.26-1.4c1.07-.78 3.68-2.07 5.87-3.41 0 0 6.7-3.2 8.36-10.13s-2.82-13-2.82-13c-1.34-2.15-3-4.41-3.59-5.57-1-2-7.55-36.16-50.36-45s-63.83 17.4-67.39 20.8-14.08 1.44-16 9.15c-1.52 6.13 8.49 10.21 10.12 14.86s8.45 37.62 50.58 49.31 63.43-15.74 65.25-17.05m462.41 12.68c4.46.29 8.64-1.89 12.13-4.52a53.15 53.15 0 0 0 9.4-9.32v-.06h.08a14 14 0 0 0 4.8-.6 6.2 6.2 0 0 0 3.68-2.94 9.11 9.11 0 0 0 1-4.71 17 17 0 0 0-.86-4.81l.15-.05a17.3 17.3 0 0 1 1.46 4.84 9.27 9.27 0 0 1-.75 5.29 7.08 7.08 0 0 1-4.21 3.71 13.92 13.92 0 0 1-4.59.78 45.05 45.05 0 0 1-9.39 9 26.76 26.76 0 0 1-6.16 3.09 12.6 12.6 0 0 1-3.4.66 13.67 13.67 0 0 1-3.4-.18zm-71.9-34.85c1.36 3.89 7.07 31.47 42.3 41.24s53.05-13.16 54.57-14.26c.9-.65 3.07-1.73 4.91-2.85 0 0 5.6-2.68 7-8.47s-2.36-10.84-2.36-10.84c-1.12-1.8-2.51-3.69-3-4.66-.85-1.68-6.32-30.24-42.12-37.64s-53.38 14.55-56.36 17.39-11.78 1.2-13.38 7.66c-1.27 5.12 7.1 8.54 8.46 12.43m-32.06 73.86c-2.25 1.79-4.63 3.14-6.69 4.57l-3 2c-1 .57-2 1-2.9 1.45l-4.76 2.29-4.15 2-.08-.2 4-2.28 4.57-2.6c.87-.51 1.83-1 2.77-1.62l2.88-2.09c2-1.49 4.26-2.9 6.39-4.74s4.11-4.06 6.37-6.11c1.8-2.45 3.89-4.82 5.61-7.48l2.25-4.23c.37-.71.78-1.41 1.12-2.13l.76-2.29 1.65-4.53.94-4.71c.15-.78.34-1.55.45-2.33l.14-2.36c.07-1.57.24-3.11.24-4.63-.24-3-.13-6-.63-8.81a63.77 63.77 0 0 0-1.42-7.85 95 95 0 0 0-3.49-11.51 43.57 43.57 0 0 0-1.79-4.23l.18-.11a43.57 43.57 0 0 1 2.08 4.11 77.23 77.23 0 0 1 4.22 11.39 64.57 64.57 0 0 1 1.76 7.94 69.58 69.58 0 0 1 .92 9c0 1.57-.12 3.18-.17 4.8l-.11 2.45c-.1.81-.28 1.62-.42 2.43l-.91 4.92-1.65 4.76-.84 2.38c-.36.76-.8 1.48-1.19 2.21l-2.41 4.38c-1.83 2.74-4 5.18-5.94 7.67l-6.73 6.07m26.76-32.66c8.59-40.58-18.4-59.21-19.74-60.86-.8-1-2.16-3.37-3.54-5.37 0 0-3.39-6.17-10-7.35s-12 3.41-12 3.41c-1.94 1.39-4 3.1-5 3.72-1.82 1.08-33.56 9.21-39.45 50.28s20 59.5 23.38 62.68 2.15 13.26 9.51 14.64c5.85 1.09 9.11-8.62 13.39-10.43s34.9-10.14 43.49-50.72m-1610.55-34.37a16.93 16.93 0 0 1 4.57 1.94 9 9 0 0 1 3.51 3.9 7 7 0 0 1 .14 5.54 13.8 13.8 0 0 1-2.3 4 44.54 44.54 0 0 1 .85 12.78 26.53 26.53 0 0 1-1.55 6.63 12.61 12.61 0 0 1-1.64 3 13.6 13.6 0 0 1-2.28 2.47l-.11-.11c3-3.2 4-7.76 4.23-12.06a52.49 52.49 0 0 0-1.1-13v-.13a13.85 13.85 0 0 0 2.57-4 6.16 6.16 0 0 0 .11-4.65 9 9 0 0 0-2.92-3.72 16.48 16.48 0 0 0-4.17-2.37zm11 16.2c.07-1.09.63-3.43.95-5.52 0 0 1.51-5.94-2-10.65s-9.66-5-9.66-5c-2.06-.28-4.36-.41-5.4-.65-1.8-.41-26.77-14.26-54.9 8.28s-22.67 49.72-22.4 53.77-6.51 9.7-2.66 15c3.06 4.2 10.9 0 14.7 1.41s28.17 14.46 57.73-6.14 23.51-48.59 23.63-50.44m-275.86-7.86l-1.33 2.19c-.26.42-.51.88-.83 1.33l-1.09 1.36c-.79.93-1.55 2-2.51 3l-3.23 3c-1.29.81-2.56 1.75-4 2.5l-2.21 1c-.38.16-.74.33-1.12.47l-1.18.29-2.36.57-2.4.2c-.4 0-.79.08-1.19.09l-1.18-.06c-.78-.05-1.55-.06-2.31-.15a33 33 0 0 1-4.28-.88 30.89 30.89 0 0 1-3.72-1.23 37.36 37.36 0 0 1-5.26-2.58 21.57 21.57 0 0 1-1.87-1.21l.06-.09a20.64 20.64 0 0 0 1.94 1.07 45.08 45.08 0 0 0 5.36 2.24 30.72 30.72 0 0 0 3.7 1.06c1.31.38 2.74.46 4.19.73.73.08 1.48.06 2.23.11h1.14c.38 0 .76-.07 1.14-.1l2.3-.23 2.25-.58 1.13-.26c.37-.13.72-.29 1.08-.44l2.14-.89c1.36-.71 2.59-1.6 3.85-2.36 1.09-1 2.19-1.9 3.23-2.78s1.77-2 2.58-2.86l1.14-1.29c.35-.42.62-.87.91-1.26l1.46-2.08 1.28-1.83.09.05-1.15 1.9m3-15c-1.65-1.53-11.44-13.4-31-9.07s-22.29 20-22.74 20.92c-.27.55-1 1.63-1.65 2.64a7.67 7.67 0 0 0-1.22 5.89 7.83 7.83 0 0 0 3.9 4.63c1 .58 2.15 1.14 2.64 1.48.84.59 10.76 13 30 7.37s22.09-20.75 22.81-22.89 5.39-3.61 4.52-7.14c-.69-2.81-5.61-2.3-7.26-3.83m419.2 92.11v-.11c2.95-1.41 4.84-4.3 6.13-7.22a39 39 0 0 0 2.69-9.31v-.06a10.22 10.22 0 0 0 2.85-2.1 4.54 4.54 0 0 0 1.31-3.19 6.64 6.64 0 0 0-1-3.36 12.41 12.41 0 0 0-2.26-2.76l.08-.09a12.68 12.68 0 0 1 2.65 2.56 6.76 6.76 0 0 1 1.4 3.64 5.2 5.2 0 0 1-1.37 3.87 10.25 10.25 0 0 1-2.65 2.12 33.06 33.06 0 0 1-2.81 9.1 19.59 19.59 0 0 1-2.83 4.18 9.39 9.39 0 0 1-1.93 1.63 10 10 0 0 1-2.23 1.1m13.09-14.06c.34-.74 1.34-2.21 2.12-3.57a10.25 10.25 0 0 0 1.45-7.91c-1.17-4.2-5.35-6.07-5.35-6.07-1.35-.75-2.91-1.46-3.57-1.89-1.14-.76-14.77-17-40.23-8.94s-28.89 28.39-29.78 31.27-7.09 5-5.82 9.67c1 3.72 7.56 2.9 9.81 4.9s15.68 17.55 41.63 11.17 29.17-27.38 29.75-28.63m-677.28-178.2a39.15 39.15 0 0 0 7.57-6.38 30.57 30.57 0 0 0 5.5-8.21 18.55 18.55 0 0 0 1.36-4.3h.12a15.49 15.49 0 0 1-.82 4.56 22.59 22.59 0 0 1-2 4.34 33.1 33.1 0 0 1-3.26 4.41 41.86 41.86 0 0 1-4.07 3.64 30.17 30.17 0 0 1-4 2.53 22.08 22.08 0 0 1-3 1.37l-1.16.47-.06-.11s1.6-.85 3.86-2.33m-53.52 4.8c2.14 3.28 8.2.41 11 1.63s20.63 12 43.67-2.37 19.56-35.63 19.73-37c.1-.82.61-2.55.93-4.12 0 0 1.37-4.41-1.08-8.09s-7.07-4.17-7.07-4.17c-1.54-.29-3.26-.48-4-.7-1.34-.38-19.59-11.77-41.62 4.09s-19 36.52-18.93 39.58-5.28 7-2.58 11.17m140.83 123.94h7.45l5.1-.65a44.47 44.47 0 0 0 5.94-1.26 48.57 48.57 0 0 0 6.46-2 62.82 62.82 0 0 0 6.66-2.86c2.25-1 4.36-2.4 6.57-3.59a97.62 97.62 0 0 0 12-8.65 102.09 102.09 0 0 0 9.32-8.91 75.87 75.87 0 0 0 5.76-7.07c.68-.89 1-1.62 1.37-2.1l.34-.84.31.08-.2.88a18.2 18.2 0 0 1-1.11 2.48 55.33 55.33 0 0 1-5.06 7.87 77 77 0 0 1-8.92 9.76 99.31 99.31 0 0 1-12.09 9.27c-2.33 1.18-4.56 2.55-6.93 3.54a65.17 65.17 0 0 1-7 2.78 34.43 34.43 0 0 1-6.84 1.73 46.22 46.22 0 0 1-6.24.83 38.76 38.76 0 0 1-9.35-.33c-2.23-.29-3.47-.53-3.47-.53zm-98.82-41.89c3.9 6 24.88 50 88.18 51.76s83.8-44.23 85.89-46.71c1.24-1.47 4.45-4.2 7.08-6.83 0 0 8.32-6.84 8.26-17.17s-8.45-17.25-8.45-17.25c-2.62-2.55-5.75-5.16-7-6.58-2.12-2.46-23.11-48.23-86.39-45.77s-83.78 46.7-87.62 52.72-19.31 6.93-19.35 18.45c0 9.15 15.46 11.4 19.36 17.38m727.31-105.55a21.88 21.88 0 0 0 5 .19 21.23 21.23 0 0 0 4.88-.93 31.82 31.82 0 0 0 8.79-4.67 60.83 60.83 0 0 0 13.59-14.62l.08-.12h.13c6.48-.46 11.86-5.23 15.2-10.62l.28.16a21 21 0 0 1-5.51 8.56 20.61 20.61 0 0 1-4.4 3.11 13.1 13.1 0 0 1-4 1.42 65.71 65.71 0 0 1-5.57 7.55 50.12 50.12 0 0 1-8.08 6.88 27.49 27.49 0 0 1-9.87 4.26 16.25 16.25 0 0 1-5.38.31 17 17 0 0 1-5.12-1.16zm-89.89-77.06l-6.85 27.93c1.89 5.42 9.83 43.77 58.83 57.37s73.79-18.31 75.9-19.84c1.25-.91 4.28-2.41 6.83-4 0 0 7.79-3.73 9.73-11.79s-3.31-14.99-3.31-14.99c-1.55-2.5-3.49-5.13-4.18-6.48-1.19-2.33-8.79-42.06-58.59-52.35m-285.56 112.83l3.61-1.64 4.41-2.65a45.19 45.19 0 0 0 4.93-3.55 48.34 48.34 0 0 0 5.1-4.48 61.78 61.78 0 0 0 5-5.31c1.66-1.84 3-4 4.58-5.94a98.31 98.31 0 0 0 7.47-12.75 101.89 101.89 0 0 0 5-11.92 76.6 76.6 0 0 0 2.44-8.8c.26-1.09.3-1.9.41-2.47s0-.91 0-.91l.32-.06.17.89a17.63 17.63 0 0 1 0 2.72 55.16 55.16 0 0 1-1.47 9.25 77.53 77.53 0 0 1-4.26 12.54 99.38 99.38 0 0 1-7.36 13.37c-1.66 2-3.15 4.17-4.93 6a65.07 65.07 0 0 1-5.3 5.38 34.47 34.47 0 0 1-5.57 4.34 46.66 46.66 0 0 1-5.38 3.28 38.86 38.86 0 0 1-8.69 3.47c-2.16.63-3.39.92-3.39.92l-.11-.3 3.16-1.41M892 1079.03c-56.94 27.81-58 76.59-59.09 83.65s-14.91 14.14-10.32 24.7c3.64 8.39 18.73 4.2 24.69 8.09s42.81 35.72 101.47 11.77 59-74.33 59.92-77.45c.55-1.85 2.4-5.64 3.74-9.12 0 0 4.87-9.62.68-19.05s-14.65-12.38-14.65-12.38c-3.42-1.28-7.33-2.4-9-3.21-2.93-1.39-40.49-34.82-97.43-7m1330.26 287.72c-.05.88-.12 2-.19 3.18 0 .61-.05 1.27-.14 2l-.42 2.14c-.33 1.48-.53 3.12-1 4.78l-1.84 5.15c-1 1.64-1.81 3.42-2.91 5.07l-1.88 2.34c-.32.39-.62.8-1 1.17l-1.13 1-2.27 2-2.52 1.63c-.42.26-.83.55-1.26.79l-1.33.62c-.89.4-1.74.85-2.62 1.19a41.86 41.86 0 0 1-5.22 1.54 38.79 38.79 0 0 1-4.81.82 46.44 46.44 0 0 1-7.29.23 26.38 26.38 0 0 1-2.76-.23v-.13a26.07 26.07 0 0 0 2.76 0 56.4 56.4 0 0 0 7.19-.67 37.44 37.44 0 0 0 4.68-1c1.66-.35 3.29-1.09 5-1.65.85-.34 1.67-.79 2.52-1.19l1.28-.62c.41-.24.79-.52 1.19-.78l2.4-1.59 2.14-2 1.1-.95c.33-.36.62-.74.93-1.11l1.84-2.22c1.08-1.57 1.93-3.28 2.88-4.84.62-1.73 1.31-3.37 1.94-5s.8-3.21 1.18-4.65l.5-2.09c.14-.67.18-1.32.27-1.92l.4-3.15.35-2.76h.13s-.06 1-.16 2.77m4.84-18.26c-2.38-2.68-7.5.74-10.2 0s-20.34-8.06-39.31 8.1-12.93 35-12.9 36.28c0 .76-.2 2.4-.28 3.86a9.55 9.55 0 0 0 2.07 7.19 9.69 9.69 0 0 0 7 2.82c1.43.06 3 0 3.76.08 1.26.16 19.36 8 37.22-9.38s12.28-35.72 11.83-38.49 3.84-7.11.83-10.49m-9.56-150.44c-.05.9-.12 2-.19 3.23-.05.62-.05 1.29-.14 2l-.42 2.17c-.33 1.5-.54 3.17-1 4.86l-1.87 5.23c-1 1.66-1.83 3.47-3 5.14l-1.91 2.38c-.33.4-.63.81-1 1.19l-1.15 1-2.3 2-2.56 1.65c-.43.27-.84.56-1.28.8l-1.35.63c-.9.4-1.77.86-2.66 1.2a42.51 42.51 0 0 1-5.3 1.56 39.39 39.39 0 0 1-4.88.83 46.77 46.77 0 0 1-7.4.23 26.9 26.9 0 0 1-2.8-.23v-.13a26.47 26.47 0 0 0 2.8 0 57.28 57.28 0 0 0 7.3-.68 38.6 38.6 0 0 0 4.75-1c1.69-.36 3.34-1.11 5.11-1.67.86-.35 1.69-.8 2.56-1.2l1.3-.63c.42-.24.8-.53 1.21-.79l2.44-1.62 2.18-2 1.11-1c.33-.36.63-.75.95-1.13l1.87-2.25c1.1-1.59 2-3.33 2.92-4.92.63-1.75 1.33-3.42 2-5s.81-3.26 1.19-4.73l.51-2.12c.14-.68.19-1.34.28-1.95l.41-3.19.36-2.8h.13s-.06 1-.17 2.81m4.91-18.54c-2.42-2.72-7.61.75-10.36 0s-20.66-8.18-39.91 8.23-13.13 35.54-13.09 36.84c0 .77-.21 2.44-.29 3.92a9.69 9.69 0 0 0 2.11 7.3 9.84 9.84 0 0 0 7.13 3c1.46.06 3.07 0 3.82.08 1.28.16 19.66 8.13 37.79-9.53s12.47-36.28 12-39.09 3.9-7.22.85-10.65m337.01-147.35a18.92 18.92 0 0 0 1.37 1.48 41.72 41.72 0 0 0 4 3.46 28 28 0 0 0 2.88 2c1 .7 2.23 1.18 3.4 1.82.61.28 1.26.48 1.89.73l1 .36c.33.1.67.16 1 .24l2 .46 2.1.14 1.05.1c.35 0 .7 0 1-.07l2.09-.15c1.37-.22 2.69-.63 4-.93 1.22-.54 2.43-1 3.57-1.47s2.09-1.2 3-1.73l1.35-.79c.42-.27.78-.57 1.14-.83l1.85-1.37 1.62-1.21.06.07-1.54 1.31-1.76 1.5c-.35.28-.69.62-1.1.91l-1.33.86c-.94.58-1.9 1.29-3 1.88l-3.63 1.63c-1.34.33-2.7.77-4.12 1l-2.18.19c-.36 0-.73.07-1.1.09l-1.1-.09-2.2-.19-2.13-.51c-.35-.09-.71-.16-1-.26l-1-.39c-.66-.27-1.32-.49-1.94-.79a30.4 30.4 0 0 1-3.44-2 28.26 28.26 0 0 1-2.85-2.12 33.89 33.89 0 0 1-3.8-3.73 18.57 18.57 0 0 1-1.27-1.57zm-8.71-7.06a7.13 7.13 0 0 0 2 5.11c.7.79 1.53 1.59 1.85 2 .55.75 5.58 14.27 23.7 14.91s24.91-11.55 26.13-13.19 5.66-1.57 5.91-4.86c.2-2.61-4.18-3.59-5.16-5.37s-6.05-14.81-24.09-16.66-24.86 10.85-25.51 11.51c-.39.4-1.36 1.11-2.17 1.8a6.94 6.94 0 0 0-2.72 4.72m-146.22 203.85a53.1 53.1 0 0 0 7.14-11.3 41.36 41.36 0 0 0 3.74-12.81 25.27 25.27 0 0 0 0-6.07h.16a20.88 20.88 0 0 1 .79 6.2 30.82 30.82 0 0 1-.83 6.4 44.93 44.93 0 0 1-2.41 7 56.76 56.76 0 0 1-3.75 6.34 41.06 41.06 0 0 1-4.11 4.88 30.25 30.25 0 0 1-3.35 3l-1.3 1.08-.11-.11s1.71-1.74 4-4.58m-66.86 28c4.08 3.33 10.71-2.82 14.8-2.4s31.37 7 55.17-20.89 10.7-53.8 10.35-55.65c-.2-1.1-.26-3.53-.48-5.67 0 0 0-6.23-4.66-10s-10.78-2.47-10.78-2.47c-2.09.25-4.39.72-5.47.75-1.87.06-29.95-7.12-51.85 22.26s-9.59 54.69-8.3 58.61-3.93 11.21 1.21 15.42m227.25-84.48l3.61-1.64 4.41-2.65a44.73 44.73 0 0 0 4.93-3.55 48.35 48.35 0 0 0 5.1-4.48 62.25 62.25 0 0 0 5-5.31c1.66-1.84 3-4 4.58-5.94a97.93 97.93 0 0 0 7.47-12.75 101.42 101.42 0 0 0 5-11.92 76.54 76.54 0 0 0 2.44-8.8c.26-1.09.3-1.9.41-2.47s0-.91 0-.91l.32-.06.17.89a17.62 17.62 0 0 1 0 2.72 55.14 55.14 0 0 1-1.47 9.25 77.5 77.5 0 0 1-4.26 12.54 99.36 99.36 0 0 1-7.36 13.37c-1.66 2-3.15 4.17-4.93 6a65.1 65.1 0 0 1-5.31 5.38 34.32 34.32 0 0 1-5.57 4.34 46.93 46.93 0 0 1-5.38 3.28 38.82 38.82 0 0 1-8.69 3.47c-2.15.63-3.39.92-3.39.92l-.11-.3 3.15-1.41m-65.69-113.48c-56.94 27.81-58 76.59-59.09 83.65s-14.91 14.14-10.32 24.7c3.64 8.38 18.73 4.2 24.69 8.09s42.81 35.72 101.47 11.77 59-74.33 59.92-77.45c.55-1.85 2.4-5.64 3.74-9.12 0 0 4.87-9.62.68-19.05s-14.64-12.38-14.64-12.38c-3.42-1.28-7.33-2.4-9-3.21-2.93-1.39-40.49-34.82-97.43-7m-16.6 185.64a40.39 40.39 0 0 0 2.78-9.64v-.06a10.61 10.61 0 0 0 2.95-2.17 4.73 4.73 0 0 0 1.36-3.31 6.91 6.91 0 0 0-1.07-3.48 12.83 12.83 0 0 0-2.34-2.86l.08-.09a13.05 13.05 0 0 1 2.75 2.66 7 7 0 0 1 1.45 3.77 5.4 5.4 0 0 1-1.42 4 10.56 10.56 0 0 1-2.75 2.2 34.27 34.27 0 0 1-2.9 9.43 20.49 20.49 0 0 1-2.93 4.33 9.54 9.54 0 0 1-2 1.69 10.42 10.42 0 0 1-2.31 1.14v-.11c3.05-1.46 5-4.46 6.35-7.48m-66.68 11.12c2.33 2.07 16.24 18.18 43.12 11.58s30.22-28.36 30.81-29.66c.36-.76 1.39-2.29 2.2-3.7 0 0 2.72-3.85 1.5-8.19s-5.55-6.29-5.55-6.29c-1.4-.77-3-1.5-3.7-2-1.18-.79-15.3-17.64-41.68-9.26s-29.93 29.4-30.85 32.39-7.34 5.16-6 10c1 3.86 7.83 3 10.16 5.08m-265.53-100.2l-.72-6c-.82-3.92-2.19-7.67-3.19-11.38-1.72-3.45-3.23-6.86-4.71-10.11-1.67-3.13-3.71-5.85-5.36-8.51l-2.44-3.79c-.81-1.17-1.73-2.18-2.52-3.18l-4.19-5.16-3.67-4.52.18-.19 4 4.25 4.55 4.88c.86 1 1.85 1.91 2.76 3l2.63 3.72c1.78 2.63 4 5.31 5.79 8.45l5.15 10.24c1.11 3.81 2.58 7.69 3.48 11.75.28 2.07.56 4.16.84 6.26.13 1 .31 2.1.39 3.16l-.1 3.19-.23 6.36-1.18 6.2c-.21 1-.36 2.06-.61 3.06l-1 2.93c-.68 1.93-1.23 3.89-2 5.72-1.74 3.58-3.18 7.16-5.2 10.2a82.29 82.29 0 0 1-5.69 8.52 97.51 97.51 0 0 1-10.16 11.47 54.75 54.75 0 0 1-4.33 3.88l-.17-.21a54.54 54.54 0 0 0 4-4.16 119.65 119.65 0 0 0 9.36-11.95 80.68 80.68 0 0 0 5.25-8.58c1.86-3 3.09-6.6 4.76-10.07.7-1.79 1.2-3.68 1.83-5.56l.91-2.84c.23-1 .36-2 .54-3l1-6 .12-6.09.15-3c-.07-1-.23-2-.34-3m-102.46 5c-2.86 52.29 34.41 70.27 36.4 72.05 1.18 1.06 3.34 3.78 5.45 6 0 0 5.42 7 13.9 7.21s14.34-6.6 14.34-6.6c2.15-2.11 4.36-4.63 5.55-5.62 2.07-1.7 40.08-18 39.47-70.41s-36.44-70.31-41.29-73.62-5.25-16.12-14.7-16.4c-7.51-.23-9.7 12.53-14.69 15.62s-41.56 19.46-44.43 71.75M1542 1365.51l-.19 3.18c0 .61-.05 1.27-.14 2l-.42 2.14c-.32 1.48-.53 3.12-1 4.78l-1.84 5.15c-1 1.64-1.81 3.42-2.91 5.07l-1.88 2.34c-.32.39-.62.8-1 1.17l-1.13 1-2.27 2-2.52 1.63c-.42.26-.83.55-1.26.79l-1.33.62c-.89.4-1.74.85-2.62 1.19a41.86 41.86 0 0 1-5.22 1.54 38.79 38.79 0 0 1-4.81.82 46.44 46.44 0 0 1-7.29.23 26.38 26.38 0 0 1-2.76-.23v-.13a26.07 26.07 0 0 0 2.76 0 57 57 0 0 0 7.19-.67 37.44 37.44 0 0 0 4.68-1c1.66-.35 3.29-1.09 5-1.65.85-.34 1.67-.79 2.52-1.19l1.28-.62c.41-.24.79-.52 1.2-.78l2.4-1.59 2.14-2 1.1-.95c.33-.36.62-.74.93-1.11l1.84-2.22c1.08-1.57 1.93-3.28 2.88-4.84.63-1.73 1.31-3.37 1.94-5s.8-3.21 1.18-4.65l.5-2.09c.14-.67.18-1.32.27-1.92l.4-3.15.35-2.76h.13s-.06 1-.16 2.77m4.84-18.26c-2.38-2.68-7.5.74-10.2 0s-20.34-8.06-39.31 8.1-12.93 35-12.9 36.28c0 .76-.2 2.4-.28 3.86a9.55 9.55 0 0 0 2.07 7.2 9.69 9.69 0 0 0 7 2.82c1.43.06 3 0 3.76.08 1.26.16 19.36 8 37.22-9.38s12.28-35.72 11.83-38.49 3.84-7.11.83-10.49m-111.24 32.06c4 .26 7.82-1.72 11-4.09a48 48 0 0 0 8.51-8.44v-.05h.07a12.57 12.57 0 0 0 4.34-.54 5.61 5.61 0 0 0 3.33-2.65 8.27 8.27 0 0 0 .9-4.26 15.35 15.35 0 0 0-.78-4.35h.14a15.7 15.7 0 0 1 1.33 4.38 8.39 8.39 0 0 1-.68 4.79 6.4 6.4 0 0 1-3.81 3.36 12.5 12.5 0 0 1-4.15.71 40.8 40.8 0 0 1-8.5 8.12 24.14 24.14 0 0 1-5.58 2.8 11.56 11.56 0 0 1-3.07.6 12.42 12.42 0 0 1-3.07-.16zm-60.62-49.72c-2.69 2.57-10.66 1.09-12.11 6.93-1.15 4.64 6.42 7.72 7.65 11.25s6.4 28.48 38.28 37.33 48-11.91 49.39-12.91c.81-.59 2.78-1.57 4.44-2.58 0 0 5.07-2.42 6.33-7.67s-2.14-9.81-2.14-9.81c-1-1.62-2.27-3.33-2.72-4.21-.77-1.51-5.72-27.37-38.12-34.06s-48.32 13.17-51 15.74m1261.44-384.8a44.79 44.79 0 0 1-2.41 7 56.93 56.93 0 0 1-3.75 6.34 41 41 0 0 1-4.11 4.88 30.21 30.21 0 0 1-3.34 3l-1.3 1.08-.11-.11s1.72-1.74 4-4.58a53.05 53.05 0 0 0 7.14-11.3 41.33 41.33 0 0 0 3.74-12.81 25.18 25.18 0 0 0 0-6.08h.16a20.88 20.88 0 0 1 .79 6.2 30.86 30.86 0 0 1-.83 6.4m2-39s0-6.23-4.67-10-10.77-2.47-10.77-2.47c-2.09.25-4.39.71-5.47.75-1.87.06-29.95-7.13-51.85 22.26s-9.59 54.69-8.3 58.61-3.93 11.21 1.21 15.42c4.08 3.33 10.71-2.82 14.8-2.4s31.38 7 55.17-20.89 10.7-53.8 10.36-55.65c-.21-1.1-.26-3.53-.48-5.67m-224.01 200.07a27 27 0 0 0 3.34-4.06 26.51 26.51 0 0 0 1.85-3 28.16 28.16 0 0 0 1.74-3.51 47.75 47.75 0 0 0 2.68-8.09 66.29 66.29 0 0 0 1.66-15.88 58.07 58.07 0 0 0-.51-7.25h.14a44 44 0 0 1 1.19 7.26 53.6 53.6 0 0 1 .08 7.57 62.12 62.12 0 0 1-1.22 8.64 49.14 49.14 0 0 1-2.92 8.26 21.68 21.68 0 0 1-2 3.54 27.14 27.14 0 0 1-2.07 3 22.44 22.44 0 0 1-3.76 3.82l-1.53 1.31-.09-.1 1.38-1.45m-81 25.72c4.55 1.74 33.8 17.64 69.56-6.93s28.69-58.31 28.86-60.53c.1-1.32.78-4.12 1.18-6.64 0 0 1.87-7.15-2.3-12.84s-11.58-6.14-11.58-6.14c-2.47-.36-5.25-.54-6.5-.83-2.16-.5-32.11-17.38-66.17 9.52s-27.69 59.68-27.4 64.56-7.92 11.63-3.33 18c3.65 5.07 13.13.07 17.68 1.81m344.04 11.23a22.23 22.23 0 0 0 2.41-.14 49.18 49.18 0 0 0 6.23-1 32.93 32.93 0 0 0 4-1.17c1.43-.41 2.8-1.16 4.29-1.76.72-.35 1.4-.8 2.12-1.2l1.07-.62c.34-.23.66-.5 1-.76l2-1.55 1.75-1.84.9-.9c.26-.33.49-.69.74-1l1.46-2.06c.85-1.44 1.47-3 2.2-4.41.43-1.55.93-3 1.38-4.45s.5-2.85.73-4.14l.31-1.85c.08-.59.08-1.16.11-1.69.06-1.07.11-2 .15-2.77.08-1.55.13-2.43.13-2.43h.11v6.94s-.15 1.23-.23 1.89c-.19 1.31-.27 2.76-.58 4.24l-1.28 4.61c-.72 1.49-1.36 3.1-2.21 4.61l-1.49 2.17c-.25.36-.49.73-.76 1.08l-.92 1-1.85 1.9-2.1 1.58c-.35.26-.69.53-1 .77l-1.12.63c-.75.4-1.47.85-2.21 1.2a37 37 0 0 1-4.46 1.68 34 34 0 0 1-4.14 1 40.26 40.26 0 0 1-6.35.67 22.73 22.73 0 0 1-2.42 0zm-17-2.58c2.11 1.25 15.22 11.65 35 2.58s19.21-26.39 19.48-27.48c.16-.64.74-2 1.15-3.19a8.36 8.36 0 0 0 0-6.55 8.5 8.5 0 0 0-5.21-4c-1.19-.39-2.55-.72-3.15-1-1-.44-14.41-11.38-33.58-1s-18.83 27.15-19.1 29.59-4.92 5.07-3.19 8.64c1.37 2.83 6.49 1.17 8.6 2.42m29.08 105.6c5.76.37 11.16-2.45 15.66-5.84a68.59 68.59 0 0 0 12.14-12l.06-.08h.1a18 18 0 0 0 6.19-.77 8 8 0 0 0 4.75-3.79 11.78 11.78 0 0 0 1.28-6.07 21.88 21.88 0 0 0-1.12-6.21l.2-.07a22.28 22.28 0 0 1 1.89 6.25 11.94 11.94 0 0 1-1 6.83 9.14 9.14 0 0 1-5.44 4.79 18 18 0 0 1-5.93 1 58.22 58.22 0 0 1-12.12 11.59 34.57 34.57 0 0 1-8 4 16.25 16.25 0 0 1-4.38.85 17.7 17.7 0 0 1-4.39-.23zM2603 1174.8c-3.85 3.67-15.21 1.55-17.28 9.88-1.64 6.62 9.16 11 10.92 16s9.12 40.63 54.61 53.25 68.5-17 70.46-18.42c1.16-.84 4-2.24 6.34-3.68 0 0 7.23-3.46 9-10.94s-3-14-3-14c-1.44-2.32-3.24-4.76-3.88-6-1.1-2.16-8.16-39-54.38-48.6s-68.93 18.79-72.77 22.46m84.56-108.96a111.68 111.68 0 0 0 11-9 74.87 74.87 0 0 0 6.53-6.78c2.31-2.41 4.15-5.41 6.38-8.25 1-1.49 1.84-3.13 2.8-4.71l1.4-2.41c.4-.84.72-1.73 1.09-2.59l2.16-5.25 1.34-5.55.75-2.75c.14-.94.19-1.89.3-2.83q.28-2.84.56-5.65c0-3.75-.46-7.46-.63-11.05-.88-3.5-1.57-6.93-2.27-10.2-.89-3.21-2.22-6.11-3.19-8.87l-1.47-4c-.51-1.24-1.15-2.34-1.66-3.42l-2.79-5.56-2.45-4.87.21-.14 2.77 4.69 3.18 5.39c.59 1 1.31 2.13 1.91 3.34l1.66 3.93c1.09 2.76 2.55 5.67 3.6 8.91l2.64 10.41c.25 3.71.81 7.55.82 11.46q-.24 2.93-.49 5.89c-.09 1-.14 2-.27 3l-.73 2.89-1.49 5.77-2.32 5.43c-.4.9-.74 1.81-1.18 2.68l-1.48 2.48c-1 1.63-1.91 3.3-3 4.83a82.62 82.62 0 0 1-6.81 8.27 76.89 76.89 0 0 1-6.92 6.64 91.24 91.24 0 0 1-11.6 8.42 51.54 51.54 0 0 1-4.74 2.67l-.11-.23a50.29 50.29 0 0 0 4.53-3m-61-66.33c-13.15 47.25 17.33 71.24 18.79 73.29.87 1.21 2.3 4.13 3.78 6.6 0 0 3.55 7.53 11.26 9.42s14.44-3.13 14.44-3.13c2.39-1.49 4.92-3.36 6.21-4 2.23-1.14 40.29-8.36 50.27-56.39s-19.17-71.7-23-75.71-1.55-15.81-10.14-18c-6.82-1.73-11.39 9.49-16.58 11.31s-41.93 9.37-55.07 56.61m-137.5-85.2a19.15 19.15 0 0 0 1.24 1.59 41.64 41.64 0 0 0 3.66 3.79 27.85 27.85 0 0 0 2.7 2.21c1 .79 2.12 1.38 3.23 2.12.58.33 1.21.59 1.82.89l.93.45c.32.12.66.21 1 .33l2 .64 2.08.33 1 .19h3.15c1.38-.1 2.73-.4 4.05-.58 1.26-.43 2.5-.8 3.68-1.15s2.18-1 3.17-1.46l1.41-.67c.44-.23.83-.5 1.21-.72l2-1.21 1.72-1.06.06.07-1.64 1.17-1.89 1.35c-.37.25-.74.55-1.17.81l-1.4.74c-1 .49-2 1.12-3.17 1.61l-3.75 1.3c-1.36.21-2.76.53-4.2.66h-3.29l-1.09-.18-2.17-.37-2.07-.69c-.34-.12-.69-.22-1-.35l-1-.48c-.63-.33-1.28-.61-1.87-1a30.94 30.94 0 0 1-3.26-2.27 28 28 0 0 1-2.66-2.37 33.78 33.78 0 0 1-3.46-4 19.22 19.22 0 0 1-1.13-1.68zm-4.8-.35c.49.79 4.33 14.7 22.32 16.92s25.82-9.33 27.18-10.86 5.77-1.07 6.31-4.32c.43-2.59-3.85-3.94-4.68-5.81s-4.74-15.28-22.55-18.7-25.71 8.63-26.41 9.24c-.42.36-1.45 1-2.32 1.6a6.93 6.93 0 0 0-3.12 4.47 7.13 7.13 0 0 0 1.6 5.26c.63.84 1.39 1.72 1.67 2.18M2829 848.89a55.27 55.27 0 0 1-1.48 9.25 77.34 77.34 0 0 1-4.25 12.54 99.74 99.74 0 0 1-7.36 13.38c-1.66 2-3.15 4.17-4.93 6a64.6 64.6 0 0 1-5.3 5.38 34.55 34.55 0 0 1-5.57 4.34 46.9 46.9 0 0 1-5.38 3.28 38.86 38.86 0 0 1-8.69 3.47c-2.15.63-3.39.92-3.39.92l-.11-.3 3.15-1.41 3.61-1.64 4.41-2.65a45.56 45.56 0 0 0 4.93-3.55 49 49 0 0 0 5.1-4.48 62.73 62.73 0 0 0 5-5.31c1.66-1.84 3-4 4.58-5.94a98 98 0 0 0 7.47-12.75 102 102 0 0 0 5-11.92 75.64 75.64 0 0 0 2.44-8.8c.26-1.08.3-1.9.41-2.47s0-.91 0-.91l.32-.05.17.89a18.48 18.48 0 0 1 0 2.72m-2.65-46.37c-3.42-1.28-7.33-2.4-9-3.21-2.93-1.39-40.49-34.82-97.43-7s-58 76.59-59.09 83.65-14.91 14.14-10.32 24.7c3.64 8.38 18.72 4.19 24.69 8.09s42.81 35.71 101.47 11.77 59-74.33 59.92-77.45c.55-1.85 2.39-5.64 3.74-9.12 0 0 4.87-9.62.68-19.05s-14.66-12.38-14.66-12.38m-332.83 232.56a21.91 21.91 0 0 0 5 .19 21.24 21.24 0 0 0 4.88-.93 31.82 31.82 0 0 0 8.79-4.67 60.89 60.89 0 0 0 13.59-14.62l.08-.12h.13c6.48-.46 11.86-5.23 15.2-10.62l.28.16a21 21 0 0 1-5.51 8.56 20.6 20.6 0 0 1-4.4 3.11 13.1 13.1 0 0 1-4 1.42 65.7 65.7 0 0 1-5.57 7.55 50.25 50.25 0 0 1-8.08 6.88 27.49 27.49 0 0 1-9.87 4.26 16.17 16.17 0 0 1-5.38.31 17 17 0 0 1-5.12-1.16zm-89.89-77.06c-4.14 4-16.38 1.67-18.61 10.65-1.77 7.13 9.87 11.87 11.77 17.29s9.83 43.77 58.83 57.37 73.79-18.31 75.9-19.84c1.25-.91 4.28-2.41 6.83-4 0 0 7.79-3.73 9.73-11.79s-3.28-15.08-3.28-15.08c-1.55-2.5-3.49-5.13-4.18-6.48-1.19-2.33-8.79-42.06-58.59-52.36s-74.26 20.24-78.4 24.19m-677.98 407.92a22.06 22.06 0 0 0 5 .19 21.17 21.17 0 0 0 4.88-.93 31.87 31.87 0 0 0 8.79-4.67 60.9 60.9 0 0 0 13.59-14.62l.08-.11h.13c6.48-.46 11.86-5.23 15.2-10.62l.28.16a21 21 0 0 1-5.51 8.56 20.61 20.61 0 0 1-4.4 3.11 13.1 13.1 0 0 1-4 1.42 66 66 0 0 1-5.57 7.55 50.4 50.4 0 0 1-8.08 6.88 27.44 27.44 0 0 1-9.87 4.26 16.34 16.34 0 0 1-5.38.31 17 17 0 0 1-5.12-1.16zm-96.78-49.12c1.89 5.42 9.83 43.77 58.83 57.37s73.79-18.31 75.9-19.84c1.25-.91 4.28-2.41 6.83-4 0 0 7.79-3.73 9.73-11.79s-3.28-15.08-3.28-15.08c-1.55-2.5-3.5-5.13-4.18-6.48-1.19-2.33-8.79-42.06-58.59-52.35s-74.26 20.24-78.4 24.19-16.38 1.67-18.61 10.65c-1.77 7.13 9.87 11.87 11.77 17.29m-989-150.13c4.46.29 8.64-1.89 12.13-4.52a53 53 0 0 0 9.4-9.32v-.06h.08a13.89 13.89 0 0 0 4.8-.6 6.2 6.2 0 0 0 3.68-2.93 9.12 9.12 0 0 0 1-4.71 16.88 16.88 0 0 0-.86-4.81l.15-.05a17.3 17.3 0 0 1 1.46 4.84 9.27 9.27 0 0 1-.75 5.29 7.09 7.09 0 0 1-4.21 3.71 13.93 13.93 0 0 1-4.59.78 45.11 45.11 0 0 1-9.38 9 26.78 26.78 0 0 1-6.16 3.09 12.7 12.7 0 0 1-3.4.66 13.67 13.67 0 0 1-3.4-.18zm-80.4-47.28c-1.27 5.12 7.1 8.54 8.46 12.43s7.07 31.47 42.3 41.24 53.05-13.16 54.57-14.26c.9-.65 3.07-1.73 4.91-2.85 0 0 5.6-2.68 7-8.48s-2.36-10.84-2.36-10.84c-1.12-1.8-2.51-3.69-3-4.66-.85-1.67-6.32-30.24-42.12-37.64s-53.36 14.56-56.36 17.4-11.78 1.2-13.38 7.66m-7.62-18.9a53.13 53.13 0 0 0 7.14-11.3 41.36 41.36 0 0 0 3.74-12.81 25.16 25.16 0 0 0 0-6.07h.16a20.88 20.88 0 0 1 .79 6.2 30.82 30.82 0 0 1-.83 6.4 44.82 44.82 0 0 1-2.41 7 56.73 56.73 0 0 1-3.75 6.34 40.76 40.76 0 0 1-4.11 4.88 30 30 0 0 1-3.34 3l-1.3 1.08-.11-.11s1.72-1.74 4-4.58m-66.86 28c4.08 3.34 10.71-2.82 14.8-2.4s31.37 7 55.17-20.89 10.7-53.8 10.35-55.65c-.2-1.09-.26-3.53-.48-5.67 0 0 0-6.23-4.66-10s-10.78-2.47-10.78-2.47c-2.09.25-4.39.72-5.47.75-1.87.06-29.95-7.12-51.85 22.26s-9.59 54.69-8.3 58.61-3.93 11.21 1.21 15.41m318.78 10.39a31.61 31.61 0 0 0 3.92-4.76 30.69 30.69 0 0 0 2.19-3.51 33.44 33.44 0 0 0 2-4.12 56.16 56.16 0 0 0 3.14-9.5 77.85 77.85 0 0 0 1.94-18.63 68 68 0 0 0-.6-8.51h.16a51.9 51.9 0 0 1 1.4 8.52 62.33 62.33 0 0 1 .09 8.89 72.5 72.5 0 0 1-1.42 10.14 57.93 57.93 0 0 1-3.43 9.69 25.23 25.23 0 0 1-2.29 4.15 31.52 31.52 0 0 1-2.43 3.46 26.33 26.33 0 0 1-4.41 4.49l-1.79 1.54-.11-.12 1.61-1.7M692 1145.69c.34 5.73-9.29 13.64-3.9 21.15 4.29 6 15.4.09 20.75 2.12s39.66 20.69 81.62-8.13 33.66-68.42 33.86-71c.12-1.55.92-4.84 1.39-7.79 0 0 2.19-8.38-2.7-15.07s-13.59-7.21-13.59-7.21c-2.9-.42-6.16-.63-7.63-1-2.54-.59-37.68-20.39-77.64 11.18s-32.49 70-32.15 75.75m1939.93-293.66a31.73 31.73 0 0 0 3.92-4.76 31 31 0 0 0 2.17-3.5 33.46 33.46 0 0 0 2-4.12 56.17 56.17 0 0 0 3.14-9.5 77.86 77.86 0 0 0 1.94-18.63 68 68 0 0 0-.6-8.51h.16a51.89 51.89 0 0 1 1.4 8.52 62.32 62.32 0 0 1 .09 8.89 73 73 0 0 1-1.42 10.14 57.91 57.91 0 0 1-3.43 9.69 25.36 25.36 0 0 1-2.29 4.15 31.52 31.52 0 0 1-2.43 3.46 26.33 26.33 0 0 1-4.41 4.49l-1.79 1.54-.11-.12 1.61-1.7m-111.88 6.9c.34 5.73-9.29 13.64-3.9 21.15 4.29 6 15.4.09 20.75 2.12s39.66 20.69 81.62-8.13 33.66-68.42 33.86-71c.12-1.54.92-4.84 1.39-7.79 0 0 2.19-8.38-2.7-15.07s-13.59-7.21-13.59-7.21c-2.9-.42-6.16-.63-7.63-1-2.54-.59-37.68-20.39-77.64 11.18s-32.49 70-32.15 75.75M358.07 518.51a20.41 20.41 0 0 1-4.37 3.1 13 13 0 0 1-4 1.41 65.54 65.54 0 0 1-5.54 7.5 49.81 49.81 0 0 1-8 6.84 27.25 27.25 0 0 1-9.81 4.24 16.24 16.24 0 0 1-5.35.31 16.85 16.85 0 0 1-5.09-1.16l.06-.32a21.92 21.92 0 0 0 4.94.19 21.26 21.26 0 0 0 4.85-.92 31.7 31.7 0 0 0 8.73-4.64A60.54 60.54 0 0 0 348 520.51l.08-.11h.13c6.44-.46 11.79-5.19 15.11-10.55l.28.16a20.84 20.84 0 0 1-5.47 8.51m4.66-26.68c-1.18-2.31-8.73-41.8-58.23-52s-73.8 20.12-77.92 24-16.34 1.67-18.56 10.59c-1.76 7.08 9.81 11.8 11.69 17.18s9.77 43.5 58.47 57 73.34-18.2 75.44-19.72c1.24-.9 4.25-2.4 6.79-3.94 0 0 7.75-3.7 9.67-11.71s-3.26-15-3.26-15c-1.54-2.48-3.47-5.1-4.15-6.44M220.16 718.39a7.09 7.09 0 0 1-4.21 3.71 13.92 13.92 0 0 1-4.59.78 45.11 45.11 0 0 1-9.38 9 26.78 26.78 0 0 1-6.16 3.09 12.7 12.7 0 0 1-3.4.66 13.67 13.67 0 0 1-3.4-.18v-.16c4.46.29 8.64-1.89 12.13-4.52a53.14 53.14 0 0 0 9.4-9.32v-.06h.08a13.89 13.89 0 0 0 4.8-.6 6.2 6.2 0 0 0 3.68-2.93 9.12 9.12 0 0 0 1-4.71 16.88 16.88 0 0 0-.86-4.81l.15-.05a17.31 17.31 0 0 1 1.46 4.84 9.28 9.28 0 0 1-.75 5.29m-41.69-55.47c-35.81-7.44-53.42 14.56-56.37 17.39s-11.78 1.2-13.38 7.66c-1.27 5.12 7.1 8.54 8.46 12.43s7.07 31.47 42.3 41.24 53.05-13.16 54.57-14.27c.9-.65 3.07-1.73 4.91-2.85 0 0 5.6-2.68 7-8.47s-2.36-10.84-2.36-10.84c-1.12-1.79-2.51-3.68-3-4.66-.85-1.67-6.32-30.24-42.12-37.64m110.04-49.16s1.77.35 4.46.63a39.27 39.27 0 0 0 9.88-.18 30.4 30.4 0 0 0 9.42-2.91 18.47 18.47 0 0 0 3.75-2.48l.08.09a15.31 15.31 0 0 1-3.5 3 22.34 22.34 0 0 1-4.28 2.1 32.81 32.81 0 0 1-5.28 1.38 42.06 42.06 0 0 1-5.44.26 29.9 29.9 0 0 1-4.69-.56 21.66 21.66 0 0 1-3.22-.85l-1.2-.37zm-32.62-21.27c1.41 2.71 8.53 22.34 35.43 25.74s37.54-15.34 38.53-16.31c.59-.58 2.07-1.6 3.3-2.62 0 0 3.83-2.57 4.23-7s-2.88-7.7-2.88-7.7c-1-1.2-2.24-2.44-2.7-3.1-.8-1.14-7.85-21.52-34.91-23.11s-37.63 16.4-39.52 18.8-8.51 2.15-9 7.05c-.39 3.9 6.12 5.51 7.53 8.21m-17.21 73.41l-1.51.1-3 .18-3-.28c-.5-.06-1-.08-1.48-.15l-1.43-.34c-.95-.24-1.89-.41-2.79-.69a41.36 41.36 0 0 1-5.06-2 39.32 39.32 0 0 1-4.28-2.33 46.06 46.06 0 0 1-5.87-4.32 25.33 25.33 0 0 1-2-1.88l.09-.09a25.48 25.48 0 0 0 2.14 1.74 57 57 0 0 0 6.06 3.91 38 38 0 0 0 4.29 2.11c1.52.75 3.26 1.17 5 1.81.88.25 1.8.41 2.71.62l1.38.3c.47.07.95.08 1.42.13l2.87.23 2.89-.22 1.45-.07c.48-.08.94-.2 1.42-.3l2.82-.61c1.82-.56 3.54-1.38 5.25-2 1.56-1 3.11-1.85 4.59-2.69s2.61-2 3.8-2.93l1.69-1.33c.52-.44 1-.92 1.4-1.34l2.26-2.22 2-2 .1.08-1.84 2.08-2.12 2.38c-.42.45-.83 1-1.32 1.45l-1.65 1.42c-1.17 1-2.35 2.12-3.75 3.14l-4.63 2.91c-1.76.7-3.53 1.57-5.42 2.19l-2.93.68c-.49.11-1 .24-1.48.33m31.24-18.13c1.36-2.46 7.41-3.22 7.14-7.73-.22-3.58-6.36-4.05-8-6.29s-11-18.9-35.91-17.91-31.8 19.53-32.56 20.56c-.45.61-1.64 1.76-2.61 2.86a9.54 9.54 0 0 0-2.82 6.93 9.7 9.7 0 0 0 3.75 6.53c1.09.93 2.38 1.87 2.9 2.39.9.9 10.28 18.26 35.06 15.62s31.73-20.5 33.09-23m96.89 39.8a62.59 62.59 0 0 1-1.21 8.64 49.14 49.14 0 0 1-2.93 8.26 21.56 21.56 0 0 1-2 3.54 26.73 26.73 0 0 1-2.07 3 22.56 22.56 0 0 1-3.76 3.82l-1.53 1.31-.09-.11 1.37-1.45a27 27 0 0 0 3.34-4.06 26.53 26.53 0 0 0 1.85-3 28.35 28.35 0 0 0 1.74-3.51 48 48 0 0 0 2.68-8.09 66.42 66.42 0 0 0 1.72-15.87 58.53 58.53 0 0 0-.51-7.25h.14a44.45 44.45 0 0 1 1.19 7.26 53.19 53.19 0 0 1 .08 7.57m5.25-14.78c.1-1.32.79-4.12 1.18-6.64 0 0 1.87-7.15-2.3-12.84s-11.59-6.14-11.59-6.14c-2.47-.36-5.25-.54-6.5-.83-2.16-.5-32.12-17.38-66.17 9.52s-27.69 59.65-27.4 64.55-7.92 11.63-3.33 18c3.65 5.07 13.13.07 17.68 1.81s33.8 17.64 69.56-6.93 28.69-58.31 28.86-60.53m-60.65 146.21a37.67 37.67 0 0 0 6.8-6.65 29 29 0 0 0 4.66-8.24 17.71 17.71 0 0 0 1-4.2h.05a14.55 14.55 0 0 1-.43 4.41 21.26 21.26 0 0 1-1.6 4.28 31.38 31.38 0 0 1-2.8 4.44 40.1 40.1 0 0 1-3.63 3.77 28.93 28.93 0 0 1-3.66 2.71 21.69 21.69 0 0 1-2.82 1.53l-1.08.54-.06-.1s1.48-.92 3.54-2.51m-51.25 8.56c2.33 3 7.95-.22 10.75.73s20.86 9.87 42-5.52S329 787.32 329 785.99c0-.79.38-2.48.57-4a9.87 9.87 0 0 0-1.68-7.63c-2.65-3.32-7.15-3.44-7.15-3.44-1.5-.16-3.19-.21-4-.36-1.32-.26-19.83-9.75-39.84 7s-15.42 36.22-15.13 39.14-4.53 7.11-1.61 10.84m-52.57 332.7l4.46 4.12 5.11 4.74c1 .93 2.08 1.85 3.11 3l3 3.67c2.05 2.6 4.54 5.23 6.68 8.36l6.15 10.27c1.45 3.89 3.27 7.81 4.53 12l1.36 6.46c.21 1.08.48 2.16.65 3.25l.14 3.33.25 6.65-.75 6.55c-.14 1.08-.22 2.17-.4 3.24l-.8 3.13c-.56 2.07-1 4.14-1.63 6.11-1.54 3.86-2.76 7.7-4.63 11a85.64 85.64 0 0 1-5.27 9.32 102.1 102.1 0 0 1-9.71 12.73 57.92 57.92 0 0 1-4.21 4.38l-.19-.2a57.23 57.23 0 0 0 3.89-4.64 125.16 125.16 0 0 0 8.83-13.17 84.19 84.19 0 0 0 4.81-9.34c1.7-3.32 2.71-7.12 4.19-10.86.59-1.92 1-3.93 1.48-5.94l.73-3c.16-1 .22-2.07.34-3.11q.31-3.13.63-6.3l-.34-6.48-.08-3.18c-.15-1-.4-2.08-.59-3.12l-1.21-6.21c-1.15-4-2.87-7.82-4.2-11.61-2.06-3.46-3.89-6.9-5.68-10.17-2-3.14-4.32-5.81-6.24-8.45l-2.83-3.76c-.94-1.16-2-2.14-2.87-3.12l-4.76-5-4.17-4.42zm-28.13 146.48c1.31 1 3.77 3.68 6.14 5.84 0 0 6.19 6.9 15 6.44s11.44-16 11.44-16c2.08-2.37 4.18-5.17 5.35-6.29 2-1.93 40.38-21.9 35.72-76.42s-43.37-70.44-48.68-73.51-3.71-8.36-13.59-7.93c-7.84.35-9.14 13.81-14.11 17.41s-41.73 23.49-40.73 78.2 41.26 70.55 43.47 72.26m62.36-554.21a16.93 16.93 0 0 1 4.57 2 9 9 0 0 1 3.51 3.9 7 7 0 0 1 .14 5.54 13.8 13.8 0 0 1-2.3 4 44.54 44.54 0 0 1 .85 12.78 26.53 26.53 0 0 1-1.55 6.63 12.61 12.61 0 0 1-1.64 3 13.6 13.6 0 0 1-2.28 2.47l-.11-.11c3-3.2 4-7.76 4.23-12.06a52.49 52.49 0 0 0-1.1-13v-.13a13.85 13.85 0 0 0 2.57-4 6.16 6.16 0 0 0 .11-4.65 9 9 0 0 0-2.92-3.72 16.48 16.48 0 0 0-4.17-2.37zm11 16.2c.07-1.09.63-3.43.95-5.52 0 0 1.51-5.94-2-10.65s-9.66-5-9.66-5c-2.06-.28-4.36-.41-5.4-.65-1.8-.41-26.77-14.26-54.9 8.28s-22.67 49.72-22.4 53.77-6.51 9.7-2.66 15c3.06 4.2 10.9 0 14.7 1.41s28.17 14.46 57.73-6.14 23.51-48.59 23.63-50.44M348 956.06a22.09 22.09 0 0 0 5 .19 21.22 21.22 0 0 0 4.88-.93 31.9 31.9 0 0 0 8.79-4.67 60.9 60.9 0 0 0 13.59-14.62l.08-.11h.13c6.48-.46 11.86-5.23 15.2-10.62l.28.16a21 21 0 0 1-5.51 8.56 20.61 20.61 0 0 1-4.4 3.11 13.1 13.1 0 0 1-4 1.42 66 66 0 0 1-5.57 7.55 50.26 50.26 0 0 1-8.08 6.88 27.44 27.44 0 0 1-9.87 4.26 16.25 16.25 0 0 1-5.38.31 17 17 0 0 1-5.12-1.16zm-96.73-49.13c1.89 5.42 9.83 43.77 58.83 57.37s73.79-18.31 75.9-19.84c1.25-.91 4.28-2.41 6.83-4 0 0 7.79-3.73 9.73-11.79s-3.28-15.08-3.28-15.08c-1.55-2.5-3.5-5.13-4.18-6.48-1.19-2.33-8.79-42.06-58.59-52.35s-74.26 20.24-78.4 24.19-16.38 1.67-18.61 10.65c-1.77 7.13 9.87 11.87 11.77 17.29m147.87-68.86v-.11c2.95-1.41 4.84-4.3 6.13-7.22a39 39 0 0 0 2.69-9.31v-.06a10.22 10.22 0 0 0 2.85-2.1 4.54 4.54 0 0 0 1.31-3.19 6.64 6.64 0 0 0-1-3.36 12.41 12.41 0 0 0-2.26-2.76l.08-.09a12.68 12.68 0 0 1 2.65 2.56 6.76 6.76 0 0 1 1.4 3.64 5.2 5.2 0 0 1-1.37 3.87 10.25 10.25 0 0 1-2.65 2.12 33.06 33.06 0 0 1-2.81 9.1 19.59 19.59 0 0 1-2.83 4.18 9.39 9.39 0 0 1-1.93 1.63 10 10 0 0 1-2.23 1.1m13.09-14.06c.34-.74 1.34-2.21 2.12-3.57a10.25 10.25 0 0 0 1.42-7.89c-1.17-4.2-5.35-6.07-5.35-6.07-1.35-.75-2.91-1.46-3.57-1.89-1.14-.76-14.77-17-40.23-8.94s-28.89 28.39-29.78 31.27-7.09 5-5.82 9.67c1 3.72 7.56 2.9 9.81 4.9s15.68 17.55 41.63 11.17 29.17-27.38 29.75-28.63m98.04 44.21l-1.88 1.68-3.76 3.34-4.2 2.7c-.7.44-1.37.92-2.09 1.32l-2.21 1c-1.48.66-2.9 1.41-4.36 2a69.61 69.61 0 0 1-8.67 2.55 64.39 64.39 0 0 1-8 1.36 76.63 76.63 0 0 1-12.1.38 43.56 43.56 0 0 1-4.58-.38v-.21a42.64 42.64 0 0 0 4.58.07 94 94 0 0 0 11.94-1.11 63.14 63.14 0 0 0 7.77-1.65c2.76-.59 5.46-1.82 8.37-2.74 1.41-.57 2.77-1.31 4.18-2l2.12-1c.68-.39 1.32-.86 2-1.29l4-2.65 3.56-3.25 1.83-1.58c.54-.59 1-1.23 1.54-1.84l3.05-3.69c1.8-2.61 3.2-5.44 4.78-8 1-2.87 2.17-5.6 3.23-8.22.89-2.67 1.33-5.33 2-7.73q.44-1.82.84-3.47c.23-1.11.3-2.19.45-3.19.26-2 .49-3.78.67-5.23.37-2.91.59-4.58.59-4.58h.21s-.1 1.68-.28 4.6c-.09 1.47-.2 3.25-.32 5.29-.08 1-.09 2.11-.24 3.25l-.69 3.55c-.54 2.46-.89 5.18-1.68 7.95l-3.06 8.55c-1.58 2.72-3 5.68-4.83 8.42l-3.13 3.89c-.53.65-1 1.32-1.59 1.95m22.2-55.75c-.75-4.6 6.37-11.82 1.38-17.43-4-4.46-12.46 1.23-17 0s-33.79-13.38-65.3 13.46-21.49 58.16-21.43 60.28c0 1.26-.34 4-.47 6.42 0 0-1.07 7 3.44 12s11.59 4.68 11.59 4.68c2.38.09 5 0 6.25.14 2.1.27 32.17 13.31 61.83-15.59s20.41-59.35 19.65-64m-202.21 456.58a39.15 39.15 0 0 0 7.57-6.38 30.57 30.57 0 0 0 5.5-8.21 18.55 18.55 0 0 0 1.36-4.3h.12a15.49 15.49 0 0 1-.82 4.56 22.59 22.59 0 0 1-2 4.34 33.1 33.1 0 0 1-3.26 4.41 41.86 41.86 0 0 1-4.07 3.64 30.17 30.17 0 0 1-4 2.53 22.08 22.08 0 0 1-3 1.37l-1.16.47-.06-.11s1.6-.85 3.86-2.33m-53.52 4.8c2.14 3.28 8.2.41 11 1.63s20.63 12 43.67-2.37 19.56-35.63 19.73-37c.1-.82.61-2.55.93-4.12 0 0 1.37-4.41-1.08-8.09s-7.07-4.17-7.07-4.17c-1.54-.29-3.26-.48-4-.7-1.34-.38-19.59-11.77-41.62 4.09s-19 36.52-18.93 39.58-5.28 7-2.58 11.17m197.75-261.57a26.83 26.83 0 0 0 3.34-4.06 26.19 26.19 0 0 0 1.85-3 28.57 28.57 0 0 0 1.74-3.51 48 48 0 0 0 2.68-8.09 66.41 66.41 0 0 0 1.66-15.88 58.62 58.62 0 0 0-.51-7.26h.14a44.45 44.45 0 0 1 1.19 7.26 53.2 53.2 0 0 1 .08 7.57 62.12 62.12 0 0 1-1.21 8.64 49 49 0 0 1-2.93 8.26 21.43 21.43 0 0 1-2 3.54 26.73 26.73 0 0 1-2.07 3 22.56 22.56 0 0 1-3.76 3.82l-1.53 1.31-.09-.1 1.37-1.45m-95.35 5.88c.29 4.88-7.92 11.63-3.33 18 3.65 5.07 13.13.07 17.68 1.81s33.8 17.64 69.56-6.93 28.74-58.33 28.92-60.57c.1-1.32.79-4.12 1.18-6.64 0 0 1.87-7.14-2.3-12.84s-11.59-6.14-11.59-6.14c-2.47-.36-5.25-.54-6.5-.83-2.16-.5-32.12-17.38-66.17 9.52s-27.69 59.68-27.4 64.56m-106.49 95.37l3.93-.47 5-1.19a44.9 44.9 0 0 0 5.77-1.89 48.67 48.67 0 0 0 6.21-2.72 62.43 62.43 0 0 0 6.32-3.56c2.13-1.25 4.08-2.86 6.15-4.28a97.61 97.61 0 0 0 11-9.89 101.85 101.85 0 0 0 8.32-9.86 76 76 0 0 0 5-7.65c.58-1 .86-1.72 1.14-2.23l.25-.87h.32s0 .31-.1.9a17.61 17.61 0 0 1-.85 2.58 54.82 54.82 0 0 1-4.19 8.37 76.91 76.91 0 0 1-7.83 10.67 99.21 99.21 0 0 1-11 10.52c-2.19 1.42-4.26 3-6.51 4.27a65.31 65.31 0 0 1-6.68 3.52 34.31 34.31 0 0 1-6.61 2.45 46.44 46.44 0 0 1-6.12 1.5 38.48 38.48 0 0 1-9.33.67c-2.25 0-3.51-.15-3.51-.15v-.33l3.43-.39m-106.26-30.64c4.51 5.53 30.07 47 93.2 42s78.59-53 80.41-55.68c1.08-1.6 4-4.65 6.31-7.55 0 0 7.54-7.7 6.38-18s-10.24-16.24-10.24-16.24c-2.88-2.26-6.26-4.51-7.64-5.79-2.37-2.22-28.13-45.47-90.78-36.22s-78.32 55.44-81.49 61.84-18.46 9-17.26 20.42c1 9.1 16.59 9.67 21.11 15.2m-9.23-596.87l1.86-1.44c.36-.26.73-.57 1.15-.84l1.38-.77c1-.52 2-1.17 3.13-1.69l3.72-1.4c1.36-.24 2.74-.6 4.18-.76l2.19-.06h1.1l1.09.15 2.18.32 2.09.64c.34.11.69.2 1 .33l1 .45c.64.31 1.29.58 1.89.91a30.05 30.05 0 0 1 3.31 2.19 28.34 28.34 0 0 1 2.72 2.3 33.91 33.91 0 0 1 3.56 4 18.7 18.7 0 0 1 1.17 1.65h-.08a19.21 19.21 0 0 0-1.28-1.56 42.22 42.22 0 0 0-3.71-3.66 28.07 28.07 0 0 0-2.75-2.14c-1-.76-2.15-1.32-3.29-2-.59-.31-1.22-.56-1.85-.85l-.94-.42c-.33-.12-.66-.2-1-.3l-2-.59-2.17-.31-1-.17h-3.15c-1.38.13-2.72.47-4 .67-1.25.47-2.49.86-3.66 1.25s-2.19 1.1-3.19 1.57l-1.4.7c-.43.24-.81.52-1.19.75l-1.94 1.26-1.69 1.11-.06-.07 1.61-1.21m-7.55 11.55c.88 1.85 5.12 15.15 23 18.13s25.48-9.27 26.18-9.9c.41-.37 1.43-1 2.27-1.66a6.94 6.94 0 0 0 3-4.55 7.13 7.13 0 0 0-1.73-5.22c-.64-.83-1.43-1.68-1.72-2.14-.51-.78-4.69-14.59-22.74-16.36s-25.58 10-26.9 11.53-5.75 1.21-6.2 4.48c-.36 2.59 3.94 3.84 4.82 5.69m3.99 141.2l3.61-1.64 4.41-2.65a45.19 45.19 0 0 0 4.93-3.55 48.34 48.34 0 0 0 5.1-4.48 61.78 61.78 0 0 0 5-5.31c1.66-1.84 3-4 4.58-5.94a98.31 98.31 0 0 0 7.47-12.75 101.89 101.89 0 0 0 5-11.92 76.6 76.6 0 0 0 2.44-8.8c.26-1.09.3-1.9.41-2.47s0-.91 0-.91l.32-.06.17.89a17.63 17.63 0 0 1 0 2.72 55.16 55.16 0 0 1-1.47 9.25 77.53 77.53 0 0 1-4.26 12.54 99.38 99.38 0 0 1-7.46 13.36c-1.66 2-3.15 4.17-4.93 6a65.07 65.07 0 0 1-5.3 5.38 34.47 34.47 0 0 1-5.57 4.34 46.66 46.66 0 0 1-5.38 3.28 38.86 38.86 0 0 1-8.72 3.52c-2.16.63-3.39.92-3.39.92l-.11-.3 3.16-1.41m-65.7-113.49c-56.94 27.81-55 84.62-56.09 91.68s-14.91 14.14-10.32 24.7c3.64 8.39 18.73 4.2 24.69 8.09s39.82 27.69 98.48 3.75 59-74.33 59.92-77.45c.55-1.85 2.4-5.64 3.74-9.12 0 0 4.87-9.62.68-19.05s-14.65-12.38-14.65-12.38c-3.42-1.28-7.33-2.4-9-3.21-2.93-1.39-40.49-34.82-97.43-7m116.55 386.82a43 43 0 0 1-6.94 5.91 23.62 23.62 0 0 1-8.48 3.67 14 14 0 0 1-4.63.27 14.41 14.41 0 0 1-4.4-1l.05-.27a19.15 19.15 0 0 0 4.27.16 18.33 18.33 0 0 0 4.2-.8 27.45 27.45 0 0 0 7.55-4 52.41 52.41 0 0 0 11.68-12.57l.07-.1h.11c5.57-.4 10.2-4.49 13.07-9.13l.24.14a18 18 0 0 1-4.74 7.36 17.65 17.65 0 0 1-3.78 2.68 11.16 11.16 0 0 1-3.44 1.16 57 57 0 0 1-4.83 6.55m8.26-1.4c1.07-.78 3.68-2.07 5.87-3.41 0 0 6.7-3.2 8.36-10.13s-2.82-13-2.82-13c-1.34-2.15-3-4.41-3.59-5.57-1-2-7.55-36.16-50.36-45s-63.83 17.4-67.39 20.8-14.08 1.44-16 9.15c-1.52 6.13 8.48 10.21 10.11 14.86s8.45 37.63 50.58 49.32 63.43-15.74 65.25-17.05m102.61-514.78a53 53 0 0 0 7.14-11.3 41.36 41.36 0 0 0 3.74-12.81 25.16 25.16 0 0 0 0-6.07h.16a20.89 20.89 0 0 1 .79 6.2 30.83 30.83 0 0 1-.83 6.4 44.82 44.82 0 0 1-2.41 7 56.74 56.74 0 0 1-3.75 6.34 40.76 40.76 0 0 1-4.11 4.88 30.23 30.23 0 0 1-3.35 3l-1.3 1.08-.12-.11s1.72-1.74 4-4.58m-66.86 28c4.08 3.33 10.71-2.82 14.8-2.4s31.37 7 55.17-20.89 10.7-53.8 10.35-55.65c-.2-1.1-.26-3.53-.48-5.67 0 0 0-6.23-4.66-10s-10.77-2.47-10.77-2.47c-2.1.25-4.39.71-5.48.75-1.87.06-29.95-7.12-51.85 22.26s-9.59 54.69-8.29 58.61-3.93 11.21 1.21 15.42m171.18 802.89a25.48 25.48 0 0 0 2.76 0 57 57 0 0 0 7.19-.67 38 38 0 0 0 4.68-1c1.66-.36 3.29-1.09 5-1.65.85-.34 1.67-.79 2.52-1.19l1.28-.62c.41-.24.8-.52 1.2-.78l2.4-1.59 2.14-2 1.1-1c.33-.36.62-.74.93-1.11l1.84-2.22c1.08-1.57 1.93-3.27 2.88-4.84.62-1.73 1.3-3.37 1.94-5s.8-3.21 1.18-4.65c.17-.73.34-1.42.5-2.09s.18-1.32.27-1.92c.16-1.21.29-2.27.4-3.15.23-1.76.35-2.76.35-2.76h.13s-.06 1-.16 2.77c-.06.88-.12 2-.19 3.18 0 .61-.05 1.27-.15 2l-.41 2.13c-.33 1.48-.53 3.12-1 4.78l-1.85 5.15c-1 1.63-1.8 3.42-2.91 5.07l-1.88 2.34c-.32.39-.62.8-1 1.17l-1.13 1-2.27 2-2.52 1.63c-.42.26-.83.55-1.26.79l-1.33.62c-.89.4-1.74.85-2.62 1.19a41.83 41.83 0 0 1-5.22 1.54 38.78 38.78 0 0 1-4.81.82 46.06 46.06 0 0 1-7.29.23 25.35 25.35 0 0 1-2.76-.23zm-17.31-5.25a9.54 9.54 0 0 0 2.07 7.19 9.7 9.7 0 0 0 7 2.82c1.43.06 3 0 3.76.09 1.26.16 19.37 8 37.22-9.38s12.28-35.72 11.83-38.49 3.84-7.11.83-10.49c-2.38-2.68-7.5.74-10.21 0s-20.34-8.06-39.3 8.1-12.93 35-12.9 36.28c0 .76-.21 2.4-.28 3.86m53.19 108.92c4.46.29 8.64-1.89 12.13-4.52a53 53 0 0 0 9.4-9.32v-.06h.08a13.89 13.89 0 0 0 4.8-.6 6.2 6.2 0 0 0 3.68-2.93 9.12 9.12 0 0 0 1-4.71 16.88 16.88 0 0 0-.86-4.81l.15-.05a17.3 17.3 0 0 1 1.46 4.84 9.27 9.27 0 0 1-.75 5.29 7.09 7.09 0 0 1-4.21 3.71 13.93 13.93 0 0 1-4.59.78 45.11 45.11 0 0 1-9.38 9 26.78 26.78 0 0 1-6.16 3.09 12.7 12.7 0 0 1-3.4.66 13.67 13.67 0 0 1-3.4-.18zm-80.36-47.28c-1.27 5.12 7.1 8.54 8.46 12.43s7.07 31.47 42.3 41.24 53.05-13.16 54.57-14.26c.9-.65 3.07-1.73 4.91-2.85 0 0 5.6-2.68 7-8.48s-2.36-10.84-2.36-10.84c-1.12-1.8-2.51-3.69-3-4.66-.85-1.67-6.32-30.24-42.12-37.64s-53.38 14.55-56.36 17.39-11.78 1.2-13.38 7.66m24.03-141.24a53.13 53.13 0 0 0 7.14-11.3 41.36 41.36 0 0 0 3.74-12.81 25.16 25.16 0 0 0 0-6.07h.16a20.88 20.88 0 0 1 .79 6.2 30.82 30.82 0 0 1-.83 6.4 44.82 44.82 0 0 1-2.41 7 56.73 56.73 0 0 1-3.75 6.34 40.76 40.76 0 0 1-4.11 4.88 30 30 0 0 1-3.34 3l-1.3 1.08-.11-.11s1.72-1.74 4-4.58m-66.86 28c4.08 3.34 10.71-2.82 14.8-2.4s31.37 7 55.17-20.89 10.7-53.8 10.35-55.65c-.2-1.09-.26-3.53-.48-5.67 0 0 0-6.23-4.66-10s-10.78-2.47-10.78-2.47c-2.09.25-4.39.72-5.47.75-1.87.06-29.95-7.12-51.85 22.26s-9.59 54.69-8.3 58.61-3.93 11.21 1.21 15.41M180.15 455.78a23.69 23.69 0 0 0 2.39.14 59.42 59.42 0 0 0 6.47-.24c1.36-.14 2.82-.28 4.39-.59s3.21-.72 4.91-1.09c.85-.24 1.7-.55 2.57-.82l1.31-.43c.43-.17.86-.37 1.29-.56l2.6-1.14 2.49-1.43 1.26-.69c.4-.26.77-.55 1.16-.83l2.31-1.65c1.44-1.18 2.72-2.46 4-3.64 1.09-1.32 2.21-2.56 3.26-3.76s1.71-2.46 2.5-3.56l1.11-1.6c.33-.51.58-1 .84-1.48l1.35-2.42 1.18-2.12h.11l-1 2.14-1.18 2.46c-.24.47-.45 1-.75 1.51l-1 1.64c-.75 1.13-1.45 2.4-2.4 3.67l-3.24 3.92c-1.35 1.23-2.65 2.58-4.14 3.81l-2.38 1.75c-.4.29-.79.59-1.2.87l-1.31.74-2.61 1.47-2.72 1.16c-.45.19-.89.39-1.34.56l-1.36.43c-.9.28-1.79.59-2.66.82a51.16 51.16 0 0 1-5 1 43.81 43.81 0 0 1-4.45.45 46.34 46.34 0 0 1-6.42-.1 23.19 23.19 0 0 1-2.33-.28zm-38.75-14.5c2.27 2.8 15.08 23.81 47 21.4s39.8-26.57 40.72-27.93c.55-.81 2-2.34 3.2-3.8 0 0 3.82-3.87 3.26-9.05s-5.13-8.22-5.13-8.22c-1.45-1.15-3.15-2.29-3.84-2.94-1.2-1.12-14.1-23-45.75-18.48s-39.66 27.81-41.28 31-9.38 4.51-8.8 10.25c.46 4.59 8.35 4.92 10.62 7.72M2735 625.66c-.07 4.08-2.37 7.71-5 10.68a48.22 48.22 0 0 1-9.19 7.83h-.06v.07a12.73 12.73 0 0 1-.91 4.32 5.62 5.62 0 0 1-2.95 3.12 8.37 8.37 0 0 1-4.36.54 15.48 15.48 0 0 1-4.31-1.16l-.06.14a16 16 0 0 0 4.3 1.71 8.45 8.45 0 0 0 4.87-.27 6.43 6.43 0 0 0 3.69-3.54 12.67 12.67 0 0 0 1.05-4.11 41 41 0 0 0 8.87-7.84 24.38 24.38 0 0 0 3.28-5.36 11.56 11.56 0 0 0 .86-3 12.61 12.61 0 0 0 .09-3.1zm8-26.42c6.26 32.8-16 47.23-17.08 48.52-.66.77-1.81 2.66-3 4.24 0 0-2.86 4.88-8.24 5.7s-9.69-3-9.69-3c-1.55-1.16-3.17-2.57-4-3.09-1.46-.9-27.05-8.09-31.1-41.23s17.29-47.41 20.11-49.87 2-10.62 8-11.57c4.76-.76 7.24 7.12 10.68 8.66s28.12 8.87 34.37 41.67" class="4c656344-f7b2-4e94-bb09-54d0f5cbdaf2"/>
    <path d="M2605.52 760.7a20.71 20.71 0 0 0 5.11-1.75 13.05 13.05 0 0 0 3.45-2.46 66 66 0 0 0 9.48-.11 50.63 50.63 0 0 0 10.33-2.53 27.61 27.61 0 0 0 9.25-5.52 16.3 16.3 0 0 0 3.41-4.19 16.91 16.91 0 0 0 2.05-4.83l-.3-.14a22 22 0 0 1-2.76 4.14 21.22 21.22 0 0 1-3.61 3.41 32 32 0 0 1-8.95 4.4 61.21 61.21 0 0 1-19.86 2.49h-.12l-.08.1c-4.17 5-11.2 6.57-17.54 6.13v.32a21.07 21.07 0 0 0 10.19.53m-21.76-4.7c-1.12-2.72-2.13-5.82-2.83-7.17-1.2-2.32-29.08-31.68-8.3-78.08s59.95-48.42 65.59-49.48 11-12.31 19.56-8.88c6.84 2.72 3.88 14.93 7.18 19.63s29.86 33.52 12.24 81.21-58.11 49.17-60.59 50c-1.47.48-4.46 2.06-7.22 3.23 0 0-7.6 4.15-15.29 1s-10.35-11.46-10.35-11.46m-1088.31 721.62c4.46.29 8.64-1.89 12.12-4.52a52.94 52.94 0 0 0 9.4-9.32v-.06h.08a14 14 0 0 0 4.8-.6 6.2 6.2 0 0 0 3.68-2.94 9.12 9.12 0 0 0 1-4.71 17 17 0 0 0-.86-4.81l.15-.05a17.3 17.3 0 0 1 1.46 4.84 9.26 9.26 0 0 1-.75 5.29 7.07 7.07 0 0 1-4.21 3.71 13.94 13.94 0 0 1-4.59.78 45 45 0 0 1-9.39 9 26.76 26.76 0 0 1-6.16 3.09 12.6 12.6 0 0 1-3.4.66 13.66 13.66 0 0 1-3.4-.18zm-71.9-34.85c1.36 3.89 7.07 31.47 42.3 41.24s53.05-13.16 54.57-14.26c.9-.65 3.07-1.74 4.91-2.85 0 0 5.6-2.68 7-8.47s-2.36-10.84-2.36-10.84c-1.12-1.8-2.51-3.69-3-4.66-.85-1.68-6.32-30.24-42.12-37.64s-53.38 14.55-56.36 17.39-11.78 1.2-13.38 7.66c-1.27 5.12 7.1 8.54 8.46 12.43m747.59 26.9c4.46.29 8.64-1.89 12.12-4.52a53.16 53.16 0 0 0 9.4-9.32v-.06h.08a13.89 13.89 0 0 0 4.8-.6 6.17 6.17 0 0 0 3.68-2.94 9.14 9.14 0 0 0 1-4.7 17 17 0 0 0-.87-4.81l.15-.05a17.4 17.4 0 0 1 1.46 4.84 9.25 9.25 0 0 1-.75 5.29 7.07 7.07 0 0 1-4.21 3.71 13.88 13.88 0 0 1-4.59.78 45.2 45.2 0 0 1-9.39 9 26.78 26.78 0 0 1-6.16 3.09 12.7 12.7 0 0 1-3.4.66 13.67 13.67 0 0 1-3.4-.18zm-29.6 6.4c35.23 9.77 53.05-13.16 54.57-14.26.9-.65 3.07-1.73 4.91-2.85 0 0 5.6-2.68 7-8.47s-2.36-10.84-2.36-10.84c-1.11-1.8-2.51-3.69-3-4.66-.85-1.67-6.32-30.24-42.12-37.64s-53.38 14.55-56.36 17.39-11.78 1.2-13.38 7.66c-1.27 5.12 7.1 8.54 8.46 12.43s7.07 31.47 42.3 41.24m493.84 2.58c3.87 1.29 8.06.33 11.74-1.19a48.24 48.24 0 0 0 10.43-6.06h.13a12.75 12.75 0 0 0 4.37.58 5.62 5.62 0 0 0 3.92-1.74 8.35 8.35 0 0 0 2-3.92 15.42 15.42 0 0 0 .34-4.45h.15a15.92 15.92 0 0 1 .18 4.61 8.42 8.42 0 0 1-1.88 4.49 6.43 6.43 0 0 1-4.57 2.3 12.7 12.7 0 0 1-4.23-.37 41.05 41.05 0 0 1-10.34 5.76 24.42 24.42 0 0 1-6.15 1.31 11.58 11.58 0 0 1-3.15-.2 12.63 12.63 0 0 1-3-.94zm-27.59-1.19c28.86 16.77 49.85.63 51.44 0 .94-.37 3.11-.82 5-1.38 0 0 5.56-1.07 8.12-5.87s.4-10.11.4-10.11c-.58-1.84-1.37-3.83-1.59-4.81-.37-1.67 1.36-28.15-28.55-43s-50.46.51-53.74 2.33-10.67-1.66-13.56 3.67c-2.3 4.23 4.31 9.17 4.62 12.92s-1 29.41 27.88 46.18m-119.98 23.69l3.73-1.7 4.56-2.75a46.35 46.35 0 0 0 5.11-3.68 50.38 50.38 0 0 0 5.28-4.64 64.3 64.3 0 0 0 5.13-5.5c1.72-1.9 3.14-4.1 4.74-6.15a101.53 101.53 0 0 0 7.74-13.2 105.3 105.3 0 0 0 5.14-12.34 78.43 78.43 0 0 0 2.53-9.11c.27-1.12.31-2 .43-2.56s0-.94 0-.94l.33-.06.18.92a18.55 18.55 0 0 1 0 2.81 57.06 57.06 0 0 1-1.53 9.57 80.09 80.09 0 0 1-4.41 13 103.28 103.28 0 0 1-7.62 13.85c-1.72 2.1-3.26 4.32-5.11 6.26a67.27 67.27 0 0 1-5.49 5.57 35.73 35.73 0 0 1-5.77 4.5 49.24 49.24 0 0 1-5.57 3.4 40.31 40.31 0 0 1-9 3.59c-2.23.66-3.51 1-3.51 1l-.11-.32 3.26-1.46m-139.9-5.31c3.77 8.68 19.39 4.34 25.57 8.38s44.33 37 105.08 12.19 61.09-77 62-80.2c.57-1.92 2.48-5.84 3.88-9.44 0 0 5-10 .71-19.73s-15.16-12.82-15.16-12.82c-3.55-1.32-7.59-2.48-9.35-3.32-3-1.44-41.93-36.06-100.89-7.26s-60.05 79.31-61.19 86.62-15.44 14.64-10.68 25.58m-1184.46 5.36a22.09 22.09 0 0 0 5 .19 21.22 21.22 0 0 0 4.88-.93 31.9 31.9 0 0 0 8.79-4.67 60.9 60.9 0 0 0 13.59-14.62l.08-.11h.13c6.48-.46 11.86-5.23 15.2-10.62l.28.16a21 21 0 0 1-5.51 8.56 20.61 20.61 0 0 1-4.4 3.11 13.1 13.1 0 0 1-4 1.42 66 66 0 0 1-5.57 7.55 50.26 50.26 0 0 1-8.08 6.88 27.44 27.44 0 0 1-9.87 4.26 16.25 16.25 0 0 1-5.38.31 17 17 0 0 1-5.12-1.16zm-96.73-49.13c1.89 5.42 9.83 43.77 58.83 57.37s73.79-18.31 75.9-19.84c1.25-.91 4.28-2.41 6.83-4 0 0 7.79-3.73 9.73-11.79s-3.28-15.08-3.28-15.08c-1.55-2.5-3.5-5.13-4.18-6.48-1.19-2.33-8.79-42.06-58.59-52.35s-74.26 20.24-78.4 24.19-16.38 1.67-18.61 10.65c-1.77 7.13 9.87 11.87 11.77 17.29m302.55 65.26l4.56-2.59c.87-.52 1.84-1 2.77-1.63l2.88-2.09c2-1.49 4.26-2.9 6.39-4.74s4.11-4.06 6.37-6.11c1.8-2.45 3.89-4.82 5.61-7.48l2.25-4.23c.37-.71.78-1.41 1.11-2.13l.76-2.29 1.65-4.54.94-4.71c.15-.78.34-1.55.44-2.33l.14-2.36c.07-1.56.24-3.11.24-4.63-.24-3-.13-6-.63-8.81a63.7 63.7 0 0 0-1.42-7.85 95.64 95.64 0 0 0-3.49-11.52 43.39 43.39 0 0 0-1.8-4.23l.19-.11a43.59 43.59 0 0 1 2.08 4.11 77.51 77.51 0 0 1 4.22 11.4 65.06 65.06 0 0 1 1.76 7.93 70.11 70.11 0 0 1 .92 9c0 1.57-.12 3.18-.17 4.8l-.11 2.45c-.1.81-.28 1.62-.42 2.44l-.91 4.92-1.65 4.76-.84 2.38c-.37.76-.8 1.48-1.19 2.21l-2.41 4.38c-1.83 2.74-4 5.18-5.94 7.67l-6.73 6.08c-2.25 1.79-4.64 3.14-6.7 4.57l-3 2c-1 .57-2 1-2.91 1.45l-4.76 2.29-4.14 2-.08-.2 4-2.28m-45.44-58.64c-5.88 41.07 20 59.5 23.38 62.68s2.15 13.26 9.51 14.64c5.85 1.1 9.11-8.62 13.39-10.43s34.9-10.14 43.49-50.73-18.4-59.21-19.74-60.86c-.8-1-2.16-3.37-3.54-5.37 0 0-3.39-6.16-10-7.35s-12 3.41-12 3.41c-1.94 1.39-4 3.09-5 3.72-1.82 1.08-33.57 9.21-39.45 50.28m641.14-12.62l2.91.49 3.34.54 4.39.2a38.11 38.11 0 0 0 5.19-.19 41.42 41.42 0 0 0 5.74-.77 52.93 52.93 0 0 0 6-1.43c2-.52 4-1.38 6.07-2.06a83.53 83.53 0 0 0 11.34-5.53 87.1 87.1 0 0 0 9.16-6.14 64.7 64.7 0 0 0 5.89-5.11c.7-.65 1.11-1.21 1.46-1.57l.41-.66.25.11-.29.71a14.92 14.92 0 0 1-1.3 1.92 47.16 47.16 0 0 1-5.41 5.89 65.7 65.7 0 0 1-8.95 6.91 84.74 84.74 0 0 1-11.55 6c-2.14.65-4.21 1.48-6.36 2a55.51 55.51 0 0 1-6.32 1.31 29.47 29.47 0 0 1-6 .45 39.8 39.8 0 0 1-5.38-.22 33 33 0 0 1-7.83-1.66c-1.84-.57-2.85-1-2.85-1zm68.82-20c1.26-1.06 4.37-2.88 7-4.72 0 0 8-4.54 9.47-13.25s-4.6-15.78-4.6-15.78c-1.84-2.54-4.09-5.19-4.92-6.58-1.43-2.39-12.43-44.06-66.13-51.31s-77.45 27-81.56 31.53-17.29 3-19 12.7c-1.36 7.71 11.37 11.89 13.78 17.5s13.67 45.8 66.76 56.62 77.1-24.94 79.23-26.72m-225.34 68.39l3.61-1.64 4.41-2.65a44.43 44.43 0 0 0 4.93-3.55 48.35 48.35 0 0 0 5.1-4.48 62.27 62.27 0 0 0 5-5.31c1.66-1.84 3-4 4.58-5.94a98.32 98.32 0 0 0 7.47-12.75 102.41 102.41 0 0 0 5-11.92 76.41 76.41 0 0 0 2.44-8.8c.26-1.09.3-1.9.41-2.47s0-.91 0-.91l.32-.06.17.89a17.61 17.61 0 0 1 0 2.72 55.14 55.14 0 0 1-1.47 9.25 77.39 77.39 0 0 1-4.26 12.54 99.22 99.22 0 0 1-7.36 13.38c-1.66 2-3.15 4.17-4.93 6a65.06 65.06 0 0 1-5.3 5.38 34.47 34.47 0 0 1-5.57 4.34 47.09 47.09 0 0 1-5.38 3.28 38.82 38.82 0 0 1-8.69 3.47c-2.16.63-3.39.92-3.39.92l-.11-.3 3.16-1.41m-110.41 3c6 3.9 42.81 35.72 101.47 11.77s59-74.33 59.92-77.45c.55-1.85 2.4-5.64 3.74-9.12 0 0 4.87-9.62.68-19.05s-14.65-12.38-14.65-12.38c-3.42-1.28-7.33-2.4-9-3.21-2.93-1.39-40.49-34.82-97.43-7s-58 76.59-59.09 83.65-14.91 14.14-10.32 24.7c3.64 8.38 18.73 4.2 24.69 8.09m-372.5-84.02l-1.88 1.68-3.76 3.34-4.2 2.7c-.7.44-1.37.92-2.09 1.32l-2.21 1c-1.48.66-2.9 1.41-4.36 2a69.61 69.61 0 0 1-8.67 2.55 64.39 64.39 0 0 1-8 1.36 76.63 76.63 0 0 1-12.1.38 43.56 43.56 0 0 1-4.58-.38v-.21a42.64 42.64 0 0 0 4.58.07 94 94 0 0 0 11.94-1.11 63.14 63.14 0 0 0 7.77-1.65c2.76-.59 5.46-1.82 8.37-2.74 1.41-.57 2.77-1.31 4.18-2l2.12-1c.68-.39 1.32-.86 2-1.29l4-2.65 3.56-3.25 1.83-1.58c.54-.59 1-1.23 1.54-1.84l3.05-3.69c1.8-2.61 3.2-5.44 4.78-8 1-2.87 2.17-5.6 3.23-8.22.89-2.67 1.33-5.33 2-7.73q.44-1.82.84-3.47c.23-1.11.3-2.19.45-3.19.26-2 .49-3.78.67-5.23.37-2.91.59-4.58.59-4.58h.21s-.1 1.68-.28 4.6c-.09 1.47-.2 3.25-.32 5.29-.08 1-.09 2.11-.24 3.25l-.69 3.55c-.54 2.46-.89 5.18-1.68 7.95l-3.06 8.55c-1.58 2.72-3 5.68-4.83 8.42l-3.13 3.89c-.53.65-1 1.32-1.59 1.95m22.2-55.75c-.75-4.6 6.37-11.82 1.38-17.43-4-4.46-12.46 1.23-17 0s-33.79-13.38-65.3 13.46-21.49 58.16-21.43 60.28c0 1.26-.34 4-.47 6.42 0 0-1.07 7 3.44 12s11.59 4.68 11.59 4.68c2.38.09 5 0 6.25.14 2.1.27 32.17 13.31 61.83-15.59s20.41-59.35 19.65-64m-758.56 47.48a26.83 26.83 0 0 0 3.34-4.06 26.19 26.19 0 0 0 1.85-3 28.57 28.57 0 0 0 1.74-3.51 48 48 0 0 0 2.68-8.09 66.41 66.41 0 0 0 1.66-15.88 58.62 58.62 0 0 0-.51-7.26h.14a44.45 44.45 0 0 1 1.19 7.26 53.2 53.2 0 0 1 .08 7.57 62.12 62.12 0 0 1-1.21 8.64 49 49 0 0 1-2.93 8.26 21.43 21.43 0 0 1-2 3.54 26.73 26.73 0 0 1-2.07 3 22.56 22.56 0 0 1-3.76 3.82l-1.53 1.31-.09-.1 1.37-1.45m-95.35 5.88c.29 4.88-7.92 11.63-3.33 18 3.65 5.07 13.13.07 17.68 1.81s33.8 17.64 69.56-6.93 28.69-58.31 28.86-60.53c.1-1.32.79-4.12 1.18-6.64 0 0 1.87-7.14-2.3-12.84s-11.59-6.14-11.59-6.14c-2.47-.36-5.25-.54-6.5-.83-2.16-.5-32.12-17.38-66.17 9.52s-27.69 59.68-27.4 64.56m246.64 45.26l3.93-.47 5-1.19a44.9 44.9 0 0 0 5.77-1.89 48.67 48.67 0 0 0 6.21-2.72 62.43 62.43 0 0 0 6.32-3.56c2.13-1.25 4.08-2.86 6.15-4.28a97.61 97.61 0 0 0 11-9.89 101.85 101.85 0 0 0 8.32-9.86 76 76 0 0 0 5-7.65c.58-1 .86-1.72 1.14-2.23l.25-.87h.32s0 .31-.1.9a17.61 17.61 0 0 1-.85 2.58 54.82 54.82 0 0 1-4.19 8.37 76.91 76.91 0 0 1-7.83 10.67 99.21 99.21 0 0 1-11 10.52c-2.19 1.42-4.26 3-6.51 4.27a65.31 65.31 0 0 1-6.68 3.52 34.31 34.31 0 0 1-6.61 2.45 46.44 46.44 0 0 1-6.12 1.5 38.48 38.48 0 0 1-9.33.67c-2.25 0-3.51-.15-3.51-.15v-.33l3.43-.39m-106.15-30.64c4.51 5.53 30.07 47 93.2 42s78.59-53 80.41-55.68c1.08-1.6 4-4.65 6.31-7.55 0 0 7.54-7.7 6.38-18s-10.24-16.24-10.24-16.24c-2.88-2.26-6.26-4.51-7.64-5.79-2.37-2.22-28.13-45.47-90.78-36.22s-78.32 55.44-81.49 61.84-18.46 9-17.26 20.42c1 9.1 16.59 9.67 21.11 15.2m1034.45-16.55a73 73 0 0 1-1.42 10.14 57.93 57.93 0 0 1-3.43 9.69 25.72 25.72 0 0 1-2.29 4.15 31.77 31.77 0 0 1-2.43 3.46 26.37 26.37 0 0 1-4.41 4.49l-1.8 1.54-.11-.12 1.62-1.7a31.44 31.44 0 0 0 3.91-4.76 31 31 0 0 0 2.18-3.5 33.89 33.89 0 0 0 2-4.12 56.54 56.54 0 0 0 3.14-9.5 77.87 77.87 0 0 0 1.94-18.64 68.83 68.83 0 0 0-.6-8.51h.16a51.81 51.81 0 0 1 1.4 8.52 62.74 62.74 0 0 1 .09 8.89m6.16-17.34c.12-1.54.92-4.84 1.39-7.79 0 0 2.19-8.38-2.7-15.07s-13.59-7.2-13.59-7.2c-2.9-.42-6.16-.63-7.63-1-2.54-.59-37.68-20.39-77.64 11.17s-32.49 70-32.15 75.75-9.29 13.64-3.9 21.15c4.28 6 15.4.08 20.75 2.12s39.66 20.7 81.62-8.13 33.66-68.42 33.86-71m-655.03 65.5a43 43 0 0 1-6.94 5.91 23.62 23.62 0 0 1-8.48 3.67 14 14 0 0 1-4.63.27 14.41 14.41 0 0 1-4.4-1l.05-.27a19.15 19.15 0 0 0 4.27.16 18.33 18.33 0 0 0 4.2-.8 27.45 27.45 0 0 0 7.55-4 52.41 52.41 0 0 0 11.68-12.6l.07-.1h.11c5.57-.4 10.2-4.49 13.07-9.13l.24.14a18 18 0 0 1-4.74 7.36 17.65 17.65 0 0 1-3.78 2.68 11.16 11.16 0 0 1-3.44 1.16 57 57 0 0 1-4.83 6.55m8.26-1.4c1.07-.78 3.68-2.07 5.87-3.41 0 0 6.7-3.2 8.36-10.13s-2.82-13-2.82-13c-1.34-2.15-3-4.41-3.59-5.57-1-2-7.55-36.16-50.36-45s-63.83 17.4-67.39 20.8-14.08 1.44-16 9.15c-1.52 6.13 8.48 10.21 10.11 14.86s8.45 37.63 50.58 49.32 63.43-15.74 65.25-17.05m1306.66-13.88a31.93 31.93 0 0 0 3.92-4.76 30.31 30.31 0 0 0 2.17-3.5 33.63 33.63 0 0 0 2-4.12 56.3 56.3 0 0 0 3.14-9.5 77.84 77.84 0 0 0 1.94-18.63 68 68 0 0 0-.6-8.51h.16a52.07 52.07 0 0 1 1.4 8.52 63.21 63.21 0 0 1 .09 8.89 73.07 73.07 0 0 1-1.42 10.14 58 58 0 0 1-3.43 9.69 25.39 25.39 0 0 1-2.29 4.15 31.77 31.77 0 0 1-2.43 3.46 26.33 26.33 0 0 1-4.41 4.49l-1.79 1.54-.11-.12 1.61-1.7m-13.42 22c42-28.83 33.66-68.42 33.86-71 .12-1.54.92-4.84 1.39-7.79 0 0 2.19-8.38-2.7-15.07s-13.59-7.21-13.59-7.21c-2.9-.42-6.16-.63-7.63-1-2.54-.59-37.68-20.39-77.64 11.18s-32.49 70-32.15 75.75-9.29 13.64-3.9 21.15c4.29 6 15.4.09 20.75 2.12s39.66 20.69 81.62-8.13m484.18-62.39a20.68 20.68 0 0 1-3.35 4.23 13.05 13.05 0 0 1-3.46 2.43 65.81 65.81 0 0 1-3.26 8.89 50.53 50.53 0 0 1-5.82 8.89 27.6 27.6 0 0 1-8.28 6.88 16.32 16.32 0 0 1-5.08 1.82 16.94 16.94 0 0 1-5.24.33v-.33a22 22 0 0 0 4.82-1.22 21.24 21.24 0 0 0 4.42-2.27 32 32 0 0 0 7.12-7 61.06 61.06 0 0 0 9-17.87v-.13h.12c6.09-2.27 9.92-8.36 11.61-14.48l.31.07a21 21 0 0 1-2.89 9.77m2.8-22c-2.19-2-4.79-3.94-5.82-5-1.79-1.9-20.21-37.88-70.89-33.7s-65.59 40.38-68.46 45.34-15.25 6.23-14.88 15.47c.3 7.34 12.8 8.6 16.13 13.27s21.69 39.23 72.53 38.45 65.69-38.4 67.29-40.47c.94-1.22 3.42-3.52 5.44-5.73 0 0 6.43-5.78 6-14.06s-7.37-13.54-7.37-13.54m-2468.15 50.63h7.45l5.1-.65a44.47 44.47 0 0 0 5.94-1.26 48.57 48.57 0 0 0 6.46-2 62.82 62.82 0 0 0 6.66-2.86c2.25-1 4.36-2.4 6.57-3.59a97.62 97.62 0 0 0 12-8.65 102.09 102.09 0 0 0 9.32-8.91 75.87 75.87 0 0 0 5.76-7.07c.68-.89 1-1.62 1.37-2.1l.34-.84.31.08-.2.88a18.2 18.2 0 0 1-1.11 2.48 55.33 55.33 0 0 1-5.06 7.87 77 77 0 0 1-8.92 9.76 99.31 99.31 0 0 1-12.09 9.27c-2.33 1.18-4.56 2.55-6.93 3.54a65.17 65.17 0 0 1-7 2.78 34.43 34.43 0 0 1-6.84 1.73 46.22 46.22 0 0 1-6.24.83 38.76 38.76 0 0 1-9.35-.33c-2.23-.29-3.47-.53-3.47-.53zm-98.82-41.89c3.9 6 24.88 50 88.18 51.76s83.8-44.23 85.89-46.71c1.24-1.47 4.45-4.2 7.08-6.83 0 0 8.32-6.84 8.26-17.17s-8.45-17.25-8.45-17.25c-2.62-2.55-5.75-5.16-7-6.58-2.12-2.46-23.11-48.23-86.39-45.77s-83.78 46.7-87.62 52.72-19.31 6.93-19.35 18.45c0 9.15 15.46 11.4 19.36 17.38m-35.23 69.66a32.69 32.69 0 0 0 1.64-3 70.06 70.06 0 0 0 3.42-8.39 47 47 0 0 0 1.61-5.78c.57-2.06.69-4.3 1.08-6.56.11-1.14.09-2.31.14-3.49l.05-1.78c0-.59-.12-1.18-.18-1.78-.13-1.19-.25-2.39-.39-3.59l-.93-3.52-.42-1.77c-.21-.57-.47-1.12-.7-1.68l-1.41-3.33c-1.12-2.11-2.53-4-3.72-6-1.56-1.7-3-3.41-4.39-5s-3.11-2.75-4.5-4l-2-1.77c-.66-.54-1.36-1-2-1.41l-3.27-2.27-2.87-2 .07-.14 3 1.79 3.43 2.06c.66.41 1.39.79 2.1 1.29l2.13 1.7c1.46 1.22 3.16 2.4 4.74 3.9l4.66 5c1.27 2 2.76 4 4 6.17l1.52 3.45c.25.58.52 1.15.75 1.74l.47 1.84.92 3.69.35 3.75c0 .62.13 1.24.15 1.85l-.08 1.84c-.07 1.22-.07 2.43-.2 3.61a52.32 52.32 0 0 1-1.31 6.7 48.64 48.64 0 0 1-1.87 5.82 57.79 57.79 0 0 1-4 8.24 33.06 33.06 0 0 1-1.85 2.93zm-20 13.67c.86.42 2.55 1.62 4.14 2.55 0 0 4.29 3.14 9.21 1.86s7.18-6.13 7.18-6.13c.89-1.56 1.75-3.37 2.27-4.14.91-1.31 20.13-16.92 11.1-46.86s-32.65-34.35-36-35.46-5.7-8.38-11.2-7c-4.37 1.1-3.51 8.78-5.88 11.37s-20.75 18-13.74 48.45 31.52 34.66 32.92 35.36" class="4c656344-f7b2-4e94-bb09-54d0f5cbdaf2"/>
  </g>
</svg>
