<svg xmlns="http://www.w3.org/2000/svg" id="845c5f24-3faa-42ae-a820-54447bb24ab3" data-name="ARTWORK" viewBox="0 0 192.57 111.18">
  <defs>
    <style>
      .\36 d1c6410-b23b-49ff-94b7-6ee82f12c745{fill:#e31837;}.b4ff6d0b-3034-4a9c-937c-8f9d1e9acb36{fill:#fd0;}.\33 0a585ce-b9ff-48b2-86dc-34f3cf551b92{fill:#49a942;}.\35 fc4185c-ca76-4dba-ac87-09e9b70c1c7f{fill:#008752;}.e9f1cc34-e915-465c-902e-080403845353{fill:#fff;}
    </style>
  </defs>
  <path d="M191.87 5.47V2.42l-14.52 3.69.24 22.17-9.28 2.36.06-22.24-14.71 3.73v1.39h-.62a54.49 54.49 0 0 0-10.3 1.18c-7.81 1.47-15.22 6.67-19.84 13.92a34.44 34.44 0 0 0-4.22 9.77 23.11 23.11 0 0 0-3.59-6.09 18 18 0 0 0-8-5.76 16.41 16.41 0 0 0-5.49-1 15 15 0 0 0-3.66.46c-4.79 1.22-9.18 4.28-13.06 9.12a37.58 37.58 0 0 0-7 14.11 23 23 0 0 0-3.85-6.82 18 18 0 0 0-7.94-5.76 16.32 16.32 0 0 0-5.49-1 14.78 14.78 0 0 0-3.65.46c-4.79 1.22-9.18 4.28-13.08 9.12a36.48 36.48 0 0 0-5.58 9.81l-.17-12.94-14.53 3.69.24 22.17-9.28 2.36.06-22.24L.04 51.85l.78 59.38 14.65-3.72-.55-25.92 9.25-2.35.37 26 14.47-3.68-.2-15.29a29.49 29.49 0 0 0 1.87 3.19 17.79 17.79 0 0 0 7.36 6.3 13.72 13.72 0 0 0 5.63 1.15 19.3 19.3 0 0 0 4.7-.62 23.12 23.12 0 0 0 11.82-6.76c3.57-4 6.28-9.73 8.07-16.91a28.17 28.17 0 0 0 3.38 6.64A17.7 17.7 0 0 0 89 85.65a13.66 13.66 0 0 0 5.63 1.16 19.16 19.16 0 0 0 4.7-.63 23.14 23.14 0 0 0 11.82-6.76c3.64-4.12 6.4-10 8.2-17.39v-.19c2.62 9 8.57 13.79 17.31 13.79a32.75 32.75 0 0 0 7.54-1 31.4 31.4 0 0 0 3.2-1 12.36 12.36 0 0 0 6.9-5.67v3.47l14.74-3.65-.54-25.93 9.24-2.35c.07 5.94.23 18.83.33 22.93a158 158 0 0 0 2.31 16.55c2.54 14.13 3.16 14.13 5.22 14.13h.32l.29-.07c1.63-.42 2.24-.58 4.41-14.91 1-6.36 2-14.49 1.94-18.24-.06-6.77-.69-54.42-.69-54.42zM63.04 68.42c-.23 5.73-1.23 10.31-3 13.62a4.22 4.22 0 0 1-2.83 2.27 2.19 2.19 0 0 1-.54.07 2.12 2.12 0 0 1-1.4-.59 7.74 7.74 0 0 1-2-4 52.58 52.58 0 0 1-1.26-10.74 59.22 59.22 0 0 1 .43-10.68 25.51 25.51 0 0 1 1.55-6.07 9.43 9.43 0 0 1 1.79-2.93 4.69 4.69 0 0 1 2.21-1.14 1.62 1.62 0 0 1 .39-.05 2 2 0 0 1 1.3.59c.46.38 1.34 1.47 2.11 4.46a53.82 53.82 0 0 1 1.25 15.19zm41-10.11c-.23 5.73-1.24 10.31-3 13.62a4.21 4.21 0 0 1-2.83 2.27 2.2 2.2 0 0 1-.54.07 2.12 2.12 0 0 1-1.4-.59 7.76 7.76 0 0 1-2-4 51.63 51.63 0 0 1-1.25-10.73 58.6 58.6 0 0 1 .42-10.67 25.57 25.57 0 0 1 1.55-6.07 9.49 9.49 0 0 1 1.8-2.94A4.61 4.61 0 0 1 99 38.14a1.55 1.55 0 0 1 .39-.06 2 2 0 0 1 1.31.6c.46.38 1.35 1.48 2.1 4.45a53.72 53.72 0 0 1 1.24 15.17zm47.89-2.64a11 11 0 0 1-7.13 5.82 12.52 12.52 0 0 1-3.08.38c-.41 0-.82 0-1.24-.06-3.93-.34-7-7-6.95-15.1 0-6.18.44-13.14 4.88-17.6a11.38 11.38 0 0 1 5-3.2 6.31 6.31 0 0 1 1.53-.2 6.75 6.75 0 0 1 4.57 2l3.06 3 1.23-5.32.34 26.05z" class="6d1c6410-b23b-49ff-94b7-6ee82f12c745"/>
  <path d="M145.34 63.85a15.16 15.16 0 0 1-5.12.39c-5.34-.46-9.19-7.82-9.15-17.51 0-6.65.49-14.17 5.58-19.29a13.7 13.7 0 0 1 6.15-3.83 8.79 8.79 0 0 1 8.36 2.41l2.33-10.06a51.07 51.07 0 0 0-10.31 1.14c-13.13 2.47-28.35 17.46-21.77 43.25 3.07 12 11.47 14.58 22.27 12a29.72 29.72 0 0 0 3-.9c7.52-2.63 7.67-11 7.36-14.64a13.32 13.32 0 0 1-8.7 7.04zM26.12 47.65l.24 22.17-14.13 3.59.07-22.24-9.87 2.5.72 54.43 9.84-2.5-.55-25.92 14.06-3.57.37 25.96 9.68-2.46-.7-54.43-9.73 2.47zm46.13-3.73a15.52 15.52 0 0 0-6.88-5 13 13 0 0 0-7.74-.47q-6.45 1.64-11.79 8.29a36 36 0 0 0-7.13 15.94 39.77 39.77 0 0 0 .28 17.43 25 25 0 0 0 3.66 7.91 15.36 15.36 0 0 0 6.39 5.54 13.18 13.18 0 0 0 8.76.4 20.67 20.67 0 0 0 10.61-6q5.1-5.75 7.66-16.36a40.86 40.86 0 0 0 .21-19.9 20.08 20.08 0 0 0-4.03-7.78zm-6.83 24.6q-.36 9.21-3.27 14.65a6.62 6.62 0 0 1-4.36 3.48 4.38 4.38 0 0 1-4.06-1 9.75 9.75 0 0 1-2.83-5.27 55 55 0 0 1-1.34-11.25 61.13 61.13 0 0 1 .46-11.11 27.63 27.63 0 0 1 1.73-6.67 11.91 11.91 0 0 1 2.29-3.68 7 7 0 0 1 3.32-1.77 4.16 4.16 0 0 1 3.84 1q1.83 1.53 2.89 5.71a55.8 55.8 0 0 1 1.34 15.9z" class="b4ff6d0b-3034-4a9c-937c-8f9d1e9acb36"/>
  <path d="M113.23 33.85a15.55 15.55 0 0 0-6.89-5 13 13 0 0 0-7.75-.46q-6.43 1.63-11.78 8.29a35.88 35.88 0 0 0-7.14 15.94 39.63 39.63 0 0 0 .28 17.43 24.86 24.86 0 0 0 3.66 7.91 15.28 15.28 0 0 0 6.36 5.55 13.11 13.11 0 0 0 8.76.4 20.68 20.68 0 0 0 10.61-6q5.1-5.76 7.67-16.36a41 41 0 0 0 .2-19.9 20 20 0 0 0-3.98-7.8zm-6.83 24.59q-.37 9.2-3.27 14.65a6.61 6.61 0 0 1-4.36 3.48 4.4 4.4 0 0 1-4.07-1 9.81 9.81 0 0 1-2.82-5.28 53.91 53.91 0 0 1-1.33-11.25 60.79 60.79 0 0 1 .49-11.19 28 28 0 0 1 1.72-6.67 11.89 11.89 0 0 1 2.28-3.64 7 7 0 0 1 3.31-1.77 4.15 4.15 0 0 1 3.84 1q1.85 1.56 2.85 5.74a55.87 55.87 0 0 1 1.35 15.89zM189.46 5.5l-9.73 2.47.24 22.17-14.12 3.59.06-22.25-9.87 2.51.71 54.43 9.84-2.5-.55-25.92 14.06-3.57s.23 20.55.37 26 4.25 28.57 5.14 28.34 4.61-24 4.54-30.79-.69-54.48-.69-54.48z" class="b4ff6d0b-3034-4a9c-937c-8f9d1e9acb36"/>
  <path d="M25.65 8.1s-1.03 17.25 16.39 18.5 39.35-14.5 55.57-13.34c4.46.32 9.73 3.55 9.73 3.55S101.93 1.34 84.49.09 45.97 11.47 36.84 10.85 25.65 8.1 25.65 8.1z" class="30a585ce-b9ff-48b2-86dc-34f3cf551b92"/>
  <path d="M107.13 16.68a2.89 2.89 0 0 0-.43-.76c-3-3.78-9-8.08-19.13-8.81-17.85-1.26-36.34 12.27-46.48 11.55-11.3-.81-14.75-8.7-15.4-10.52S24.62 25.35 42.04 26.6s39.35-14.5 55.57-13.34c3.94.28 8.48 2.81 9.52 3.42z" class="5fc4185c-ca76-4dba-ac87-09e9b70c1c7f"/>
  <path d="M11.48 52.36h-.01.01zm2.7 21.48h.01-.01zm137.63-57.21zm36.63-10.01c0 .11 0 .06 0 0zm-20.78 27.45h.01-.01zm20.79-27.45c.01-.22 0-.09 0 0zm-3.04 81.23c-.12.62.11-.49 0 0zM4.09 106.92v-.26l.3-51.57 7.08-2.73-8.08 2.05.7 52.51zm22.94-58.51l.24 22.11-13.08 3.32 14.08-2.63-.24-22.12 6.98-2.71-7.98 2.03zm.73 52.49v-.25l.65-23.16-.99.25.34 23.16zM64.3 50.12a19.54 19.54 0 0 1 .67 2.21 56.45 56.45 0 0 1 1.36 16.1c-.24 6.22-1.38 11.26-3.37 15a7.48 7.48 0 0 1-4.91 3.91 5.25 5.25 0 0 1-1.34.17 5.74 5.74 0 0 1-.7-.07 4.26 4.26 0 0 0 3.49.58 6.59 6.59 0 0 0 4.35-3.46q2.9-5.45 3.26-14.62a55.59 55.59 0 0 0-1.33-15.84 15.7 15.7 0 0 0-1.48-3.98zm1.84-10.03c-.34-.15-.68-.29-1-.42a12.92 12.92 0 0 0-4.38-.8 11.38 11.38 0 0 0-2.84.36c-4.07 1-7.87 3.71-11.29 8a35.16 35.16 0 0 0-6.94 15.51 39 39 0 0 0 .27 17 22.49 22.49 0 0 0 1.82 4.71 23 23 0 0 1-1-3 39.56 39.56 0 0 1-.28-17.4 35.83 35.83 0 0 1 7.11-15.9q5.34-6.64 11.76-8.28a12.77 12.77 0 0 1 6.77.22zm39.3.12a21.37 21.37 0 0 1 .68 2.22 57 57 0 0 1 1.36 16.1c-.24 6.21-1.37 11.26-3.36 15a7.49 7.49 0 0 1-4.92 3.91 5.34 5.34 0 0 1-1.34.17 5 5 0 0 1-.69-.06 4.24 4.24 0 0 0 3.48.59 6.63 6.63 0 0 0 4.39-3.49q2.89-5.45 3.26-14.62a55.84 55.84 0 0 0-1.33-15.85 16 16 0 0 0-1.53-3.97zm1.83-10.02c-.33-.15-.67-.29-1-.42a13.08 13.08 0 0 0-4.38-.79 11.37 11.37 0 0 0-2.84.36c-4.07 1-7.87 3.72-11.3 8a35.17 35.17 0 0 0-6.95 15.51 38.93 38.93 0 0 0 .27 17 22.34 22.34 0 0 0 1.82 4.71 23.79 23.79 0 0 1-1-3 39.67 39.67 0 0 1-.28-17.4 35.9 35.9 0 0 1 7.11-15.9c3.57-4.42 7.48-7.18 11.77-8.27a12.63 12.63 0 0 1 6.78.2zm37.83 35a15.89 15.89 0 0 1-3.88.47c-.44 0-.89 0-1.34-.06a6.16 6.16 0 0 0 1.68.41 14.85 14.85 0 0 0 5.12-.39 13 13 0 0 0 5.83-3.23 19.57 19.57 0 0 0 .22-2.2 13.87 13.87 0 0 1-7.63 5zm7.16-48.55a37.79 37.79 0 0 0-8.78 1.11 31.33 31.33 0 0 0-16.44 10.4c-6.79 7.86-7.5 27.4-3.1 36.82a11.4 11.4 0 0 0 1.2 2c-.05-.12-.13-.23-.19-.36-4.51-9.64-3.75-29.69 3.23-37.76a32.2 32.2 0 0 1 16.86-10.67 38.53 38.53 0 0 1 7.22-1.54z" class="e9f1cc34-e915-465c-902e-080403845353"/>
  <path d="M180.47 8.64l.25 22.12-13.05 3.31 14.09-2.57-.24-22.12 6.93-2.76v-.01l-7.98 2.03zm1.43 29.13l-1 .27c.06 5 .24 19.77.35 24.2.12 4.63 2.79 19.89 4.2 25.61a208.71 208.71 0 0 1-3.15-24.18c-.17-5.4-.4-25.9-.4-25.9zm-24.37 29.39v-.27l.35-51.51 7.03-1.79.02-1-8.09 2.05.69 52.52z" class="e9f1cc34-e915-465c-902e-080403845353"/>
</svg>
