<svg xmlns="http://www.w3.org/2000/svg" viewBox="0 0 250.38 258.46">
  <defs>
    <style>
      .afebe8e1-4114-426f-90b5-19e6662065ae{fill:none;}.\32 b6a5cc9-7faa-4cf6-abda-063676aa297d{fill:black;}.ca4430e5-6d56-4010-9807-ca698a302761{fill:none;stroke:black;stroke-width:7px;}.b87afe10-f60e-44fa-bcb1-95a79f7647e4{fill:black;}
    </style>
  </defs>
  <g id="1d9005bc-cf98-4864-81ae-eb06d89b52fe" data-name="Layer 2">
    <g id="bc497b5f-6283-4fab-b39f-ed88c1429e71" data-name="Layer 1">
      <path d="M3.97 3.31h243.37v251.66H3.97z" class="afebe8e1-4114-426f-90b5-19e6662065ae"/>
      <path d="M15.54 15.53h14.39v42.94h9.54v10.29H15.54zm27.37 0H57.3v53.23H42.91zm32.46 0l3.28 42.95h.16l3.68-42.95h13.44l-7.58 53.23H67.94L61 15.53zm24.47 0h24.32v10.73h-9.93V36h9.31v10.32h-9.31V58h10.71v10.76h-25.1zm43.88 10.73h-8.52V15.53h31.44v10.73h-8.54v42.5h-14.38zm26.35-10.73h14.39v19.31h5.47V15.53h14.39v53.23h-14.39V46.47h-5.47v22.29h-14.39zm39.26 0h24.32v10.73h-9.93V36H233v10.32h-9.31V58h10.71v10.76h-25.1zM15.49 74.79H32.6v23h6.51v-23h17.11v63.3H39.11v-26.51H32.6v26.51H15.49zm44.82 18.26c0-10 3.16-19.59 20.36-19.59S101 83 101 93.05v26.77c0 10-3.16 19.59-20.36 19.59s-20.36-9.57-20.36-19.59zm17.11 31.56c0 2.22.65 4.17 3.26 4.17s3.25-1.95 3.25-4.17V88.26c0-2.22-.65-4.17-3.25-4.17s-3.26 1.91-3.26 4.17zm27.71-31.56c0-10 3.16-19.59 20.36-19.59s20.36 9.54 20.36 19.59v26.77c0 10-3.16 19.59-20.36 19.59s-20.36-9.57-20.36-19.59zm17.11 31.56c0 2.22.65 4.17 3.25 4.17s3.25-1.95 3.25-4.17V88.26c0-2.22-.65-4.17-3.25-4.17s-3.25 1.95-3.25 4.17zm27.7-31.56c0-10 4.18-19.59 20.74-19.59 12.55 0 19.15 6.65 19.15 17.82v9h-17.11V88.44c0-2.13 0-4.34-3.07-4.34-2 0-2.6 1.95-2.6 4.17v36.35c0 2.22.65 4.17 2.6 4.17 3.07 0 3.07-2.39 3.07-5.14v-12.87h17.11v10.46c0 11.17-7.34 18.17-19.53 18.17-17.2 0-20.36-9.57-20.36-19.59zM193 74.79h17.1v23h6.51v-23h17.11v63.3h-17.11v-26.51h-6.51v26.51H193z" class="2b6a5cc9-7faa-4cf6-abda-063676aa297d"/>
      <path d="M3.5 3.5h243.38v251.46H3.5z" class="ca4430e5-6d56-4010-9807-ca698a302761"/>
      <path d="M42.11 220.32h31.51v21.22H15.84v-96.38h26.27zm63.68 21.21H79.52v-96.37h26.28zm32.71-75.15v16.1h28.82v21.22H138.5v37.83h-26.28v-96.37h58.05v21.22zm64.62 0v16.1h29.63v21.22h-29.63v16.62h31.24v21.22h-57.52v-96.38h57.51v21.22z" class="b87afe10-f60e-44fa-bcb1-95a79f7647e4"/>
    </g>
  </g>
</svg>
