<svg xmlns="http://www.w3.org/2000/svg" viewBox="0 0 192.57 111.18">
  <defs>
    <style>
      .\31 93a0130-dfa1-4bfe-a3d1-434c22715fca{fill:#e31837;}.a188a1e1-f6f2-4cbc-9531-244e66859799{fill:#fd0;}.ca6fbc73-1559-4455-8819-75ef2dff5d04{fill:#49a942;}.\32 9a6b8bf-c640-4ca8-ba60-a5a65a2b34f4{fill:#008752;}.\36 43ddd50-440f-434a-a206-74eddce62051{fill:#fff;}
    </style>
  </defs>
  <g id="69761957-3891-49bd-adf2-28c4ab36af71" data-name="Layer 2">
    <g id="e99705d0-f08a-4c67-9e1c-26fc1ad0962c" data-name="ARTWORK">
      <path d="M191.88 5.47V2.42L177.31 6.1l.24 22.17-9.28 2.36.06-22.24-14.71 3.73v1.39H153a54.49 54.49 0 0 0-10.3 1.18c-7.81 1.47-15.22 6.67-19.84 13.92a34.44 34.44 0 0 0-4.22 9.77 23.11 23.11 0 0 0-3.59-6.09 18 18 0 0 0-8-5.76 16.41 16.41 0 0 0-5.49-1A15 15 0 0 0 98 26c-4.79 1.22-9.18 4.28-13.06 9.12a37.58 37.58 0 0 0-7 14.11 23 23 0 0 0-3.85-6.82 18 18 0 0 0-7.94-5.76 16.32 16.32 0 0 0-5.49-1 14.78 14.78 0 0 0-3.66.45c-4.79 1.22-9.18 4.28-13.08 9.12A36.48 36.48 0 0 0 38.39 55l-.17-12.9-14.53 3.69.24 22.21-9.28 2.36.06-22.24L0 51.8l.78 59.38 14.65-3.72-.55-25.92 9.25-2.35.37 26 14.5-3.72-.2-15.29a29.49 29.49 0 0 0 1.87 3.19A17.79 17.79 0 0 0 48 95.76a13.72 13.72 0 0 0 5.63 1.15 19.3 19.3 0 0 0 4.7-.62 23.12 23.12 0 0 0 11.82-6.76c3.57-4 6.28-9.73 8.07-16.91a28.17 28.17 0 0 0 3.38 6.64 17.7 17.7 0 0 0 7.4 6.38 13.66 13.66 0 0 0 5.63 1.16 19.16 19.16 0 0 0 4.7-.63 23.14 23.14 0 0 0 11.82-6.76c3.64-4.12 6.4-10 8.2-17.39v-.19c2.62 9 8.57 13.79 17.31 13.79a32.75 32.75 0 0 0 7.54-1 31.4 31.4 0 0 0 3.2-1 12.36 12.36 0 0 0 6.9-5.67v3.47l14.65-3.72-.55-25.91 9.24-2.35c.07 5.94.23 18.83.33 22.93A158 158 0 0 0 180.39 79c2.54 14.13 3.16 14.13 5.22 14.13h.32l.29-.07c1.63-.42 2.24-.58 4.41-14.91 1-6.36 2-14.49 1.94-18.24-.07-6.79-.69-54.44-.69-54.44zM63 68.41c-.2 5.73-1.21 10.31-3 13.59a4.22 4.22 0 0 1-2.8 2.3 2.19 2.19 0 0 1-.54.07 2.12 2.12 0 0 1-1.4-.59 7.74 7.74 0 0 1-2-4A52.58 52.58 0 0 1 52 69a59.22 59.22 0 0 1 .43-10.68A25.51 25.51 0 0 1 54 52.29a9.43 9.43 0 0 1 1.79-2.93A4.69 4.69 0 0 1 58 48.22a1.62 1.62 0 0 1 .39-.05 2 2 0 0 1 1.3.59c.46.38 1.34 1.47 2.11 4.46A53.82 53.82 0 0 1 63 68.41zm41-10.11c-.23 5.73-1.24 10.31-3 13.62a4.21 4.21 0 0 1-2.83 2.27 2.2 2.2 0 0 1-.54.07 2.12 2.12 0 0 1-1.4-.58 7.76 7.76 0 0 1-2-4A51.63 51.63 0 0 1 93 58.93a58.6 58.6 0 0 1 .42-10.67 25.57 25.57 0 0 1 1.55-6.07 9.49 9.49 0 0 1 1.8-2.94 4.61 4.61 0 0 1 2.21-1.13 1.55 1.55 0 0 1 .39-.06 2 2 0 0 1 1.31.6c.46.38 1.35 1.48 2.1 4.45A53.72 53.72 0 0 1 104 58.3zm47.89-2.64a11 11 0 0 1-7.13 5.82 12.52 12.52 0 0 1-3.08.38c-.41 0-.82 0-1.24-.06-3.93-.34-7-7-6.95-15.1 0-6.18.44-13.14 4.88-17.6a11.38 11.38 0 0 1 5-3.2 6.31 6.31 0 0 1 1.53-.2 6.75 6.75 0 0 1 4.57 2l3.06 3 1.23-5.32.34 26.05z" class="193a0130-dfa1-4bfe-a3d1-434c22715fca"/>
      <path d="M145.35 63.81a15.16 15.16 0 0 1-5.12.39c-5.34-.46-9.19-7.82-9.15-17.51 0-6.65.49-14.17 5.58-19.29a13.7 13.7 0 0 1 6.15-3.83 8.79 8.79 0 0 1 8.36 2.43l2.33-10.06a51.07 51.07 0 0 0-10.31 1.14c-13.13 2.47-28.35 17.46-21.77 43.25 3.07 12 11.47 14.58 22.27 12a29.72 29.72 0 0 0 3-.9c7.52-2.63 7.67-11 7.36-14.64a13.32 13.32 0 0 1-8.7 7.02zM26.12 47.65l.24 22.17-14.13 3.59.07-22.24-9.87 2.5.72 54.43 9.84-2.5-.55-25.92 14.06-3.57.37 25.96 9.68-2.46-.7-54.43-9.73 2.47zm46.14-3.74a15.52 15.52 0 0 0-6.88-5 13 13 0 0 0-7.74-.47q-6.45 1.64-11.79 8.29a36 36 0 0 0-7.13 15.94A39.77 39.77 0 0 0 39 80.1a25 25 0 0 0 3.65 7.9A15.36 15.36 0 0 0 49 93.56a13.18 13.18 0 0 0 8.76.4 20.67 20.67 0 0 0 10.61-6q5.1-5.75 7.66-16.36a40.86 40.86 0 0 0 .21-19.9 20.08 20.08 0 0 0-3.98-7.79zm-6.83 24.6q-.36 9.21-3.27 14.65a6.62 6.62 0 0 1-4.36 3.48 4.38 4.38 0 0 1-4.06-1 9.75 9.75 0 0 1-2.83-5.27 55 55 0 0 1-1.34-11.25A61.13 61.13 0 0 1 50 58a27.63 27.63 0 0 1 1.73-6.67A11.91 11.91 0 0 1 54 47.66a7 7 0 0 1 3.32-1.77 4.16 4.16 0 0 1 3.84 1q1.84 1.55 2.94 5.74a55.8 55.8 0 0 1 1.33 15.88z" class="a188a1e1-f6f2-4cbc-9531-244e66859799"/>
      <path d="M113.23 33.8a15.55 15.55 0 0 0-6.89-5 13 13 0 0 0-7.75-.46Q92.17 30 86.82 36.62a35.88 35.88 0 0 0-7.14 15.94A39.63 39.63 0 0 0 80 70a24.86 24.86 0 0 0 3.66 7.91A15.28 15.28 0 0 0 90 83.45a13.11 13.11 0 0 0 8.76.4 20.68 20.68 0 0 0 10.61-6q5.1-5.76 7.67-16.36a41 41 0 0 0 .2-19.9 20 20 0 0 0-4.01-7.79zm-6.83 24.59Q106 67.6 103.13 73a6.61 6.61 0 0 1-4.36 3.48 4.4 4.4 0 0 1-4.07-1 9.81 9.81 0 0 1-2.82-5.28A53.91 53.91 0 0 1 90.55 59 60.79 60.79 0 0 1 91 47.89a28 28 0 0 1 1.72-6.67A11.89 11.89 0 0 1 95 37.54a7 7 0 0 1 3.31-1.77 4.15 4.15 0 0 1 3.84 1q1.83 1.52 2.89 5.71a55.87 55.87 0 0 1 1.36 15.91zM189.47 5.5L179.74 8l.26 22.14-14.12 3.59.06-22.25-9.89 2.52.71 54.43 9.84-2.5-.55-25.93 14.06-3.57s.23 20.55.37 26 4.25 28.57 5.14 28.34 4.61-24 4.54-30.79-.69-54.48-.69-54.48z" class="a188a1e1-f6f2-4cbc-9531-244e66859799"/>
      <path d="M25.65 8.1s-1 17.25 16.41 18.5S81.4 12.09 97.62 13.25c4.46.32 9.73 3.55 9.73 3.55S101.94 1.34 84.51.09 46 11.46 36.85 10.81 25.65 8.1 25.65 8.1z" class="ca6fbc73-1559-4455-8819-75ef2dff5d04"/>
      <path d="M107.14 16.68a2.89 2.89 0 0 0-.43-.76c-3-3.78-9-8.08-19.13-8.81C69.73 5.83 51.23 19.38 41.1 18.65 29.8 17.84 26.35 10 25.7 8.14s-1 17.25 16.41 18.5S81.4 12.09 97.62 13.25c3.93.29 8.48 2.82 9.52 3.43z" class="29a6b8bf-c640-4ca8-ba60-a5a65a2b34f4"/>
      <path d="M11.48 52.36h-.01.01zm2.7 21.48h.01-.01zm137.63-57.21zm36.64-10.01c0 .11 0 .06 0 0zm-20.79 27.45h.01-.01zm20.79-27.45c.01-.22 0-.1 0 0zm-3.04 81.22c-.12.62.11-.49 0 0zM4.09 106.92v-.26l.3-51.57 7.08-2.73-8.08 2.05.7 52.51zm22.94-58.51l.24 22.11-13.08 3.32 14.08-2.63-.24-22.12 6.98-2.71-7.98 2.03zm.73 52.49v-.25l.65-23.16-.99.25.34 23.16zM64.3 50.11a19.54 19.54 0 0 1 .7 2.21 56.45 56.45 0 0 1 1.36 16.1c-.24 6.22-1.38 11.26-3.37 15a7.48 7.48 0 0 1-4.91 3.91 5.25 5.25 0 0 1-1.34.17 5.74 5.74 0 0 1-.7-.07 4.26 4.26 0 0 0 3.49.58 6.59 6.59 0 0 0 4.35-3.46q2.9-5.45 3.26-14.62a55.59 55.59 0 0 0-1.33-15.84 15.7 15.7 0 0 0-1.51-3.98zm1.84-10.02c-.34-.15-.68-.29-1-.42a12.92 12.92 0 0 0-4.38-.8 11.38 11.38 0 0 0-2.84.36c-4.07 1-7.87 3.71-11.29 8a35.16 35.16 0 0 0-6.94 15.51 39 39 0 0 0 .27 17 22.49 22.49 0 0 0 1.82 4.71 23 23 0 0 1-1-3 39.56 39.56 0 0 1-.28-17.4 35.83 35.83 0 0 1 7.11-15.9q5.34-6.64 11.76-8.28a12.77 12.77 0 0 1 6.77.22zm39.3.12a21.37 21.37 0 0 1 .68 2.22 57 57 0 0 1 1.36 16.1c-.24 6.21-1.37 11.26-3.36 15a7.49 7.49 0 0 1-4.92 3.91 5.34 5.34 0 0 1-1.34.17 5 5 0 0 1-.69-.06 4.24 4.24 0 0 0 3.48.58 6.63 6.63 0 0 0 4.35-3.48q2.89-5.45 3.26-14.62A55.84 55.84 0 0 0 107 44.18a16 16 0 0 0-1.56-3.97zm1.84-10.02c-.33-.15-.67-.29-1-.42a13.08 13.08 0 0 0-4.38-.79 11.37 11.37 0 0 0-2.84.36c-4.07 1-7.87 3.72-11.3 8a35.17 35.17 0 0 0-6.94 15.52 38.93 38.93 0 0 0 .27 17 22.34 22.34 0 0 0 1.82 4.71 23.79 23.79 0 0 1-1-3 39.67 39.67 0 0 1-.28-17.4 35.9 35.9 0 0 1 7.11-15.9c3.57-4.42 7.48-7.18 11.77-8.27a12.63 12.63 0 0 1 6.77.19zm37.82 35a15.89 15.89 0 0 1-3.88.47c-.44 0-.89 0-1.34-.06a6.16 6.16 0 0 0 1.68.41 14.85 14.85 0 0 0 5.12-.39 13 13 0 0 0 5.83-3.23 19.57 19.57 0 0 0 .22-2.2 13.87 13.87 0 0 1-7.63 5zm7.16-48.55a37.79 37.79 0 0 0-8.78 1.11A31.33 31.33 0 0 0 127 28.14c-6.79 7.86-7.5 27.4-3.1 36.82a11.4 11.4 0 0 0 1.2 2c-.05-.12-.13-.23-.19-.36-4.51-9.64-3.75-29.69 3.23-37.76a32.2 32.2 0 0 1 16.88-10.67 38.53 38.53 0 0 1 7.24-1.53zm28.21-8l.25 22.12-13.05 3.31 14.09-2.57-.24-22.12 6.93-2.76v-.01l-7.98 2.03z" class="643ddd50-440f-434a-a206-74eddce62051"/>
      <path d="M181.9 37.76l-1 .27c.06 5 .24 19.77.35 24.2.12 4.63 2.79 19.89 4.2 25.61a208.71 208.71 0 0 1-3.15-24.18c-.17-5.39-.4-25.9-.4-25.9zm-24.37 29.4v-.27l.35-51.51 7.03-1.79.02-1-8.09 2.05.69 52.52z" class="643ddd50-440f-434a-a206-74eddce62051"/>
    </g>
  </g>
</svg>
